%TF.GenerationSoftware,KiCad,Pcbnew,5.1.9-73d0e3b20d~88~ubuntu18.04.1*%
%TF.CreationDate,2021-01-21T10:29:52+00:00*%
%TF.ProjectId,Object_Detect_Board,4f626a65-6374-45f4-9465-746563745f42,V1.0*%
%TF.SameCoordinates,Original*%
%TF.FileFunction,Legend,Top*%
%TF.FilePolarity,Positive*%
%FSLAX46Y46*%
G04 Gerber Fmt 4.6, Leading zero omitted, Abs format (unit mm)*
G04 Created by KiCad (PCBNEW 5.1.9-73d0e3b20d~88~ubuntu18.04.1) date 2021-01-21 10:29:52*
%MOMM*%
%LPD*%
G01*
G04 APERTURE LIST*
%ADD10C,0.150000*%
%ADD11C,0.100000*%
%ADD12C,0.120000*%
%ADD13C,0.010000*%
%ADD14C,0.127000*%
%ADD15C,0.200000*%
G04 APERTURE END LIST*
D10*
X156554761Y-105811904D02*
X156554761Y-106383333D01*
X156516666Y-106497619D01*
X156440476Y-106573809D01*
X156326190Y-106611904D01*
X156250000Y-106611904D01*
X157316666Y-106611904D02*
X156935714Y-106611904D01*
X156935714Y-105811904D01*
X158040476Y-106535714D02*
X158002380Y-106573809D01*
X157888095Y-106611904D01*
X157811904Y-106611904D01*
X157697619Y-106573809D01*
X157621428Y-106497619D01*
X157583333Y-106421428D01*
X157545238Y-106269047D01*
X157545238Y-106154761D01*
X157583333Y-106002380D01*
X157621428Y-105926190D01*
X157697619Y-105850000D01*
X157811904Y-105811904D01*
X157888095Y-105811904D01*
X158002380Y-105850000D01*
X158040476Y-105888095D01*
X158611904Y-105811904D02*
X158611904Y-106383333D01*
X158573809Y-106497619D01*
X158497619Y-106573809D01*
X158383333Y-106611904D01*
X158307142Y-106611904D01*
X159373809Y-106611904D02*
X158992857Y-106611904D01*
X158992857Y-105811904D01*
X160097619Y-106535714D02*
X160059523Y-106573809D01*
X159945238Y-106611904D01*
X159869047Y-106611904D01*
X159754761Y-106573809D01*
X159678571Y-106497619D01*
X159640476Y-106421428D01*
X159602380Y-106269047D01*
X159602380Y-106154761D01*
X159640476Y-106002380D01*
X159678571Y-105926190D01*
X159754761Y-105850000D01*
X159869047Y-105811904D01*
X159945238Y-105811904D01*
X160059523Y-105850000D01*
X160097619Y-105888095D01*
X160669047Y-105811904D02*
X160669047Y-106383333D01*
X160630952Y-106497619D01*
X160554761Y-106573809D01*
X160440476Y-106611904D01*
X160364285Y-106611904D01*
X161430952Y-106611904D02*
X161050000Y-106611904D01*
X161050000Y-105811904D01*
X162154761Y-106535714D02*
X162116666Y-106573809D01*
X162002380Y-106611904D01*
X161926190Y-106611904D01*
X161811904Y-106573809D01*
X161735714Y-106497619D01*
X161697619Y-106421428D01*
X161659523Y-106269047D01*
X161659523Y-106154761D01*
X161697619Y-106002380D01*
X161735714Y-105926190D01*
X161811904Y-105850000D01*
X161926190Y-105811904D01*
X162002380Y-105811904D01*
X162116666Y-105850000D01*
X162154761Y-105888095D01*
X162726190Y-105811904D02*
X162726190Y-106383333D01*
X162688095Y-106497619D01*
X162611904Y-106573809D01*
X162497619Y-106611904D01*
X162421428Y-106611904D01*
X163488095Y-106611904D02*
X163107142Y-106611904D01*
X163107142Y-105811904D01*
X164211904Y-106535714D02*
X164173809Y-106573809D01*
X164059523Y-106611904D01*
X163983333Y-106611904D01*
X163869047Y-106573809D01*
X163792857Y-106497619D01*
X163754761Y-106421428D01*
X163716666Y-106269047D01*
X163716666Y-106154761D01*
X163754761Y-106002380D01*
X163792857Y-105926190D01*
X163869047Y-105850000D01*
X163983333Y-105811904D01*
X164059523Y-105811904D01*
X164173809Y-105850000D01*
X164211904Y-105888095D01*
D11*
X128695238Y-93557142D02*
X129304761Y-93557142D01*
X129000000Y-93861904D02*
X129000000Y-93252380D01*
X141945238Y-113307142D02*
X142554761Y-113307142D01*
X142250000Y-113611904D02*
X142250000Y-113002380D01*
X135695238Y-113307142D02*
X136304761Y-113307142D01*
X136000000Y-113611904D02*
X136000000Y-113002380D01*
D12*
X138750000Y-94250000D02*
G75*
G03*
X138750000Y-94250000I-250000J0D01*
G01*
X167250000Y-93500000D02*
G75*
G03*
X167250000Y-93500000I-250000J0D01*
G01*
X155500000Y-86000000D02*
G75*
G03*
X155500000Y-86000000I-250000J0D01*
G01*
X124000000Y-97000000D02*
G75*
G03*
X124000000Y-97000000I-250000J0D01*
G01*
X152500000Y-102500000D02*
G75*
G03*
X152500000Y-102500000I-250000J0D01*
G01*
X153750000Y-101500000D02*
G75*
G03*
X153750000Y-101500000I-250000J0D01*
G01*
X175750000Y-101250000D02*
G75*
G03*
X175750000Y-101250000I-250000J0D01*
G01*
X174250000Y-106500000D02*
X175750000Y-106500000D01*
X174250000Y-103000000D02*
X174250000Y-106500000D01*
X175750000Y-103000000D02*
X174250000Y-103000000D01*
X175750000Y-103250000D02*
X175750000Y-103000000D01*
X175750000Y-106500000D02*
X175750000Y-103250000D01*
X177750000Y-108750000D02*
X177750000Y-109000000D01*
X179500000Y-108750000D02*
X177750000Y-108750000D01*
X179500000Y-109000000D02*
X179500000Y-108750000D01*
X177750000Y-109000000D02*
X177750000Y-113750000D01*
X179500000Y-113750000D02*
X179500000Y-109000000D01*
X177750000Y-113750000D02*
X179500000Y-113750000D01*
X143750000Y-111000000D02*
X138250000Y-111000000D01*
X143750000Y-112750000D02*
X143750000Y-111000000D01*
X138250000Y-112750000D02*
X143750000Y-112750000D01*
X138250000Y-111000000D02*
X138250000Y-112750000D01*
X131750000Y-111000000D02*
X131750000Y-112750000D01*
X137750000Y-111000000D02*
X131750000Y-111000000D01*
X137750000Y-112750000D02*
X137750000Y-111000000D01*
X131750000Y-112750000D02*
X137750000Y-112750000D01*
D10*
X132179776Y-112404761D02*
X132316681Y-112452380D01*
X132554776Y-112452380D01*
X132655967Y-112404761D01*
X132709538Y-112357142D01*
X132769062Y-112261904D01*
X132780967Y-112166666D01*
X132745252Y-112071428D01*
X132703586Y-112023809D01*
X132614300Y-111976190D01*
X132429776Y-111928571D01*
X132340491Y-111880952D01*
X132298824Y-111833333D01*
X132263110Y-111738095D01*
X132275014Y-111642857D01*
X132334538Y-111547619D01*
X132388110Y-111500000D01*
X132489300Y-111452380D01*
X132727395Y-111452380D01*
X132864300Y-111500000D01*
X133155967Y-111452380D02*
X133727395Y-111452380D01*
X133316681Y-112452380D02*
X133441681Y-111452380D01*
X133923824Y-112166666D02*
X134400014Y-112166666D01*
X133792872Y-112452380D02*
X134251205Y-111452380D01*
X134459538Y-112452380D01*
X134775014Y-111452380D02*
X135346443Y-111452380D01*
X134935729Y-112452380D02*
X135060729Y-111452380D01*
X135679776Y-111452380D02*
X135578586Y-112261904D01*
X135614300Y-112357142D01*
X135655967Y-112404761D01*
X135745252Y-112452380D01*
X135935729Y-112452380D01*
X136036919Y-112404761D01*
X136090491Y-112357142D01*
X136150014Y-112261904D01*
X136251205Y-111452380D01*
X136560729Y-112404761D02*
X136697633Y-112452380D01*
X136935729Y-112452380D01*
X137036919Y-112404761D01*
X137090491Y-112357142D01*
X137150014Y-112261904D01*
X137161919Y-112166666D01*
X137126205Y-112071428D01*
X137084538Y-112023809D01*
X136995252Y-111976190D01*
X136810729Y-111928571D01*
X136721443Y-111880952D01*
X136679776Y-111833333D01*
X136644062Y-111738095D01*
X136655967Y-111642857D01*
X136715491Y-111547619D01*
X136769062Y-111500000D01*
X136870252Y-111452380D01*
X137108348Y-111452380D01*
X137245252Y-111500000D01*
X138590491Y-112452380D02*
X138715491Y-111452380D01*
X139096443Y-111452380D01*
X139185729Y-111500000D01*
X139227395Y-111547619D01*
X139263110Y-111642857D01*
X139245252Y-111785714D01*
X139185729Y-111880952D01*
X139132157Y-111928571D01*
X139030967Y-111976190D01*
X138650014Y-111976190D01*
X139905967Y-111452380D02*
X140096443Y-111452380D01*
X140185729Y-111500000D01*
X140269062Y-111595238D01*
X140292872Y-111785714D01*
X140251205Y-112119047D01*
X140179776Y-112309523D01*
X140072633Y-112404761D01*
X139971443Y-112452380D01*
X139780967Y-112452380D01*
X139691681Y-112404761D01*
X139608348Y-112309523D01*
X139584538Y-112119047D01*
X139626205Y-111785714D01*
X139697633Y-111595238D01*
X139804776Y-111500000D01*
X139905967Y-111452380D01*
X140667872Y-111452380D02*
X140780967Y-112452380D01*
X141060729Y-111738095D01*
X141161919Y-112452380D01*
X141525014Y-111452380D01*
X141846443Y-111928571D02*
X142179776Y-111928571D01*
X142257157Y-112452380D02*
X141780967Y-112452380D01*
X141905967Y-111452380D01*
X142382157Y-111452380D01*
X143257157Y-112452380D02*
X142983348Y-111976190D01*
X142685729Y-112452380D02*
X142810729Y-111452380D01*
X143191681Y-111452380D01*
X143280967Y-111500000D01*
X143322633Y-111547619D01*
X143358348Y-111642857D01*
X143340491Y-111785714D01*
X143280967Y-111880952D01*
X143227395Y-111928571D01*
X143126205Y-111976190D01*
X142745252Y-111976190D01*
D12*
X144250000Y-111750000D02*
X145500000Y-111750000D01*
X144250000Y-113500000D02*
X144250000Y-111750000D01*
X145500000Y-113500000D02*
X144250000Y-113500000D01*
X145500000Y-113500000D02*
X155500000Y-113500000D01*
X155500000Y-111750000D02*
X145500000Y-111750000D01*
X155500000Y-113500000D02*
X155500000Y-111750000D01*
X178500000Y-99750000D02*
X178500000Y-97000000D01*
X176500000Y-99750000D02*
X178500000Y-99750000D01*
X176500000Y-97000000D02*
X176500000Y-99750000D01*
X178500000Y-97000000D02*
X178500000Y-92500000D01*
X176500000Y-92500000D02*
X176500000Y-97000000D01*
X178500000Y-92500000D02*
X176500000Y-92500000D01*
X176750000Y-89750000D02*
X177000000Y-89750000D01*
X176750000Y-85250000D02*
X176750000Y-89750000D01*
X178750000Y-89750000D02*
X178750000Y-85250000D01*
X178750000Y-85250000D02*
X176750000Y-85250000D01*
X178750000Y-89750000D02*
X177000000Y-89750000D01*
X171000000Y-85500000D02*
X173500000Y-85500000D01*
X171000000Y-83500000D02*
X173500000Y-83500000D01*
X171000000Y-83750000D02*
X171000000Y-83500000D01*
X173500000Y-85500000D02*
X173500000Y-83500000D01*
X171000000Y-85500000D02*
X171000000Y-83750000D01*
X163750000Y-83500000D02*
X163500000Y-83500000D01*
X163750000Y-85500000D02*
X163750000Y-83500000D01*
X162750000Y-87000000D02*
X163000000Y-87000000D01*
X163500000Y-83500000D02*
X163250000Y-83500000D01*
X163000000Y-87000000D02*
X163250000Y-87000000D01*
X155250000Y-83500000D02*
X155250000Y-83750000D01*
X163250000Y-83500000D02*
X155250000Y-83500000D01*
X155250000Y-85500000D02*
X155250000Y-83750000D01*
X163250000Y-85500000D02*
X155250000Y-85500000D01*
X151750000Y-92500000D02*
X151750000Y-88500000D01*
X142000000Y-92500000D02*
X151750000Y-92500000D01*
X142000000Y-88500000D02*
X142000000Y-92500000D01*
X151750000Y-88500000D02*
X142000000Y-88500000D01*
X139000000Y-88500000D02*
X138750000Y-88500000D01*
X139000000Y-92500000D02*
X139000000Y-88500000D01*
X138750000Y-92500000D02*
X139000000Y-92500000D01*
X138750000Y-88500000D02*
X130500000Y-88500000D01*
X138500000Y-92500000D02*
X138750000Y-92500000D01*
X130500000Y-92500000D02*
X138500000Y-92500000D01*
X130500000Y-88500000D02*
X130500000Y-92500000D01*
X128250000Y-88500000D02*
X128000000Y-88500000D01*
X128250000Y-92500000D02*
X128250000Y-88500000D01*
X128000000Y-92500000D02*
X128250000Y-92500000D01*
X128000000Y-88500000D02*
X122750000Y-88500000D01*
X122750000Y-92500000D02*
X128000000Y-92500000D01*
X122750000Y-88500000D02*
X122750000Y-92500000D01*
%TO.C,C26*%
X134010000Y-107250000D02*
X134010000Y-103040000D01*
X134010000Y-103040000D02*
X130990000Y-103040000D01*
X130990000Y-103040000D02*
X130990000Y-107250000D01*
%TO.C,C24*%
X130510000Y-107250000D02*
X130510000Y-103040000D01*
X130510000Y-103040000D02*
X127490000Y-103040000D01*
X127490000Y-103040000D02*
X127490000Y-107250000D01*
%TO.C,C25*%
X127010000Y-105359420D02*
X127010000Y-105640580D01*
X125990000Y-105359420D02*
X125990000Y-105640580D01*
%TO.C,C23*%
X125485000Y-105238748D02*
X125485000Y-105761252D01*
X124015000Y-105238748D02*
X124015000Y-105761252D01*
%TO.C,Q2*%
X169830000Y-97990000D02*
X168900000Y-97990000D01*
X166670000Y-97990000D02*
X167600000Y-97990000D01*
X166670000Y-97990000D02*
X166670000Y-100150000D01*
X169830000Y-97990000D02*
X169830000Y-99450000D01*
D13*
%TO.C,G\u002A\u002A\u002A*%
G36*
X177613368Y-116130947D02*
G01*
X164886632Y-116130947D01*
X164886632Y-114788395D01*
X165501236Y-114788395D01*
X165503412Y-114995818D01*
X165513191Y-115159836D01*
X165535616Y-115285455D01*
X165575731Y-115377682D01*
X165638576Y-115441521D01*
X165729197Y-115481979D01*
X165852636Y-115504062D01*
X166013935Y-115512775D01*
X166218137Y-115513123D01*
X166470286Y-115510114D01*
X166486253Y-115509944D01*
X167190190Y-115502631D01*
X167281674Y-115402761D01*
X167329492Y-115346892D01*
X167356891Y-115298009D01*
X167369521Y-115237979D01*
X167373035Y-115148671D01*
X167373158Y-115109284D01*
X167373158Y-114915678D01*
X167567000Y-114720610D01*
X167760842Y-114525543D01*
X167769571Y-114182595D01*
X167770790Y-113999113D01*
X167762421Y-113860119D01*
X167762070Y-113858316D01*
X168389158Y-113858316D01*
X168389158Y-115195158D01*
X168710000Y-115195158D01*
X168710000Y-113858316D01*
X168950632Y-113858316D01*
X168950632Y-115198088D01*
X169077632Y-115189938D01*
X169204632Y-115181789D01*
X169231368Y-114368711D01*
X169389281Y-114641566D01*
X169461287Y-114766483D01*
X169532266Y-114890476D01*
X169592830Y-114997103D01*
X169625943Y-115056092D01*
X169704691Y-115197764D01*
X169728285Y-115196395D01*
X174751589Y-115196395D01*
X175226637Y-115189092D01*
X175701684Y-115181789D01*
X175717982Y-114927789D01*
X175073368Y-114927789D01*
X175073368Y-114633684D01*
X175581368Y-114633684D01*
X175581368Y-114513792D01*
X175799793Y-114513792D01*
X175814176Y-114682374D01*
X175860582Y-114841774D01*
X175938605Y-114982200D01*
X176047841Y-115093862D01*
X176119896Y-115138869D01*
X176252368Y-115182901D01*
X176401149Y-115195731D01*
X176547936Y-115178367D01*
X176674427Y-115131817D01*
X176714034Y-115106175D01*
X176819056Y-115010455D01*
X176881796Y-114910741D01*
X176909562Y-114810302D01*
X176925207Y-114713895D01*
X176779608Y-114713895D01*
X176694611Y-114716037D01*
X176645485Y-114728260D01*
X176614646Y-114759256D01*
X176589095Y-114808081D01*
X176523128Y-114899964D01*
X176440404Y-114945154D01*
X176349719Y-114941816D01*
X176259867Y-114888112D01*
X176250225Y-114878865D01*
X176193277Y-114789899D01*
X176159626Y-114670323D01*
X176148678Y-114534737D01*
X176159842Y-114397741D01*
X176192523Y-114273937D01*
X176246130Y-114177925D01*
X176280006Y-114145338D01*
X176366416Y-114109074D01*
X176452586Y-114118194D01*
X176527278Y-114165748D01*
X176579257Y-114244789D01*
X176597368Y-114341593D01*
X176604235Y-114380500D01*
X176635265Y-114389981D01*
X176680921Y-114383026D01*
X176769050Y-114370562D01*
X176841342Y-114366316D01*
X176897048Y-114358421D01*
X176916745Y-114325123D01*
X176918210Y-114298408D01*
X176894502Y-114184775D01*
X176831357Y-114070563D01*
X176740746Y-113969917D01*
X176634640Y-113896981D01*
X176555237Y-113869540D01*
X176404542Y-113857890D01*
X176252530Y-113874569D01*
X176119772Y-113916439D01*
X176070559Y-113943475D01*
X175952814Y-114050870D01*
X175868708Y-114188249D01*
X175817835Y-114345820D01*
X175799793Y-114513792D01*
X175581368Y-114513792D01*
X175581368Y-114393053D01*
X175073368Y-114393053D01*
X175073368Y-114125684D01*
X175717982Y-114125684D01*
X175701684Y-113871684D01*
X174765895Y-113871684D01*
X174758742Y-114534040D01*
X174751589Y-115196395D01*
X169728285Y-115196395D01*
X169728337Y-115196392D01*
X170234000Y-115196392D01*
X170708579Y-115189090D01*
X171183158Y-115181789D01*
X171199456Y-114927789D01*
X170554842Y-114927789D01*
X170554842Y-114841521D01*
X171276737Y-114841521D01*
X171289143Y-114871254D01*
X171320726Y-114930458D01*
X171342860Y-114969080D01*
X171421048Y-115071955D01*
X171519432Y-115140777D01*
X171646689Y-115179197D01*
X171811493Y-115190869D01*
X171867083Y-115189788D01*
X171983863Y-115183895D01*
X172063386Y-115173253D01*
X172121865Y-115153687D01*
X172175514Y-115121025D01*
X172197446Y-115104739D01*
X172302141Y-114994780D01*
X172358437Y-114863226D01*
X172365303Y-114718056D01*
X172334731Y-114604837D01*
X172287505Y-114540105D01*
X172467975Y-114540105D01*
X172486967Y-114739922D01*
X172542226Y-114902776D01*
X172635640Y-115032664D01*
X172740233Y-115116236D01*
X172816714Y-115159810D01*
X172886695Y-115183773D01*
X172972216Y-115193656D01*
X173054737Y-115195158D01*
X173165267Y-115191853D01*
X173244346Y-115178358D01*
X173313778Y-115149298D01*
X173365587Y-115118553D01*
X173479205Y-115020607D01*
X173556987Y-114890283D01*
X173590310Y-114787421D01*
X173597675Y-114734739D01*
X173575861Y-114715667D01*
X173545583Y-114713600D01*
X173476035Y-114708976D01*
X173390700Y-114698094D01*
X173382263Y-114696734D01*
X173316552Y-114689430D01*
X173288023Y-114700593D01*
X173282000Y-114733527D01*
X173260007Y-114806267D01*
X173205453Y-114878297D01*
X173135472Y-114929170D01*
X173110489Y-114938197D01*
X173010421Y-114938038D01*
X172922198Y-114891534D01*
X172868859Y-114823318D01*
X172844001Y-114741410D01*
X172830402Y-114626065D01*
X172828147Y-114496138D01*
X172837320Y-114370487D01*
X172858004Y-114267966D01*
X172866286Y-114244971D01*
X172923989Y-114160957D01*
X173001089Y-114117168D01*
X173085112Y-114111152D01*
X173163586Y-114140458D01*
X173224039Y-114202635D01*
X173253996Y-114295232D01*
X173255263Y-114321416D01*
X173255263Y-114398303D01*
X173422368Y-114379303D01*
X173510421Y-114368309D01*
X173574065Y-114358512D01*
X173597915Y-114352640D01*
X173599410Y-114320185D01*
X173583058Y-114256216D01*
X173554673Y-114177169D01*
X173530574Y-114123059D01*
X173626756Y-114123059D01*
X173795273Y-114131056D01*
X173963789Y-114139053D01*
X173971039Y-114667105D01*
X173978288Y-115195158D01*
X174270133Y-115195158D01*
X174277382Y-114667105D01*
X174284632Y-114139053D01*
X174453148Y-114131056D01*
X174621665Y-114123059D01*
X174613569Y-113997372D01*
X174605474Y-113871684D01*
X173642947Y-113871684D01*
X173634852Y-113997372D01*
X173626756Y-114123059D01*
X173530574Y-114123059D01*
X173520073Y-114099484D01*
X173489267Y-114045544D01*
X173402519Y-113950462D01*
X173291827Y-113890617D01*
X173148061Y-113862085D01*
X173053704Y-113858316D01*
X172881556Y-113875299D01*
X172744380Y-113929318D01*
X172634631Y-114024979D01*
X172544765Y-114166884D01*
X172543321Y-114169812D01*
X172502258Y-114262023D01*
X172479112Y-114343717D01*
X172469293Y-114437447D01*
X172467975Y-114540105D01*
X172287505Y-114540105D01*
X172267930Y-114513274D01*
X172159837Y-114439035D01*
X172005389Y-114377789D01*
X171947983Y-114360949D01*
X171811052Y-114317545D01*
X171723717Y-114275045D01*
X171682243Y-114230479D01*
X171682892Y-114180876D01*
X171694018Y-114159105D01*
X171746142Y-114120092D01*
X171825900Y-114102968D01*
X171911772Y-114108556D01*
X171982241Y-114137682D01*
X171993824Y-114147613D01*
X172036236Y-114197070D01*
X172055643Y-114229877D01*
X172079600Y-114243849D01*
X172139290Y-114234026D01*
X172192638Y-114217348D01*
X172268097Y-114188766D01*
X172319621Y-114163891D01*
X172331570Y-114154479D01*
X172326664Y-114116946D01*
X172290342Y-114059761D01*
X172233536Y-113995924D01*
X172167175Y-113938438D01*
X172128675Y-113913162D01*
X172044758Y-113878194D01*
X171940781Y-113861332D01*
X171847521Y-113858316D01*
X171670366Y-113875693D01*
X171533513Y-113928042D01*
X171436535Y-114015688D01*
X171379003Y-114138958D01*
X171363606Y-114226212D01*
X171367100Y-114362590D01*
X171410530Y-114468045D01*
X171498749Y-114550879D01*
X171579266Y-114595074D01*
X171689081Y-114638931D01*
X171808620Y-114676483D01*
X171858346Y-114688530D01*
X171969170Y-114724212D01*
X172029835Y-114774321D01*
X172039589Y-114838029D01*
X172025984Y-114873165D01*
X171974307Y-114921649D01*
X171895562Y-114944400D01*
X171804352Y-114943898D01*
X171715277Y-114922621D01*
X171642939Y-114883047D01*
X171601941Y-114827658D01*
X171597579Y-114800431D01*
X171579421Y-114773261D01*
X171537421Y-114776013D01*
X171470006Y-114790627D01*
X171385755Y-114807024D01*
X171377000Y-114808624D01*
X171312782Y-114823701D01*
X171278502Y-114838451D01*
X171276737Y-114841521D01*
X170554842Y-114841521D01*
X170554842Y-114633684D01*
X171062842Y-114633684D01*
X171062842Y-114393053D01*
X170554842Y-114393053D01*
X170554842Y-114125684D01*
X171199456Y-114125684D01*
X171183158Y-113871684D01*
X170234000Y-113857082D01*
X170234000Y-115196392D01*
X169728337Y-115196392D01*
X169842345Y-115189777D01*
X169980000Y-115181789D01*
X169980000Y-113871684D01*
X169727528Y-113855448D01*
X169712632Y-114583238D01*
X169293312Y-113858316D01*
X168950632Y-113858316D01*
X168710000Y-113858316D01*
X168389158Y-113858316D01*
X167762070Y-113858316D01*
X167742349Y-113757152D01*
X167708460Y-113681753D01*
X167658639Y-113625461D01*
X167623883Y-113599711D01*
X167600238Y-113586497D01*
X167570096Y-113575890D01*
X167527744Y-113567607D01*
X167467468Y-113561365D01*
X167383557Y-113556879D01*
X167270296Y-113553868D01*
X167121975Y-113552048D01*
X166932878Y-113551137D01*
X166697295Y-113550849D01*
X166637895Y-113550842D01*
X166391175Y-113551028D01*
X166192215Y-113551777D01*
X166035303Y-113553370D01*
X165914725Y-113556091D01*
X165824769Y-113560223D01*
X165759722Y-113566050D01*
X165713871Y-113573854D01*
X165681503Y-113583918D01*
X165656905Y-113596527D01*
X165651907Y-113599711D01*
X165609569Y-113630908D01*
X165575974Y-113666987D01*
X165550121Y-113714154D01*
X165531012Y-113778611D01*
X165517647Y-113866562D01*
X165509026Y-113984210D01*
X165504150Y-114137761D01*
X165502020Y-114333417D01*
X165501620Y-114532562D01*
X165501236Y-114788395D01*
X164886632Y-114788395D01*
X164886632Y-112869053D01*
X177613368Y-112869053D01*
X177613368Y-116130947D01*
G37*
X177613368Y-116130947D02*
X164886632Y-116130947D01*
X164886632Y-114788395D01*
X165501236Y-114788395D01*
X165503412Y-114995818D01*
X165513191Y-115159836D01*
X165535616Y-115285455D01*
X165575731Y-115377682D01*
X165638576Y-115441521D01*
X165729197Y-115481979D01*
X165852636Y-115504062D01*
X166013935Y-115512775D01*
X166218137Y-115513123D01*
X166470286Y-115510114D01*
X166486253Y-115509944D01*
X167190190Y-115502631D01*
X167281674Y-115402761D01*
X167329492Y-115346892D01*
X167356891Y-115298009D01*
X167369521Y-115237979D01*
X167373035Y-115148671D01*
X167373158Y-115109284D01*
X167373158Y-114915678D01*
X167567000Y-114720610D01*
X167760842Y-114525543D01*
X167769571Y-114182595D01*
X167770790Y-113999113D01*
X167762421Y-113860119D01*
X167762070Y-113858316D01*
X168389158Y-113858316D01*
X168389158Y-115195158D01*
X168710000Y-115195158D01*
X168710000Y-113858316D01*
X168950632Y-113858316D01*
X168950632Y-115198088D01*
X169077632Y-115189938D01*
X169204632Y-115181789D01*
X169231368Y-114368711D01*
X169389281Y-114641566D01*
X169461287Y-114766483D01*
X169532266Y-114890476D01*
X169592830Y-114997103D01*
X169625943Y-115056092D01*
X169704691Y-115197764D01*
X169728285Y-115196395D01*
X174751589Y-115196395D01*
X175226637Y-115189092D01*
X175701684Y-115181789D01*
X175717982Y-114927789D01*
X175073368Y-114927789D01*
X175073368Y-114633684D01*
X175581368Y-114633684D01*
X175581368Y-114513792D01*
X175799793Y-114513792D01*
X175814176Y-114682374D01*
X175860582Y-114841774D01*
X175938605Y-114982200D01*
X176047841Y-115093862D01*
X176119896Y-115138869D01*
X176252368Y-115182901D01*
X176401149Y-115195731D01*
X176547936Y-115178367D01*
X176674427Y-115131817D01*
X176714034Y-115106175D01*
X176819056Y-115010455D01*
X176881796Y-114910741D01*
X176909562Y-114810302D01*
X176925207Y-114713895D01*
X176779608Y-114713895D01*
X176694611Y-114716037D01*
X176645485Y-114728260D01*
X176614646Y-114759256D01*
X176589095Y-114808081D01*
X176523128Y-114899964D01*
X176440404Y-114945154D01*
X176349719Y-114941816D01*
X176259867Y-114888112D01*
X176250225Y-114878865D01*
X176193277Y-114789899D01*
X176159626Y-114670323D01*
X176148678Y-114534737D01*
X176159842Y-114397741D01*
X176192523Y-114273937D01*
X176246130Y-114177925D01*
X176280006Y-114145338D01*
X176366416Y-114109074D01*
X176452586Y-114118194D01*
X176527278Y-114165748D01*
X176579257Y-114244789D01*
X176597368Y-114341593D01*
X176604235Y-114380500D01*
X176635265Y-114389981D01*
X176680921Y-114383026D01*
X176769050Y-114370562D01*
X176841342Y-114366316D01*
X176897048Y-114358421D01*
X176916745Y-114325123D01*
X176918210Y-114298408D01*
X176894502Y-114184775D01*
X176831357Y-114070563D01*
X176740746Y-113969917D01*
X176634640Y-113896981D01*
X176555237Y-113869540D01*
X176404542Y-113857890D01*
X176252530Y-113874569D01*
X176119772Y-113916439D01*
X176070559Y-113943475D01*
X175952814Y-114050870D01*
X175868708Y-114188249D01*
X175817835Y-114345820D01*
X175799793Y-114513792D01*
X175581368Y-114513792D01*
X175581368Y-114393053D01*
X175073368Y-114393053D01*
X175073368Y-114125684D01*
X175717982Y-114125684D01*
X175701684Y-113871684D01*
X174765895Y-113871684D01*
X174758742Y-114534040D01*
X174751589Y-115196395D01*
X169728285Y-115196395D01*
X169728337Y-115196392D01*
X170234000Y-115196392D01*
X170708579Y-115189090D01*
X171183158Y-115181789D01*
X171199456Y-114927789D01*
X170554842Y-114927789D01*
X170554842Y-114841521D01*
X171276737Y-114841521D01*
X171289143Y-114871254D01*
X171320726Y-114930458D01*
X171342860Y-114969080D01*
X171421048Y-115071955D01*
X171519432Y-115140777D01*
X171646689Y-115179197D01*
X171811493Y-115190869D01*
X171867083Y-115189788D01*
X171983863Y-115183895D01*
X172063386Y-115173253D01*
X172121865Y-115153687D01*
X172175514Y-115121025D01*
X172197446Y-115104739D01*
X172302141Y-114994780D01*
X172358437Y-114863226D01*
X172365303Y-114718056D01*
X172334731Y-114604837D01*
X172287505Y-114540105D01*
X172467975Y-114540105D01*
X172486967Y-114739922D01*
X172542226Y-114902776D01*
X172635640Y-115032664D01*
X172740233Y-115116236D01*
X172816714Y-115159810D01*
X172886695Y-115183773D01*
X172972216Y-115193656D01*
X173054737Y-115195158D01*
X173165267Y-115191853D01*
X173244346Y-115178358D01*
X173313778Y-115149298D01*
X173365587Y-115118553D01*
X173479205Y-115020607D01*
X173556987Y-114890283D01*
X173590310Y-114787421D01*
X173597675Y-114734739D01*
X173575861Y-114715667D01*
X173545583Y-114713600D01*
X173476035Y-114708976D01*
X173390700Y-114698094D01*
X173382263Y-114696734D01*
X173316552Y-114689430D01*
X173288023Y-114700593D01*
X173282000Y-114733527D01*
X173260007Y-114806267D01*
X173205453Y-114878297D01*
X173135472Y-114929170D01*
X173110489Y-114938197D01*
X173010421Y-114938038D01*
X172922198Y-114891534D01*
X172868859Y-114823318D01*
X172844001Y-114741410D01*
X172830402Y-114626065D01*
X172828147Y-114496138D01*
X172837320Y-114370487D01*
X172858004Y-114267966D01*
X172866286Y-114244971D01*
X172923989Y-114160957D01*
X173001089Y-114117168D01*
X173085112Y-114111152D01*
X173163586Y-114140458D01*
X173224039Y-114202635D01*
X173253996Y-114295232D01*
X173255263Y-114321416D01*
X173255263Y-114398303D01*
X173422368Y-114379303D01*
X173510421Y-114368309D01*
X173574065Y-114358512D01*
X173597915Y-114352640D01*
X173599410Y-114320185D01*
X173583058Y-114256216D01*
X173554673Y-114177169D01*
X173530574Y-114123059D01*
X173626756Y-114123059D01*
X173795273Y-114131056D01*
X173963789Y-114139053D01*
X173971039Y-114667105D01*
X173978288Y-115195158D01*
X174270133Y-115195158D01*
X174277382Y-114667105D01*
X174284632Y-114139053D01*
X174453148Y-114131056D01*
X174621665Y-114123059D01*
X174613569Y-113997372D01*
X174605474Y-113871684D01*
X173642947Y-113871684D01*
X173634852Y-113997372D01*
X173626756Y-114123059D01*
X173530574Y-114123059D01*
X173520073Y-114099484D01*
X173489267Y-114045544D01*
X173402519Y-113950462D01*
X173291827Y-113890617D01*
X173148061Y-113862085D01*
X173053704Y-113858316D01*
X172881556Y-113875299D01*
X172744380Y-113929318D01*
X172634631Y-114024979D01*
X172544765Y-114166884D01*
X172543321Y-114169812D01*
X172502258Y-114262023D01*
X172479112Y-114343717D01*
X172469293Y-114437447D01*
X172467975Y-114540105D01*
X172287505Y-114540105D01*
X172267930Y-114513274D01*
X172159837Y-114439035D01*
X172005389Y-114377789D01*
X171947983Y-114360949D01*
X171811052Y-114317545D01*
X171723717Y-114275045D01*
X171682243Y-114230479D01*
X171682892Y-114180876D01*
X171694018Y-114159105D01*
X171746142Y-114120092D01*
X171825900Y-114102968D01*
X171911772Y-114108556D01*
X171982241Y-114137682D01*
X171993824Y-114147613D01*
X172036236Y-114197070D01*
X172055643Y-114229877D01*
X172079600Y-114243849D01*
X172139290Y-114234026D01*
X172192638Y-114217348D01*
X172268097Y-114188766D01*
X172319621Y-114163891D01*
X172331570Y-114154479D01*
X172326664Y-114116946D01*
X172290342Y-114059761D01*
X172233536Y-113995924D01*
X172167175Y-113938438D01*
X172128675Y-113913162D01*
X172044758Y-113878194D01*
X171940781Y-113861332D01*
X171847521Y-113858316D01*
X171670366Y-113875693D01*
X171533513Y-113928042D01*
X171436535Y-114015688D01*
X171379003Y-114138958D01*
X171363606Y-114226212D01*
X171367100Y-114362590D01*
X171410530Y-114468045D01*
X171498749Y-114550879D01*
X171579266Y-114595074D01*
X171689081Y-114638931D01*
X171808620Y-114676483D01*
X171858346Y-114688530D01*
X171969170Y-114724212D01*
X172029835Y-114774321D01*
X172039589Y-114838029D01*
X172025984Y-114873165D01*
X171974307Y-114921649D01*
X171895562Y-114944400D01*
X171804352Y-114943898D01*
X171715277Y-114922621D01*
X171642939Y-114883047D01*
X171601941Y-114827658D01*
X171597579Y-114800431D01*
X171579421Y-114773261D01*
X171537421Y-114776013D01*
X171470006Y-114790627D01*
X171385755Y-114807024D01*
X171377000Y-114808624D01*
X171312782Y-114823701D01*
X171278502Y-114838451D01*
X171276737Y-114841521D01*
X170554842Y-114841521D01*
X170554842Y-114633684D01*
X171062842Y-114633684D01*
X171062842Y-114393053D01*
X170554842Y-114393053D01*
X170554842Y-114125684D01*
X171199456Y-114125684D01*
X171183158Y-113871684D01*
X170234000Y-113857082D01*
X170234000Y-115196392D01*
X169728337Y-115196392D01*
X169842345Y-115189777D01*
X169980000Y-115181789D01*
X169980000Y-113871684D01*
X169727528Y-113855448D01*
X169712632Y-114583238D01*
X169293312Y-113858316D01*
X168950632Y-113858316D01*
X168710000Y-113858316D01*
X168389158Y-113858316D01*
X167762070Y-113858316D01*
X167742349Y-113757152D01*
X167708460Y-113681753D01*
X167658639Y-113625461D01*
X167623883Y-113599711D01*
X167600238Y-113586497D01*
X167570096Y-113575890D01*
X167527744Y-113567607D01*
X167467468Y-113561365D01*
X167383557Y-113556879D01*
X167270296Y-113553868D01*
X167121975Y-113552048D01*
X166932878Y-113551137D01*
X166697295Y-113550849D01*
X166637895Y-113550842D01*
X166391175Y-113551028D01*
X166192215Y-113551777D01*
X166035303Y-113553370D01*
X165914725Y-113556091D01*
X165824769Y-113560223D01*
X165759722Y-113566050D01*
X165713871Y-113573854D01*
X165681503Y-113583918D01*
X165656905Y-113596527D01*
X165651907Y-113599711D01*
X165609569Y-113630908D01*
X165575974Y-113666987D01*
X165550121Y-113714154D01*
X165531012Y-113778611D01*
X165517647Y-113866562D01*
X165509026Y-113984210D01*
X165504150Y-114137761D01*
X165502020Y-114333417D01*
X165501620Y-114532562D01*
X165501236Y-114788395D01*
X164886632Y-114788395D01*
X164886632Y-112869053D01*
X177613368Y-112869053D01*
X177613368Y-116130947D01*
G36*
X167515547Y-113772284D02*
G01*
X167566047Y-113815338D01*
X167574119Y-113832950D01*
X167572456Y-113900004D01*
X167549165Y-113952263D01*
X167522888Y-114019889D01*
X167509363Y-114127015D01*
X167506842Y-114225724D01*
X167506842Y-114434592D01*
X167319684Y-114620316D01*
X167234040Y-114706421D01*
X167179552Y-114767342D01*
X167149178Y-114815317D01*
X167135877Y-114862583D01*
X167132605Y-114921377D01*
X167132526Y-114945547D01*
X167137264Y-115027517D01*
X167149395Y-115085577D01*
X167159263Y-115101579D01*
X167182127Y-115142384D01*
X167182660Y-115204409D01*
X167161719Y-115260686D01*
X167153916Y-115270021D01*
X167089615Y-115299565D01*
X167009219Y-115282284D01*
X166992158Y-115273227D01*
X166954136Y-115224369D01*
X166948616Y-115157254D01*
X166976497Y-115096761D01*
X166985474Y-115088210D01*
X167013614Y-115034361D01*
X167025204Y-114932085D01*
X167025579Y-114903371D01*
X167025579Y-114751817D01*
X167399895Y-114385645D01*
X167399895Y-114177032D01*
X167396689Y-114076307D01*
X167388196Y-113997557D01*
X167376100Y-113954978D01*
X167373158Y-113951895D01*
X167349642Y-113910473D01*
X167350499Y-113848420D01*
X167373785Y-113791650D01*
X167386179Y-113778393D01*
X167447338Y-113757573D01*
X167515547Y-113772284D01*
G37*
X167515547Y-113772284D02*
X167566047Y-113815338D01*
X167574119Y-113832950D01*
X167572456Y-113900004D01*
X167549165Y-113952263D01*
X167522888Y-114019889D01*
X167509363Y-114127015D01*
X167506842Y-114225724D01*
X167506842Y-114434592D01*
X167319684Y-114620316D01*
X167234040Y-114706421D01*
X167179552Y-114767342D01*
X167149178Y-114815317D01*
X167135877Y-114862583D01*
X167132605Y-114921377D01*
X167132526Y-114945547D01*
X167137264Y-115027517D01*
X167149395Y-115085577D01*
X167159263Y-115101579D01*
X167182127Y-115142384D01*
X167182660Y-115204409D01*
X167161719Y-115260686D01*
X167153916Y-115270021D01*
X167089615Y-115299565D01*
X167009219Y-115282284D01*
X166992158Y-115273227D01*
X166954136Y-115224369D01*
X166948616Y-115157254D01*
X166976497Y-115096761D01*
X166985474Y-115088210D01*
X167013614Y-115034361D01*
X167025204Y-114932085D01*
X167025579Y-114903371D01*
X167025579Y-114751817D01*
X167399895Y-114385645D01*
X167399895Y-114177032D01*
X167396689Y-114076307D01*
X167388196Y-113997557D01*
X167376100Y-113954978D01*
X167373158Y-113951895D01*
X167349642Y-113910473D01*
X167350499Y-113848420D01*
X167373785Y-113791650D01*
X167386179Y-113778393D01*
X167447338Y-113757573D01*
X167515547Y-113772284D01*
G36*
X167127918Y-113768914D02*
G01*
X167168316Y-113818414D01*
X167182774Y-113884650D01*
X167166354Y-113941461D01*
X167161527Y-113946957D01*
X167145452Y-113988254D01*
X167134921Y-114063680D01*
X167132526Y-114125352D01*
X167130140Y-114207884D01*
X167117104Y-114265473D01*
X167084605Y-114317096D01*
X167023827Y-114381731D01*
X167004608Y-114400742D01*
X166876689Y-114526737D01*
X166643660Y-114526737D01*
X166525640Y-114528563D01*
X166448040Y-114535656D01*
X166397883Y-114550438D01*
X166362189Y-114575332D01*
X166357158Y-114580210D01*
X166283291Y-114627222D01*
X166204361Y-114622128D01*
X166149212Y-114592063D01*
X166100549Y-114531416D01*
X166092394Y-114458459D01*
X166097768Y-114444267D01*
X166174395Y-114444267D01*
X166181686Y-114495292D01*
X166202418Y-114521724D01*
X166250823Y-114545368D01*
X166288366Y-114519897D01*
X166299507Y-114488260D01*
X166292351Y-114429408D01*
X166251846Y-114402925D01*
X166214576Y-114408405D01*
X166174395Y-114444267D01*
X166097768Y-114444267D01*
X166119112Y-114387904D01*
X166175068Y-114334463D01*
X166254628Y-114312849D01*
X166256160Y-114312842D01*
X166309551Y-114330789D01*
X166357158Y-114366316D01*
X166394632Y-114394506D01*
X166446303Y-114410897D01*
X166526176Y-114418346D01*
X166619100Y-114419789D01*
X166724784Y-114418732D01*
X166793436Y-114411947D01*
X166841497Y-114394013D01*
X166885407Y-114359507D01*
X166926574Y-114318399D01*
X166988825Y-114246149D01*
X167018298Y-114182685D01*
X167025579Y-114107778D01*
X167015421Y-114023439D01*
X166988899Y-113968425D01*
X166985474Y-113965263D01*
X166953607Y-113913506D01*
X166945368Y-113867837D01*
X166968344Y-113807114D01*
X167023604Y-113766049D01*
X167090646Y-113755751D01*
X167127918Y-113768914D01*
G37*
X167127918Y-113768914D02*
X167168316Y-113818414D01*
X167182774Y-113884650D01*
X167166354Y-113941461D01*
X167161527Y-113946957D01*
X167145452Y-113988254D01*
X167134921Y-114063680D01*
X167132526Y-114125352D01*
X167130140Y-114207884D01*
X167117104Y-114265473D01*
X167084605Y-114317096D01*
X167023827Y-114381731D01*
X167004608Y-114400742D01*
X166876689Y-114526737D01*
X166643660Y-114526737D01*
X166525640Y-114528563D01*
X166448040Y-114535656D01*
X166397883Y-114550438D01*
X166362189Y-114575332D01*
X166357158Y-114580210D01*
X166283291Y-114627222D01*
X166204361Y-114622128D01*
X166149212Y-114592063D01*
X166100549Y-114531416D01*
X166092394Y-114458459D01*
X166097768Y-114444267D01*
X166174395Y-114444267D01*
X166181686Y-114495292D01*
X166202418Y-114521724D01*
X166250823Y-114545368D01*
X166288366Y-114519897D01*
X166299507Y-114488260D01*
X166292351Y-114429408D01*
X166251846Y-114402925D01*
X166214576Y-114408405D01*
X166174395Y-114444267D01*
X166097768Y-114444267D01*
X166119112Y-114387904D01*
X166175068Y-114334463D01*
X166254628Y-114312849D01*
X166256160Y-114312842D01*
X166309551Y-114330789D01*
X166357158Y-114366316D01*
X166394632Y-114394506D01*
X166446303Y-114410897D01*
X166526176Y-114418346D01*
X166619100Y-114419789D01*
X166724784Y-114418732D01*
X166793436Y-114411947D01*
X166841497Y-114394013D01*
X166885407Y-114359507D01*
X166926574Y-114318399D01*
X166988825Y-114246149D01*
X167018298Y-114182685D01*
X167025579Y-114107778D01*
X167015421Y-114023439D01*
X166988899Y-113968425D01*
X166985474Y-113965263D01*
X166953607Y-113913506D01*
X166945368Y-113867837D01*
X166968344Y-113807114D01*
X167023604Y-113766049D01*
X167090646Y-113755751D01*
X167127918Y-113768914D01*
G36*
X119060400Y-116023067D02*
G01*
X119043467Y-116040000D01*
X119026534Y-116023067D01*
X119043467Y-116006133D01*
X119060400Y-116023067D01*
G37*
X119060400Y-116023067D02*
X119043467Y-116040000D01*
X119026534Y-116023067D01*
X119043467Y-116006133D01*
X119060400Y-116023067D01*
G36*
X130473467Y-113974133D02*
G01*
X124036651Y-113974133D01*
X124046192Y-114365768D01*
X124055734Y-114757402D01*
X127264600Y-114757625D01*
X130473467Y-114757847D01*
X130473467Y-114958657D01*
X130469593Y-115064303D01*
X130459532Y-115135507D01*
X130448067Y-115155456D01*
X130376740Y-115162947D01*
X130337474Y-115198923D01*
X130341470Y-115244028D01*
X130380334Y-115272504D01*
X130405290Y-115287805D01*
X130380334Y-115292259D01*
X130340014Y-115310915D01*
X130347795Y-115342272D01*
X130394958Y-115362163D01*
X130405734Y-115362667D01*
X130436561Y-115367315D01*
X130456296Y-115389432D01*
X130467390Y-115441278D01*
X130472294Y-115535113D01*
X130473461Y-115683195D01*
X130473467Y-115701333D01*
X130473467Y-116040000D01*
X124775400Y-116039832D01*
X119077334Y-116039663D01*
X119175930Y-115960770D01*
X119241965Y-115891432D01*
X119248137Y-115839185D01*
X119247896Y-115838789D01*
X119213734Y-115816087D01*
X119200100Y-115824717D01*
X119160429Y-115866401D01*
X119102734Y-115918249D01*
X119026534Y-115982764D01*
X119026534Y-115669925D01*
X119432934Y-115669925D01*
X119449447Y-115698213D01*
X119501935Y-115678042D01*
X119580538Y-115619716D01*
X119634733Y-115564116D01*
X119648330Y-115525022D01*
X119643785Y-115519795D01*
X119598341Y-115525245D01*
X119531667Y-115562567D01*
X119468657Y-115614036D01*
X119434209Y-115661925D01*
X119432934Y-115669925D01*
X119026534Y-115669925D01*
X119026534Y-115368570D01*
X119805467Y-115368570D01*
X119816343Y-115393592D01*
X119856040Y-115381159D01*
X119935162Y-115327694D01*
X119942305Y-115322431D01*
X120018485Y-115255868D01*
X120040812Y-115211034D01*
X120006736Y-115193407D01*
X120002383Y-115193333D01*
X119951286Y-115215349D01*
X119884998Y-115266760D01*
X119828188Y-115325613D01*
X119805467Y-115368570D01*
X119026534Y-115368570D01*
X119026534Y-115026458D01*
X120211867Y-115026458D01*
X120228380Y-115054746D01*
X120280869Y-115034576D01*
X120359471Y-114976249D01*
X120413666Y-114920649D01*
X120427263Y-114881555D01*
X120422718Y-114876329D01*
X120377275Y-114881778D01*
X120310600Y-114919100D01*
X120247591Y-114970569D01*
X120213142Y-115018458D01*
X120211867Y-115026458D01*
X119026534Y-115026458D01*
X119026534Y-113562887D01*
X120110767Y-113562887D01*
X120123116Y-113738358D01*
X120157090Y-113933286D01*
X120206776Y-114123323D01*
X120266263Y-114284118D01*
X120302973Y-114354460D01*
X120351029Y-114439399D01*
X120378618Y-114502367D01*
X120381200Y-114515327D01*
X120406559Y-114548756D01*
X120415067Y-114549866D01*
X120446378Y-114576695D01*
X120448934Y-114593140D01*
X120472528Y-114647178D01*
X120511289Y-114689804D01*
X120583771Y-114763345D01*
X120621356Y-114810203D01*
X120724565Y-114919413D01*
X120876440Y-115035028D01*
X121059862Y-115147316D01*
X121257714Y-115246548D01*
X121452877Y-115322992D01*
X121588007Y-115359686D01*
X121709185Y-115374847D01*
X121865918Y-115381266D01*
X122036921Y-115379560D01*
X122200908Y-115370345D01*
X122336595Y-115354236D01*
X122413200Y-115335802D01*
X122434263Y-115321217D01*
X122406678Y-115309450D01*
X122324832Y-115299608D01*
X122183112Y-115290799D01*
X122108400Y-115287365D01*
X121843569Y-115266721D01*
X121625389Y-115226369D01*
X121573398Y-115208500D01*
X124038800Y-115208500D01*
X124038800Y-115359134D01*
X124243941Y-115358152D01*
X124449082Y-115357171D01*
X124438674Y-115249852D01*
X124422979Y-115193333D01*
X124479067Y-115193333D01*
X124481735Y-115293773D01*
X124495670Y-115343877D01*
X124529770Y-115361001D01*
X124565879Y-115362667D01*
X124624797Y-115354742D01*
X124644692Y-115317299D01*
X124642597Y-115265421D01*
X124716134Y-115265421D01*
X124724004Y-115336600D01*
X124757573Y-115358770D01*
X124792334Y-115356555D01*
X124860420Y-115318905D01*
X124878634Y-115275036D01*
X124875889Y-115259257D01*
X124925384Y-115259257D01*
X124926606Y-115337744D01*
X124952729Y-115356999D01*
X124956291Y-115355992D01*
X124999375Y-115314039D01*
X125006236Y-115293097D01*
X125023477Y-115228003D01*
X125088953Y-115228003D01*
X125095994Y-115296722D01*
X125137820Y-115348958D01*
X125189204Y-115362667D01*
X125237264Y-115349175D01*
X125256106Y-115296590D01*
X125258000Y-115248757D01*
X125251323Y-115174596D01*
X125317151Y-115174596D01*
X125318382Y-115252990D01*
X125332188Y-115324834D01*
X125355348Y-115361861D01*
X125359600Y-115362667D01*
X125382340Y-115333287D01*
X125396508Y-115278018D01*
X125466021Y-115278018D01*
X125472887Y-115310407D01*
X125514023Y-115355774D01*
X125566964Y-115349797D01*
X125607995Y-115303697D01*
X125666034Y-115303697D01*
X125683978Y-115353132D01*
X125707410Y-115362667D01*
X125750308Y-115338466D01*
X125755033Y-115320333D01*
X125762551Y-115272149D01*
X125839844Y-115272149D01*
X125848659Y-115338927D01*
X125866228Y-115362667D01*
X125903561Y-115337161D01*
X125905700Y-115328800D01*
X125909447Y-115265101D01*
X125969242Y-115265101D01*
X125984538Y-115330358D01*
X125992949Y-115341259D01*
X126048656Y-115359644D01*
X126103744Y-115328224D01*
X126112947Y-115308214D01*
X126277123Y-115308214D01*
X126314155Y-115352020D01*
X126391140Y-115355628D01*
X126447253Y-115323008D01*
X126456033Y-115286467D01*
X126454906Y-115265843D01*
X126512169Y-115265843D01*
X126526786Y-115330108D01*
X126534815Y-115341259D01*
X126590246Y-115360164D01*
X126642301Y-115328800D01*
X126815867Y-115328800D01*
X126841330Y-115358086D01*
X126898995Y-115359023D01*
X126960772Y-115334132D01*
X126983638Y-115313748D01*
X127003141Y-115267894D01*
X126970554Y-115219505D01*
X126960228Y-115210267D01*
X127052933Y-115210267D01*
X127059660Y-115301154D01*
X127076679Y-115355674D01*
X127086800Y-115362667D01*
X127106997Y-115332397D01*
X127107566Y-115328800D01*
X127154533Y-115328800D01*
X127182898Y-115356316D01*
X127222267Y-115362667D01*
X127277178Y-115342350D01*
X127290000Y-115313865D01*
X127267000Y-115254661D01*
X127252518Y-115241899D01*
X127250647Y-115238324D01*
X127332250Y-115238324D01*
X127333435Y-115325153D01*
X127357944Y-115360181D01*
X127374087Y-115362667D01*
X127409335Y-115341431D01*
X127423180Y-115275176D01*
X127463400Y-115275176D01*
X127494808Y-115338205D01*
X127562016Y-115362667D01*
X127610240Y-115351766D01*
X127625154Y-115306227D01*
X127622346Y-115252600D01*
X127621334Y-115249238D01*
X127696400Y-115249238D01*
X127707781Y-115331363D01*
X127732871Y-115360829D01*
X127758089Y-115333852D01*
X127769208Y-115269533D01*
X127774282Y-115176400D01*
X127788391Y-115269533D01*
X127808555Y-115337131D01*
X127834116Y-115362667D01*
X127858684Y-115333363D01*
X127870808Y-115269533D01*
X127875882Y-115176400D01*
X127889991Y-115269533D01*
X127913712Y-115344821D01*
X127942450Y-115358542D01*
X127961249Y-115313849D01*
X127961013Y-115254554D01*
X127960429Y-115251491D01*
X128008102Y-115251491D01*
X128034430Y-115320716D01*
X128100328Y-115360331D01*
X128124161Y-115362667D01*
X128182020Y-115354126D01*
X128200813Y-115314822D01*
X128198079Y-115255629D01*
X128196535Y-115251090D01*
X128245556Y-115251090D01*
X128245703Y-115261655D01*
X128260249Y-115337459D01*
X128303855Y-115362428D01*
X128311154Y-115362667D01*
X128363242Y-115342967D01*
X128373734Y-115318640D01*
X128370943Y-115310900D01*
X128498267Y-115310900D01*
X128500460Y-115352791D01*
X128525461Y-115362667D01*
X128580331Y-115336145D01*
X128591045Y-115320333D01*
X128613286Y-115295427D01*
X128630556Y-115320333D01*
X128677647Y-115359587D01*
X128696233Y-115362667D01*
X128720540Y-115351527D01*
X128719695Y-115308393D01*
X128693078Y-115218687D01*
X128690686Y-115211625D01*
X128754059Y-115211625D01*
X128760103Y-115277719D01*
X128791823Y-115343881D01*
X128850062Y-115357324D01*
X128857531Y-115356398D01*
X128915001Y-115329562D01*
X128932462Y-115259971D01*
X128932534Y-115252600D01*
X128928521Y-115227200D01*
X128983334Y-115227200D01*
X128992182Y-115322773D01*
X129013852Y-115359073D01*
X129041032Y-115333334D01*
X129050259Y-115302386D01*
X129128763Y-115302386D01*
X129131412Y-115312816D01*
X129177030Y-115353859D01*
X129219337Y-115362667D01*
X129269960Y-115346773D01*
X129287505Y-115287475D01*
X129288134Y-115263065D01*
X129285250Y-115241778D01*
X129355867Y-115241778D01*
X129366607Y-115326264D01*
X129390610Y-115360602D01*
X129415548Y-115340092D01*
X129428674Y-115269533D01*
X129433749Y-115176400D01*
X129447857Y-115269533D01*
X129471394Y-115344801D01*
X129499891Y-115358639D01*
X129518862Y-115314502D01*
X129518879Y-115252600D01*
X129514391Y-115234363D01*
X129571832Y-115234363D01*
X129580825Y-115306384D01*
X129626145Y-115355179D01*
X129660667Y-115362667D01*
X129720071Y-115334189D01*
X129746532Y-115291157D01*
X129744331Y-115247598D01*
X129796134Y-115247598D01*
X129807368Y-115330253D01*
X129832211Y-115360823D01*
X129857376Y-115335304D01*
X129868941Y-115269533D01*
X129874015Y-115176400D01*
X129888124Y-115269533D01*
X129908288Y-115337131D01*
X129933850Y-115362667D01*
X129958418Y-115333363D01*
X129970541Y-115269533D01*
X129975615Y-115176400D01*
X129989724Y-115269533D01*
X130013575Y-115344838D01*
X130042481Y-115358477D01*
X130061150Y-115313387D01*
X130060811Y-115265101D01*
X130134842Y-115265101D01*
X130150138Y-115330358D01*
X130158549Y-115341259D01*
X130214256Y-115359644D01*
X130269344Y-115328224D01*
X130298630Y-115264551D01*
X130286967Y-115184502D01*
X130235598Y-115144142D01*
X130180205Y-115149290D01*
X130146224Y-115192695D01*
X130134842Y-115265101D01*
X130060811Y-115265101D01*
X130060746Y-115255885D01*
X130046632Y-115184924D01*
X130008920Y-115152702D01*
X129925811Y-115140992D01*
X129923134Y-115140816D01*
X129840118Y-115139326D01*
X129804509Y-115160892D01*
X129796267Y-115222362D01*
X129796134Y-115247598D01*
X129744331Y-115247598D01*
X129742130Y-115204042D01*
X129714948Y-115165366D01*
X129667877Y-115129006D01*
X129627790Y-115145025D01*
X129606386Y-115165366D01*
X129571832Y-115234363D01*
X129514391Y-115234363D01*
X129498634Y-115170335D01*
X129450478Y-115135348D01*
X129432067Y-115131711D01*
X129381097Y-115133129D01*
X129359784Y-115168982D01*
X129355867Y-115241778D01*
X129285250Y-115241778D01*
X129277517Y-115184725D01*
X129253714Y-115142192D01*
X129234178Y-115101604D01*
X129238780Y-115089393D01*
X129238804Y-115059710D01*
X129230666Y-115057866D01*
X129196142Y-115086714D01*
X129160609Y-115155169D01*
X129134629Y-115236103D01*
X129128763Y-115302386D01*
X129050259Y-115302386D01*
X129063616Y-115257588D01*
X129071369Y-115150049D01*
X129040980Y-115097315D01*
X129015201Y-115091733D01*
X128995244Y-115121783D01*
X128984145Y-115196850D01*
X128983334Y-115227200D01*
X128928521Y-115227200D01*
X128921187Y-115180784D01*
X128896145Y-115150449D01*
X128870908Y-115170738D01*
X128862103Y-115204903D01*
X128843739Y-115273762D01*
X128824512Y-115279738D01*
X128814181Y-115221972D01*
X128814000Y-115209138D01*
X128807463Y-115145752D01*
X128784874Y-115142204D01*
X128775840Y-115150214D01*
X128754059Y-115211625D01*
X128690686Y-115211625D01*
X128689689Y-115208685D01*
X128645636Y-115107701D01*
X128604289Y-115074104D01*
X128564232Y-115107999D01*
X128524047Y-115209492D01*
X128520561Y-115221307D01*
X128498267Y-115310900D01*
X128370943Y-115310900D01*
X128351664Y-115257440D01*
X128333094Y-115233973D01*
X128311086Y-115200700D01*
X128339867Y-115193333D01*
X128368358Y-115182254D01*
X128349591Y-115155644D01*
X128297939Y-115132291D01*
X128260224Y-115167204D01*
X128245556Y-115251090D01*
X128196535Y-115251090D01*
X128169480Y-115171577D01*
X128115410Y-115137021D01*
X128051849Y-115159509D01*
X128033748Y-115177988D01*
X128008102Y-115251491D01*
X127960429Y-115251491D01*
X127947355Y-115183025D01*
X127910958Y-115151308D01*
X127829993Y-115141412D01*
X127823400Y-115141126D01*
X127740320Y-115141776D01*
X127704715Y-115164617D01*
X127696518Y-115226729D01*
X127696400Y-115249238D01*
X127621334Y-115249238D01*
X127597319Y-115169510D01*
X127551526Y-115142824D01*
X127497174Y-115177396D01*
X127483035Y-115197197D01*
X127463400Y-115275176D01*
X127423180Y-115275176D01*
X127424244Y-115270088D01*
X127425467Y-115224378D01*
X127414174Y-115130954D01*
X127387845Y-115098229D01*
X127357806Y-115124509D01*
X127335383Y-115208098D01*
X127332250Y-115238324D01*
X127250647Y-115238324D01*
X127236695Y-115211679D01*
X127260004Y-115190941D01*
X127287124Y-115154797D01*
X127281371Y-115139549D01*
X127240091Y-115138578D01*
X127205734Y-115159134D01*
X127172748Y-115206655D01*
X127192129Y-115248627D01*
X127213061Y-115287134D01*
X127192547Y-115294933D01*
X127156394Y-115318357D01*
X127154533Y-115328800D01*
X127107566Y-115328800D01*
X127119113Y-115255811D01*
X127120667Y-115210267D01*
X127113940Y-115119379D01*
X127096921Y-115064859D01*
X127086800Y-115057866D01*
X127066603Y-115088136D01*
X127054487Y-115164722D01*
X127052933Y-115210267D01*
X126960228Y-115210267D01*
X126953918Y-115204622D01*
X126899207Y-115145912D01*
X126886112Y-115106262D01*
X126917128Y-115098538D01*
X126934400Y-115103980D01*
X126978009Y-115104684D01*
X126985200Y-115090670D01*
X126960137Y-115061825D01*
X126904994Y-115060448D01*
X126849839Y-115082866D01*
X126827630Y-115109928D01*
X126833240Y-115171911D01*
X126867808Y-115228461D01*
X126906824Y-115276688D01*
X126898876Y-115293340D01*
X126871916Y-115294933D01*
X126823575Y-115311712D01*
X126815867Y-115328800D01*
X126642301Y-115328800D01*
X126643867Y-115327857D01*
X126673630Y-115257767D01*
X126673766Y-115256637D01*
X126659611Y-115180500D01*
X126610367Y-115136595D01*
X126546075Y-115141975D01*
X126541877Y-115144422D01*
X126517652Y-115191329D01*
X126512169Y-115265843D01*
X126454906Y-115265843D01*
X126452010Y-115212889D01*
X126447894Y-115113275D01*
X126447567Y-115103941D01*
X126443333Y-114980681D01*
X126358667Y-115105445D01*
X126291842Y-115225111D01*
X126277123Y-115308214D01*
X126112947Y-115308214D01*
X126133030Y-115264551D01*
X126121367Y-115184502D01*
X126069998Y-115144142D01*
X126014605Y-115149290D01*
X125980624Y-115192695D01*
X125969242Y-115265101D01*
X125909447Y-115265101D01*
X125911581Y-115228824D01*
X125906145Y-115139672D01*
X125891807Y-115081239D01*
X125874350Y-115070628D01*
X125853410Y-115112082D01*
X125841668Y-115187894D01*
X125839844Y-115272149D01*
X125762551Y-115272149D01*
X125765191Y-115255229D01*
X125779007Y-115204592D01*
X125786587Y-115149938D01*
X125751249Y-115138770D01*
X125741996Y-115139888D01*
X125699028Y-115171408D01*
X125672379Y-115234567D01*
X125666034Y-115303697D01*
X125607995Y-115303697D01*
X125610862Y-115300476D01*
X125624316Y-115252310D01*
X125619906Y-115182405D01*
X125595293Y-115159466D01*
X125571100Y-115134819D01*
X125576133Y-115105837D01*
X125576954Y-115066204D01*
X125554357Y-115066271D01*
X125507998Y-115111294D01*
X125475039Y-115192405D01*
X125466021Y-115278018D01*
X125396508Y-115278018D01*
X125400470Y-115262567D01*
X125400575Y-115261854D01*
X125402916Y-115173657D01*
X125386027Y-115113357D01*
X125356878Y-115095524D01*
X125331715Y-115117921D01*
X125317151Y-115174596D01*
X125251323Y-115174596D01*
X125250975Y-115170740D01*
X125221287Y-115140979D01*
X125182254Y-115138691D01*
X125117454Y-115167195D01*
X125088953Y-115228003D01*
X125023477Y-115228003D01*
X125026049Y-115218296D01*
X125037216Y-115187478D01*
X125040050Y-115144171D01*
X124998155Y-115139708D01*
X124947322Y-115175242D01*
X124925384Y-115259257D01*
X124875889Y-115259257D01*
X124866436Y-115204931D01*
X124822977Y-115151194D01*
X124768485Y-115135048D01*
X124751484Y-115141616D01*
X124726233Y-115188003D01*
X124716134Y-115265421D01*
X124642597Y-115265421D01*
X124642079Y-115252600D01*
X124622992Y-115175701D01*
X124589857Y-115150867D01*
X124589134Y-115151000D01*
X124555089Y-115130213D01*
X124546800Y-115091733D01*
X124532618Y-115036701D01*
X124512934Y-115024000D01*
X124493614Y-115054459D01*
X124481352Y-115132337D01*
X124479067Y-115193333D01*
X124422979Y-115193333D01*
X124415843Y-115167639D01*
X124377467Y-115140455D01*
X124294035Y-115164529D01*
X124246212Y-115231100D01*
X124242000Y-115262043D01*
X124223987Y-115306021D01*
X124174267Y-115304746D01*
X124124698Y-115271852D01*
X124107062Y-115196844D01*
X124106534Y-115172450D01*
X124097756Y-115095686D01*
X124076263Y-115058513D01*
X124072667Y-115057866D01*
X124052371Y-115088115D01*
X124040279Y-115164553D01*
X124038800Y-115208500D01*
X121573398Y-115208500D01*
X121434256Y-115160678D01*
X121250566Y-115064015D01*
X121184655Y-115021988D01*
X121166745Y-115009129D01*
X122726043Y-115009129D01*
X122747393Y-115056383D01*
X122774359Y-115067828D01*
X122843164Y-115082011D01*
X122899391Y-115077716D01*
X122964522Y-115048373D01*
X123060039Y-114987409D01*
X123079105Y-114974599D01*
X123297823Y-114790768D01*
X123484261Y-114553802D01*
X123593174Y-114363290D01*
X123712164Y-114055756D01*
X123770834Y-113730983D01*
X123769757Y-113400651D01*
X123759409Y-113344972D01*
X124042274Y-113344972D01*
X124043446Y-113512978D01*
X124046205Y-113638745D01*
X124050451Y-113711830D01*
X124052764Y-113724607D01*
X124069729Y-113741047D01*
X124111582Y-113752945D01*
X124186469Y-113760746D01*
X124302538Y-113764894D01*
X124467936Y-113765837D01*
X124690811Y-113764020D01*
X124757674Y-113763170D01*
X125444267Y-113754000D01*
X125444267Y-113516933D01*
X124979313Y-113507515D01*
X124514359Y-113498098D01*
X124513988Y-113471234D01*
X125889082Y-113471234D01*
X125911271Y-113510481D01*
X126035137Y-113637245D01*
X126214870Y-113731692D01*
X126296605Y-113758359D01*
X126438465Y-113783482D01*
X126617865Y-113794234D01*
X126812534Y-113791444D01*
X127000200Y-113775945D01*
X127148369Y-113750335D01*
X127933467Y-113750335D01*
X127964430Y-113760617D01*
X128045736Y-113768000D01*
X128160004Y-113770930D01*
X128163867Y-113770933D01*
X128394266Y-113770933D01*
X128537567Y-113567733D01*
X128680867Y-113364533D01*
X129711467Y-113366335D01*
X129999167Y-113770933D01*
X130219384Y-113770933D01*
X130331515Y-113767133D01*
X130410829Y-113757189D01*
X130439600Y-113743841D01*
X130420013Y-113708959D01*
X130365955Y-113630378D01*
X130284477Y-113517910D01*
X130182632Y-113381369D01*
X130117083Y-113295108D01*
X129973246Y-113107044D01*
X129812886Y-112897349D01*
X129654535Y-112690255D01*
X129516723Y-112509997D01*
X129503322Y-112492467D01*
X129397507Y-112355943D01*
X129305786Y-112241181D01*
X129236079Y-112157819D01*
X129196304Y-112115494D01*
X129190839Y-112112159D01*
X129162002Y-112137755D01*
X129104737Y-112204951D01*
X129030254Y-112300425D01*
X129012727Y-112323825D01*
X128893869Y-112482579D01*
X128751457Y-112671083D01*
X128596669Y-112874702D01*
X128440684Y-113078797D01*
X128294680Y-113268734D01*
X128169836Y-113429876D01*
X128097837Y-113521735D01*
X128020279Y-113622334D01*
X127962436Y-113702035D01*
X127934561Y-113746576D01*
X127933467Y-113750335D01*
X127148369Y-113750335D01*
X127158593Y-113748568D01*
X127239200Y-113723175D01*
X127411570Y-113626044D01*
X127524932Y-113508078D01*
X127576711Y-113373744D01*
X127564327Y-113227508D01*
X127549355Y-113185859D01*
X127497954Y-113106709D01*
X127408484Y-113033233D01*
X127273638Y-112961520D01*
X127086113Y-112887657D01*
X126849024Y-112810879D01*
X126666973Y-112746698D01*
X126527569Y-112678700D01*
X126439018Y-112611703D01*
X126409467Y-112552872D01*
X126433636Y-112513322D01*
X126492448Y-112457583D01*
X126498701Y-112452591D01*
X126611007Y-112400360D01*
X126757074Y-112380281D01*
X126910978Y-112392482D01*
X127046795Y-112437089D01*
X127069311Y-112449790D01*
X127139786Y-112488778D01*
X127197690Y-112499788D01*
X127272358Y-112484331D01*
X127335775Y-112463540D01*
X127426600Y-112429221D01*
X127483478Y-112401244D01*
X127493200Y-112391623D01*
X127462678Y-112339919D01*
X127381133Y-112281295D01*
X127263596Y-112223814D01*
X127125101Y-112175541D01*
X127059179Y-112158799D01*
X126831095Y-112126638D01*
X126610879Y-112129617D01*
X126408008Y-112164182D01*
X126231964Y-112226779D01*
X126092224Y-112313853D01*
X125998269Y-112421852D01*
X125959577Y-112547221D01*
X125959208Y-112571211D01*
X125971763Y-112663101D01*
X126008955Y-112741020D01*
X126078645Y-112810583D01*
X126188693Y-112877404D01*
X126346959Y-112947098D01*
X126561303Y-113025280D01*
X126625464Y-113047109D01*
X126774914Y-113099820D01*
X126907389Y-113150848D01*
X127004953Y-113193062D01*
X127041194Y-113212422D01*
X127108064Y-113284882D01*
X127109562Y-113366979D01*
X127045962Y-113451663D01*
X127031433Y-113463675D01*
X126919403Y-113515817D01*
X126771553Y-113536812D01*
X126608977Y-113529022D01*
X126452771Y-113494808D01*
X126324031Y-113436532D01*
X126257067Y-113376982D01*
X126225607Y-113353826D01*
X126170987Y-113353279D01*
X126075357Y-113376040D01*
X126043358Y-113385332D01*
X125942021Y-113417286D01*
X125894448Y-113442270D01*
X125889082Y-113471234D01*
X124513988Y-113471234D01*
X124505180Y-112834641D01*
X124496000Y-112171185D01*
X124055734Y-112171165D01*
X124045090Y-112924018D01*
X124042789Y-113145172D01*
X124042274Y-113344972D01*
X123759409Y-113344972D01*
X123709502Y-113076440D01*
X123590640Y-112770031D01*
X123508223Y-112625292D01*
X123391251Y-112442436D01*
X123463880Y-112391565D01*
X123511559Y-112343496D01*
X123499546Y-112303732D01*
X123454252Y-112289088D01*
X123406458Y-112322895D01*
X123373810Y-112348341D01*
X123338664Y-112348391D01*
X123287213Y-112316619D01*
X123205650Y-112246596D01*
X123166904Y-112211377D01*
X123091897Y-112146121D01*
X123683088Y-112146121D01*
X123686719Y-112154496D01*
X123723591Y-112150106D01*
X123786377Y-112115550D01*
X123851702Y-112067123D01*
X123896192Y-112021118D01*
X123903334Y-112003498D01*
X123876250Y-111978270D01*
X123858437Y-111976000D01*
X123808601Y-111996691D01*
X123749862Y-112045354D01*
X123701572Y-112101870D01*
X123683088Y-112146121D01*
X123091897Y-112146121D01*
X123053445Y-112112669D01*
X122980868Y-112059761D01*
X122951431Y-112052409D01*
X122967395Y-112090371D01*
X123031019Y-112173405D01*
X123072385Y-112221533D01*
X123238449Y-112450143D01*
X123374463Y-112716529D01*
X123472280Y-112999720D01*
X123523752Y-113278744D01*
X123529624Y-113398400D01*
X123498734Y-113689853D01*
X123410536Y-113987985D01*
X123271739Y-114277346D01*
X123089050Y-114542484D01*
X122979819Y-114664749D01*
X122841160Y-114815463D01*
X122756934Y-114929539D01*
X122726043Y-115009129D01*
X121166745Y-115009129D01*
X121068495Y-114938590D01*
X120958896Y-114848763D01*
X120866148Y-114762543D01*
X120800543Y-114689961D01*
X120772374Y-114641051D01*
X120779133Y-114626664D01*
X120819795Y-114593349D01*
X120807630Y-114561544D01*
X120758101Y-114558537D01*
X120716633Y-114554694D01*
X120673879Y-114513127D01*
X120620622Y-114423217D01*
X120613734Y-114409610D01*
X120971344Y-114409610D01*
X120973264Y-114413425D01*
X121008248Y-114424744D01*
X121071570Y-114382621D01*
X121096115Y-114360041D01*
X121158221Y-114294248D01*
X121191967Y-114246257D01*
X121194000Y-114238730D01*
X121175716Y-114213696D01*
X121118921Y-114238493D01*
X121045749Y-114293333D01*
X120983954Y-114359037D01*
X120971344Y-114409610D01*
X120613734Y-114409610D01*
X120592546Y-114367754D01*
X120473415Y-114061290D01*
X120420915Y-113757900D01*
X120428499Y-113586676D01*
X121297728Y-113586676D01*
X121314858Y-113753968D01*
X121346639Y-113861396D01*
X121376972Y-113960465D01*
X121366041Y-114021138D01*
X121361928Y-114026626D01*
X121348754Y-114073970D01*
X121378813Y-114101087D01*
X121427673Y-114090804D01*
X121439321Y-114081026D01*
X121486469Y-114069006D01*
X121562862Y-114107195D01*
X121575721Y-114116142D01*
X121753023Y-114202764D01*
X121948207Y-114227793D01*
X122150734Y-114191118D01*
X122299859Y-114123772D01*
X122421138Y-114021578D01*
X122523601Y-113876374D01*
X122593275Y-113712708D01*
X122616400Y-113567733D01*
X122590516Y-113421159D01*
X122522346Y-113263636D01*
X122426115Y-113121555D01*
X122398650Y-113095906D01*
X122514800Y-113095906D01*
X122535454Y-113125983D01*
X122593947Y-113105406D01*
X122673778Y-113045681D01*
X122729513Y-112987335D01*
X122747983Y-112945737D01*
X122745350Y-112940386D01*
X122706589Y-112943008D01*
X122641511Y-112976393D01*
X122573201Y-113024970D01*
X122524747Y-113073166D01*
X122514800Y-113095906D01*
X122398650Y-113095906D01*
X122325096Y-113027216D01*
X122190107Y-112965240D01*
X122025028Y-112931173D01*
X121856434Y-112927298D01*
X121710898Y-112955897D01*
X121675254Y-112971385D01*
X121495026Y-113098158D01*
X121364127Y-113262854D01*
X121351258Y-113286651D01*
X121309941Y-113420953D01*
X121297728Y-113586676D01*
X120428499Y-113586676D01*
X120434448Y-113452392D01*
X120468361Y-113287173D01*
X120552990Y-113033413D01*
X120656840Y-112839600D01*
X122819600Y-112839600D01*
X122836533Y-112856533D01*
X122853467Y-112839600D01*
X122836533Y-112822666D01*
X122819600Y-112839600D01*
X120656840Y-112839600D01*
X120671726Y-112811819D01*
X120690487Y-112787901D01*
X122904327Y-112787901D01*
X122905746Y-112791193D01*
X122940054Y-112792090D01*
X123001442Y-112762156D01*
X123067139Y-112716411D01*
X123114373Y-112669877D01*
X123124400Y-112646964D01*
X123102883Y-112620682D01*
X123041401Y-112644070D01*
X122976245Y-112689912D01*
X122920932Y-112745446D01*
X122904327Y-112787901D01*
X120690487Y-112787901D01*
X120837194Y-112600868D01*
X120924582Y-112509344D01*
X121072999Y-112370987D01*
X121217218Y-112262002D01*
X121370693Y-112176519D01*
X121546877Y-112108667D01*
X121759223Y-112052576D01*
X122021186Y-112002376D01*
X122125334Y-111985387D01*
X122230494Y-111963219D01*
X122284748Y-111933541D01*
X122304895Y-111887054D01*
X122305061Y-111885918D01*
X122286811Y-111829177D01*
X124071025Y-111829177D01*
X124098025Y-111839829D01*
X124167117Y-111804811D01*
X124192762Y-111786246D01*
X124268778Y-111717227D01*
X124284934Y-111670533D01*
X124277878Y-111659664D01*
X124231348Y-111652287D01*
X124159519Y-111703019D01*
X124157782Y-111704645D01*
X124089737Y-111781301D01*
X124071025Y-111829177D01*
X122286811Y-111829177D01*
X122284018Y-111820496D01*
X122203859Y-111774188D01*
X122070936Y-111748745D01*
X121891605Y-111745917D01*
X121815167Y-111750919D01*
X121474318Y-111811383D01*
X121158522Y-111929278D01*
X120873533Y-112098490D01*
X120625103Y-112312901D01*
X120418986Y-112566396D01*
X120260934Y-112852859D01*
X120156700Y-113166173D01*
X120112038Y-113500223D01*
X120110767Y-113562887D01*
X119026534Y-113562887D01*
X119026534Y-111507770D01*
X124445200Y-111507770D01*
X124464309Y-111533462D01*
X124522284Y-111505554D01*
X124589134Y-111451621D01*
X124660670Y-111382287D01*
X124678837Y-111344674D01*
X124646391Y-111332584D01*
X124642116Y-111332533D01*
X124591020Y-111354549D01*
X124524732Y-111405960D01*
X124467922Y-111464813D01*
X124445200Y-111507770D01*
X119026534Y-111507770D01*
X119026534Y-110993867D01*
X125004000Y-110996007D01*
X124910867Y-111077979D01*
X124839297Y-111147344D01*
X124821329Y-111184719D01*
X124854419Y-111196008D01*
X124860067Y-111195940D01*
X124919290Y-111173141D01*
X124988284Y-111121800D01*
X125041188Y-111063854D01*
X125054800Y-111030771D01*
X125077941Y-111023422D01*
X125148824Y-111016966D01*
X125269643Y-111011373D01*
X125442590Y-111006612D01*
X125669857Y-111002655D01*
X125953636Y-110999471D01*
X126296120Y-110997031D01*
X126699502Y-110995304D01*
X127165973Y-110994260D01*
X127697727Y-110993871D01*
X127764134Y-110993867D01*
X130473467Y-110993867D01*
X130473467Y-113974133D01*
G37*
X130473467Y-113974133D02*
X124036651Y-113974133D01*
X124046192Y-114365768D01*
X124055734Y-114757402D01*
X127264600Y-114757625D01*
X130473467Y-114757847D01*
X130473467Y-114958657D01*
X130469593Y-115064303D01*
X130459532Y-115135507D01*
X130448067Y-115155456D01*
X130376740Y-115162947D01*
X130337474Y-115198923D01*
X130341470Y-115244028D01*
X130380334Y-115272504D01*
X130405290Y-115287805D01*
X130380334Y-115292259D01*
X130340014Y-115310915D01*
X130347795Y-115342272D01*
X130394958Y-115362163D01*
X130405734Y-115362667D01*
X130436561Y-115367315D01*
X130456296Y-115389432D01*
X130467390Y-115441278D01*
X130472294Y-115535113D01*
X130473461Y-115683195D01*
X130473467Y-115701333D01*
X130473467Y-116040000D01*
X124775400Y-116039832D01*
X119077334Y-116039663D01*
X119175930Y-115960770D01*
X119241965Y-115891432D01*
X119248137Y-115839185D01*
X119247896Y-115838789D01*
X119213734Y-115816087D01*
X119200100Y-115824717D01*
X119160429Y-115866401D01*
X119102734Y-115918249D01*
X119026534Y-115982764D01*
X119026534Y-115669925D01*
X119432934Y-115669925D01*
X119449447Y-115698213D01*
X119501935Y-115678042D01*
X119580538Y-115619716D01*
X119634733Y-115564116D01*
X119648330Y-115525022D01*
X119643785Y-115519795D01*
X119598341Y-115525245D01*
X119531667Y-115562567D01*
X119468657Y-115614036D01*
X119434209Y-115661925D01*
X119432934Y-115669925D01*
X119026534Y-115669925D01*
X119026534Y-115368570D01*
X119805467Y-115368570D01*
X119816343Y-115393592D01*
X119856040Y-115381159D01*
X119935162Y-115327694D01*
X119942305Y-115322431D01*
X120018485Y-115255868D01*
X120040812Y-115211034D01*
X120006736Y-115193407D01*
X120002383Y-115193333D01*
X119951286Y-115215349D01*
X119884998Y-115266760D01*
X119828188Y-115325613D01*
X119805467Y-115368570D01*
X119026534Y-115368570D01*
X119026534Y-115026458D01*
X120211867Y-115026458D01*
X120228380Y-115054746D01*
X120280869Y-115034576D01*
X120359471Y-114976249D01*
X120413666Y-114920649D01*
X120427263Y-114881555D01*
X120422718Y-114876329D01*
X120377275Y-114881778D01*
X120310600Y-114919100D01*
X120247591Y-114970569D01*
X120213142Y-115018458D01*
X120211867Y-115026458D01*
X119026534Y-115026458D01*
X119026534Y-113562887D01*
X120110767Y-113562887D01*
X120123116Y-113738358D01*
X120157090Y-113933286D01*
X120206776Y-114123323D01*
X120266263Y-114284118D01*
X120302973Y-114354460D01*
X120351029Y-114439399D01*
X120378618Y-114502367D01*
X120381200Y-114515327D01*
X120406559Y-114548756D01*
X120415067Y-114549866D01*
X120446378Y-114576695D01*
X120448934Y-114593140D01*
X120472528Y-114647178D01*
X120511289Y-114689804D01*
X120583771Y-114763345D01*
X120621356Y-114810203D01*
X120724565Y-114919413D01*
X120876440Y-115035028D01*
X121059862Y-115147316D01*
X121257714Y-115246548D01*
X121452877Y-115322992D01*
X121588007Y-115359686D01*
X121709185Y-115374847D01*
X121865918Y-115381266D01*
X122036921Y-115379560D01*
X122200908Y-115370345D01*
X122336595Y-115354236D01*
X122413200Y-115335802D01*
X122434263Y-115321217D01*
X122406678Y-115309450D01*
X122324832Y-115299608D01*
X122183112Y-115290799D01*
X122108400Y-115287365D01*
X121843569Y-115266721D01*
X121625389Y-115226369D01*
X121573398Y-115208500D01*
X124038800Y-115208500D01*
X124038800Y-115359134D01*
X124243941Y-115358152D01*
X124449082Y-115357171D01*
X124438674Y-115249852D01*
X124422979Y-115193333D01*
X124479067Y-115193333D01*
X124481735Y-115293773D01*
X124495670Y-115343877D01*
X124529770Y-115361001D01*
X124565879Y-115362667D01*
X124624797Y-115354742D01*
X124644692Y-115317299D01*
X124642597Y-115265421D01*
X124716134Y-115265421D01*
X124724004Y-115336600D01*
X124757573Y-115358770D01*
X124792334Y-115356555D01*
X124860420Y-115318905D01*
X124878634Y-115275036D01*
X124875889Y-115259257D01*
X124925384Y-115259257D01*
X124926606Y-115337744D01*
X124952729Y-115356999D01*
X124956291Y-115355992D01*
X124999375Y-115314039D01*
X125006236Y-115293097D01*
X125023477Y-115228003D01*
X125088953Y-115228003D01*
X125095994Y-115296722D01*
X125137820Y-115348958D01*
X125189204Y-115362667D01*
X125237264Y-115349175D01*
X125256106Y-115296590D01*
X125258000Y-115248757D01*
X125251323Y-115174596D01*
X125317151Y-115174596D01*
X125318382Y-115252990D01*
X125332188Y-115324834D01*
X125355348Y-115361861D01*
X125359600Y-115362667D01*
X125382340Y-115333287D01*
X125396508Y-115278018D01*
X125466021Y-115278018D01*
X125472887Y-115310407D01*
X125514023Y-115355774D01*
X125566964Y-115349797D01*
X125607995Y-115303697D01*
X125666034Y-115303697D01*
X125683978Y-115353132D01*
X125707410Y-115362667D01*
X125750308Y-115338466D01*
X125755033Y-115320333D01*
X125762551Y-115272149D01*
X125839844Y-115272149D01*
X125848659Y-115338927D01*
X125866228Y-115362667D01*
X125903561Y-115337161D01*
X125905700Y-115328800D01*
X125909447Y-115265101D01*
X125969242Y-115265101D01*
X125984538Y-115330358D01*
X125992949Y-115341259D01*
X126048656Y-115359644D01*
X126103744Y-115328224D01*
X126112947Y-115308214D01*
X126277123Y-115308214D01*
X126314155Y-115352020D01*
X126391140Y-115355628D01*
X126447253Y-115323008D01*
X126456033Y-115286467D01*
X126454906Y-115265843D01*
X126512169Y-115265843D01*
X126526786Y-115330108D01*
X126534815Y-115341259D01*
X126590246Y-115360164D01*
X126642301Y-115328800D01*
X126815867Y-115328800D01*
X126841330Y-115358086D01*
X126898995Y-115359023D01*
X126960772Y-115334132D01*
X126983638Y-115313748D01*
X127003141Y-115267894D01*
X126970554Y-115219505D01*
X126960228Y-115210267D01*
X127052933Y-115210267D01*
X127059660Y-115301154D01*
X127076679Y-115355674D01*
X127086800Y-115362667D01*
X127106997Y-115332397D01*
X127107566Y-115328800D01*
X127154533Y-115328800D01*
X127182898Y-115356316D01*
X127222267Y-115362667D01*
X127277178Y-115342350D01*
X127290000Y-115313865D01*
X127267000Y-115254661D01*
X127252518Y-115241899D01*
X127250647Y-115238324D01*
X127332250Y-115238324D01*
X127333435Y-115325153D01*
X127357944Y-115360181D01*
X127374087Y-115362667D01*
X127409335Y-115341431D01*
X127423180Y-115275176D01*
X127463400Y-115275176D01*
X127494808Y-115338205D01*
X127562016Y-115362667D01*
X127610240Y-115351766D01*
X127625154Y-115306227D01*
X127622346Y-115252600D01*
X127621334Y-115249238D01*
X127696400Y-115249238D01*
X127707781Y-115331363D01*
X127732871Y-115360829D01*
X127758089Y-115333852D01*
X127769208Y-115269533D01*
X127774282Y-115176400D01*
X127788391Y-115269533D01*
X127808555Y-115337131D01*
X127834116Y-115362667D01*
X127858684Y-115333363D01*
X127870808Y-115269533D01*
X127875882Y-115176400D01*
X127889991Y-115269533D01*
X127913712Y-115344821D01*
X127942450Y-115358542D01*
X127961249Y-115313849D01*
X127961013Y-115254554D01*
X127960429Y-115251491D01*
X128008102Y-115251491D01*
X128034430Y-115320716D01*
X128100328Y-115360331D01*
X128124161Y-115362667D01*
X128182020Y-115354126D01*
X128200813Y-115314822D01*
X128198079Y-115255629D01*
X128196535Y-115251090D01*
X128245556Y-115251090D01*
X128245703Y-115261655D01*
X128260249Y-115337459D01*
X128303855Y-115362428D01*
X128311154Y-115362667D01*
X128363242Y-115342967D01*
X128373734Y-115318640D01*
X128370943Y-115310900D01*
X128498267Y-115310900D01*
X128500460Y-115352791D01*
X128525461Y-115362667D01*
X128580331Y-115336145D01*
X128591045Y-115320333D01*
X128613286Y-115295427D01*
X128630556Y-115320333D01*
X128677647Y-115359587D01*
X128696233Y-115362667D01*
X128720540Y-115351527D01*
X128719695Y-115308393D01*
X128693078Y-115218687D01*
X128690686Y-115211625D01*
X128754059Y-115211625D01*
X128760103Y-115277719D01*
X128791823Y-115343881D01*
X128850062Y-115357324D01*
X128857531Y-115356398D01*
X128915001Y-115329562D01*
X128932462Y-115259971D01*
X128932534Y-115252600D01*
X128928521Y-115227200D01*
X128983334Y-115227200D01*
X128992182Y-115322773D01*
X129013852Y-115359073D01*
X129041032Y-115333334D01*
X129050259Y-115302386D01*
X129128763Y-115302386D01*
X129131412Y-115312816D01*
X129177030Y-115353859D01*
X129219337Y-115362667D01*
X129269960Y-115346773D01*
X129287505Y-115287475D01*
X129288134Y-115263065D01*
X129285250Y-115241778D01*
X129355867Y-115241778D01*
X129366607Y-115326264D01*
X129390610Y-115360602D01*
X129415548Y-115340092D01*
X129428674Y-115269533D01*
X129433749Y-115176400D01*
X129447857Y-115269533D01*
X129471394Y-115344801D01*
X129499891Y-115358639D01*
X129518862Y-115314502D01*
X129518879Y-115252600D01*
X129514391Y-115234363D01*
X129571832Y-115234363D01*
X129580825Y-115306384D01*
X129626145Y-115355179D01*
X129660667Y-115362667D01*
X129720071Y-115334189D01*
X129746532Y-115291157D01*
X129744331Y-115247598D01*
X129796134Y-115247598D01*
X129807368Y-115330253D01*
X129832211Y-115360823D01*
X129857376Y-115335304D01*
X129868941Y-115269533D01*
X129874015Y-115176400D01*
X129888124Y-115269533D01*
X129908288Y-115337131D01*
X129933850Y-115362667D01*
X129958418Y-115333363D01*
X129970541Y-115269533D01*
X129975615Y-115176400D01*
X129989724Y-115269533D01*
X130013575Y-115344838D01*
X130042481Y-115358477D01*
X130061150Y-115313387D01*
X130060811Y-115265101D01*
X130134842Y-115265101D01*
X130150138Y-115330358D01*
X130158549Y-115341259D01*
X130214256Y-115359644D01*
X130269344Y-115328224D01*
X130298630Y-115264551D01*
X130286967Y-115184502D01*
X130235598Y-115144142D01*
X130180205Y-115149290D01*
X130146224Y-115192695D01*
X130134842Y-115265101D01*
X130060811Y-115265101D01*
X130060746Y-115255885D01*
X130046632Y-115184924D01*
X130008920Y-115152702D01*
X129925811Y-115140992D01*
X129923134Y-115140816D01*
X129840118Y-115139326D01*
X129804509Y-115160892D01*
X129796267Y-115222362D01*
X129796134Y-115247598D01*
X129744331Y-115247598D01*
X129742130Y-115204042D01*
X129714948Y-115165366D01*
X129667877Y-115129006D01*
X129627790Y-115145025D01*
X129606386Y-115165366D01*
X129571832Y-115234363D01*
X129514391Y-115234363D01*
X129498634Y-115170335D01*
X129450478Y-115135348D01*
X129432067Y-115131711D01*
X129381097Y-115133129D01*
X129359784Y-115168982D01*
X129355867Y-115241778D01*
X129285250Y-115241778D01*
X129277517Y-115184725D01*
X129253714Y-115142192D01*
X129234178Y-115101604D01*
X129238780Y-115089393D01*
X129238804Y-115059710D01*
X129230666Y-115057866D01*
X129196142Y-115086714D01*
X129160609Y-115155169D01*
X129134629Y-115236103D01*
X129128763Y-115302386D01*
X129050259Y-115302386D01*
X129063616Y-115257588D01*
X129071369Y-115150049D01*
X129040980Y-115097315D01*
X129015201Y-115091733D01*
X128995244Y-115121783D01*
X128984145Y-115196850D01*
X128983334Y-115227200D01*
X128928521Y-115227200D01*
X128921187Y-115180784D01*
X128896145Y-115150449D01*
X128870908Y-115170738D01*
X128862103Y-115204903D01*
X128843739Y-115273762D01*
X128824512Y-115279738D01*
X128814181Y-115221972D01*
X128814000Y-115209138D01*
X128807463Y-115145752D01*
X128784874Y-115142204D01*
X128775840Y-115150214D01*
X128754059Y-115211625D01*
X128690686Y-115211625D01*
X128689689Y-115208685D01*
X128645636Y-115107701D01*
X128604289Y-115074104D01*
X128564232Y-115107999D01*
X128524047Y-115209492D01*
X128520561Y-115221307D01*
X128498267Y-115310900D01*
X128370943Y-115310900D01*
X128351664Y-115257440D01*
X128333094Y-115233973D01*
X128311086Y-115200700D01*
X128339867Y-115193333D01*
X128368358Y-115182254D01*
X128349591Y-115155644D01*
X128297939Y-115132291D01*
X128260224Y-115167204D01*
X128245556Y-115251090D01*
X128196535Y-115251090D01*
X128169480Y-115171577D01*
X128115410Y-115137021D01*
X128051849Y-115159509D01*
X128033748Y-115177988D01*
X128008102Y-115251491D01*
X127960429Y-115251491D01*
X127947355Y-115183025D01*
X127910958Y-115151308D01*
X127829993Y-115141412D01*
X127823400Y-115141126D01*
X127740320Y-115141776D01*
X127704715Y-115164617D01*
X127696518Y-115226729D01*
X127696400Y-115249238D01*
X127621334Y-115249238D01*
X127597319Y-115169510D01*
X127551526Y-115142824D01*
X127497174Y-115177396D01*
X127483035Y-115197197D01*
X127463400Y-115275176D01*
X127423180Y-115275176D01*
X127424244Y-115270088D01*
X127425467Y-115224378D01*
X127414174Y-115130954D01*
X127387845Y-115098229D01*
X127357806Y-115124509D01*
X127335383Y-115208098D01*
X127332250Y-115238324D01*
X127250647Y-115238324D01*
X127236695Y-115211679D01*
X127260004Y-115190941D01*
X127287124Y-115154797D01*
X127281371Y-115139549D01*
X127240091Y-115138578D01*
X127205734Y-115159134D01*
X127172748Y-115206655D01*
X127192129Y-115248627D01*
X127213061Y-115287134D01*
X127192547Y-115294933D01*
X127156394Y-115318357D01*
X127154533Y-115328800D01*
X127107566Y-115328800D01*
X127119113Y-115255811D01*
X127120667Y-115210267D01*
X127113940Y-115119379D01*
X127096921Y-115064859D01*
X127086800Y-115057866D01*
X127066603Y-115088136D01*
X127054487Y-115164722D01*
X127052933Y-115210267D01*
X126960228Y-115210267D01*
X126953918Y-115204622D01*
X126899207Y-115145912D01*
X126886112Y-115106262D01*
X126917128Y-115098538D01*
X126934400Y-115103980D01*
X126978009Y-115104684D01*
X126985200Y-115090670D01*
X126960137Y-115061825D01*
X126904994Y-115060448D01*
X126849839Y-115082866D01*
X126827630Y-115109928D01*
X126833240Y-115171911D01*
X126867808Y-115228461D01*
X126906824Y-115276688D01*
X126898876Y-115293340D01*
X126871916Y-115294933D01*
X126823575Y-115311712D01*
X126815867Y-115328800D01*
X126642301Y-115328800D01*
X126643867Y-115327857D01*
X126673630Y-115257767D01*
X126673766Y-115256637D01*
X126659611Y-115180500D01*
X126610367Y-115136595D01*
X126546075Y-115141975D01*
X126541877Y-115144422D01*
X126517652Y-115191329D01*
X126512169Y-115265843D01*
X126454906Y-115265843D01*
X126452010Y-115212889D01*
X126447894Y-115113275D01*
X126447567Y-115103941D01*
X126443333Y-114980681D01*
X126358667Y-115105445D01*
X126291842Y-115225111D01*
X126277123Y-115308214D01*
X126112947Y-115308214D01*
X126133030Y-115264551D01*
X126121367Y-115184502D01*
X126069998Y-115144142D01*
X126014605Y-115149290D01*
X125980624Y-115192695D01*
X125969242Y-115265101D01*
X125909447Y-115265101D01*
X125911581Y-115228824D01*
X125906145Y-115139672D01*
X125891807Y-115081239D01*
X125874350Y-115070628D01*
X125853410Y-115112082D01*
X125841668Y-115187894D01*
X125839844Y-115272149D01*
X125762551Y-115272149D01*
X125765191Y-115255229D01*
X125779007Y-115204592D01*
X125786587Y-115149938D01*
X125751249Y-115138770D01*
X125741996Y-115139888D01*
X125699028Y-115171408D01*
X125672379Y-115234567D01*
X125666034Y-115303697D01*
X125607995Y-115303697D01*
X125610862Y-115300476D01*
X125624316Y-115252310D01*
X125619906Y-115182405D01*
X125595293Y-115159466D01*
X125571100Y-115134819D01*
X125576133Y-115105837D01*
X125576954Y-115066204D01*
X125554357Y-115066271D01*
X125507998Y-115111294D01*
X125475039Y-115192405D01*
X125466021Y-115278018D01*
X125396508Y-115278018D01*
X125400470Y-115262567D01*
X125400575Y-115261854D01*
X125402916Y-115173657D01*
X125386027Y-115113357D01*
X125356878Y-115095524D01*
X125331715Y-115117921D01*
X125317151Y-115174596D01*
X125251323Y-115174596D01*
X125250975Y-115170740D01*
X125221287Y-115140979D01*
X125182254Y-115138691D01*
X125117454Y-115167195D01*
X125088953Y-115228003D01*
X125023477Y-115228003D01*
X125026049Y-115218296D01*
X125037216Y-115187478D01*
X125040050Y-115144171D01*
X124998155Y-115139708D01*
X124947322Y-115175242D01*
X124925384Y-115259257D01*
X124875889Y-115259257D01*
X124866436Y-115204931D01*
X124822977Y-115151194D01*
X124768485Y-115135048D01*
X124751484Y-115141616D01*
X124726233Y-115188003D01*
X124716134Y-115265421D01*
X124642597Y-115265421D01*
X124642079Y-115252600D01*
X124622992Y-115175701D01*
X124589857Y-115150867D01*
X124589134Y-115151000D01*
X124555089Y-115130213D01*
X124546800Y-115091733D01*
X124532618Y-115036701D01*
X124512934Y-115024000D01*
X124493614Y-115054459D01*
X124481352Y-115132337D01*
X124479067Y-115193333D01*
X124422979Y-115193333D01*
X124415843Y-115167639D01*
X124377467Y-115140455D01*
X124294035Y-115164529D01*
X124246212Y-115231100D01*
X124242000Y-115262043D01*
X124223987Y-115306021D01*
X124174267Y-115304746D01*
X124124698Y-115271852D01*
X124107062Y-115196844D01*
X124106534Y-115172450D01*
X124097756Y-115095686D01*
X124076263Y-115058513D01*
X124072667Y-115057866D01*
X124052371Y-115088115D01*
X124040279Y-115164553D01*
X124038800Y-115208500D01*
X121573398Y-115208500D01*
X121434256Y-115160678D01*
X121250566Y-115064015D01*
X121184655Y-115021988D01*
X121166745Y-115009129D01*
X122726043Y-115009129D01*
X122747393Y-115056383D01*
X122774359Y-115067828D01*
X122843164Y-115082011D01*
X122899391Y-115077716D01*
X122964522Y-115048373D01*
X123060039Y-114987409D01*
X123079105Y-114974599D01*
X123297823Y-114790768D01*
X123484261Y-114553802D01*
X123593174Y-114363290D01*
X123712164Y-114055756D01*
X123770834Y-113730983D01*
X123769757Y-113400651D01*
X123759409Y-113344972D01*
X124042274Y-113344972D01*
X124043446Y-113512978D01*
X124046205Y-113638745D01*
X124050451Y-113711830D01*
X124052764Y-113724607D01*
X124069729Y-113741047D01*
X124111582Y-113752945D01*
X124186469Y-113760746D01*
X124302538Y-113764894D01*
X124467936Y-113765837D01*
X124690811Y-113764020D01*
X124757674Y-113763170D01*
X125444267Y-113754000D01*
X125444267Y-113516933D01*
X124979313Y-113507515D01*
X124514359Y-113498098D01*
X124513988Y-113471234D01*
X125889082Y-113471234D01*
X125911271Y-113510481D01*
X126035137Y-113637245D01*
X126214870Y-113731692D01*
X126296605Y-113758359D01*
X126438465Y-113783482D01*
X126617865Y-113794234D01*
X126812534Y-113791444D01*
X127000200Y-113775945D01*
X127148369Y-113750335D01*
X127933467Y-113750335D01*
X127964430Y-113760617D01*
X128045736Y-113768000D01*
X128160004Y-113770930D01*
X128163867Y-113770933D01*
X128394266Y-113770933D01*
X128537567Y-113567733D01*
X128680867Y-113364533D01*
X129711467Y-113366335D01*
X129999167Y-113770933D01*
X130219384Y-113770933D01*
X130331515Y-113767133D01*
X130410829Y-113757189D01*
X130439600Y-113743841D01*
X130420013Y-113708959D01*
X130365955Y-113630378D01*
X130284477Y-113517910D01*
X130182632Y-113381369D01*
X130117083Y-113295108D01*
X129973246Y-113107044D01*
X129812886Y-112897349D01*
X129654535Y-112690255D01*
X129516723Y-112509997D01*
X129503322Y-112492467D01*
X129397507Y-112355943D01*
X129305786Y-112241181D01*
X129236079Y-112157819D01*
X129196304Y-112115494D01*
X129190839Y-112112159D01*
X129162002Y-112137755D01*
X129104737Y-112204951D01*
X129030254Y-112300425D01*
X129012727Y-112323825D01*
X128893869Y-112482579D01*
X128751457Y-112671083D01*
X128596669Y-112874702D01*
X128440684Y-113078797D01*
X128294680Y-113268734D01*
X128169836Y-113429876D01*
X128097837Y-113521735D01*
X128020279Y-113622334D01*
X127962436Y-113702035D01*
X127934561Y-113746576D01*
X127933467Y-113750335D01*
X127148369Y-113750335D01*
X127158593Y-113748568D01*
X127239200Y-113723175D01*
X127411570Y-113626044D01*
X127524932Y-113508078D01*
X127576711Y-113373744D01*
X127564327Y-113227508D01*
X127549355Y-113185859D01*
X127497954Y-113106709D01*
X127408484Y-113033233D01*
X127273638Y-112961520D01*
X127086113Y-112887657D01*
X126849024Y-112810879D01*
X126666973Y-112746698D01*
X126527569Y-112678700D01*
X126439018Y-112611703D01*
X126409467Y-112552872D01*
X126433636Y-112513322D01*
X126492448Y-112457583D01*
X126498701Y-112452591D01*
X126611007Y-112400360D01*
X126757074Y-112380281D01*
X126910978Y-112392482D01*
X127046795Y-112437089D01*
X127069311Y-112449790D01*
X127139786Y-112488778D01*
X127197690Y-112499788D01*
X127272358Y-112484331D01*
X127335775Y-112463540D01*
X127426600Y-112429221D01*
X127483478Y-112401244D01*
X127493200Y-112391623D01*
X127462678Y-112339919D01*
X127381133Y-112281295D01*
X127263596Y-112223814D01*
X127125101Y-112175541D01*
X127059179Y-112158799D01*
X126831095Y-112126638D01*
X126610879Y-112129617D01*
X126408008Y-112164182D01*
X126231964Y-112226779D01*
X126092224Y-112313853D01*
X125998269Y-112421852D01*
X125959577Y-112547221D01*
X125959208Y-112571211D01*
X125971763Y-112663101D01*
X126008955Y-112741020D01*
X126078645Y-112810583D01*
X126188693Y-112877404D01*
X126346959Y-112947098D01*
X126561303Y-113025280D01*
X126625464Y-113047109D01*
X126774914Y-113099820D01*
X126907389Y-113150848D01*
X127004953Y-113193062D01*
X127041194Y-113212422D01*
X127108064Y-113284882D01*
X127109562Y-113366979D01*
X127045962Y-113451663D01*
X127031433Y-113463675D01*
X126919403Y-113515817D01*
X126771553Y-113536812D01*
X126608977Y-113529022D01*
X126452771Y-113494808D01*
X126324031Y-113436532D01*
X126257067Y-113376982D01*
X126225607Y-113353826D01*
X126170987Y-113353279D01*
X126075357Y-113376040D01*
X126043358Y-113385332D01*
X125942021Y-113417286D01*
X125894448Y-113442270D01*
X125889082Y-113471234D01*
X124513988Y-113471234D01*
X124505180Y-112834641D01*
X124496000Y-112171185D01*
X124055734Y-112171165D01*
X124045090Y-112924018D01*
X124042789Y-113145172D01*
X124042274Y-113344972D01*
X123759409Y-113344972D01*
X123709502Y-113076440D01*
X123590640Y-112770031D01*
X123508223Y-112625292D01*
X123391251Y-112442436D01*
X123463880Y-112391565D01*
X123511559Y-112343496D01*
X123499546Y-112303732D01*
X123454252Y-112289088D01*
X123406458Y-112322895D01*
X123373810Y-112348341D01*
X123338664Y-112348391D01*
X123287213Y-112316619D01*
X123205650Y-112246596D01*
X123166904Y-112211377D01*
X123091897Y-112146121D01*
X123683088Y-112146121D01*
X123686719Y-112154496D01*
X123723591Y-112150106D01*
X123786377Y-112115550D01*
X123851702Y-112067123D01*
X123896192Y-112021118D01*
X123903334Y-112003498D01*
X123876250Y-111978270D01*
X123858437Y-111976000D01*
X123808601Y-111996691D01*
X123749862Y-112045354D01*
X123701572Y-112101870D01*
X123683088Y-112146121D01*
X123091897Y-112146121D01*
X123053445Y-112112669D01*
X122980868Y-112059761D01*
X122951431Y-112052409D01*
X122967395Y-112090371D01*
X123031019Y-112173405D01*
X123072385Y-112221533D01*
X123238449Y-112450143D01*
X123374463Y-112716529D01*
X123472280Y-112999720D01*
X123523752Y-113278744D01*
X123529624Y-113398400D01*
X123498734Y-113689853D01*
X123410536Y-113987985D01*
X123271739Y-114277346D01*
X123089050Y-114542484D01*
X122979819Y-114664749D01*
X122841160Y-114815463D01*
X122756934Y-114929539D01*
X122726043Y-115009129D01*
X121166745Y-115009129D01*
X121068495Y-114938590D01*
X120958896Y-114848763D01*
X120866148Y-114762543D01*
X120800543Y-114689961D01*
X120772374Y-114641051D01*
X120779133Y-114626664D01*
X120819795Y-114593349D01*
X120807630Y-114561544D01*
X120758101Y-114558537D01*
X120716633Y-114554694D01*
X120673879Y-114513127D01*
X120620622Y-114423217D01*
X120613734Y-114409610D01*
X120971344Y-114409610D01*
X120973264Y-114413425D01*
X121008248Y-114424744D01*
X121071570Y-114382621D01*
X121096115Y-114360041D01*
X121158221Y-114294248D01*
X121191967Y-114246257D01*
X121194000Y-114238730D01*
X121175716Y-114213696D01*
X121118921Y-114238493D01*
X121045749Y-114293333D01*
X120983954Y-114359037D01*
X120971344Y-114409610D01*
X120613734Y-114409610D01*
X120592546Y-114367754D01*
X120473415Y-114061290D01*
X120420915Y-113757900D01*
X120428499Y-113586676D01*
X121297728Y-113586676D01*
X121314858Y-113753968D01*
X121346639Y-113861396D01*
X121376972Y-113960465D01*
X121366041Y-114021138D01*
X121361928Y-114026626D01*
X121348754Y-114073970D01*
X121378813Y-114101087D01*
X121427673Y-114090804D01*
X121439321Y-114081026D01*
X121486469Y-114069006D01*
X121562862Y-114107195D01*
X121575721Y-114116142D01*
X121753023Y-114202764D01*
X121948207Y-114227793D01*
X122150734Y-114191118D01*
X122299859Y-114123772D01*
X122421138Y-114021578D01*
X122523601Y-113876374D01*
X122593275Y-113712708D01*
X122616400Y-113567733D01*
X122590516Y-113421159D01*
X122522346Y-113263636D01*
X122426115Y-113121555D01*
X122398650Y-113095906D01*
X122514800Y-113095906D01*
X122535454Y-113125983D01*
X122593947Y-113105406D01*
X122673778Y-113045681D01*
X122729513Y-112987335D01*
X122747983Y-112945737D01*
X122745350Y-112940386D01*
X122706589Y-112943008D01*
X122641511Y-112976393D01*
X122573201Y-113024970D01*
X122524747Y-113073166D01*
X122514800Y-113095906D01*
X122398650Y-113095906D01*
X122325096Y-113027216D01*
X122190107Y-112965240D01*
X122025028Y-112931173D01*
X121856434Y-112927298D01*
X121710898Y-112955897D01*
X121675254Y-112971385D01*
X121495026Y-113098158D01*
X121364127Y-113262854D01*
X121351258Y-113286651D01*
X121309941Y-113420953D01*
X121297728Y-113586676D01*
X120428499Y-113586676D01*
X120434448Y-113452392D01*
X120468361Y-113287173D01*
X120552990Y-113033413D01*
X120656840Y-112839600D01*
X122819600Y-112839600D01*
X122836533Y-112856533D01*
X122853467Y-112839600D01*
X122836533Y-112822666D01*
X122819600Y-112839600D01*
X120656840Y-112839600D01*
X120671726Y-112811819D01*
X120690487Y-112787901D01*
X122904327Y-112787901D01*
X122905746Y-112791193D01*
X122940054Y-112792090D01*
X123001442Y-112762156D01*
X123067139Y-112716411D01*
X123114373Y-112669877D01*
X123124400Y-112646964D01*
X123102883Y-112620682D01*
X123041401Y-112644070D01*
X122976245Y-112689912D01*
X122920932Y-112745446D01*
X122904327Y-112787901D01*
X120690487Y-112787901D01*
X120837194Y-112600868D01*
X120924582Y-112509344D01*
X121072999Y-112370987D01*
X121217218Y-112262002D01*
X121370693Y-112176519D01*
X121546877Y-112108667D01*
X121759223Y-112052576D01*
X122021186Y-112002376D01*
X122125334Y-111985387D01*
X122230494Y-111963219D01*
X122284748Y-111933541D01*
X122304895Y-111887054D01*
X122305061Y-111885918D01*
X122286811Y-111829177D01*
X124071025Y-111829177D01*
X124098025Y-111839829D01*
X124167117Y-111804811D01*
X124192762Y-111786246D01*
X124268778Y-111717227D01*
X124284934Y-111670533D01*
X124277878Y-111659664D01*
X124231348Y-111652287D01*
X124159519Y-111703019D01*
X124157782Y-111704645D01*
X124089737Y-111781301D01*
X124071025Y-111829177D01*
X122286811Y-111829177D01*
X122284018Y-111820496D01*
X122203859Y-111774188D01*
X122070936Y-111748745D01*
X121891605Y-111745917D01*
X121815167Y-111750919D01*
X121474318Y-111811383D01*
X121158522Y-111929278D01*
X120873533Y-112098490D01*
X120625103Y-112312901D01*
X120418986Y-112566396D01*
X120260934Y-112852859D01*
X120156700Y-113166173D01*
X120112038Y-113500223D01*
X120110767Y-113562887D01*
X119026534Y-113562887D01*
X119026534Y-111507770D01*
X124445200Y-111507770D01*
X124464309Y-111533462D01*
X124522284Y-111505554D01*
X124589134Y-111451621D01*
X124660670Y-111382287D01*
X124678837Y-111344674D01*
X124646391Y-111332584D01*
X124642116Y-111332533D01*
X124591020Y-111354549D01*
X124524732Y-111405960D01*
X124467922Y-111464813D01*
X124445200Y-111507770D01*
X119026534Y-111507770D01*
X119026534Y-110993867D01*
X125004000Y-110996007D01*
X124910867Y-111077979D01*
X124839297Y-111147344D01*
X124821329Y-111184719D01*
X124854419Y-111196008D01*
X124860067Y-111195940D01*
X124919290Y-111173141D01*
X124988284Y-111121800D01*
X125041188Y-111063854D01*
X125054800Y-111030771D01*
X125077941Y-111023422D01*
X125148824Y-111016966D01*
X125269643Y-111011373D01*
X125442590Y-111006612D01*
X125669857Y-111002655D01*
X125953636Y-110999471D01*
X126296120Y-110997031D01*
X126699502Y-110995304D01*
X127165973Y-110994260D01*
X127697727Y-110993871D01*
X127764134Y-110993867D01*
X130473467Y-110993867D01*
X130473467Y-113974133D01*
G36*
X130462178Y-115204622D02*
G01*
X130457529Y-115224756D01*
X130439600Y-115227200D01*
X130411724Y-115214809D01*
X130417022Y-115204622D01*
X130457214Y-115200569D01*
X130462178Y-115204622D01*
G37*
X130462178Y-115204622D02*
X130457529Y-115224756D01*
X130439600Y-115227200D01*
X130411724Y-115214809D01*
X130417022Y-115204622D01*
X130457214Y-115200569D01*
X130462178Y-115204622D01*
G36*
X124335134Y-114116137D02*
G01*
X124365764Y-114132059D01*
X124384290Y-114174416D01*
X124393883Y-114257079D01*
X124397662Y-114389554D01*
X124397640Y-114522286D01*
X124391420Y-114601016D01*
X124375912Y-114639403D01*
X124348025Y-114651108D01*
X124338395Y-114651466D01*
X124307224Y-114644446D01*
X124288476Y-114614470D01*
X124279094Y-114548165D01*
X124276019Y-114432159D01*
X124275867Y-114378050D01*
X124277423Y-114242280D01*
X124284002Y-114161550D01*
X124298467Y-114123199D01*
X124323685Y-114114568D01*
X124335134Y-114116137D01*
G37*
X124335134Y-114116137D02*
X124365764Y-114132059D01*
X124384290Y-114174416D01*
X124393883Y-114257079D01*
X124397662Y-114389554D01*
X124397640Y-114522286D01*
X124391420Y-114601016D01*
X124375912Y-114639403D01*
X124348025Y-114651108D01*
X124338395Y-114651466D01*
X124307224Y-114644446D01*
X124288476Y-114614470D01*
X124279094Y-114548165D01*
X124276019Y-114432159D01*
X124275867Y-114378050D01*
X124277423Y-114242280D01*
X124284002Y-114161550D01*
X124298467Y-114123199D01*
X124323685Y-114114568D01*
X124335134Y-114116137D01*
G36*
X126242495Y-114094350D02*
G01*
X126329776Y-114121080D01*
X126361895Y-114148690D01*
X126347447Y-114166918D01*
X126271994Y-114165268D01*
X126233342Y-114160151D01*
X126125450Y-114151928D01*
X126061809Y-114170073D01*
X126041815Y-114188385D01*
X126020153Y-114226130D01*
X126033387Y-114258359D01*
X126090999Y-114293511D01*
X126202470Y-114340025D01*
X126219645Y-114346666D01*
X126312660Y-114393394D01*
X126379452Y-114446227D01*
X126388998Y-114458855D01*
X126397896Y-114522571D01*
X126354442Y-114578620D01*
X126273954Y-114622204D01*
X126171753Y-114648525D01*
X126063157Y-114652785D01*
X125963488Y-114630183D01*
X125919743Y-114605836D01*
X125880255Y-114564189D01*
X125899287Y-114534280D01*
X125956557Y-114531511D01*
X125978924Y-114546044D01*
X126046676Y-114576185D01*
X126141771Y-114581698D01*
X126230335Y-114563585D01*
X126270271Y-114537427D01*
X126287711Y-114490579D01*
X126252234Y-114447682D01*
X126158007Y-114403544D01*
X126095891Y-114382218D01*
X125966620Y-114325914D01*
X125897609Y-114263260D01*
X125890414Y-114200102D01*
X125946590Y-114142289D01*
X126023112Y-114108573D01*
X126131755Y-114089172D01*
X126242495Y-114094350D01*
G37*
X126242495Y-114094350D02*
X126329776Y-114121080D01*
X126361895Y-114148690D01*
X126347447Y-114166918D01*
X126271994Y-114165268D01*
X126233342Y-114160151D01*
X126125450Y-114151928D01*
X126061809Y-114170073D01*
X126041815Y-114188385D01*
X126020153Y-114226130D01*
X126033387Y-114258359D01*
X126090999Y-114293511D01*
X126202470Y-114340025D01*
X126219645Y-114346666D01*
X126312660Y-114393394D01*
X126379452Y-114446227D01*
X126388998Y-114458855D01*
X126397896Y-114522571D01*
X126354442Y-114578620D01*
X126273954Y-114622204D01*
X126171753Y-114648525D01*
X126063157Y-114652785D01*
X125963488Y-114630183D01*
X125919743Y-114605836D01*
X125880255Y-114564189D01*
X125899287Y-114534280D01*
X125956557Y-114531511D01*
X125978924Y-114546044D01*
X126046676Y-114576185D01*
X126141771Y-114581698D01*
X126230335Y-114563585D01*
X126270271Y-114537427D01*
X126287711Y-114490579D01*
X126252234Y-114447682D01*
X126158007Y-114403544D01*
X126095891Y-114382218D01*
X125966620Y-114325914D01*
X125897609Y-114263260D01*
X125890414Y-114200102D01*
X125946590Y-114142289D01*
X126023112Y-114108573D01*
X126131755Y-114089172D01*
X126242495Y-114094350D01*
G36*
X128145134Y-114115120D02*
G01*
X128390667Y-114120640D01*
X128204400Y-114140520D01*
X128095214Y-114155941D01*
X128036710Y-114177811D01*
X128011863Y-114214430D01*
X128007311Y-114236600D01*
X128006413Y-114280012D01*
X128029859Y-114302783D01*
X128093030Y-114311506D01*
X128185111Y-114312800D01*
X128287849Y-114318301D01*
X128356357Y-114332509D01*
X128373734Y-114346666D01*
X128343113Y-114365213D01*
X128264124Y-114377514D01*
X128187467Y-114380533D01*
X128080981Y-114382239D01*
X128025556Y-114393420D01*
X128004520Y-114423169D01*
X128001200Y-114480579D01*
X128001200Y-114482133D01*
X128004328Y-114540216D01*
X128024826Y-114570448D01*
X128079365Y-114581922D01*
X128184618Y-114583733D01*
X128187467Y-114583733D01*
X128289473Y-114589301D01*
X128357129Y-114603662D01*
X128373734Y-114617600D01*
X128342410Y-114634973D01*
X128258455Y-114646977D01*
X128136897Y-114651466D01*
X127899600Y-114651466D01*
X127899600Y-114109600D01*
X128145134Y-114115120D01*
G37*
X128145134Y-114115120D02*
X128390667Y-114120640D01*
X128204400Y-114140520D01*
X128095214Y-114155941D01*
X128036710Y-114177811D01*
X128011863Y-114214430D01*
X128007311Y-114236600D01*
X128006413Y-114280012D01*
X128029859Y-114302783D01*
X128093030Y-114311506D01*
X128185111Y-114312800D01*
X128287849Y-114318301D01*
X128356357Y-114332509D01*
X128373734Y-114346666D01*
X128343113Y-114365213D01*
X128264124Y-114377514D01*
X128187467Y-114380533D01*
X128080981Y-114382239D01*
X128025556Y-114393420D01*
X128004520Y-114423169D01*
X128001200Y-114480579D01*
X128001200Y-114482133D01*
X128004328Y-114540216D01*
X128024826Y-114570448D01*
X128079365Y-114581922D01*
X128184618Y-114583733D01*
X128187467Y-114583733D01*
X128289473Y-114589301D01*
X128357129Y-114603662D01*
X128373734Y-114617600D01*
X128342410Y-114634973D01*
X128258455Y-114646977D01*
X128136897Y-114651466D01*
X127899600Y-114651466D01*
X127899600Y-114109600D01*
X128145134Y-114115120D01*
G36*
X130210389Y-114122686D02*
G01*
X130319378Y-114160883D01*
X130369087Y-114222597D01*
X130371867Y-114245067D01*
X130340963Y-114309069D01*
X130259277Y-114356866D01*
X130143348Y-114379720D01*
X130115448Y-114380533D01*
X129965467Y-114380533D01*
X129965467Y-114516000D01*
X129959307Y-114605445D01*
X129935594Y-114644742D01*
X129902502Y-114651466D01*
X129870774Y-114644051D01*
X129851103Y-114612885D01*
X129840059Y-114544586D01*
X129834208Y-114425774D01*
X129833007Y-114380533D01*
X129830595Y-114280450D01*
X129966198Y-114280450D01*
X130008010Y-114329636D01*
X130098794Y-114337608D01*
X130160200Y-114325321D01*
X130218967Y-114289446D01*
X130237401Y-114238806D01*
X130211000Y-114200948D01*
X130121170Y-114167243D01*
X130037044Y-114161385D01*
X129983407Y-114184172D01*
X129978033Y-114193435D01*
X129966198Y-114280450D01*
X129830595Y-114280450D01*
X129826477Y-114109600D01*
X130045953Y-114109600D01*
X130210389Y-114122686D01*
G37*
X130210389Y-114122686D02*
X130319378Y-114160883D01*
X130369087Y-114222597D01*
X130371867Y-114245067D01*
X130340963Y-114309069D01*
X130259277Y-114356866D01*
X130143348Y-114379720D01*
X130115448Y-114380533D01*
X129965467Y-114380533D01*
X129965467Y-114516000D01*
X129959307Y-114605445D01*
X129935594Y-114644742D01*
X129902502Y-114651466D01*
X129870774Y-114644051D01*
X129851103Y-114612885D01*
X129840059Y-114544586D01*
X129834208Y-114425774D01*
X129833007Y-114380533D01*
X129830595Y-114280450D01*
X129966198Y-114280450D01*
X130008010Y-114329636D01*
X130098794Y-114337608D01*
X130160200Y-114325321D01*
X130218967Y-114289446D01*
X130237401Y-114238806D01*
X130211000Y-114200948D01*
X130121170Y-114167243D01*
X130037044Y-114161385D01*
X129983407Y-114184172D01*
X129978033Y-114193435D01*
X129966198Y-114280450D01*
X129830595Y-114280450D01*
X129826477Y-114109600D01*
X130045953Y-114109600D01*
X130210389Y-114122686D01*
G36*
X124344153Y-115210608D02*
G01*
X124363689Y-115251195D01*
X124359087Y-115263407D01*
X124326394Y-115293436D01*
X124310396Y-115259233D01*
X124309734Y-115242134D01*
X124326396Y-115207253D01*
X124344153Y-115210608D01*
G37*
X124344153Y-115210608D02*
X124363689Y-115251195D01*
X124359087Y-115263407D01*
X124326394Y-115293436D01*
X124310396Y-115259233D01*
X124309734Y-115242134D01*
X124326396Y-115207253D01*
X124344153Y-115210608D01*
G36*
X124569935Y-115220850D02*
G01*
X124573972Y-115273779D01*
X124567261Y-115285761D01*
X124551868Y-115275661D01*
X124549474Y-115241311D01*
X124557745Y-115205174D01*
X124569935Y-115220850D01*
G37*
X124569935Y-115220850D02*
X124573972Y-115273779D01*
X124567261Y-115285761D01*
X124551868Y-115275661D01*
X124549474Y-115241311D01*
X124557745Y-115205174D01*
X124569935Y-115220850D01*
G36*
X124816262Y-115220988D02*
G01*
X124817734Y-115244133D01*
X124800010Y-115289210D01*
X124784930Y-115294933D01*
X124766296Y-115270109D01*
X124771620Y-115244133D01*
X124795658Y-115199573D01*
X124804424Y-115193333D01*
X124816262Y-115220988D01*
G37*
X124816262Y-115220988D02*
X124817734Y-115244133D01*
X124800010Y-115289210D01*
X124784930Y-115294933D01*
X124766296Y-115270109D01*
X124771620Y-115244133D01*
X124795658Y-115199573D01*
X124804424Y-115193333D01*
X124816262Y-115220988D01*
G36*
X125179535Y-115220850D02*
G01*
X125183572Y-115273779D01*
X125176861Y-115285761D01*
X125161468Y-115275661D01*
X125159074Y-115241311D01*
X125167345Y-115205174D01*
X125179535Y-115220850D01*
G37*
X125179535Y-115220850D02*
X125183572Y-115273779D01*
X125176861Y-115285761D01*
X125161468Y-115275661D01*
X125159074Y-115241311D01*
X125167345Y-115205174D01*
X125179535Y-115220850D01*
G36*
X125552068Y-115220850D02*
G01*
X125556106Y-115273779D01*
X125549395Y-115285761D01*
X125534002Y-115275661D01*
X125531607Y-115241311D01*
X125539878Y-115205174D01*
X125552068Y-115220850D01*
G37*
X125552068Y-115220850D02*
X125556106Y-115273779D01*
X125549395Y-115285761D01*
X125534002Y-115275661D01*
X125531607Y-115241311D01*
X125539878Y-115205174D01*
X125552068Y-115220850D01*
G36*
X126060068Y-115220850D02*
G01*
X126064106Y-115273779D01*
X126057395Y-115285761D01*
X126042002Y-115275661D01*
X126039607Y-115241311D01*
X126047878Y-115205174D01*
X126060068Y-115220850D01*
G37*
X126060068Y-115220850D02*
X126064106Y-115273779D01*
X126057395Y-115285761D01*
X126042002Y-115275661D01*
X126039607Y-115241311D01*
X126047878Y-115205174D01*
X126060068Y-115220850D01*
G36*
X126408483Y-115252972D02*
G01*
X126409467Y-115261067D01*
X126383695Y-115293949D01*
X126375600Y-115294933D01*
X126342718Y-115269161D01*
X126341733Y-115261067D01*
X126367505Y-115228184D01*
X126375600Y-115227200D01*
X126408483Y-115252972D01*
G37*
X126408483Y-115252972D02*
X126409467Y-115261067D01*
X126383695Y-115293949D01*
X126375600Y-115294933D01*
X126342718Y-115269161D01*
X126341733Y-115261067D01*
X126367505Y-115228184D01*
X126375600Y-115227200D01*
X126408483Y-115252972D01*
G36*
X126612667Y-115278000D02*
G01*
X126595733Y-115294933D01*
X126578800Y-115278000D01*
X126595733Y-115261067D01*
X126612667Y-115278000D01*
G37*
X126612667Y-115278000D02*
X126595733Y-115294933D01*
X126578800Y-115278000D01*
X126595733Y-115261067D01*
X126612667Y-115278000D01*
G36*
X126612667Y-115210267D02*
G01*
X126595733Y-115227200D01*
X126578800Y-115210267D01*
X126595733Y-115193333D01*
X126612667Y-115210267D01*
G37*
X126612667Y-115210267D02*
X126595733Y-115227200D01*
X126578800Y-115210267D01*
X126595733Y-115193333D01*
X126612667Y-115210267D01*
G36*
X127583511Y-115272355D02*
G01*
X127578862Y-115292489D01*
X127560934Y-115294933D01*
X127533057Y-115282542D01*
X127538356Y-115272355D01*
X127578548Y-115268302D01*
X127583511Y-115272355D01*
G37*
X127583511Y-115272355D02*
X127578862Y-115292489D01*
X127560934Y-115294933D01*
X127533057Y-115282542D01*
X127538356Y-115272355D01*
X127578548Y-115268302D01*
X127583511Y-115272355D01*
G36*
X127560934Y-115210267D02*
G01*
X127544000Y-115227200D01*
X127527067Y-115210267D01*
X127544000Y-115193333D01*
X127560934Y-115210267D01*
G37*
X127560934Y-115210267D02*
X127544000Y-115227200D01*
X127527067Y-115210267D01*
X127544000Y-115193333D01*
X127560934Y-115210267D01*
G36*
X128102800Y-115210267D02*
G01*
X128135375Y-115253564D01*
X128136667Y-115263065D01*
X128110835Y-115294021D01*
X128102800Y-115294933D01*
X128073078Y-115267367D01*
X128068934Y-115242134D01*
X128085352Y-115207081D01*
X128102800Y-115210267D01*
G37*
X128102800Y-115210267D02*
X128135375Y-115253564D01*
X128136667Y-115263065D01*
X128110835Y-115294021D01*
X128102800Y-115294933D01*
X128073078Y-115267367D01*
X128068934Y-115242134D01*
X128085352Y-115207081D01*
X128102800Y-115210267D01*
G36*
X128610800Y-115244133D02*
G01*
X128593867Y-115261067D01*
X128576934Y-115244133D01*
X128593867Y-115227200D01*
X128610800Y-115244133D01*
G37*
X128610800Y-115244133D02*
X128593867Y-115261067D01*
X128576934Y-115244133D01*
X128593867Y-115227200D01*
X128610800Y-115244133D01*
G36*
X129209668Y-115220850D02*
G01*
X129213706Y-115273779D01*
X129206995Y-115285761D01*
X129191602Y-115275661D01*
X129189207Y-115241311D01*
X129197478Y-115205174D01*
X129209668Y-115220850D01*
G37*
X129209668Y-115220850D02*
X129213706Y-115273779D01*
X129206995Y-115285761D01*
X129191602Y-115275661D01*
X129189207Y-115241311D01*
X129197478Y-115205174D01*
X129209668Y-115220850D01*
G36*
X129690713Y-115220764D02*
G01*
X129694534Y-115244133D01*
X129676246Y-115289202D01*
X129660667Y-115294933D01*
X129630621Y-115267503D01*
X129626800Y-115244133D01*
X129645087Y-115199064D01*
X129660667Y-115193333D01*
X129690713Y-115220764D01*
G37*
X129690713Y-115220764D02*
X129694534Y-115244133D01*
X129676246Y-115289202D01*
X129660667Y-115294933D01*
X129630621Y-115267503D01*
X129626800Y-115244133D01*
X129645087Y-115199064D01*
X129660667Y-115193333D01*
X129690713Y-115220764D01*
G36*
X130225668Y-115220850D02*
G01*
X130229706Y-115273779D01*
X130222995Y-115285761D01*
X130207602Y-115275661D01*
X130205207Y-115241311D01*
X130213478Y-115205174D01*
X130225668Y-115220850D01*
G37*
X130225668Y-115220850D02*
X130229706Y-115273779D01*
X130222995Y-115285761D01*
X130207602Y-115275661D01*
X130205207Y-115241311D01*
X130213478Y-115205174D01*
X130225668Y-115220850D01*
G36*
X122826373Y-114983360D02*
G01*
X122852713Y-115028513D01*
X122827474Y-115041600D01*
X122785733Y-115024000D01*
X122756101Y-114986610D01*
X122761879Y-114968832D01*
X122803056Y-114966885D01*
X122826373Y-114983360D01*
G37*
X122826373Y-114983360D02*
X122852713Y-115028513D01*
X122827474Y-115041600D01*
X122785733Y-115024000D01*
X122756101Y-114986610D01*
X122761879Y-114968832D01*
X122803056Y-114966885D01*
X122826373Y-114983360D01*
G36*
X121939067Y-113686267D02*
G01*
X121922134Y-113703200D01*
X121905200Y-113686267D01*
X121922134Y-113669333D01*
X121939067Y-113686267D01*
G37*
X121939067Y-113686267D02*
X121922134Y-113703200D01*
X121905200Y-113686267D01*
X121922134Y-113669333D01*
X121939067Y-113686267D01*
G36*
X121860328Y-113455764D02*
G01*
X121899298Y-113484040D01*
X121915855Y-113481520D01*
X121977052Y-113484983D01*
X122004652Y-113497793D01*
X122035311Y-113535733D01*
X122020149Y-113597384D01*
X122015411Y-113607504D01*
X121987641Y-113655551D01*
X121976388Y-113643035D01*
X121975226Y-113627000D01*
X121955982Y-113573912D01*
X121909725Y-113581004D01*
X121883305Y-113603175D01*
X121857841Y-113606770D01*
X121847003Y-113548318D01*
X121846405Y-113526975D01*
X121849252Y-113463666D01*
X121858142Y-113451126D01*
X121860328Y-113455764D01*
G37*
X121860328Y-113455764D02*
X121899298Y-113484040D01*
X121915855Y-113481520D01*
X121977052Y-113484983D01*
X122004652Y-113497793D01*
X122035311Y-113535733D01*
X122020149Y-113597384D01*
X122015411Y-113607504D01*
X121987641Y-113655551D01*
X121976388Y-113643035D01*
X121975226Y-113627000D01*
X121955982Y-113573912D01*
X121909725Y-113581004D01*
X121883305Y-113603175D01*
X121857841Y-113606770D01*
X121847003Y-113548318D01*
X121846405Y-113526975D01*
X121849252Y-113463666D01*
X121858142Y-113451126D01*
X121860328Y-113455764D01*
G36*
X121792311Y-113545155D02*
G01*
X121796364Y-113585347D01*
X121792311Y-113590311D01*
X121772178Y-113585662D01*
X121769734Y-113567733D01*
X121782125Y-113539857D01*
X121792311Y-113545155D01*
G37*
X121792311Y-113545155D02*
X121796364Y-113585347D01*
X121792311Y-113590311D01*
X121772178Y-113585662D01*
X121769734Y-113567733D01*
X121782125Y-113539857D01*
X121792311Y-113545155D01*
G36*
X129235076Y-112688886D02*
G01*
X129243479Y-112704133D01*
X129300601Y-112798586D01*
X129373135Y-112903416D01*
X129388840Y-112924266D01*
X129459434Y-113017117D01*
X129494130Y-113076292D01*
X129486096Y-113109359D01*
X129428502Y-113123889D01*
X129314517Y-113127449D01*
X129205466Y-113127467D01*
X129066745Y-113125832D01*
X128957739Y-113121438D01*
X128893111Y-113115046D01*
X128881734Y-113110628D01*
X128900393Y-113077232D01*
X128949753Y-113004227D01*
X129019883Y-112906201D01*
X129034134Y-112886769D01*
X129107671Y-112782304D01*
X129162140Y-112696237D01*
X129187277Y-112644961D01*
X129187889Y-112641141D01*
X129201991Y-112640712D01*
X129235076Y-112688886D01*
G37*
X129235076Y-112688886D02*
X129243479Y-112704133D01*
X129300601Y-112798586D01*
X129373135Y-112903416D01*
X129388840Y-112924266D01*
X129459434Y-113017117D01*
X129494130Y-113076292D01*
X129486096Y-113109359D01*
X129428502Y-113123889D01*
X129314517Y-113127449D01*
X129205466Y-113127467D01*
X129066745Y-113125832D01*
X128957739Y-113121438D01*
X128893111Y-113115046D01*
X128881734Y-113110628D01*
X128900393Y-113077232D01*
X128949753Y-113004227D01*
X129019883Y-112906201D01*
X129034134Y-112886769D01*
X129107671Y-112782304D01*
X129162140Y-112696237D01*
X129187277Y-112644961D01*
X129187889Y-112641141D01*
X129201991Y-112640712D01*
X129235076Y-112688886D01*
D12*
%TO.C,C1*%
X148110000Y-97892164D02*
X148110000Y-98107836D01*
X147390000Y-97892164D02*
X147390000Y-98107836D01*
%TO.C,C2*%
X137357836Y-96110000D02*
X137142164Y-96110000D01*
X137357836Y-95390000D02*
X137142164Y-95390000D01*
%TO.C,C3*%
X137357836Y-94390000D02*
X137142164Y-94390000D01*
X137357836Y-95110000D02*
X137142164Y-95110000D01*
%TO.C,C4*%
X121961252Y-99340000D02*
X120538748Y-99340000D01*
X121961252Y-101160000D02*
X120538748Y-101160000D01*
%TO.C,C5*%
X121961252Y-96840000D02*
X120538748Y-96840000D01*
X121961252Y-98660000D02*
X120538748Y-98660000D01*
%TO.C,C6*%
X151357836Y-101640000D02*
X151142164Y-101640000D01*
X151357836Y-102360000D02*
X151142164Y-102360000D01*
%TO.C,C7*%
X149587836Y-108360000D02*
X149372164Y-108360000D01*
X149587836Y-107640000D02*
X149372164Y-107640000D01*
%TO.C,C8*%
X121961252Y-94340000D02*
X120538748Y-94340000D01*
X121961252Y-96160000D02*
X120538748Y-96160000D01*
%TO.C,C9*%
X126961252Y-93840000D02*
X125538748Y-93840000D01*
X126961252Y-95660000D02*
X125538748Y-95660000D01*
%TO.C,C10*%
X174110000Y-89642164D02*
X174110000Y-89857836D01*
X173390000Y-89642164D02*
X173390000Y-89857836D01*
%TO.C,C11*%
X175110000Y-89857836D02*
X175110000Y-89642164D01*
X174390000Y-89857836D02*
X174390000Y-89642164D01*
%TO.C,C12*%
X121961252Y-106160000D02*
X120538748Y-106160000D01*
X121961252Y-104340000D02*
X120538748Y-104340000D01*
%TO.C,C13*%
X120488748Y-108235000D02*
X121011252Y-108235000D01*
X120488748Y-106765000D02*
X121011252Y-106765000D01*
%TO.C,C14*%
X154390580Y-96240000D02*
X154109420Y-96240000D01*
X154390580Y-97260000D02*
X154109420Y-97260000D01*
%TO.C,C15*%
X176357836Y-110360000D02*
X176142164Y-110360000D01*
X176357836Y-109640000D02*
X176142164Y-109640000D01*
%TO.C,C16*%
X156857836Y-96640000D02*
X156642164Y-96640000D01*
X156857836Y-97360000D02*
X156642164Y-97360000D01*
%TO.C,C17*%
X156912164Y-98140000D02*
X157127836Y-98140000D01*
X156912164Y-98860000D02*
X157127836Y-98860000D01*
%TO.C,C18*%
X152860000Y-108857836D02*
X152860000Y-108642164D01*
X152140000Y-108857836D02*
X152140000Y-108642164D01*
%TO.C,C19*%
X157357836Y-113140000D02*
X157142164Y-113140000D01*
X157357836Y-113860000D02*
X157142164Y-113860000D01*
%TO.C,C20*%
X163357836Y-113860000D02*
X163142164Y-113860000D01*
X163357836Y-113140000D02*
X163142164Y-113140000D01*
%TO.C,C21*%
X167640000Y-102642164D02*
X167640000Y-102857836D01*
X168360000Y-102642164D02*
X168360000Y-102857836D01*
%TO.C,C22*%
X121961252Y-103660000D02*
X120538748Y-103660000D01*
X121961252Y-101840000D02*
X120538748Y-101840000D01*
%TO.C,D1*%
X129250000Y-93750000D02*
X133150000Y-93750000D01*
X129250000Y-95750000D02*
X133150000Y-95750000D01*
X129250000Y-93750000D02*
X129250000Y-95750000D01*
%TO.C,D2*%
X139265000Y-114485000D02*
X141550000Y-114485000D01*
X139265000Y-113015000D02*
X139265000Y-114485000D01*
X141550000Y-113015000D02*
X139265000Y-113015000D01*
%TO.C,D3*%
X135300000Y-113015000D02*
X133015000Y-113015000D01*
X133015000Y-113015000D02*
X133015000Y-114485000D01*
X133015000Y-114485000D02*
X135300000Y-114485000D01*
%TO.C,F1*%
X119160000Y-86852064D02*
X119160000Y-85647936D01*
X117340000Y-86852064D02*
X117340000Y-85647936D01*
%TO.C,FB1*%
X120350378Y-93810000D02*
X121149622Y-93810000D01*
X120350378Y-92690000D02*
X121149622Y-92690000D01*
%TO.C,J1*%
X127935000Y-87850000D02*
X120565000Y-87850000D01*
X127935000Y-78720000D02*
X127935000Y-87850000D01*
X126935000Y-77720000D02*
X127935000Y-78720000D01*
X121565000Y-77720000D02*
X126935000Y-77720000D01*
X120565000Y-78720000D02*
X121565000Y-77720000D01*
X120565000Y-87850000D02*
X120565000Y-78720000D01*
%TO.C,J2*%
X129565000Y-87850000D02*
X129565000Y-78720000D01*
X129565000Y-78720000D02*
X130565000Y-77720000D01*
X130565000Y-77720000D02*
X138935000Y-77720000D01*
X138935000Y-77720000D02*
X139935000Y-78720000D01*
X139935000Y-78720000D02*
X139935000Y-87850000D01*
X139935000Y-87850000D02*
X129565000Y-87850000D01*
%TO.C,J3*%
X151935000Y-87850000D02*
X141565000Y-87850000D01*
X151935000Y-78720000D02*
X151935000Y-87850000D01*
X150935000Y-77720000D02*
X151935000Y-78720000D01*
X142565000Y-77720000D02*
X150935000Y-77720000D01*
X141565000Y-78720000D02*
X142565000Y-77720000D01*
X141565000Y-87850000D02*
X141565000Y-78720000D01*
%TO.C,J4*%
X178950000Y-83600000D02*
X178950000Y-84600000D01*
X178950000Y-83600000D02*
X179950000Y-83600000D01*
X182150000Y-90350000D02*
X182150000Y-87375000D01*
X181300000Y-90350000D02*
X182150000Y-90350000D01*
X181300000Y-90550000D02*
X181300000Y-90350000D01*
X180500000Y-90550000D02*
X181300000Y-90550000D01*
X180500000Y-90350000D02*
X180500000Y-90550000D01*
X179750000Y-90350000D02*
X180500000Y-90350000D01*
X179750000Y-87375000D02*
X179750000Y-90350000D01*
X182150000Y-84400000D02*
X182150000Y-87375000D01*
X181300000Y-84400000D02*
X182150000Y-84400000D01*
X181300000Y-84200000D02*
X181300000Y-84400000D01*
X180500000Y-84200000D02*
X181300000Y-84200000D01*
X180500000Y-84400000D02*
X180500000Y-84200000D01*
X179750000Y-84400000D02*
X180500000Y-84400000D01*
X179750000Y-87375000D02*
X179750000Y-84400000D01*
X182660000Y-90860000D02*
X182660000Y-83890000D01*
X179240000Y-90860000D02*
X182660000Y-90860000D01*
X179240000Y-83890000D02*
X179240000Y-90860000D01*
X182660000Y-83890000D02*
X179240000Y-83890000D01*
D14*
%TO.C,J5*%
X165450000Y-78300000D02*
X165450000Y-83200000D01*
X153050000Y-78300000D02*
X165450000Y-78300000D01*
X153050000Y-83200000D02*
X153050000Y-78300000D01*
X165450000Y-83200000D02*
X153050000Y-83200000D01*
D15*
X166350000Y-81400000D02*
G75*
G03*
X166350000Y-81400000I-100000J0D01*
G01*
D14*
%TO.C,J6*%
X177200000Y-78150000D02*
X177200000Y-83050000D01*
X167300000Y-78150000D02*
X177200000Y-78150000D01*
X167300000Y-83050000D02*
X167300000Y-78150000D01*
X177200000Y-83050000D02*
X167300000Y-83050000D01*
D15*
X166950000Y-81250000D02*
G75*
G03*
X166950000Y-81250000I-100000J0D01*
G01*
D12*
%TO.C,J11*%
X181015000Y-107920000D02*
X181015000Y-107985000D01*
X177485000Y-107920000D02*
X177485000Y-107985000D01*
X181015000Y-101515000D02*
X181015000Y-101580000D01*
X177485000Y-101515000D02*
X177485000Y-101580000D01*
X176160000Y-101580000D02*
X177485000Y-101580000D01*
X177485000Y-107985000D02*
X181015000Y-107985000D01*
X177485000Y-101515000D02*
X181015000Y-101515000D01*
%TO.C,JP1*%
X148920000Y-94420000D02*
X150250000Y-94420000D01*
X148920000Y-95750000D02*
X148920000Y-94420000D01*
X148920000Y-97020000D02*
X151580000Y-97020000D01*
X151580000Y-97020000D02*
X151580000Y-99620000D01*
X148920000Y-97020000D02*
X148920000Y-99620000D01*
X148920000Y-99620000D02*
X151580000Y-99620000D01*
%TO.C,L1*%
X138050000Y-102700000D02*
X138050000Y-101550000D01*
X138050000Y-97300000D02*
X138050000Y-98450000D01*
X132450000Y-102700000D02*
X132450000Y-101550000D01*
X132450000Y-97300000D02*
X132450000Y-98450000D01*
X132450000Y-102700000D02*
X138050000Y-102700000D01*
X132450000Y-97300000D02*
X138050000Y-97300000D01*
%TO.C,Q1*%
X122330000Y-89740000D02*
X122330000Y-91200000D01*
X119170000Y-89740000D02*
X119170000Y-91900000D01*
X119170000Y-89740000D02*
X120100000Y-89740000D01*
X122330000Y-89740000D02*
X121400000Y-89740000D01*
%TO.C,Q3*%
X173330000Y-97990000D02*
X173330000Y-99450000D01*
X170170000Y-97990000D02*
X170170000Y-100150000D01*
X170170000Y-97990000D02*
X171100000Y-97990000D01*
X173330000Y-97990000D02*
X172400000Y-97990000D01*
%TO.C,Q4*%
X172010000Y-112330000D02*
X170550000Y-112330000D01*
X172010000Y-109170000D02*
X169850000Y-109170000D01*
X172010000Y-109170000D02*
X172010000Y-110100000D01*
X172010000Y-112330000D02*
X172010000Y-111400000D01*
%TO.C,Q5*%
X172010000Y-108830000D02*
X172010000Y-107900000D01*
X172010000Y-105670000D02*
X172010000Y-106600000D01*
X172010000Y-105670000D02*
X169850000Y-105670000D01*
X172010000Y-108830000D02*
X170550000Y-108830000D01*
%TO.C,R3*%
X147370000Y-95913641D02*
X147370000Y-95606359D01*
X148130000Y-95913641D02*
X148130000Y-95606359D01*
%TO.C,R4*%
X162596359Y-91630000D02*
X162903641Y-91630000D01*
X162596359Y-90870000D02*
X162903641Y-90870000D01*
%TO.C,R5*%
X162596359Y-92870000D02*
X162903641Y-92870000D01*
X162596359Y-93630000D02*
X162903641Y-93630000D01*
%TO.C,R6*%
X162596359Y-92630000D02*
X162903641Y-92630000D01*
X162596359Y-91870000D02*
X162903641Y-91870000D01*
%TO.C,R7*%
X152153641Y-106620000D02*
X151846359Y-106620000D01*
X152153641Y-107380000D02*
X151846359Y-107380000D01*
%TO.C,R8*%
X140512742Y-116022500D02*
X140987258Y-116022500D01*
X140512742Y-114977500D02*
X140987258Y-114977500D01*
%TO.C,R9*%
X175130000Y-91596359D02*
X175130000Y-91903641D01*
X174370000Y-91596359D02*
X174370000Y-91903641D01*
%TO.C,R10*%
X174130000Y-91903641D02*
X174130000Y-91596359D01*
X173370000Y-91903641D02*
X173370000Y-91596359D01*
%TO.C,R11*%
X135512742Y-107522500D02*
X135987258Y-107522500D01*
X135512742Y-106477500D02*
X135987258Y-106477500D01*
%TO.C,R12*%
X135512742Y-103477500D02*
X135987258Y-103477500D01*
X135512742Y-104522500D02*
X135987258Y-104522500D01*
%TO.C,R13*%
X134262742Y-114977500D02*
X134737258Y-114977500D01*
X134262742Y-116022500D02*
X134737258Y-116022500D01*
%TO.C,R14*%
X168096359Y-101380000D02*
X168403641Y-101380000D01*
X168096359Y-100620000D02*
X168403641Y-100620000D01*
%TO.C,R15*%
X171596359Y-101380000D02*
X171903641Y-101380000D01*
X171596359Y-100620000D02*
X171903641Y-100620000D01*
%TO.C,R16*%
X176096359Y-111380000D02*
X176403641Y-111380000D01*
X176096359Y-110620000D02*
X176403641Y-110620000D01*
%TO.C,R17*%
X168096359Y-96120000D02*
X168403641Y-96120000D01*
X168096359Y-96880000D02*
X168403641Y-96880000D01*
%TO.C,R18*%
X171596359Y-96880000D02*
X171903641Y-96880000D01*
X171596359Y-96120000D02*
X171903641Y-96120000D01*
%TO.C,R19*%
X175880000Y-96596359D02*
X175880000Y-96903641D01*
X175120000Y-96596359D02*
X175120000Y-96903641D01*
%TO.C,R20*%
X168620000Y-110596359D02*
X168620000Y-110903641D01*
X169380000Y-110596359D02*
X169380000Y-110903641D01*
%TO.C,R21*%
X168620000Y-107096359D02*
X168620000Y-107403641D01*
X169380000Y-107096359D02*
X169380000Y-107403641D01*
%TO.C,R22*%
X173120000Y-110903641D02*
X173120000Y-110596359D01*
X173880000Y-110903641D02*
X173880000Y-110596359D01*
%TO.C,R23*%
X173120000Y-107403641D02*
X173120000Y-107096359D01*
X173880000Y-107403641D02*
X173880000Y-107096359D01*
%TO.C,R24*%
X135512742Y-106022500D02*
X135987258Y-106022500D01*
X135512742Y-104977500D02*
X135987258Y-104977500D01*
%TO.C,SW2*%
X181720000Y-92300000D02*
X180930000Y-92300000D01*
X180930000Y-99200000D02*
X181720000Y-99200000D01*
X179880000Y-97350000D02*
X179880000Y-95650000D01*
X182730000Y-98600000D02*
X182730000Y-92900000D01*
X184020000Y-95850000D02*
X182730000Y-95850000D01*
X184230000Y-96950000D02*
X184230000Y-96050000D01*
X182730000Y-97150000D02*
X184020000Y-97150000D01*
X184020000Y-95850000D02*
X184230000Y-96050000D01*
X184020000Y-97150000D02*
X184230000Y-96950000D01*
X179880000Y-94350000D02*
X179880000Y-94150000D01*
%TO.C,U1*%
X155140000Y-101840000D02*
X153800000Y-101840000D01*
X155140000Y-100890000D02*
X155140000Y-101840000D01*
X156090000Y-100890000D02*
X155140000Y-100890000D01*
X165360000Y-100890000D02*
X165360000Y-101840000D01*
X164410000Y-100890000D02*
X165360000Y-100890000D01*
X155140000Y-111110000D02*
X155140000Y-110160000D01*
X156090000Y-111110000D02*
X155140000Y-111110000D01*
X165360000Y-111110000D02*
X165360000Y-110160000D01*
X164410000Y-111110000D02*
X165360000Y-111110000D01*
%TO.C,U2*%
X142750000Y-99310000D02*
X144700000Y-99310000D01*
X142750000Y-99310000D02*
X140800000Y-99310000D01*
X142750000Y-94190000D02*
X144700000Y-94190000D01*
X142750000Y-94190000D02*
X139300000Y-94190000D01*
%TO.C,U3*%
X127750000Y-97440000D02*
X124300000Y-97440000D01*
X127750000Y-97440000D02*
X129700000Y-97440000D01*
X127750000Y-102560000D02*
X125800000Y-102560000D01*
X127750000Y-102560000D02*
X129700000Y-102560000D01*
%TO.C,U4*%
X158000000Y-86565000D02*
X154550000Y-86565000D01*
X158000000Y-86565000D02*
X159950000Y-86565000D01*
X158000000Y-95435000D02*
X156050000Y-95435000D01*
X158000000Y-95435000D02*
X159950000Y-95435000D01*
%TO.C,U5*%
X172560000Y-90250000D02*
X172560000Y-88300000D01*
X172560000Y-90250000D02*
X172560000Y-92200000D01*
X167440000Y-90250000D02*
X167440000Y-88300000D01*
X167440000Y-90250000D02*
X167440000Y-93700000D01*
%TO.C,U6*%
X140590000Y-110100000D02*
X140590000Y-104090000D01*
X147410000Y-107850000D02*
X147410000Y-104090000D01*
X140590000Y-104090000D02*
X141850000Y-104090000D01*
X147410000Y-104090000D02*
X146150000Y-104090000D01*
%TO.C,Y1*%
X152750000Y-102850000D02*
X148750000Y-102850000D01*
X152750000Y-106150000D02*
X152750000Y-102850000D01*
%TO.C,SW1*%
X179850000Y-109600000D02*
X180150000Y-109600000D01*
X179850000Y-112900000D02*
X179850000Y-109600000D01*
X180150000Y-112900000D02*
X179850000Y-112900000D01*
X182650000Y-109600000D02*
X182350000Y-109600000D01*
X182650000Y-112900000D02*
X182650000Y-109600000D01*
X182350000Y-112900000D02*
X182650000Y-112900000D01*
%TO.C,J7*%
X147490000Y-116110000D02*
X147490000Y-115000000D01*
X148250000Y-116110000D02*
X147490000Y-116110000D01*
X149010000Y-114436529D02*
X149010000Y-113890000D01*
X149010000Y-116110000D02*
X149010000Y-115563471D01*
X149010000Y-113890000D02*
X152755000Y-113890000D01*
X149010000Y-116110000D02*
X152755000Y-116110000D01*
X152755000Y-114692470D02*
X152755000Y-113890000D01*
X152755000Y-116110000D02*
X152755000Y-115307530D01*
%TO.C,C26*%
D10*
X132857142Y-110142857D02*
X132904761Y-110190476D01*
X132952380Y-110333333D01*
X132952380Y-110428571D01*
X132904761Y-110571428D01*
X132809523Y-110666666D01*
X132714285Y-110714285D01*
X132523809Y-110761904D01*
X132380952Y-110761904D01*
X132190476Y-110714285D01*
X132095238Y-110666666D01*
X132000000Y-110571428D01*
X131952380Y-110428571D01*
X131952380Y-110333333D01*
X132000000Y-110190476D01*
X132047619Y-110142857D01*
X132047619Y-109761904D02*
X132000000Y-109714285D01*
X131952380Y-109619047D01*
X131952380Y-109380952D01*
X132000000Y-109285714D01*
X132047619Y-109238095D01*
X132142857Y-109190476D01*
X132238095Y-109190476D01*
X132380952Y-109238095D01*
X132952380Y-109809523D01*
X132952380Y-109190476D01*
X131952380Y-108333333D02*
X131952380Y-108523809D01*
X132000000Y-108619047D01*
X132047619Y-108666666D01*
X132190476Y-108761904D01*
X132380952Y-108809523D01*
X132761904Y-108809523D01*
X132857142Y-108761904D01*
X132904761Y-108714285D01*
X132952380Y-108619047D01*
X132952380Y-108428571D01*
X132904761Y-108333333D01*
X132857142Y-108285714D01*
X132761904Y-108238095D01*
X132523809Y-108238095D01*
X132428571Y-108285714D01*
X132380952Y-108333333D01*
X132333333Y-108428571D01*
X132333333Y-108619047D01*
X132380952Y-108714285D01*
X132428571Y-108761904D01*
X132523809Y-108809523D01*
%TO.C,C24*%
X129607142Y-110142857D02*
X129654761Y-110190476D01*
X129702380Y-110333333D01*
X129702380Y-110428571D01*
X129654761Y-110571428D01*
X129559523Y-110666666D01*
X129464285Y-110714285D01*
X129273809Y-110761904D01*
X129130952Y-110761904D01*
X128940476Y-110714285D01*
X128845238Y-110666666D01*
X128750000Y-110571428D01*
X128702380Y-110428571D01*
X128702380Y-110333333D01*
X128750000Y-110190476D01*
X128797619Y-110142857D01*
X128797619Y-109761904D02*
X128750000Y-109714285D01*
X128702380Y-109619047D01*
X128702380Y-109380952D01*
X128750000Y-109285714D01*
X128797619Y-109238095D01*
X128892857Y-109190476D01*
X128988095Y-109190476D01*
X129130952Y-109238095D01*
X129702380Y-109809523D01*
X129702380Y-109190476D01*
X129035714Y-108333333D02*
X129702380Y-108333333D01*
X128654761Y-108571428D02*
X129369047Y-108809523D01*
X129369047Y-108190476D01*
%TO.C,C25*%
X126857142Y-109142857D02*
X126904761Y-109190476D01*
X126952380Y-109333333D01*
X126952380Y-109428571D01*
X126904761Y-109571428D01*
X126809523Y-109666666D01*
X126714285Y-109714285D01*
X126523809Y-109761904D01*
X126380952Y-109761904D01*
X126190476Y-109714285D01*
X126095238Y-109666666D01*
X126000000Y-109571428D01*
X125952380Y-109428571D01*
X125952380Y-109333333D01*
X126000000Y-109190476D01*
X126047619Y-109142857D01*
X126047619Y-108761904D02*
X126000000Y-108714285D01*
X125952380Y-108619047D01*
X125952380Y-108380952D01*
X126000000Y-108285714D01*
X126047619Y-108238095D01*
X126142857Y-108190476D01*
X126238095Y-108190476D01*
X126380952Y-108238095D01*
X126952380Y-108809523D01*
X126952380Y-108190476D01*
X125952380Y-107285714D02*
X125952380Y-107761904D01*
X126428571Y-107809523D01*
X126380952Y-107761904D01*
X126333333Y-107666666D01*
X126333333Y-107428571D01*
X126380952Y-107333333D01*
X126428571Y-107285714D01*
X126523809Y-107238095D01*
X126761904Y-107238095D01*
X126857142Y-107285714D01*
X126904761Y-107333333D01*
X126952380Y-107428571D01*
X126952380Y-107666666D01*
X126904761Y-107761904D01*
X126857142Y-107809523D01*
%TO.C,C23*%
X125107142Y-109392857D02*
X125154761Y-109440476D01*
X125202380Y-109583333D01*
X125202380Y-109678571D01*
X125154761Y-109821428D01*
X125059523Y-109916666D01*
X124964285Y-109964285D01*
X124773809Y-110011904D01*
X124630952Y-110011904D01*
X124440476Y-109964285D01*
X124345238Y-109916666D01*
X124250000Y-109821428D01*
X124202380Y-109678571D01*
X124202380Y-109583333D01*
X124250000Y-109440476D01*
X124297619Y-109392857D01*
X124297619Y-109011904D02*
X124250000Y-108964285D01*
X124202380Y-108869047D01*
X124202380Y-108630952D01*
X124250000Y-108535714D01*
X124297619Y-108488095D01*
X124392857Y-108440476D01*
X124488095Y-108440476D01*
X124630952Y-108488095D01*
X125202380Y-109059523D01*
X125202380Y-108440476D01*
X124202380Y-108107142D02*
X124202380Y-107488095D01*
X124583333Y-107821428D01*
X124583333Y-107678571D01*
X124630952Y-107583333D01*
X124678571Y-107535714D01*
X124773809Y-107488095D01*
X125011904Y-107488095D01*
X125107142Y-107535714D01*
X125154761Y-107583333D01*
X125202380Y-107678571D01*
X125202380Y-107964285D01*
X125154761Y-108059523D01*
X125107142Y-108107142D01*
%TO.C,Q2*%
X166297619Y-98845238D02*
X166250000Y-98940476D01*
X166154761Y-99035714D01*
X166011904Y-99178571D01*
X165964285Y-99273809D01*
X165964285Y-99369047D01*
X166202380Y-99321428D02*
X166154761Y-99416666D01*
X166059523Y-99511904D01*
X165869047Y-99559523D01*
X165535714Y-99559523D01*
X165345238Y-99511904D01*
X165250000Y-99416666D01*
X165202380Y-99321428D01*
X165202380Y-99130952D01*
X165250000Y-99035714D01*
X165345238Y-98940476D01*
X165535714Y-98892857D01*
X165869047Y-98892857D01*
X166059523Y-98940476D01*
X166154761Y-99035714D01*
X166202380Y-99130952D01*
X166202380Y-99321428D01*
X165297619Y-98511904D02*
X165250000Y-98464285D01*
X165202380Y-98369047D01*
X165202380Y-98130952D01*
X165250000Y-98035714D01*
X165297619Y-97988095D01*
X165392857Y-97940476D01*
X165488095Y-97940476D01*
X165630952Y-97988095D01*
X166202380Y-98559523D01*
X166202380Y-97940476D01*
%TO.C,*%
%TO.C,C1*%
X148107142Y-100166666D02*
X148154761Y-100214285D01*
X148202380Y-100357142D01*
X148202380Y-100452380D01*
X148154761Y-100595238D01*
X148059523Y-100690476D01*
X147964285Y-100738095D01*
X147773809Y-100785714D01*
X147630952Y-100785714D01*
X147440476Y-100738095D01*
X147345238Y-100690476D01*
X147250000Y-100595238D01*
X147202380Y-100452380D01*
X147202380Y-100357142D01*
X147250000Y-100214285D01*
X147297619Y-100166666D01*
X148202380Y-99214285D02*
X148202380Y-99785714D01*
X148202380Y-99500000D02*
X147202380Y-99500000D01*
X147345238Y-99595238D01*
X147440476Y-99690476D01*
X147488095Y-99785714D01*
%TO.C,C2*%
X134833333Y-96357142D02*
X134785714Y-96404761D01*
X134642857Y-96452380D01*
X134547619Y-96452380D01*
X134404761Y-96404761D01*
X134309523Y-96309523D01*
X134261904Y-96214285D01*
X134214285Y-96023809D01*
X134214285Y-95880952D01*
X134261904Y-95690476D01*
X134309523Y-95595238D01*
X134404761Y-95500000D01*
X134547619Y-95452380D01*
X134642857Y-95452380D01*
X134785714Y-95500000D01*
X134833333Y-95547619D01*
X135214285Y-95547619D02*
X135261904Y-95500000D01*
X135357142Y-95452380D01*
X135595238Y-95452380D01*
X135690476Y-95500000D01*
X135738095Y-95547619D01*
X135785714Y-95642857D01*
X135785714Y-95738095D01*
X135738095Y-95880952D01*
X135166666Y-96452380D01*
X135785714Y-96452380D01*
%TO.C,C3*%
X134833333Y-94857142D02*
X134785714Y-94904761D01*
X134642857Y-94952380D01*
X134547619Y-94952380D01*
X134404761Y-94904761D01*
X134309523Y-94809523D01*
X134261904Y-94714285D01*
X134214285Y-94523809D01*
X134214285Y-94380952D01*
X134261904Y-94190476D01*
X134309523Y-94095238D01*
X134404761Y-94000000D01*
X134547619Y-93952380D01*
X134642857Y-93952380D01*
X134785714Y-94000000D01*
X134833333Y-94047619D01*
X135166666Y-93952380D02*
X135785714Y-93952380D01*
X135452380Y-94333333D01*
X135595238Y-94333333D01*
X135690476Y-94380952D01*
X135738095Y-94428571D01*
X135785714Y-94523809D01*
X135785714Y-94761904D01*
X135738095Y-94857142D01*
X135690476Y-94904761D01*
X135595238Y-94952380D01*
X135309523Y-94952380D01*
X135214285Y-94904761D01*
X135166666Y-94857142D01*
%TO.C,C4*%
X117083333Y-100607142D02*
X117035714Y-100654761D01*
X116892857Y-100702380D01*
X116797619Y-100702380D01*
X116654761Y-100654761D01*
X116559523Y-100559523D01*
X116511904Y-100464285D01*
X116464285Y-100273809D01*
X116464285Y-100130952D01*
X116511904Y-99940476D01*
X116559523Y-99845238D01*
X116654761Y-99750000D01*
X116797619Y-99702380D01*
X116892857Y-99702380D01*
X117035714Y-99750000D01*
X117083333Y-99797619D01*
X117940476Y-100035714D02*
X117940476Y-100702380D01*
X117702380Y-99654761D02*
X117464285Y-100369047D01*
X118083333Y-100369047D01*
%TO.C,C5*%
X117083333Y-98107142D02*
X117035714Y-98154761D01*
X116892857Y-98202380D01*
X116797619Y-98202380D01*
X116654761Y-98154761D01*
X116559523Y-98059523D01*
X116511904Y-97964285D01*
X116464285Y-97773809D01*
X116464285Y-97630952D01*
X116511904Y-97440476D01*
X116559523Y-97345238D01*
X116654761Y-97250000D01*
X116797619Y-97202380D01*
X116892857Y-97202380D01*
X117035714Y-97250000D01*
X117083333Y-97297619D01*
X117988095Y-97202380D02*
X117511904Y-97202380D01*
X117464285Y-97678571D01*
X117511904Y-97630952D01*
X117607142Y-97583333D01*
X117845238Y-97583333D01*
X117940476Y-97630952D01*
X117988095Y-97678571D01*
X118035714Y-97773809D01*
X118035714Y-98011904D01*
X117988095Y-98107142D01*
X117940476Y-98154761D01*
X117845238Y-98202380D01*
X117607142Y-98202380D01*
X117511904Y-98154761D01*
X117464285Y-98107142D01*
%TO.C,C6*%
X151083333Y-101107142D02*
X151035714Y-101154761D01*
X150892857Y-101202380D01*
X150797619Y-101202380D01*
X150654761Y-101154761D01*
X150559523Y-101059523D01*
X150511904Y-100964285D01*
X150464285Y-100773809D01*
X150464285Y-100630952D01*
X150511904Y-100440476D01*
X150559523Y-100345238D01*
X150654761Y-100250000D01*
X150797619Y-100202380D01*
X150892857Y-100202380D01*
X151035714Y-100250000D01*
X151083333Y-100297619D01*
X151940476Y-100202380D02*
X151750000Y-100202380D01*
X151654761Y-100250000D01*
X151607142Y-100297619D01*
X151511904Y-100440476D01*
X151464285Y-100630952D01*
X151464285Y-101011904D01*
X151511904Y-101107142D01*
X151559523Y-101154761D01*
X151654761Y-101202380D01*
X151845238Y-101202380D01*
X151940476Y-101154761D01*
X151988095Y-101107142D01*
X152035714Y-101011904D01*
X152035714Y-100773809D01*
X151988095Y-100678571D01*
X151940476Y-100630952D01*
X151845238Y-100583333D01*
X151654761Y-100583333D01*
X151559523Y-100630952D01*
X151511904Y-100678571D01*
X151464285Y-100773809D01*
%TO.C,C7*%
X149313333Y-109517142D02*
X149265714Y-109564761D01*
X149122857Y-109612380D01*
X149027619Y-109612380D01*
X148884761Y-109564761D01*
X148789523Y-109469523D01*
X148741904Y-109374285D01*
X148694285Y-109183809D01*
X148694285Y-109040952D01*
X148741904Y-108850476D01*
X148789523Y-108755238D01*
X148884761Y-108660000D01*
X149027619Y-108612380D01*
X149122857Y-108612380D01*
X149265714Y-108660000D01*
X149313333Y-108707619D01*
X149646666Y-108612380D02*
X150313333Y-108612380D01*
X149884761Y-109612380D01*
%TO.C,C8*%
X117083333Y-95857142D02*
X117035714Y-95904761D01*
X116892857Y-95952380D01*
X116797619Y-95952380D01*
X116654761Y-95904761D01*
X116559523Y-95809523D01*
X116511904Y-95714285D01*
X116464285Y-95523809D01*
X116464285Y-95380952D01*
X116511904Y-95190476D01*
X116559523Y-95095238D01*
X116654761Y-95000000D01*
X116797619Y-94952380D01*
X116892857Y-94952380D01*
X117035714Y-95000000D01*
X117083333Y-95047619D01*
X117654761Y-95380952D02*
X117559523Y-95333333D01*
X117511904Y-95285714D01*
X117464285Y-95190476D01*
X117464285Y-95142857D01*
X117511904Y-95047619D01*
X117559523Y-95000000D01*
X117654761Y-94952380D01*
X117845238Y-94952380D01*
X117940476Y-95000000D01*
X117988095Y-95047619D01*
X118035714Y-95142857D01*
X118035714Y-95190476D01*
X117988095Y-95285714D01*
X117940476Y-95333333D01*
X117845238Y-95380952D01*
X117654761Y-95380952D01*
X117559523Y-95428571D01*
X117511904Y-95476190D01*
X117464285Y-95571428D01*
X117464285Y-95761904D01*
X117511904Y-95857142D01*
X117559523Y-95904761D01*
X117654761Y-95952380D01*
X117845238Y-95952380D01*
X117940476Y-95904761D01*
X117988095Y-95857142D01*
X118035714Y-95761904D01*
X118035714Y-95571428D01*
X117988095Y-95476190D01*
X117940476Y-95428571D01*
X117845238Y-95380952D01*
%TO.C,C9*%
X124833333Y-96857142D02*
X124785714Y-96904761D01*
X124642857Y-96952380D01*
X124547619Y-96952380D01*
X124404761Y-96904761D01*
X124309523Y-96809523D01*
X124261904Y-96714285D01*
X124214285Y-96523809D01*
X124214285Y-96380952D01*
X124261904Y-96190476D01*
X124309523Y-96095238D01*
X124404761Y-96000000D01*
X124547619Y-95952380D01*
X124642857Y-95952380D01*
X124785714Y-96000000D01*
X124833333Y-96047619D01*
X125309523Y-96952380D02*
X125500000Y-96952380D01*
X125595238Y-96904761D01*
X125642857Y-96857142D01*
X125738095Y-96714285D01*
X125785714Y-96523809D01*
X125785714Y-96142857D01*
X125738095Y-96047619D01*
X125690476Y-96000000D01*
X125595238Y-95952380D01*
X125404761Y-95952380D01*
X125309523Y-96000000D01*
X125261904Y-96047619D01*
X125214285Y-96142857D01*
X125214285Y-96380952D01*
X125261904Y-96476190D01*
X125309523Y-96523809D01*
X125404761Y-96571428D01*
X125595238Y-96571428D01*
X125690476Y-96523809D01*
X125738095Y-96476190D01*
X125785714Y-96380952D01*
%TO.C,C10*%
X173857142Y-87892857D02*
X173904761Y-87940476D01*
X173952380Y-88083333D01*
X173952380Y-88178571D01*
X173904761Y-88321428D01*
X173809523Y-88416666D01*
X173714285Y-88464285D01*
X173523809Y-88511904D01*
X173380952Y-88511904D01*
X173190476Y-88464285D01*
X173095238Y-88416666D01*
X173000000Y-88321428D01*
X172952380Y-88178571D01*
X172952380Y-88083333D01*
X173000000Y-87940476D01*
X173047619Y-87892857D01*
X173952380Y-86940476D02*
X173952380Y-87511904D01*
X173952380Y-87226190D02*
X172952380Y-87226190D01*
X173095238Y-87321428D01*
X173190476Y-87416666D01*
X173238095Y-87511904D01*
X172952380Y-86321428D02*
X172952380Y-86226190D01*
X173000000Y-86130952D01*
X173047619Y-86083333D01*
X173142857Y-86035714D01*
X173333333Y-85988095D01*
X173571428Y-85988095D01*
X173761904Y-86035714D01*
X173857142Y-86083333D01*
X173904761Y-86130952D01*
X173952380Y-86226190D01*
X173952380Y-86321428D01*
X173904761Y-86416666D01*
X173857142Y-86464285D01*
X173761904Y-86511904D01*
X173571428Y-86559523D01*
X173333333Y-86559523D01*
X173142857Y-86511904D01*
X173047619Y-86464285D01*
X173000000Y-86416666D01*
X172952380Y-86321428D01*
%TO.C,C11*%
X175107142Y-87892857D02*
X175154761Y-87940476D01*
X175202380Y-88083333D01*
X175202380Y-88178571D01*
X175154761Y-88321428D01*
X175059523Y-88416666D01*
X174964285Y-88464285D01*
X174773809Y-88511904D01*
X174630952Y-88511904D01*
X174440476Y-88464285D01*
X174345238Y-88416666D01*
X174250000Y-88321428D01*
X174202380Y-88178571D01*
X174202380Y-88083333D01*
X174250000Y-87940476D01*
X174297619Y-87892857D01*
X175202380Y-86940476D02*
X175202380Y-87511904D01*
X175202380Y-87226190D02*
X174202380Y-87226190D01*
X174345238Y-87321428D01*
X174440476Y-87416666D01*
X174488095Y-87511904D01*
X175202380Y-85988095D02*
X175202380Y-86559523D01*
X175202380Y-86273809D02*
X174202380Y-86273809D01*
X174345238Y-86369047D01*
X174440476Y-86464285D01*
X174488095Y-86559523D01*
%TO.C,C12*%
X117107142Y-105607142D02*
X117059523Y-105654761D01*
X116916666Y-105702380D01*
X116821428Y-105702380D01*
X116678571Y-105654761D01*
X116583333Y-105559523D01*
X116535714Y-105464285D01*
X116488095Y-105273809D01*
X116488095Y-105130952D01*
X116535714Y-104940476D01*
X116583333Y-104845238D01*
X116678571Y-104750000D01*
X116821428Y-104702380D01*
X116916666Y-104702380D01*
X117059523Y-104750000D01*
X117107142Y-104797619D01*
X118059523Y-105702380D02*
X117488095Y-105702380D01*
X117773809Y-105702380D02*
X117773809Y-104702380D01*
X117678571Y-104845238D01*
X117583333Y-104940476D01*
X117488095Y-104988095D01*
X118440476Y-104797619D02*
X118488095Y-104750000D01*
X118583333Y-104702380D01*
X118821428Y-104702380D01*
X118916666Y-104750000D01*
X118964285Y-104797619D01*
X119011904Y-104892857D01*
X119011904Y-104988095D01*
X118964285Y-105130952D01*
X118392857Y-105702380D01*
X119011904Y-105702380D01*
%TO.C,C13*%
X116857142Y-107857142D02*
X116809523Y-107904761D01*
X116666666Y-107952380D01*
X116571428Y-107952380D01*
X116428571Y-107904761D01*
X116333333Y-107809523D01*
X116285714Y-107714285D01*
X116238095Y-107523809D01*
X116238095Y-107380952D01*
X116285714Y-107190476D01*
X116333333Y-107095238D01*
X116428571Y-107000000D01*
X116571428Y-106952380D01*
X116666666Y-106952380D01*
X116809523Y-107000000D01*
X116857142Y-107047619D01*
X117809523Y-107952380D02*
X117238095Y-107952380D01*
X117523809Y-107952380D02*
X117523809Y-106952380D01*
X117428571Y-107095238D01*
X117333333Y-107190476D01*
X117238095Y-107238095D01*
X118142857Y-106952380D02*
X118761904Y-106952380D01*
X118428571Y-107333333D01*
X118571428Y-107333333D01*
X118666666Y-107380952D01*
X118714285Y-107428571D01*
X118761904Y-107523809D01*
X118761904Y-107761904D01*
X118714285Y-107857142D01*
X118666666Y-107904761D01*
X118571428Y-107952380D01*
X118285714Y-107952380D01*
X118190476Y-107904761D01*
X118142857Y-107857142D01*
%TO.C,C14*%
X153607142Y-98607142D02*
X153559523Y-98654761D01*
X153416666Y-98702380D01*
X153321428Y-98702380D01*
X153178571Y-98654761D01*
X153083333Y-98559523D01*
X153035714Y-98464285D01*
X152988095Y-98273809D01*
X152988095Y-98130952D01*
X153035714Y-97940476D01*
X153083333Y-97845238D01*
X153178571Y-97750000D01*
X153321428Y-97702380D01*
X153416666Y-97702380D01*
X153559523Y-97750000D01*
X153607142Y-97797619D01*
X154559523Y-98702380D02*
X153988095Y-98702380D01*
X154273809Y-98702380D02*
X154273809Y-97702380D01*
X154178571Y-97845238D01*
X154083333Y-97940476D01*
X153988095Y-97988095D01*
X155416666Y-98035714D02*
X155416666Y-98702380D01*
X155178571Y-97654761D02*
X154940476Y-98369047D01*
X155559523Y-98369047D01*
%TO.C,C15*%
X175357142Y-109107142D02*
X175309523Y-109154761D01*
X175166666Y-109202380D01*
X175071428Y-109202380D01*
X174928571Y-109154761D01*
X174833333Y-109059523D01*
X174785714Y-108964285D01*
X174738095Y-108773809D01*
X174738095Y-108630952D01*
X174785714Y-108440476D01*
X174833333Y-108345238D01*
X174928571Y-108250000D01*
X175071428Y-108202380D01*
X175166666Y-108202380D01*
X175309523Y-108250000D01*
X175357142Y-108297619D01*
X176309523Y-109202380D02*
X175738095Y-109202380D01*
X176023809Y-109202380D02*
X176023809Y-108202380D01*
X175928571Y-108345238D01*
X175833333Y-108440476D01*
X175738095Y-108488095D01*
X177214285Y-108202380D02*
X176738095Y-108202380D01*
X176690476Y-108678571D01*
X176738095Y-108630952D01*
X176833333Y-108583333D01*
X177071428Y-108583333D01*
X177166666Y-108630952D01*
X177214285Y-108678571D01*
X177261904Y-108773809D01*
X177261904Y-109011904D01*
X177214285Y-109107142D01*
X177166666Y-109154761D01*
X177071428Y-109202380D01*
X176833333Y-109202380D01*
X176738095Y-109154761D01*
X176690476Y-109107142D01*
%TO.C,C16*%
X158357142Y-97107142D02*
X158309523Y-97154761D01*
X158166666Y-97202380D01*
X158071428Y-97202380D01*
X157928571Y-97154761D01*
X157833333Y-97059523D01*
X157785714Y-96964285D01*
X157738095Y-96773809D01*
X157738095Y-96630952D01*
X157785714Y-96440476D01*
X157833333Y-96345238D01*
X157928571Y-96250000D01*
X158071428Y-96202380D01*
X158166666Y-96202380D01*
X158309523Y-96250000D01*
X158357142Y-96297619D01*
X159309523Y-97202380D02*
X158738095Y-97202380D01*
X159023809Y-97202380D02*
X159023809Y-96202380D01*
X158928571Y-96345238D01*
X158833333Y-96440476D01*
X158738095Y-96488095D01*
X160166666Y-96202380D02*
X159976190Y-96202380D01*
X159880952Y-96250000D01*
X159833333Y-96297619D01*
X159738095Y-96440476D01*
X159690476Y-96630952D01*
X159690476Y-97011904D01*
X159738095Y-97107142D01*
X159785714Y-97154761D01*
X159880952Y-97202380D01*
X160071428Y-97202380D01*
X160166666Y-97154761D01*
X160214285Y-97107142D01*
X160261904Y-97011904D01*
X160261904Y-96773809D01*
X160214285Y-96678571D01*
X160166666Y-96630952D01*
X160071428Y-96583333D01*
X159880952Y-96583333D01*
X159785714Y-96630952D01*
X159738095Y-96678571D01*
X159690476Y-96773809D01*
%TO.C,C17*%
X158607142Y-98357142D02*
X158559523Y-98404761D01*
X158416666Y-98452380D01*
X158321428Y-98452380D01*
X158178571Y-98404761D01*
X158083333Y-98309523D01*
X158035714Y-98214285D01*
X157988095Y-98023809D01*
X157988095Y-97880952D01*
X158035714Y-97690476D01*
X158083333Y-97595238D01*
X158178571Y-97500000D01*
X158321428Y-97452380D01*
X158416666Y-97452380D01*
X158559523Y-97500000D01*
X158607142Y-97547619D01*
X159559523Y-98452380D02*
X158988095Y-98452380D01*
X159273809Y-98452380D02*
X159273809Y-97452380D01*
X159178571Y-97595238D01*
X159083333Y-97690476D01*
X158988095Y-97738095D01*
X159892857Y-97452380D02*
X160559523Y-97452380D01*
X160130952Y-98452380D01*
%TO.C,C18*%
X151607142Y-109642857D02*
X151654761Y-109690476D01*
X151702380Y-109833333D01*
X151702380Y-109928571D01*
X151654761Y-110071428D01*
X151559523Y-110166666D01*
X151464285Y-110214285D01*
X151273809Y-110261904D01*
X151130952Y-110261904D01*
X150940476Y-110214285D01*
X150845238Y-110166666D01*
X150750000Y-110071428D01*
X150702380Y-109928571D01*
X150702380Y-109833333D01*
X150750000Y-109690476D01*
X150797619Y-109642857D01*
X151702380Y-108690476D02*
X151702380Y-109261904D01*
X151702380Y-108976190D02*
X150702380Y-108976190D01*
X150845238Y-109071428D01*
X150940476Y-109166666D01*
X150988095Y-109261904D01*
X151130952Y-108119047D02*
X151083333Y-108214285D01*
X151035714Y-108261904D01*
X150940476Y-108309523D01*
X150892857Y-108309523D01*
X150797619Y-108261904D01*
X150750000Y-108214285D01*
X150702380Y-108119047D01*
X150702380Y-107928571D01*
X150750000Y-107833333D01*
X150797619Y-107785714D01*
X150892857Y-107738095D01*
X150940476Y-107738095D01*
X151035714Y-107785714D01*
X151083333Y-107833333D01*
X151130952Y-107928571D01*
X151130952Y-108119047D01*
X151178571Y-108214285D01*
X151226190Y-108261904D01*
X151321428Y-108309523D01*
X151511904Y-108309523D01*
X151607142Y-108261904D01*
X151654761Y-108214285D01*
X151702380Y-108119047D01*
X151702380Y-107928571D01*
X151654761Y-107833333D01*
X151607142Y-107785714D01*
X151511904Y-107738095D01*
X151321428Y-107738095D01*
X151226190Y-107785714D01*
X151178571Y-107833333D01*
X151130952Y-107928571D01*
%TO.C,C19*%
X156607142Y-115017142D02*
X156559523Y-115064761D01*
X156416666Y-115112380D01*
X156321428Y-115112380D01*
X156178571Y-115064761D01*
X156083333Y-114969523D01*
X156035714Y-114874285D01*
X155988095Y-114683809D01*
X155988095Y-114540952D01*
X156035714Y-114350476D01*
X156083333Y-114255238D01*
X156178571Y-114160000D01*
X156321428Y-114112380D01*
X156416666Y-114112380D01*
X156559523Y-114160000D01*
X156607142Y-114207619D01*
X157559523Y-115112380D02*
X156988095Y-115112380D01*
X157273809Y-115112380D02*
X157273809Y-114112380D01*
X157178571Y-114255238D01*
X157083333Y-114350476D01*
X156988095Y-114398095D01*
X158035714Y-115112380D02*
X158226190Y-115112380D01*
X158321428Y-115064761D01*
X158369047Y-115017142D01*
X158464285Y-114874285D01*
X158511904Y-114683809D01*
X158511904Y-114302857D01*
X158464285Y-114207619D01*
X158416666Y-114160000D01*
X158321428Y-114112380D01*
X158130952Y-114112380D01*
X158035714Y-114160000D01*
X157988095Y-114207619D01*
X157940476Y-114302857D01*
X157940476Y-114540952D01*
X157988095Y-114636190D01*
X158035714Y-114683809D01*
X158130952Y-114731428D01*
X158321428Y-114731428D01*
X158416666Y-114683809D01*
X158464285Y-114636190D01*
X158511904Y-114540952D01*
%TO.C,C20*%
X162107142Y-115107142D02*
X162059523Y-115154761D01*
X161916666Y-115202380D01*
X161821428Y-115202380D01*
X161678571Y-115154761D01*
X161583333Y-115059523D01*
X161535714Y-114964285D01*
X161488095Y-114773809D01*
X161488095Y-114630952D01*
X161535714Y-114440476D01*
X161583333Y-114345238D01*
X161678571Y-114250000D01*
X161821428Y-114202380D01*
X161916666Y-114202380D01*
X162059523Y-114250000D01*
X162107142Y-114297619D01*
X162488095Y-114297619D02*
X162535714Y-114250000D01*
X162630952Y-114202380D01*
X162869047Y-114202380D01*
X162964285Y-114250000D01*
X163011904Y-114297619D01*
X163059523Y-114392857D01*
X163059523Y-114488095D01*
X163011904Y-114630952D01*
X162440476Y-115202380D01*
X163059523Y-115202380D01*
X163678571Y-114202380D02*
X163773809Y-114202380D01*
X163869047Y-114250000D01*
X163916666Y-114297619D01*
X163964285Y-114392857D01*
X164011904Y-114583333D01*
X164011904Y-114821428D01*
X163964285Y-115011904D01*
X163916666Y-115107142D01*
X163869047Y-115154761D01*
X163773809Y-115202380D01*
X163678571Y-115202380D01*
X163583333Y-115154761D01*
X163535714Y-115107142D01*
X163488095Y-115011904D01*
X163440476Y-114821428D01*
X163440476Y-114583333D01*
X163488095Y-114392857D01*
X163535714Y-114297619D01*
X163583333Y-114250000D01*
X163678571Y-114202380D01*
%TO.C,C21*%
X167857142Y-104857142D02*
X167809523Y-104904761D01*
X167666666Y-104952380D01*
X167571428Y-104952380D01*
X167428571Y-104904761D01*
X167333333Y-104809523D01*
X167285714Y-104714285D01*
X167238095Y-104523809D01*
X167238095Y-104380952D01*
X167285714Y-104190476D01*
X167333333Y-104095238D01*
X167428571Y-104000000D01*
X167571428Y-103952380D01*
X167666666Y-103952380D01*
X167809523Y-104000000D01*
X167857142Y-104047619D01*
X168238095Y-104047619D02*
X168285714Y-104000000D01*
X168380952Y-103952380D01*
X168619047Y-103952380D01*
X168714285Y-104000000D01*
X168761904Y-104047619D01*
X168809523Y-104142857D01*
X168809523Y-104238095D01*
X168761904Y-104380952D01*
X168190476Y-104952380D01*
X168809523Y-104952380D01*
X169761904Y-104952380D02*
X169190476Y-104952380D01*
X169476190Y-104952380D02*
X169476190Y-103952380D01*
X169380952Y-104095238D01*
X169285714Y-104190476D01*
X169190476Y-104238095D01*
%TO.C,C22*%
X116857142Y-102857142D02*
X116809523Y-102904761D01*
X116666666Y-102952380D01*
X116571428Y-102952380D01*
X116428571Y-102904761D01*
X116333333Y-102809523D01*
X116285714Y-102714285D01*
X116238095Y-102523809D01*
X116238095Y-102380952D01*
X116285714Y-102190476D01*
X116333333Y-102095238D01*
X116428571Y-102000000D01*
X116571428Y-101952380D01*
X116666666Y-101952380D01*
X116809523Y-102000000D01*
X116857142Y-102047619D01*
X117238095Y-102047619D02*
X117285714Y-102000000D01*
X117380952Y-101952380D01*
X117619047Y-101952380D01*
X117714285Y-102000000D01*
X117761904Y-102047619D01*
X117809523Y-102142857D01*
X117809523Y-102238095D01*
X117761904Y-102380952D01*
X117190476Y-102952380D01*
X117809523Y-102952380D01*
X118190476Y-102047619D02*
X118238095Y-102000000D01*
X118333333Y-101952380D01*
X118571428Y-101952380D01*
X118666666Y-102000000D01*
X118714285Y-102047619D01*
X118761904Y-102142857D01*
X118761904Y-102238095D01*
X118714285Y-102380952D01*
X118142857Y-102952380D01*
X118761904Y-102952380D01*
%TO.C,D1*%
X131011904Y-96952380D02*
X131011904Y-95952380D01*
X131250000Y-95952380D01*
X131392857Y-96000000D01*
X131488095Y-96095238D01*
X131535714Y-96190476D01*
X131583333Y-96380952D01*
X131583333Y-96523809D01*
X131535714Y-96714285D01*
X131488095Y-96809523D01*
X131392857Y-96904761D01*
X131250000Y-96952380D01*
X131011904Y-96952380D01*
X132535714Y-96952380D02*
X131964285Y-96952380D01*
X132250000Y-96952380D02*
X132250000Y-95952380D01*
X132154761Y-96095238D01*
X132059523Y-96190476D01*
X131964285Y-96238095D01*
%TO.C,D2*%
X142511904Y-114202380D02*
X142511904Y-113202380D01*
X142750000Y-113202380D01*
X142892857Y-113250000D01*
X142988095Y-113345238D01*
X143035714Y-113440476D01*
X143083333Y-113630952D01*
X143083333Y-113773809D01*
X143035714Y-113964285D01*
X142988095Y-114059523D01*
X142892857Y-114154761D01*
X142750000Y-114202380D01*
X142511904Y-114202380D01*
X143464285Y-113297619D02*
X143511904Y-113250000D01*
X143607142Y-113202380D01*
X143845238Y-113202380D01*
X143940476Y-113250000D01*
X143988095Y-113297619D01*
X144035714Y-113392857D01*
X144035714Y-113488095D01*
X143988095Y-113630952D01*
X143416666Y-114202380D01*
X144035714Y-114202380D01*
%TO.C,D3*%
X136511904Y-114202380D02*
X136511904Y-113202380D01*
X136750000Y-113202380D01*
X136892857Y-113250000D01*
X136988095Y-113345238D01*
X137035714Y-113440476D01*
X137083333Y-113630952D01*
X137083333Y-113773809D01*
X137035714Y-113964285D01*
X136988095Y-114059523D01*
X136892857Y-114154761D01*
X136750000Y-114202380D01*
X136511904Y-114202380D01*
X137416666Y-113202380D02*
X138035714Y-113202380D01*
X137702380Y-113583333D01*
X137845238Y-113583333D01*
X137940476Y-113630952D01*
X137988095Y-113678571D01*
X138035714Y-113773809D01*
X138035714Y-114011904D01*
X137988095Y-114107142D01*
X137940476Y-114154761D01*
X137845238Y-114202380D01*
X137559523Y-114202380D01*
X137464285Y-114154761D01*
X137416666Y-114107142D01*
%TO.C,F1*%
X118178571Y-83333333D02*
X118178571Y-83666666D01*
X118702380Y-83666666D02*
X117702380Y-83666666D01*
X117702380Y-83190476D01*
X118702380Y-82285714D02*
X118702380Y-82857142D01*
X118702380Y-82571428D02*
X117702380Y-82571428D01*
X117845238Y-82666666D01*
X117940476Y-82761904D01*
X117988095Y-82857142D01*
%TO.C,FB1*%
X116666666Y-93178571D02*
X116333333Y-93178571D01*
X116333333Y-93702380D02*
X116333333Y-92702380D01*
X116809523Y-92702380D01*
X117523809Y-93178571D02*
X117666666Y-93226190D01*
X117714285Y-93273809D01*
X117761904Y-93369047D01*
X117761904Y-93511904D01*
X117714285Y-93607142D01*
X117666666Y-93654761D01*
X117571428Y-93702380D01*
X117190476Y-93702380D01*
X117190476Y-92702380D01*
X117523809Y-92702380D01*
X117619047Y-92750000D01*
X117666666Y-92797619D01*
X117714285Y-92892857D01*
X117714285Y-92988095D01*
X117666666Y-93083333D01*
X117619047Y-93130952D01*
X117523809Y-93178571D01*
X117190476Y-93178571D01*
X118714285Y-93702380D02*
X118142857Y-93702380D01*
X118428571Y-93702380D02*
X118428571Y-92702380D01*
X118333333Y-92845238D01*
X118238095Y-92940476D01*
X118142857Y-92988095D01*
%TO.C,J1*%
X125916666Y-84202380D02*
X125916666Y-84916666D01*
X125869047Y-85059523D01*
X125773809Y-85154761D01*
X125630952Y-85202380D01*
X125535714Y-85202380D01*
X126916666Y-85202380D02*
X126345238Y-85202380D01*
X126630952Y-85202380D02*
X126630952Y-84202380D01*
X126535714Y-84345238D01*
X126440476Y-84440476D01*
X126345238Y-84488095D01*
X119400014Y-92202380D02*
X119525014Y-91202380D01*
X119905967Y-91202380D01*
X119995252Y-91250000D01*
X120036919Y-91297619D01*
X120072633Y-91392857D01*
X120054776Y-91535714D01*
X119995252Y-91630952D01*
X119941681Y-91678571D01*
X119840491Y-91726190D01*
X119459538Y-91726190D01*
X120542872Y-92202380D02*
X120453586Y-92154761D01*
X120411919Y-92107142D01*
X120376205Y-92011904D01*
X120411919Y-91726190D01*
X120471443Y-91630952D01*
X120525014Y-91583333D01*
X120626205Y-91535714D01*
X120769062Y-91535714D01*
X120858348Y-91583333D01*
X120900014Y-91630952D01*
X120935729Y-91726190D01*
X120900014Y-92011904D01*
X120840491Y-92107142D01*
X120786919Y-92154761D01*
X120685729Y-92202380D01*
X120542872Y-92202380D01*
X121292872Y-91535714D02*
X121400014Y-92202380D01*
X121650014Y-91726190D01*
X121780967Y-92202380D01*
X122054776Y-91535714D01*
X122739300Y-92154761D02*
X122638110Y-92202380D01*
X122447633Y-92202380D01*
X122358348Y-92154761D01*
X122322633Y-92059523D01*
X122370252Y-91678571D01*
X122429776Y-91583333D01*
X122530967Y-91535714D01*
X122721443Y-91535714D01*
X122810729Y-91583333D01*
X122846443Y-91678571D01*
X122834538Y-91773809D01*
X122346443Y-91869047D01*
X123209538Y-92202380D02*
X123292872Y-91535714D01*
X123269062Y-91726190D02*
X123328586Y-91630952D01*
X123382157Y-91583333D01*
X123483348Y-91535714D01*
X123578586Y-91535714D01*
X123578586Y-92297619D02*
X124340491Y-92297619D01*
X124590491Y-92202380D02*
X124715491Y-91202380D01*
X125150014Y-91535714D02*
X125066681Y-92202380D01*
X125138110Y-91630952D02*
X125191681Y-91583333D01*
X125292872Y-91535714D01*
X125435729Y-91535714D01*
X125525014Y-91583333D01*
X125560729Y-91678571D01*
X125495252Y-92202380D01*
X126054776Y-91535714D02*
X125929776Y-92535714D01*
X126048824Y-91583333D02*
X126150014Y-91535714D01*
X126340491Y-91535714D01*
X126429776Y-91583333D01*
X126471443Y-91630952D01*
X126507157Y-91726190D01*
X126471443Y-92011904D01*
X126411919Y-92107142D01*
X126358348Y-92154761D01*
X126257157Y-92202380D01*
X126066681Y-92202380D01*
X125977395Y-92154761D01*
X127388110Y-91535714D02*
X127304776Y-92202380D01*
X126959538Y-91535714D02*
X126894062Y-92059523D01*
X126929776Y-92154761D01*
X127019062Y-92202380D01*
X127161919Y-92202380D01*
X127263110Y-92154761D01*
X127316681Y-92107142D01*
X127721443Y-91535714D02*
X128102395Y-91535714D01*
X127905967Y-91202380D02*
X127798824Y-92059523D01*
X127834538Y-92154761D01*
X127923824Y-92202380D01*
X128019062Y-92202380D01*
X128102395Y-92297619D02*
X128864300Y-92297619D01*
X129638110Y-92202380D02*
X129066681Y-92202380D01*
X129352395Y-92202380D02*
X129477395Y-91202380D01*
X129364300Y-91345238D01*
X129257157Y-91440476D01*
X129155967Y-91488095D01*
X130132157Y-91297619D02*
X130185729Y-91250000D01*
X130286919Y-91202380D01*
X130525014Y-91202380D01*
X130614300Y-91250000D01*
X130655967Y-91297619D01*
X130691681Y-91392857D01*
X130679776Y-91488095D01*
X130614300Y-91630952D01*
X129971443Y-92202380D01*
X130590491Y-92202380D01*
X131001205Y-91202380D02*
X131209538Y-92202380D01*
X131667872Y-91202380D01*
%TO.C,J2*%
X135916666Y-84202380D02*
X135916666Y-84916666D01*
X135869047Y-85059523D01*
X135773809Y-85154761D01*
X135630952Y-85202380D01*
X135535714Y-85202380D01*
X136345238Y-84297619D02*
X136392857Y-84250000D01*
X136488095Y-84202380D01*
X136726190Y-84202380D01*
X136821428Y-84250000D01*
X136869047Y-84297619D01*
X136916666Y-84392857D01*
X136916666Y-84488095D01*
X136869047Y-84630952D01*
X136297619Y-85202380D01*
X136916666Y-85202380D01*
X132876205Y-92107142D02*
X132822633Y-92154761D01*
X132673824Y-92202380D01*
X132578586Y-92202380D01*
X132441681Y-92154761D01*
X132358348Y-92059523D01*
X132322633Y-91964285D01*
X132298824Y-91773809D01*
X132316681Y-91630952D01*
X132388110Y-91440476D01*
X132447633Y-91345238D01*
X132554776Y-91250000D01*
X132703586Y-91202380D01*
X132798824Y-91202380D01*
X132935729Y-91250000D01*
X132977395Y-91297619D01*
X133280967Y-91916666D02*
X133757157Y-91916666D01*
X133150014Y-92202380D02*
X133608348Y-91202380D01*
X133816681Y-92202380D01*
X134150014Y-92202380D02*
X134275014Y-91202380D01*
X134721443Y-92202380D01*
X134846443Y-91202380D01*
X134947633Y-92297619D02*
X135709538Y-92297619D01*
X135959538Y-92202380D02*
X136084538Y-91202380D01*
X136435729Y-92202380D02*
X136560729Y-91202380D01*
X137007157Y-92202380D01*
X137132157Y-91202380D01*
%TO.C,J3*%
X142666666Y-78452380D02*
X142666666Y-79166666D01*
X142619047Y-79309523D01*
X142523809Y-79404761D01*
X142380952Y-79452380D01*
X142285714Y-79452380D01*
X143047619Y-78452380D02*
X143666666Y-78452380D01*
X143333333Y-78833333D01*
X143476190Y-78833333D01*
X143571428Y-78880952D01*
X143619047Y-78928571D01*
X143666666Y-79023809D01*
X143666666Y-79261904D01*
X143619047Y-79357142D01*
X143571428Y-79404761D01*
X143476190Y-79452380D01*
X143190476Y-79452380D01*
X143095238Y-79404761D01*
X143047619Y-79357142D01*
X144209538Y-92107142D02*
X144155967Y-92154761D01*
X144007157Y-92202380D01*
X143911919Y-92202380D01*
X143775014Y-92154761D01*
X143691681Y-92059523D01*
X143655967Y-91964285D01*
X143632157Y-91773809D01*
X143650014Y-91630952D01*
X143721443Y-91440476D01*
X143780967Y-91345238D01*
X143888110Y-91250000D01*
X144036919Y-91202380D01*
X144132157Y-91202380D01*
X144269062Y-91250000D01*
X144310729Y-91297619D01*
X144614300Y-91916666D02*
X145090491Y-91916666D01*
X144483348Y-92202380D02*
X144941681Y-91202380D01*
X145150014Y-92202380D01*
X145483348Y-92202380D02*
X145608348Y-91202380D01*
X146054776Y-92202380D01*
X146179776Y-91202380D01*
X146280967Y-92297619D02*
X147042872Y-92297619D01*
X147608348Y-91202380D02*
X147798824Y-91202380D01*
X147888110Y-91250000D01*
X147971443Y-91345238D01*
X147995252Y-91535714D01*
X147953586Y-91869047D01*
X147882157Y-92059523D01*
X147775014Y-92154761D01*
X147673824Y-92202380D01*
X147483348Y-92202380D01*
X147394062Y-92154761D01*
X147310729Y-92059523D01*
X147286919Y-91869047D01*
X147328586Y-91535714D01*
X147400014Y-91345238D01*
X147507157Y-91250000D01*
X147608348Y-91202380D01*
X148465491Y-91202380D02*
X148364300Y-92011904D01*
X148400014Y-92107142D01*
X148441681Y-92154761D01*
X148530967Y-92202380D01*
X148721443Y-92202380D01*
X148822633Y-92154761D01*
X148876205Y-92107142D01*
X148935729Y-92011904D01*
X149036919Y-91202380D01*
X149370252Y-91202380D02*
X149941681Y-91202380D01*
X149530967Y-92202380D02*
X149655967Y-91202380D01*
%TO.C,J4*%
X176952380Y-84583333D02*
X177666666Y-84583333D01*
X177809523Y-84630952D01*
X177904761Y-84726190D01*
X177952380Y-84869047D01*
X177952380Y-84964285D01*
X177285714Y-83678571D02*
X177952380Y-83678571D01*
X176904761Y-83916666D02*
X177619047Y-84154761D01*
X177619047Y-83535714D01*
X178202380Y-88957127D02*
X178202380Y-89433318D01*
X177202380Y-89308318D01*
X178202380Y-88623794D02*
X177535714Y-88540461D01*
X177202380Y-88498794D02*
X177250000Y-88552366D01*
X177297619Y-88510699D01*
X177250000Y-88457127D01*
X177202380Y-88498794D01*
X177297619Y-88510699D01*
X178202380Y-88147604D02*
X177202380Y-88022604D01*
X177202380Y-87784508D01*
X177250000Y-87647604D01*
X177345238Y-87564270D01*
X177440476Y-87528556D01*
X177630952Y-87504747D01*
X177773809Y-87522604D01*
X177964285Y-87594032D01*
X178059523Y-87653556D01*
X178154761Y-87760699D01*
X178202380Y-87909508D01*
X178202380Y-88147604D01*
X177916666Y-87159508D02*
X177916666Y-86683318D01*
X178202380Y-87290461D02*
X177202380Y-86832127D01*
X178202380Y-86623794D01*
X178202380Y-85719032D02*
X177726190Y-85992842D01*
X178202380Y-86290461D02*
X177202380Y-86165461D01*
X177202380Y-85784508D01*
X177250000Y-85695223D01*
X177297619Y-85653556D01*
X177392857Y-85617842D01*
X177535714Y-85635699D01*
X177630952Y-85695223D01*
X177678571Y-85748794D01*
X177726190Y-85849985D01*
X177726190Y-86230937D01*
%TO.C,J5*%
X153416223Y-83951652D02*
X153416223Y-84666888D01*
X153368540Y-84809935D01*
X153273175Y-84905300D01*
X153130128Y-84952983D01*
X153034763Y-84952983D01*
X154369871Y-83951652D02*
X153893047Y-83951652D01*
X153845364Y-84428476D01*
X153893047Y-84380793D01*
X153988412Y-84333111D01*
X154226824Y-84333111D01*
X154322189Y-84380793D01*
X154369871Y-84428476D01*
X154417554Y-84523841D01*
X154417554Y-84762253D01*
X154369871Y-84857618D01*
X154322189Y-84905300D01*
X154226824Y-84952983D01*
X153988412Y-84952983D01*
X153893047Y-84905300D01*
X153845364Y-84857618D01*
X155614300Y-84952380D02*
X155739300Y-83952380D01*
X155977395Y-83952380D01*
X156114300Y-84000000D01*
X156197633Y-84095238D01*
X156233348Y-84190476D01*
X156257157Y-84380952D01*
X156239300Y-84523809D01*
X156167872Y-84714285D01*
X156108348Y-84809523D01*
X156001205Y-84904761D01*
X155852395Y-84952380D01*
X155614300Y-84952380D01*
X156864300Y-84476190D02*
X156804776Y-84952380D01*
X156596443Y-83952380D02*
X156864300Y-84476190D01*
X157263110Y-83952380D01*
X157471443Y-84952380D02*
X157596443Y-83952380D01*
X158042872Y-84952380D01*
X158167872Y-83952380D01*
X158507157Y-84666666D02*
X158983348Y-84666666D01*
X158376205Y-84952380D02*
X158834538Y-83952380D01*
X159042872Y-84952380D01*
X159376205Y-84952380D02*
X159501205Y-83952380D01*
X159745252Y-84666666D01*
X160167872Y-83952380D01*
X160042872Y-84952380D01*
X160519062Y-84952380D02*
X160644062Y-83952380D01*
X161025014Y-83952380D02*
X161566681Y-84952380D01*
X161691681Y-83952380D02*
X160900014Y-84952380D01*
X162013110Y-84428571D02*
X162346443Y-84428571D01*
X162423824Y-84952380D02*
X161947633Y-84952380D01*
X162072633Y-83952380D01*
X162548824Y-83952380D01*
X163328586Y-84952380D02*
X162852395Y-84952380D01*
X162977395Y-83952380D01*
%TO.C,J6*%
X167916223Y-83701652D02*
X167916223Y-84416888D01*
X167868540Y-84559935D01*
X167773175Y-84655300D01*
X167630128Y-84702983D01*
X167534763Y-84702983D01*
X168822189Y-83701652D02*
X168631459Y-83701652D01*
X168536094Y-83749334D01*
X168488412Y-83797016D01*
X168393047Y-83940064D01*
X168345364Y-84130793D01*
X168345364Y-84512253D01*
X168393047Y-84607618D01*
X168440729Y-84655300D01*
X168536094Y-84702983D01*
X168726824Y-84702983D01*
X168822189Y-84655300D01*
X168869871Y-84607618D01*
X168917554Y-84512253D01*
X168917554Y-84273841D01*
X168869871Y-84178476D01*
X168822189Y-84130793D01*
X168726824Y-84083111D01*
X168536094Y-84083111D01*
X168440729Y-84130793D01*
X168393047Y-84178476D01*
X168345364Y-84273841D01*
X171388110Y-84952380D02*
X171513110Y-83952380D01*
X171894062Y-83952380D01*
X171983348Y-84000000D01*
X172025014Y-84047619D01*
X172060729Y-84142857D01*
X172042872Y-84285714D01*
X171983348Y-84380952D01*
X171929776Y-84428571D01*
X171828586Y-84476190D01*
X171447633Y-84476190D01*
X172971443Y-84857142D02*
X172917872Y-84904761D01*
X172769062Y-84952380D01*
X172673824Y-84952380D01*
X172536919Y-84904761D01*
X172453586Y-84809523D01*
X172417872Y-84714285D01*
X172394062Y-84523809D01*
X172411919Y-84380952D01*
X172483348Y-84190476D01*
X172542872Y-84095238D01*
X172650014Y-84000000D01*
X172798824Y-83952380D01*
X172894062Y-83952380D01*
X173030967Y-84000000D01*
X173072633Y-84047619D01*
%TO.C,J11*%
X178465491Y-99967380D02*
X178376205Y-100681666D01*
X178310729Y-100824523D01*
X178203586Y-100919761D01*
X178054776Y-100967380D01*
X177959538Y-100967380D01*
X179340491Y-100967380D02*
X178769062Y-100967380D01*
X179054776Y-100967380D02*
X179179776Y-99967380D01*
X179066681Y-100110238D01*
X178959538Y-100205476D01*
X178858348Y-100253095D01*
X180292872Y-100967380D02*
X179721443Y-100967380D01*
X180007157Y-100967380D02*
X180132157Y-99967380D01*
X180019062Y-100110238D01*
X179911919Y-100205476D01*
X179810729Y-100253095D01*
X175404761Y-106201175D02*
X175452380Y-106064270D01*
X175452380Y-105826175D01*
X175404761Y-105724985D01*
X175357142Y-105671413D01*
X175261904Y-105611889D01*
X175166666Y-105599985D01*
X175071428Y-105635699D01*
X175023809Y-105677366D01*
X174976190Y-105766651D01*
X174928571Y-105951175D01*
X174880952Y-106040461D01*
X174833333Y-106082127D01*
X174738095Y-106117842D01*
X174642857Y-106105937D01*
X174547619Y-106046413D01*
X174500000Y-105992842D01*
X174452380Y-105891651D01*
X174452380Y-105653556D01*
X174500000Y-105516651D01*
X174452380Y-105177366D02*
X175452380Y-105064270D01*
X174738095Y-104784508D01*
X175452380Y-104683318D01*
X174452380Y-104320223D01*
X175452380Y-104064270D02*
X174452380Y-103939270D01*
X174452380Y-103701175D01*
X174500000Y-103564270D01*
X174595238Y-103480937D01*
X174690476Y-103445223D01*
X174880952Y-103421413D01*
X175023809Y-103439270D01*
X175214285Y-103510699D01*
X175309523Y-103570223D01*
X175404761Y-103677366D01*
X175452380Y-103826175D01*
X175452380Y-104064270D01*
%TO.C,JP1*%
X149416666Y-92872380D02*
X149416666Y-93586666D01*
X149369047Y-93729523D01*
X149273809Y-93824761D01*
X149130952Y-93872380D01*
X149035714Y-93872380D01*
X149892857Y-93872380D02*
X149892857Y-92872380D01*
X150273809Y-92872380D01*
X150369047Y-92920000D01*
X150416666Y-92967619D01*
X150464285Y-93062857D01*
X150464285Y-93205714D01*
X150416666Y-93300952D01*
X150369047Y-93348571D01*
X150273809Y-93396190D01*
X149892857Y-93396190D01*
X151416666Y-93872380D02*
X150845238Y-93872380D01*
X151130952Y-93872380D02*
X151130952Y-92872380D01*
X151035714Y-93015238D01*
X150940476Y-93110476D01*
X150845238Y-93158095D01*
%TO.C,L1*%
X141583333Y-100952380D02*
X141107142Y-100952380D01*
X141107142Y-99952380D01*
X142440476Y-100952380D02*
X141869047Y-100952380D01*
X142154761Y-100952380D02*
X142154761Y-99952380D01*
X142059523Y-100095238D01*
X141964285Y-100190476D01*
X141869047Y-100238095D01*
%TO.C,Q1*%
X117654761Y-91547619D02*
X117559523Y-91500000D01*
X117464285Y-91404761D01*
X117321428Y-91261904D01*
X117226190Y-91214285D01*
X117130952Y-91214285D01*
X117178571Y-91452380D02*
X117083333Y-91404761D01*
X116988095Y-91309523D01*
X116940476Y-91119047D01*
X116940476Y-90785714D01*
X116988095Y-90595238D01*
X117083333Y-90500000D01*
X117178571Y-90452380D01*
X117369047Y-90452380D01*
X117464285Y-90500000D01*
X117559523Y-90595238D01*
X117607142Y-90785714D01*
X117607142Y-91119047D01*
X117559523Y-91309523D01*
X117464285Y-91404761D01*
X117369047Y-91452380D01*
X117178571Y-91452380D01*
X118559523Y-91452380D02*
X117988095Y-91452380D01*
X118273809Y-91452380D02*
X118273809Y-90452380D01*
X118178571Y-90595238D01*
X118083333Y-90690476D01*
X117988095Y-90738095D01*
%TO.C,Q3*%
X174797619Y-98845238D02*
X174750000Y-98940476D01*
X174654761Y-99035714D01*
X174511904Y-99178571D01*
X174464285Y-99273809D01*
X174464285Y-99369047D01*
X174702380Y-99321428D02*
X174654761Y-99416666D01*
X174559523Y-99511904D01*
X174369047Y-99559523D01*
X174035714Y-99559523D01*
X173845238Y-99511904D01*
X173750000Y-99416666D01*
X173702380Y-99321428D01*
X173702380Y-99130952D01*
X173750000Y-99035714D01*
X173845238Y-98940476D01*
X174035714Y-98892857D01*
X174369047Y-98892857D01*
X174559523Y-98940476D01*
X174654761Y-99035714D01*
X174702380Y-99130952D01*
X174702380Y-99321428D01*
X173702380Y-98559523D02*
X173702380Y-97940476D01*
X174083333Y-98273809D01*
X174083333Y-98130952D01*
X174130952Y-98035714D01*
X174178571Y-97988095D01*
X174273809Y-97940476D01*
X174511904Y-97940476D01*
X174607142Y-97988095D01*
X174654761Y-98035714D01*
X174702380Y-98130952D01*
X174702380Y-98416666D01*
X174654761Y-98511904D01*
X174607142Y-98559523D01*
%TO.C,Q4*%
X173154761Y-109547619D02*
X173059523Y-109500000D01*
X172964285Y-109404761D01*
X172821428Y-109261904D01*
X172726190Y-109214285D01*
X172630952Y-109214285D01*
X172678571Y-109452380D02*
X172583333Y-109404761D01*
X172488095Y-109309523D01*
X172440476Y-109119047D01*
X172440476Y-108785714D01*
X172488095Y-108595238D01*
X172583333Y-108500000D01*
X172678571Y-108452380D01*
X172869047Y-108452380D01*
X172964285Y-108500000D01*
X173059523Y-108595238D01*
X173107142Y-108785714D01*
X173107142Y-109119047D01*
X173059523Y-109309523D01*
X172964285Y-109404761D01*
X172869047Y-109452380D01*
X172678571Y-109452380D01*
X173964285Y-108785714D02*
X173964285Y-109452380D01*
X173726190Y-108404761D02*
X173488095Y-109119047D01*
X174107142Y-109119047D01*
%TO.C,Q5*%
X171154761Y-105297619D02*
X171059523Y-105250000D01*
X170964285Y-105154761D01*
X170821428Y-105011904D01*
X170726190Y-104964285D01*
X170630952Y-104964285D01*
X170678571Y-105202380D02*
X170583333Y-105154761D01*
X170488095Y-105059523D01*
X170440476Y-104869047D01*
X170440476Y-104535714D01*
X170488095Y-104345238D01*
X170583333Y-104250000D01*
X170678571Y-104202380D01*
X170869047Y-104202380D01*
X170964285Y-104250000D01*
X171059523Y-104345238D01*
X171107142Y-104535714D01*
X171107142Y-104869047D01*
X171059523Y-105059523D01*
X170964285Y-105154761D01*
X170869047Y-105202380D01*
X170678571Y-105202380D01*
X172011904Y-104202380D02*
X171535714Y-104202380D01*
X171488095Y-104678571D01*
X171535714Y-104630952D01*
X171630952Y-104583333D01*
X171869047Y-104583333D01*
X171964285Y-104630952D01*
X172011904Y-104678571D01*
X172059523Y-104773809D01*
X172059523Y-105011904D01*
X172011904Y-105107142D01*
X171964285Y-105154761D01*
X171869047Y-105202380D01*
X171630952Y-105202380D01*
X171535714Y-105154761D01*
X171488095Y-105107142D01*
%TO.C,R3*%
X148202380Y-93666666D02*
X147726190Y-94000000D01*
X148202380Y-94238095D02*
X147202380Y-94238095D01*
X147202380Y-93857142D01*
X147250000Y-93761904D01*
X147297619Y-93714285D01*
X147392857Y-93666666D01*
X147535714Y-93666666D01*
X147630952Y-93714285D01*
X147678571Y-93761904D01*
X147726190Y-93857142D01*
X147726190Y-94238095D01*
X147202380Y-93333333D02*
X147202380Y-92714285D01*
X147583333Y-93047619D01*
X147583333Y-92904761D01*
X147630952Y-92809523D01*
X147678571Y-92761904D01*
X147773809Y-92714285D01*
X148011904Y-92714285D01*
X148107142Y-92761904D01*
X148154761Y-92809523D01*
X148202380Y-92904761D01*
X148202380Y-93190476D01*
X148154761Y-93285714D01*
X148107142Y-93333333D01*
%TO.C,R4*%
X164583333Y-91202380D02*
X164250000Y-90726190D01*
X164011904Y-91202380D02*
X164011904Y-90202380D01*
X164392857Y-90202380D01*
X164488095Y-90250000D01*
X164535714Y-90297619D01*
X164583333Y-90392857D01*
X164583333Y-90535714D01*
X164535714Y-90630952D01*
X164488095Y-90678571D01*
X164392857Y-90726190D01*
X164011904Y-90726190D01*
X165440476Y-90535714D02*
X165440476Y-91202380D01*
X165202380Y-90154761D02*
X164964285Y-90869047D01*
X165583333Y-90869047D01*
%TO.C,R5*%
X164583333Y-93702380D02*
X164250000Y-93226190D01*
X164011904Y-93702380D02*
X164011904Y-92702380D01*
X164392857Y-92702380D01*
X164488095Y-92750000D01*
X164535714Y-92797619D01*
X164583333Y-92892857D01*
X164583333Y-93035714D01*
X164535714Y-93130952D01*
X164488095Y-93178571D01*
X164392857Y-93226190D01*
X164011904Y-93226190D01*
X165488095Y-92702380D02*
X165011904Y-92702380D01*
X164964285Y-93178571D01*
X165011904Y-93130952D01*
X165107142Y-93083333D01*
X165345238Y-93083333D01*
X165440476Y-93130952D01*
X165488095Y-93178571D01*
X165535714Y-93273809D01*
X165535714Y-93511904D01*
X165488095Y-93607142D01*
X165440476Y-93654761D01*
X165345238Y-93702380D01*
X165107142Y-93702380D01*
X165011904Y-93654761D01*
X164964285Y-93607142D01*
%TO.C,R6*%
X164583333Y-92452380D02*
X164250000Y-91976190D01*
X164011904Y-92452380D02*
X164011904Y-91452380D01*
X164392857Y-91452380D01*
X164488095Y-91500000D01*
X164535714Y-91547619D01*
X164583333Y-91642857D01*
X164583333Y-91785714D01*
X164535714Y-91880952D01*
X164488095Y-91928571D01*
X164392857Y-91976190D01*
X164011904Y-91976190D01*
X165440476Y-91452380D02*
X165250000Y-91452380D01*
X165154761Y-91500000D01*
X165107142Y-91547619D01*
X165011904Y-91690476D01*
X164964285Y-91880952D01*
X164964285Y-92261904D01*
X165011904Y-92357142D01*
X165059523Y-92404761D01*
X165154761Y-92452380D01*
X165345238Y-92452380D01*
X165440476Y-92404761D01*
X165488095Y-92357142D01*
X165535714Y-92261904D01*
X165535714Y-92023809D01*
X165488095Y-91928571D01*
X165440476Y-91880952D01*
X165345238Y-91833333D01*
X165154761Y-91833333D01*
X165059523Y-91880952D01*
X165011904Y-91928571D01*
X164964285Y-92023809D01*
%TO.C,R7*%
X149583333Y-107452380D02*
X149250000Y-106976190D01*
X149011904Y-107452380D02*
X149011904Y-106452380D01*
X149392857Y-106452380D01*
X149488095Y-106500000D01*
X149535714Y-106547619D01*
X149583333Y-106642857D01*
X149583333Y-106785714D01*
X149535714Y-106880952D01*
X149488095Y-106928571D01*
X149392857Y-106976190D01*
X149011904Y-106976190D01*
X149916666Y-106452380D02*
X150583333Y-106452380D01*
X150154761Y-107452380D01*
%TO.C,R8*%
X143333333Y-115952380D02*
X143000000Y-115476190D01*
X142761904Y-115952380D02*
X142761904Y-114952380D01*
X143142857Y-114952380D01*
X143238095Y-115000000D01*
X143285714Y-115047619D01*
X143333333Y-115142857D01*
X143333333Y-115285714D01*
X143285714Y-115380952D01*
X143238095Y-115428571D01*
X143142857Y-115476190D01*
X142761904Y-115476190D01*
X143904761Y-115380952D02*
X143809523Y-115333333D01*
X143761904Y-115285714D01*
X143714285Y-115190476D01*
X143714285Y-115142857D01*
X143761904Y-115047619D01*
X143809523Y-115000000D01*
X143904761Y-114952380D01*
X144095238Y-114952380D01*
X144190476Y-115000000D01*
X144238095Y-115047619D01*
X144285714Y-115142857D01*
X144285714Y-115190476D01*
X144238095Y-115285714D01*
X144190476Y-115333333D01*
X144095238Y-115380952D01*
X143904761Y-115380952D01*
X143809523Y-115428571D01*
X143761904Y-115476190D01*
X143714285Y-115571428D01*
X143714285Y-115761904D01*
X143761904Y-115857142D01*
X143809523Y-115904761D01*
X143904761Y-115952380D01*
X144095238Y-115952380D01*
X144190476Y-115904761D01*
X144238095Y-115857142D01*
X144285714Y-115761904D01*
X144285714Y-115571428D01*
X144238095Y-115476190D01*
X144190476Y-115428571D01*
X144095238Y-115380952D01*
%TO.C,R9*%
X175702380Y-94166666D02*
X175226190Y-94500000D01*
X175702380Y-94738095D02*
X174702380Y-94738095D01*
X174702380Y-94357142D01*
X174750000Y-94261904D01*
X174797619Y-94214285D01*
X174892857Y-94166666D01*
X175035714Y-94166666D01*
X175130952Y-94214285D01*
X175178571Y-94261904D01*
X175226190Y-94357142D01*
X175226190Y-94738095D01*
X175702380Y-93690476D02*
X175702380Y-93500000D01*
X175654761Y-93404761D01*
X175607142Y-93357142D01*
X175464285Y-93261904D01*
X175273809Y-93214285D01*
X174892857Y-93214285D01*
X174797619Y-93261904D01*
X174750000Y-93309523D01*
X174702380Y-93404761D01*
X174702380Y-93595238D01*
X174750000Y-93690476D01*
X174797619Y-93738095D01*
X174892857Y-93785714D01*
X175130952Y-93785714D01*
X175226190Y-93738095D01*
X175273809Y-93690476D01*
X175321428Y-93595238D01*
X175321428Y-93404761D01*
X175273809Y-93309523D01*
X175226190Y-93261904D01*
X175130952Y-93214285D01*
%TO.C,R10*%
X174202380Y-94892857D02*
X173726190Y-95226190D01*
X174202380Y-95464285D02*
X173202380Y-95464285D01*
X173202380Y-95083333D01*
X173250000Y-94988095D01*
X173297619Y-94940476D01*
X173392857Y-94892857D01*
X173535714Y-94892857D01*
X173630952Y-94940476D01*
X173678571Y-94988095D01*
X173726190Y-95083333D01*
X173726190Y-95464285D01*
X174202380Y-93940476D02*
X174202380Y-94511904D01*
X174202380Y-94226190D02*
X173202380Y-94226190D01*
X173345238Y-94321428D01*
X173440476Y-94416666D01*
X173488095Y-94511904D01*
X173202380Y-93321428D02*
X173202380Y-93226190D01*
X173250000Y-93130952D01*
X173297619Y-93083333D01*
X173392857Y-93035714D01*
X173583333Y-92988095D01*
X173821428Y-92988095D01*
X174011904Y-93035714D01*
X174107142Y-93083333D01*
X174154761Y-93130952D01*
X174202380Y-93226190D01*
X174202380Y-93321428D01*
X174154761Y-93416666D01*
X174107142Y-93464285D01*
X174011904Y-93511904D01*
X173821428Y-93559523D01*
X173583333Y-93559523D01*
X173392857Y-93511904D01*
X173297619Y-93464285D01*
X173250000Y-93416666D01*
X173202380Y-93321428D01*
%TO.C,R11*%
X138107142Y-105952380D02*
X137773809Y-105476190D01*
X137535714Y-105952380D02*
X137535714Y-104952380D01*
X137916666Y-104952380D01*
X138011904Y-105000000D01*
X138059523Y-105047619D01*
X138107142Y-105142857D01*
X138107142Y-105285714D01*
X138059523Y-105380952D01*
X138011904Y-105428571D01*
X137916666Y-105476190D01*
X137535714Y-105476190D01*
X139059523Y-105952380D02*
X138488095Y-105952380D01*
X138773809Y-105952380D02*
X138773809Y-104952380D01*
X138678571Y-105095238D01*
X138583333Y-105190476D01*
X138488095Y-105238095D01*
X140011904Y-105952380D02*
X139440476Y-105952380D01*
X139726190Y-105952380D02*
X139726190Y-104952380D01*
X139630952Y-105095238D01*
X139535714Y-105190476D01*
X139440476Y-105238095D01*
%TO.C,R12*%
X138107142Y-104452380D02*
X137773809Y-103976190D01*
X137535714Y-104452380D02*
X137535714Y-103452380D01*
X137916666Y-103452380D01*
X138011904Y-103500000D01*
X138059523Y-103547619D01*
X138107142Y-103642857D01*
X138107142Y-103785714D01*
X138059523Y-103880952D01*
X138011904Y-103928571D01*
X137916666Y-103976190D01*
X137535714Y-103976190D01*
X139059523Y-104452380D02*
X138488095Y-104452380D01*
X138773809Y-104452380D02*
X138773809Y-103452380D01*
X138678571Y-103595238D01*
X138583333Y-103690476D01*
X138488095Y-103738095D01*
X139440476Y-103547619D02*
X139488095Y-103500000D01*
X139583333Y-103452380D01*
X139821428Y-103452380D01*
X139916666Y-103500000D01*
X139964285Y-103547619D01*
X140011904Y-103642857D01*
X140011904Y-103738095D01*
X139964285Y-103880952D01*
X139392857Y-104452380D01*
X140011904Y-104452380D01*
%TO.C,R13*%
X136857142Y-115952380D02*
X136523809Y-115476190D01*
X136285714Y-115952380D02*
X136285714Y-114952380D01*
X136666666Y-114952380D01*
X136761904Y-115000000D01*
X136809523Y-115047619D01*
X136857142Y-115142857D01*
X136857142Y-115285714D01*
X136809523Y-115380952D01*
X136761904Y-115428571D01*
X136666666Y-115476190D01*
X136285714Y-115476190D01*
X137809523Y-115952380D02*
X137238095Y-115952380D01*
X137523809Y-115952380D02*
X137523809Y-114952380D01*
X137428571Y-115095238D01*
X137333333Y-115190476D01*
X137238095Y-115238095D01*
X138142857Y-114952380D02*
X138761904Y-114952380D01*
X138428571Y-115333333D01*
X138571428Y-115333333D01*
X138666666Y-115380952D01*
X138714285Y-115428571D01*
X138761904Y-115523809D01*
X138761904Y-115761904D01*
X138714285Y-115857142D01*
X138666666Y-115904761D01*
X138571428Y-115952380D01*
X138285714Y-115952380D01*
X138190476Y-115904761D01*
X138142857Y-115857142D01*
%TO.C,R14*%
X169702380Y-103142857D02*
X169226190Y-103476190D01*
X169702380Y-103714285D02*
X168702380Y-103714285D01*
X168702380Y-103333333D01*
X168750000Y-103238095D01*
X168797619Y-103190476D01*
X168892857Y-103142857D01*
X169035714Y-103142857D01*
X169130952Y-103190476D01*
X169178571Y-103238095D01*
X169226190Y-103333333D01*
X169226190Y-103714285D01*
X169702380Y-102190476D02*
X169702380Y-102761904D01*
X169702380Y-102476190D02*
X168702380Y-102476190D01*
X168845238Y-102571428D01*
X168940476Y-102666666D01*
X168988095Y-102761904D01*
X169035714Y-101333333D02*
X169702380Y-101333333D01*
X168654761Y-101571428D02*
X169369047Y-101809523D01*
X169369047Y-101190476D01*
%TO.C,R15*%
X171107142Y-102702380D02*
X170773809Y-102226190D01*
X170535714Y-102702380D02*
X170535714Y-101702380D01*
X170916666Y-101702380D01*
X171011904Y-101750000D01*
X171059523Y-101797619D01*
X171107142Y-101892857D01*
X171107142Y-102035714D01*
X171059523Y-102130952D01*
X171011904Y-102178571D01*
X170916666Y-102226190D01*
X170535714Y-102226190D01*
X172059523Y-102702380D02*
X171488095Y-102702380D01*
X171773809Y-102702380D02*
X171773809Y-101702380D01*
X171678571Y-101845238D01*
X171583333Y-101940476D01*
X171488095Y-101988095D01*
X172964285Y-101702380D02*
X172488095Y-101702380D01*
X172440476Y-102178571D01*
X172488095Y-102130952D01*
X172583333Y-102083333D01*
X172821428Y-102083333D01*
X172916666Y-102130952D01*
X172964285Y-102178571D01*
X173011904Y-102273809D01*
X173011904Y-102511904D01*
X172964285Y-102607142D01*
X172916666Y-102654761D01*
X172821428Y-102702380D01*
X172583333Y-102702380D01*
X172488095Y-102654761D01*
X172440476Y-102607142D01*
%TO.C,R16*%
X175607142Y-112702380D02*
X175273809Y-112226190D01*
X175035714Y-112702380D02*
X175035714Y-111702380D01*
X175416666Y-111702380D01*
X175511904Y-111750000D01*
X175559523Y-111797619D01*
X175607142Y-111892857D01*
X175607142Y-112035714D01*
X175559523Y-112130952D01*
X175511904Y-112178571D01*
X175416666Y-112226190D01*
X175035714Y-112226190D01*
X176559523Y-112702380D02*
X175988095Y-112702380D01*
X176273809Y-112702380D02*
X176273809Y-111702380D01*
X176178571Y-111845238D01*
X176083333Y-111940476D01*
X175988095Y-111988095D01*
X177416666Y-111702380D02*
X177226190Y-111702380D01*
X177130952Y-111750000D01*
X177083333Y-111797619D01*
X176988095Y-111940476D01*
X176940476Y-112130952D01*
X176940476Y-112511904D01*
X176988095Y-112607142D01*
X177035714Y-112654761D01*
X177130952Y-112702380D01*
X177321428Y-112702380D01*
X177416666Y-112654761D01*
X177464285Y-112607142D01*
X177511904Y-112511904D01*
X177511904Y-112273809D01*
X177464285Y-112178571D01*
X177416666Y-112130952D01*
X177321428Y-112083333D01*
X177130952Y-112083333D01*
X177035714Y-112130952D01*
X176988095Y-112178571D01*
X176940476Y-112273809D01*
%TO.C,R17*%
X167357142Y-95702380D02*
X167023809Y-95226190D01*
X166785714Y-95702380D02*
X166785714Y-94702380D01*
X167166666Y-94702380D01*
X167261904Y-94750000D01*
X167309523Y-94797619D01*
X167357142Y-94892857D01*
X167357142Y-95035714D01*
X167309523Y-95130952D01*
X167261904Y-95178571D01*
X167166666Y-95226190D01*
X166785714Y-95226190D01*
X168309523Y-95702380D02*
X167738095Y-95702380D01*
X168023809Y-95702380D02*
X168023809Y-94702380D01*
X167928571Y-94845238D01*
X167833333Y-94940476D01*
X167738095Y-94988095D01*
X168642857Y-94702380D02*
X169309523Y-94702380D01*
X168880952Y-95702380D01*
%TO.C,R18*%
X171107142Y-95782380D02*
X170773809Y-95306190D01*
X170535714Y-95782380D02*
X170535714Y-94782380D01*
X170916666Y-94782380D01*
X171011904Y-94830000D01*
X171059523Y-94877619D01*
X171107142Y-94972857D01*
X171107142Y-95115714D01*
X171059523Y-95210952D01*
X171011904Y-95258571D01*
X170916666Y-95306190D01*
X170535714Y-95306190D01*
X172059523Y-95782380D02*
X171488095Y-95782380D01*
X171773809Y-95782380D02*
X171773809Y-94782380D01*
X171678571Y-94925238D01*
X171583333Y-95020476D01*
X171488095Y-95068095D01*
X172630952Y-95210952D02*
X172535714Y-95163333D01*
X172488095Y-95115714D01*
X172440476Y-95020476D01*
X172440476Y-94972857D01*
X172488095Y-94877619D01*
X172535714Y-94830000D01*
X172630952Y-94782380D01*
X172821428Y-94782380D01*
X172916666Y-94830000D01*
X172964285Y-94877619D01*
X173011904Y-94972857D01*
X173011904Y-95020476D01*
X172964285Y-95115714D01*
X172916666Y-95163333D01*
X172821428Y-95210952D01*
X172630952Y-95210952D01*
X172535714Y-95258571D01*
X172488095Y-95306190D01*
X172440476Y-95401428D01*
X172440476Y-95591904D01*
X172488095Y-95687142D01*
X172535714Y-95734761D01*
X172630952Y-95782380D01*
X172821428Y-95782380D01*
X172916666Y-95734761D01*
X172964285Y-95687142D01*
X173011904Y-95591904D01*
X173011904Y-95401428D01*
X172964285Y-95306190D01*
X172916666Y-95258571D01*
X172821428Y-95210952D01*
%TO.C,R19*%
X175952380Y-99892857D02*
X175476190Y-100226190D01*
X175952380Y-100464285D02*
X174952380Y-100464285D01*
X174952380Y-100083333D01*
X175000000Y-99988095D01*
X175047619Y-99940476D01*
X175142857Y-99892857D01*
X175285714Y-99892857D01*
X175380952Y-99940476D01*
X175428571Y-99988095D01*
X175476190Y-100083333D01*
X175476190Y-100464285D01*
X175952380Y-98940476D02*
X175952380Y-99511904D01*
X175952380Y-99226190D02*
X174952380Y-99226190D01*
X175095238Y-99321428D01*
X175190476Y-99416666D01*
X175238095Y-99511904D01*
X175952380Y-98464285D02*
X175952380Y-98273809D01*
X175904761Y-98178571D01*
X175857142Y-98130952D01*
X175714285Y-98035714D01*
X175523809Y-97988095D01*
X175142857Y-97988095D01*
X175047619Y-98035714D01*
X175000000Y-98083333D01*
X174952380Y-98178571D01*
X174952380Y-98369047D01*
X175000000Y-98464285D01*
X175047619Y-98511904D01*
X175142857Y-98559523D01*
X175380952Y-98559523D01*
X175476190Y-98511904D01*
X175523809Y-98464285D01*
X175571428Y-98369047D01*
X175571428Y-98178571D01*
X175523809Y-98083333D01*
X175476190Y-98035714D01*
X175380952Y-97988095D01*
%TO.C,R20*%
X168202380Y-111392857D02*
X167726190Y-111726190D01*
X168202380Y-111964285D02*
X167202380Y-111964285D01*
X167202380Y-111583333D01*
X167250000Y-111488095D01*
X167297619Y-111440476D01*
X167392857Y-111392857D01*
X167535714Y-111392857D01*
X167630952Y-111440476D01*
X167678571Y-111488095D01*
X167726190Y-111583333D01*
X167726190Y-111964285D01*
X167297619Y-111011904D02*
X167250000Y-110964285D01*
X167202380Y-110869047D01*
X167202380Y-110630952D01*
X167250000Y-110535714D01*
X167297619Y-110488095D01*
X167392857Y-110440476D01*
X167488095Y-110440476D01*
X167630952Y-110488095D01*
X168202380Y-111059523D01*
X168202380Y-110440476D01*
X167202380Y-109821428D02*
X167202380Y-109726190D01*
X167250000Y-109630952D01*
X167297619Y-109583333D01*
X167392857Y-109535714D01*
X167583333Y-109488095D01*
X167821428Y-109488095D01*
X168011904Y-109535714D01*
X168107142Y-109583333D01*
X168154761Y-109630952D01*
X168202380Y-109726190D01*
X168202380Y-109821428D01*
X168154761Y-109916666D01*
X168107142Y-109964285D01*
X168011904Y-110011904D01*
X167821428Y-110059523D01*
X167583333Y-110059523D01*
X167392857Y-110011904D01*
X167297619Y-109964285D01*
X167250000Y-109916666D01*
X167202380Y-109821428D01*
%TO.C,R21*%
X168202380Y-107642857D02*
X167726190Y-107976190D01*
X168202380Y-108214285D02*
X167202380Y-108214285D01*
X167202380Y-107833333D01*
X167250000Y-107738095D01*
X167297619Y-107690476D01*
X167392857Y-107642857D01*
X167535714Y-107642857D01*
X167630952Y-107690476D01*
X167678571Y-107738095D01*
X167726190Y-107833333D01*
X167726190Y-108214285D01*
X167297619Y-107261904D02*
X167250000Y-107214285D01*
X167202380Y-107119047D01*
X167202380Y-106880952D01*
X167250000Y-106785714D01*
X167297619Y-106738095D01*
X167392857Y-106690476D01*
X167488095Y-106690476D01*
X167630952Y-106738095D01*
X168202380Y-107309523D01*
X168202380Y-106690476D01*
X168202380Y-105738095D02*
X168202380Y-106309523D01*
X168202380Y-106023809D02*
X167202380Y-106023809D01*
X167345238Y-106119047D01*
X167440476Y-106214285D01*
X167488095Y-106309523D01*
%TO.C,R22*%
X175202380Y-111142857D02*
X174726190Y-111476190D01*
X175202380Y-111714285D02*
X174202380Y-111714285D01*
X174202380Y-111333333D01*
X174250000Y-111238095D01*
X174297619Y-111190476D01*
X174392857Y-111142857D01*
X174535714Y-111142857D01*
X174630952Y-111190476D01*
X174678571Y-111238095D01*
X174726190Y-111333333D01*
X174726190Y-111714285D01*
X174297619Y-110761904D02*
X174250000Y-110714285D01*
X174202380Y-110619047D01*
X174202380Y-110380952D01*
X174250000Y-110285714D01*
X174297619Y-110238095D01*
X174392857Y-110190476D01*
X174488095Y-110190476D01*
X174630952Y-110238095D01*
X175202380Y-110809523D01*
X175202380Y-110190476D01*
X174297619Y-109809523D02*
X174250000Y-109761904D01*
X174202380Y-109666666D01*
X174202380Y-109428571D01*
X174250000Y-109333333D01*
X174297619Y-109285714D01*
X174392857Y-109238095D01*
X174488095Y-109238095D01*
X174630952Y-109285714D01*
X175202380Y-109857142D01*
X175202380Y-109238095D01*
%TO.C,R23*%
X173452380Y-105392857D02*
X172976190Y-105726190D01*
X173452380Y-105964285D02*
X172452380Y-105964285D01*
X172452380Y-105583333D01*
X172500000Y-105488095D01*
X172547619Y-105440476D01*
X172642857Y-105392857D01*
X172785714Y-105392857D01*
X172880952Y-105440476D01*
X172928571Y-105488095D01*
X172976190Y-105583333D01*
X172976190Y-105964285D01*
X172547619Y-105011904D02*
X172500000Y-104964285D01*
X172452380Y-104869047D01*
X172452380Y-104630952D01*
X172500000Y-104535714D01*
X172547619Y-104488095D01*
X172642857Y-104440476D01*
X172738095Y-104440476D01*
X172880952Y-104488095D01*
X173452380Y-105059523D01*
X173452380Y-104440476D01*
X172452380Y-104107142D02*
X172452380Y-103488095D01*
X172833333Y-103821428D01*
X172833333Y-103678571D01*
X172880952Y-103583333D01*
X172928571Y-103535714D01*
X173023809Y-103488095D01*
X173261904Y-103488095D01*
X173357142Y-103535714D01*
X173404761Y-103583333D01*
X173452380Y-103678571D01*
X173452380Y-103964285D01*
X173404761Y-104059523D01*
X173357142Y-104107142D01*
%TO.C,R24*%
X138107142Y-107452380D02*
X137773809Y-106976190D01*
X137535714Y-107452380D02*
X137535714Y-106452380D01*
X137916666Y-106452380D01*
X138011904Y-106500000D01*
X138059523Y-106547619D01*
X138107142Y-106642857D01*
X138107142Y-106785714D01*
X138059523Y-106880952D01*
X138011904Y-106928571D01*
X137916666Y-106976190D01*
X137535714Y-106976190D01*
X138488095Y-106547619D02*
X138535714Y-106500000D01*
X138630952Y-106452380D01*
X138869047Y-106452380D01*
X138964285Y-106500000D01*
X139011904Y-106547619D01*
X139059523Y-106642857D01*
X139059523Y-106738095D01*
X139011904Y-106880952D01*
X138440476Y-107452380D01*
X139059523Y-107452380D01*
X139916666Y-106785714D02*
X139916666Y-107452380D01*
X139678571Y-106404761D02*
X139440476Y-107119047D01*
X140059523Y-107119047D01*
%TO.C,SW2*%
X177904761Y-97333333D02*
X177952380Y-97190476D01*
X177952380Y-96952380D01*
X177904761Y-96857142D01*
X177857142Y-96809523D01*
X177761904Y-96761904D01*
X177666666Y-96761904D01*
X177571428Y-96809523D01*
X177523809Y-96857142D01*
X177476190Y-96952380D01*
X177428571Y-97142857D01*
X177380952Y-97238095D01*
X177333333Y-97285714D01*
X177238095Y-97333333D01*
X177142857Y-97333333D01*
X177047619Y-97285714D01*
X177000000Y-97238095D01*
X176952380Y-97142857D01*
X176952380Y-96904761D01*
X177000000Y-96761904D01*
X176952380Y-96428571D02*
X177952380Y-96190476D01*
X177238095Y-96000000D01*
X177952380Y-95809523D01*
X176952380Y-95571428D01*
X177047619Y-95238095D02*
X177000000Y-95190476D01*
X176952380Y-95095238D01*
X176952380Y-94857142D01*
X177000000Y-94761904D01*
X177047619Y-94714285D01*
X177142857Y-94666666D01*
X177238095Y-94666666D01*
X177380952Y-94714285D01*
X177952380Y-95285714D01*
X177952380Y-94666666D01*
%TO.C,U1*%
X153488095Y-99452380D02*
X153488095Y-100261904D01*
X153535714Y-100357142D01*
X153583333Y-100404761D01*
X153678571Y-100452380D01*
X153869047Y-100452380D01*
X153964285Y-100404761D01*
X154011904Y-100357142D01*
X154059523Y-100261904D01*
X154059523Y-99452380D01*
X155059523Y-100452380D02*
X154488095Y-100452380D01*
X154773809Y-100452380D02*
X154773809Y-99452380D01*
X154678571Y-99595238D01*
X154583333Y-99690476D01*
X154488095Y-99738095D01*
%TO.C,U2*%
X138988095Y-92452380D02*
X138988095Y-93261904D01*
X139035714Y-93357142D01*
X139083333Y-93404761D01*
X139178571Y-93452380D01*
X139369047Y-93452380D01*
X139464285Y-93404761D01*
X139511904Y-93357142D01*
X139559523Y-93261904D01*
X139559523Y-92452380D01*
X139988095Y-92547619D02*
X140035714Y-92500000D01*
X140130952Y-92452380D01*
X140369047Y-92452380D01*
X140464285Y-92500000D01*
X140511904Y-92547619D01*
X140559523Y-92642857D01*
X140559523Y-92738095D01*
X140511904Y-92880952D01*
X139940476Y-93452380D01*
X140559523Y-93452380D01*
%TO.C,U3*%
X126988095Y-96052380D02*
X126988095Y-96861904D01*
X127035714Y-96957142D01*
X127083333Y-97004761D01*
X127178571Y-97052380D01*
X127369047Y-97052380D01*
X127464285Y-97004761D01*
X127511904Y-96957142D01*
X127559523Y-96861904D01*
X127559523Y-96052380D01*
X127940476Y-96052380D02*
X128559523Y-96052380D01*
X128226190Y-96433333D01*
X128369047Y-96433333D01*
X128464285Y-96480952D01*
X128511904Y-96528571D01*
X128559523Y-96623809D01*
X128559523Y-96861904D01*
X128511904Y-96957142D01*
X128464285Y-97004761D01*
X128369047Y-97052380D01*
X128083333Y-97052380D01*
X127988095Y-97004761D01*
X127940476Y-96957142D01*
%TO.C,U4*%
X152488095Y-86952380D02*
X152488095Y-87761904D01*
X152535714Y-87857142D01*
X152583333Y-87904761D01*
X152678571Y-87952380D01*
X152869047Y-87952380D01*
X152964285Y-87904761D01*
X153011904Y-87857142D01*
X153059523Y-87761904D01*
X153059523Y-86952380D01*
X153964285Y-87285714D02*
X153964285Y-87952380D01*
X153726190Y-86904761D02*
X153488095Y-87619047D01*
X154107142Y-87619047D01*
%TO.C,U5*%
X166052380Y-91011904D02*
X166861904Y-91011904D01*
X166957142Y-90964285D01*
X167004761Y-90916666D01*
X167052380Y-90821428D01*
X167052380Y-90630952D01*
X167004761Y-90535714D01*
X166957142Y-90488095D01*
X166861904Y-90440476D01*
X166052380Y-90440476D01*
X166052380Y-89488095D02*
X166052380Y-89964285D01*
X166528571Y-90011904D01*
X166480952Y-89964285D01*
X166433333Y-89869047D01*
X166433333Y-89630952D01*
X166480952Y-89535714D01*
X166528571Y-89488095D01*
X166623809Y-89440476D01*
X166861904Y-89440476D01*
X166957142Y-89488095D01*
X167004761Y-89535714D01*
X167052380Y-89630952D01*
X167052380Y-89869047D01*
X167004761Y-89964285D01*
X166957142Y-90011904D01*
%TO.C,U6*%
X143238095Y-100202380D02*
X143238095Y-101011904D01*
X143285714Y-101107142D01*
X143333333Y-101154761D01*
X143428571Y-101202380D01*
X143619047Y-101202380D01*
X143714285Y-101154761D01*
X143761904Y-101107142D01*
X143809523Y-101011904D01*
X143809523Y-100202380D01*
X144714285Y-100202380D02*
X144523809Y-100202380D01*
X144428571Y-100250000D01*
X144380952Y-100297619D01*
X144285714Y-100440476D01*
X144238095Y-100630952D01*
X144238095Y-101011904D01*
X144285714Y-101107142D01*
X144333333Y-101154761D01*
X144428571Y-101202380D01*
X144619047Y-101202380D01*
X144714285Y-101154761D01*
X144761904Y-101107142D01*
X144809523Y-101011904D01*
X144809523Y-100773809D01*
X144761904Y-100678571D01*
X144714285Y-100630952D01*
X144619047Y-100583333D01*
X144428571Y-100583333D01*
X144333333Y-100630952D01*
X144285714Y-100678571D01*
X144238095Y-100773809D01*
%TO.C,Y1*%
X149023809Y-101976190D02*
X149023809Y-102452380D01*
X148690476Y-101452380D02*
X149023809Y-101976190D01*
X149357142Y-101452380D01*
X150214285Y-102452380D02*
X149642857Y-102452380D01*
X149928571Y-102452380D02*
X149928571Y-101452380D01*
X149833333Y-101595238D01*
X149738095Y-101690476D01*
X149642857Y-101738095D01*
%TO.C,SW1*%
X179154761Y-112677366D02*
X179202380Y-112540461D01*
X179202380Y-112302366D01*
X179154761Y-112201175D01*
X179107142Y-112147604D01*
X179011904Y-112088080D01*
X178916666Y-112076175D01*
X178821428Y-112111889D01*
X178773809Y-112153556D01*
X178726190Y-112242842D01*
X178678571Y-112427366D01*
X178630952Y-112516651D01*
X178583333Y-112558318D01*
X178488095Y-112594032D01*
X178392857Y-112582127D01*
X178297619Y-112522604D01*
X178250000Y-112469032D01*
X178202380Y-112367842D01*
X178202380Y-112129747D01*
X178250000Y-111992842D01*
X178202380Y-111653556D02*
X179202380Y-111540461D01*
X178488095Y-111260699D01*
X179202380Y-111159508D01*
X178202380Y-110796413D01*
X179202380Y-110016651D02*
X179202380Y-110588080D01*
X179202380Y-110302366D02*
X178202380Y-110177366D01*
X178345238Y-110290461D01*
X178440476Y-110397604D01*
X178488095Y-110498794D01*
%TO.C,J7*%
X149691681Y-112202380D02*
X149602395Y-112916666D01*
X149536919Y-113059523D01*
X149429776Y-113154761D01*
X149280967Y-113202380D01*
X149185729Y-113202380D01*
X150072633Y-112202380D02*
X150739300Y-112202380D01*
X150185729Y-113202380D01*
%TD*%
M02*
