%TF.GenerationSoftware,KiCad,Pcbnew,5.1.9-73d0e3b20d~88~ubuntu18.04.1*%
%TF.CreationDate,2021-01-21T10:29:52+00:00*%
%TF.ProjectId,Object_Detect_Board,4f626a65-6374-45f4-9465-746563745f42,V1.0*%
%TF.SameCoordinates,Original*%
%TF.FileFunction,Copper,L4,Bot*%
%TF.FilePolarity,Positive*%
%FSLAX46Y46*%
G04 Gerber Fmt 4.6, Leading zero omitted, Abs format (unit mm)*
G04 Created by KiCad (PCBNEW 5.1.9-73d0e3b20d~88~ubuntu18.04.1) date 2021-01-21 10:29:52*
%MOMM*%
%LPD*%
G01*
G04 APERTURE LIST*
%TA.AperFunction,ComponentPad*%
%ADD10C,4.400000*%
%TD*%
%TA.AperFunction,ComponentPad*%
%ADD11C,0.700000*%
%TD*%
%TA.AperFunction,ComponentPad*%
%ADD12C,1.500000*%
%TD*%
%TA.AperFunction,ComponentPad*%
%ADD13O,1.300000X0.800000*%
%TD*%
%TA.AperFunction,ComponentPad*%
%ADD14C,1.308000*%
%TD*%
%TA.AperFunction,ComponentPad*%
%ADD15R,1.308000X1.308000*%
%TD*%
%TA.AperFunction,ComponentPad*%
%ADD16R,1.280000X1.280000*%
%TD*%
%TA.AperFunction,ComponentPad*%
%ADD17C,1.280000*%
%TD*%
%TA.AperFunction,ComponentPad*%
%ADD18R,1.700000X1.700000*%
%TD*%
%TA.AperFunction,ComponentPad*%
%ADD19O,1.700000X1.700000*%
%TD*%
%TA.AperFunction,SMDPad,CuDef*%
%ADD20C,0.100000*%
%TD*%
%TA.AperFunction,ComponentPad*%
%ADD21R,1.000000X1.000000*%
%TD*%
%TA.AperFunction,ComponentPad*%
%ADD22O,1.000000X1.000000*%
%TD*%
%TA.AperFunction,ViaPad*%
%ADD23C,0.800000*%
%TD*%
%TA.AperFunction,Conductor*%
%ADD24C,0.500000*%
%TD*%
%TA.AperFunction,Conductor*%
%ADD25C,0.300000*%
%TD*%
%TA.AperFunction,Conductor*%
%ADD26C,0.200000*%
%TD*%
%TA.AperFunction,Conductor*%
%ADD27C,3.000000*%
%TD*%
%TA.AperFunction,Conductor*%
%ADD28C,2.800000*%
%TD*%
%TA.AperFunction,Conductor*%
%ADD29C,1.000000*%
%TD*%
%TA.AperFunction,Conductor*%
%ADD30C,0.254000*%
%TD*%
%TA.AperFunction,Conductor*%
%ADD31C,0.100000*%
%TD*%
G04 APERTURE END LIST*
D10*
%TO.P,H1,1*%
%TO.N,GND*%
X116000000Y-116500000D03*
D11*
X117650000Y-116500000D03*
X117166726Y-117666726D03*
X116000000Y-118150000D03*
X114833274Y-117666726D03*
X114350000Y-116500000D03*
X114833274Y-115333274D03*
X116000000Y-114850000D03*
X117166726Y-115333274D03*
%TD*%
%TO.P,H2,1*%
%TO.N,GND*%
X181666726Y-79333274D03*
X180500000Y-78850000D03*
X179333274Y-79333274D03*
X178850000Y-80500000D03*
X179333274Y-81666726D03*
X180500000Y-82150000D03*
X181666726Y-81666726D03*
X182150000Y-80500000D03*
D10*
X180500000Y-80500000D03*
%TD*%
%TO.P,H3,1*%
%TO.N,GND*%
X180500000Y-116500000D03*
D11*
X182150000Y-116500000D03*
X181666726Y-117666726D03*
X180500000Y-118150000D03*
X179333274Y-117666726D03*
X178850000Y-116500000D03*
X179333274Y-115333274D03*
X180500000Y-114850000D03*
X181666726Y-115333274D03*
%TD*%
%TO.P,H4,1*%
%TO.N,GND*%
X117166726Y-79333274D03*
X116000000Y-78850000D03*
X114833274Y-79333274D03*
X114350000Y-80500000D03*
X114833274Y-81666726D03*
X116000000Y-82150000D03*
X117166726Y-81666726D03*
X117650000Y-80500000D03*
D10*
X116000000Y-80500000D03*
%TD*%
%TO.P,J1,1*%
%TO.N,+12V*%
%TA.AperFunction,ComponentPad*%
G36*
G01*
X123500000Y-87250000D02*
X123500000Y-86250000D01*
G75*
G02*
X123750000Y-86000000I250000J0D01*
G01*
X124750000Y-86000000D01*
G75*
G02*
X125000000Y-86250000I0J-250000D01*
G01*
X125000000Y-87250000D01*
G75*
G02*
X124750000Y-87500000I-250000J0D01*
G01*
X123750000Y-87500000D01*
G75*
G02*
X123500000Y-87250000I0J250000D01*
G01*
G37*
%TD.AperFunction*%
D12*
%TO.P,J1,2*%
%TO.N,GND*%
X124250000Y-89750000D03*
%TD*%
%TO.P,J2,4*%
%TO.N,CAN_H*%
X136250000Y-89750000D03*
%TO.P,J2,3*%
%TO.N,CAN_L*%
X133250000Y-89750000D03*
%TO.P,J2,2*%
%TO.N,GND*%
X136250000Y-86750000D03*
%TO.P,J2,1*%
%TO.N,+12V*%
%TA.AperFunction,ComponentPad*%
G36*
G01*
X132500000Y-87250000D02*
X132500000Y-86250000D01*
G75*
G02*
X132750000Y-86000000I250000J0D01*
G01*
X133750000Y-86000000D01*
G75*
G02*
X134000000Y-86250000I0J-250000D01*
G01*
X134000000Y-87250000D01*
G75*
G02*
X133750000Y-87500000I-250000J0D01*
G01*
X132750000Y-87500000D01*
G75*
G02*
X132500000Y-87250000I0J250000D01*
G01*
G37*
%TD.AperFunction*%
%TD*%
%TO.P,J3,1*%
%TO.N,+12V*%
%TA.AperFunction,ComponentPad*%
G36*
G01*
X144500000Y-87250000D02*
X144500000Y-86250000D01*
G75*
G02*
X144750000Y-86000000I250000J0D01*
G01*
X145750000Y-86000000D01*
G75*
G02*
X146000000Y-86250000I0J-250000D01*
G01*
X146000000Y-87250000D01*
G75*
G02*
X145750000Y-87500000I-250000J0D01*
G01*
X144750000Y-87500000D01*
G75*
G02*
X144500000Y-87250000I0J250000D01*
G01*
G37*
%TD.AperFunction*%
%TO.P,J3,2*%
%TO.N,GND*%
X148250000Y-86750000D03*
%TO.P,J3,3*%
%TO.N,CAN_L*%
X145250000Y-89750000D03*
%TO.P,J3,4*%
%TO.N,CAN_H*%
X148250000Y-89750000D03*
%TD*%
%TO.P,J4,1*%
%TO.N,+5V*%
%TA.AperFunction,ComponentPad*%
G36*
G01*
X180050000Y-85100000D02*
X180950000Y-85100000D01*
G75*
G02*
X181150000Y-85300000I0J-200000D01*
G01*
X181150000Y-85700000D01*
G75*
G02*
X180950000Y-85900000I-200000J0D01*
G01*
X180050000Y-85900000D01*
G75*
G02*
X179850000Y-85700000I0J200000D01*
G01*
X179850000Y-85300000D01*
G75*
G02*
X180050000Y-85100000I200000J0D01*
G01*
G37*
%TD.AperFunction*%
D13*
%TO.P,J4,2*%
%TO.N,UART2_Tx*%
X180500000Y-86750000D03*
%TO.P,J4,3*%
%TO.N,UART2_Rx*%
X180500000Y-88000000D03*
%TO.P,J4,4*%
%TO.N,GND*%
X180500000Y-89250000D03*
%TD*%
D14*
%TO.P,J5,4*%
%TO.N,Rx_Dynamixel*%
X155500000Y-81400000D03*
%TO.P,J5,3*%
%TO.N,Dt_Dynamixel*%
X158000000Y-81400000D03*
%TO.P,J5,2*%
%TO.N,+12V*%
X160500000Y-81400000D03*
D15*
%TO.P,J5,1*%
%TO.N,GND*%
X163000000Y-81400000D03*
%TD*%
D16*
%TO.P,J6,1*%
%TO.N,Tx_PC*%
X169750000Y-81250000D03*
D17*
%TO.P,J6,2*%
%TO.N,Rx_PC*%
X172250000Y-81250000D03*
%TO.P,J6,3*%
%TO.N,GND*%
X174750000Y-81250000D03*
%TD*%
D18*
%TO.P,JP1,1*%
%TO.N,Net-(JP1-Pad1)*%
X150250000Y-95750000D03*
D19*
%TO.P,JP1,2*%
%TO.N,CAN_H*%
X150250000Y-98290000D03*
%TD*%
%TA.AperFunction,SMDPad,CuDef*%
D20*
%TO.P,JP2,1*%
%TO.N,UART3_Tx_5V*%
G36*
X159450000Y-104100000D02*
G01*
X159450000Y-104600000D01*
X159449398Y-104600000D01*
X159449398Y-104624534D01*
X159444588Y-104673365D01*
X159435016Y-104721490D01*
X159420772Y-104768445D01*
X159401995Y-104813778D01*
X159378864Y-104857051D01*
X159351604Y-104897850D01*
X159320476Y-104935779D01*
X159285779Y-104970476D01*
X159247850Y-105001604D01*
X159207051Y-105028864D01*
X159163778Y-105051995D01*
X159118445Y-105070772D01*
X159071490Y-105085016D01*
X159023365Y-105094588D01*
X158974534Y-105099398D01*
X158950000Y-105099398D01*
X158950000Y-105100000D01*
X158450000Y-105100000D01*
X158450000Y-105099398D01*
X158425466Y-105099398D01*
X158376635Y-105094588D01*
X158328510Y-105085016D01*
X158281555Y-105070772D01*
X158236222Y-105051995D01*
X158192949Y-105028864D01*
X158152150Y-105001604D01*
X158114221Y-104970476D01*
X158079524Y-104935779D01*
X158048396Y-104897850D01*
X158021136Y-104857051D01*
X157998005Y-104813778D01*
X157979228Y-104768445D01*
X157964984Y-104721490D01*
X157955412Y-104673365D01*
X157950602Y-104624534D01*
X157950602Y-104600000D01*
X157950000Y-104600000D01*
X157950000Y-104100000D01*
X159450000Y-104100000D01*
G37*
%TD.AperFunction*%
%TA.AperFunction,SMDPad,CuDef*%
%TO.P,JP2,2*%
%TO.N,UART3_Tx_TTL*%
G36*
X157950602Y-103300000D02*
G01*
X157950602Y-103275466D01*
X157955412Y-103226635D01*
X157964984Y-103178510D01*
X157979228Y-103131555D01*
X157998005Y-103086222D01*
X158021136Y-103042949D01*
X158048396Y-103002150D01*
X158079524Y-102964221D01*
X158114221Y-102929524D01*
X158152150Y-102898396D01*
X158192949Y-102871136D01*
X158236222Y-102848005D01*
X158281555Y-102829228D01*
X158328510Y-102814984D01*
X158376635Y-102805412D01*
X158425466Y-102800602D01*
X158450000Y-102800602D01*
X158450000Y-102800000D01*
X158950000Y-102800000D01*
X158950000Y-102800602D01*
X158974534Y-102800602D01*
X159023365Y-102805412D01*
X159071490Y-102814984D01*
X159118445Y-102829228D01*
X159163778Y-102848005D01*
X159207051Y-102871136D01*
X159247850Y-102898396D01*
X159285779Y-102929524D01*
X159320476Y-102964221D01*
X159351604Y-103002150D01*
X159378864Y-103042949D01*
X159401995Y-103086222D01*
X159420772Y-103131555D01*
X159435016Y-103178510D01*
X159444588Y-103226635D01*
X159449398Y-103275466D01*
X159449398Y-103300000D01*
X159450000Y-103300000D01*
X159450000Y-103800000D01*
X157950000Y-103800000D01*
X157950000Y-103300000D01*
X157950602Y-103300000D01*
G37*
%TD.AperFunction*%
%TD*%
%TA.AperFunction,SMDPad,CuDef*%
%TO.P,JP3,1*%
%TO.N,UART3_Rx_5V*%
G36*
X161950000Y-104100000D02*
G01*
X161950000Y-104600000D01*
X161949398Y-104600000D01*
X161949398Y-104624534D01*
X161944588Y-104673365D01*
X161935016Y-104721490D01*
X161920772Y-104768445D01*
X161901995Y-104813778D01*
X161878864Y-104857051D01*
X161851604Y-104897850D01*
X161820476Y-104935779D01*
X161785779Y-104970476D01*
X161747850Y-105001604D01*
X161707051Y-105028864D01*
X161663778Y-105051995D01*
X161618445Y-105070772D01*
X161571490Y-105085016D01*
X161523365Y-105094588D01*
X161474534Y-105099398D01*
X161450000Y-105099398D01*
X161450000Y-105100000D01*
X160950000Y-105100000D01*
X160950000Y-105099398D01*
X160925466Y-105099398D01*
X160876635Y-105094588D01*
X160828510Y-105085016D01*
X160781555Y-105070772D01*
X160736222Y-105051995D01*
X160692949Y-105028864D01*
X160652150Y-105001604D01*
X160614221Y-104970476D01*
X160579524Y-104935779D01*
X160548396Y-104897850D01*
X160521136Y-104857051D01*
X160498005Y-104813778D01*
X160479228Y-104768445D01*
X160464984Y-104721490D01*
X160455412Y-104673365D01*
X160450602Y-104624534D01*
X160450602Y-104600000D01*
X160450000Y-104600000D01*
X160450000Y-104100000D01*
X161950000Y-104100000D01*
G37*
%TD.AperFunction*%
%TA.AperFunction,SMDPad,CuDef*%
%TO.P,JP3,2*%
%TO.N,UART3_Rx_TTL*%
G36*
X160450602Y-103300000D02*
G01*
X160450602Y-103275466D01*
X160455412Y-103226635D01*
X160464984Y-103178510D01*
X160479228Y-103131555D01*
X160498005Y-103086222D01*
X160521136Y-103042949D01*
X160548396Y-103002150D01*
X160579524Y-102964221D01*
X160614221Y-102929524D01*
X160652150Y-102898396D01*
X160692949Y-102871136D01*
X160736222Y-102848005D01*
X160781555Y-102829228D01*
X160828510Y-102814984D01*
X160876635Y-102805412D01*
X160925466Y-102800602D01*
X160950000Y-102800602D01*
X160950000Y-102800000D01*
X161450000Y-102800000D01*
X161450000Y-102800602D01*
X161474534Y-102800602D01*
X161523365Y-102805412D01*
X161571490Y-102814984D01*
X161618445Y-102829228D01*
X161663778Y-102848005D01*
X161707051Y-102871136D01*
X161747850Y-102898396D01*
X161785779Y-102929524D01*
X161820476Y-102964221D01*
X161851604Y-103002150D01*
X161878864Y-103042949D01*
X161901995Y-103086222D01*
X161920772Y-103131555D01*
X161935016Y-103178510D01*
X161944588Y-103226635D01*
X161949398Y-103275466D01*
X161949398Y-103300000D01*
X161950000Y-103300000D01*
X161950000Y-103800000D01*
X160450000Y-103800000D01*
X160450000Y-103300000D01*
X160450602Y-103300000D01*
G37*
%TD.AperFunction*%
%TD*%
%TA.AperFunction,SMDPad,CuDef*%
%TO.P,JP4,2*%
%TO.N,UART_Tx_485*%
G36*
X164000602Y-103350000D02*
G01*
X164000602Y-103325466D01*
X164005412Y-103276635D01*
X164014984Y-103228510D01*
X164029228Y-103181555D01*
X164048005Y-103136222D01*
X164071136Y-103092949D01*
X164098396Y-103052150D01*
X164129524Y-103014221D01*
X164164221Y-102979524D01*
X164202150Y-102948396D01*
X164242949Y-102921136D01*
X164286222Y-102898005D01*
X164331555Y-102879228D01*
X164378510Y-102864984D01*
X164426635Y-102855412D01*
X164475466Y-102850602D01*
X164500000Y-102850602D01*
X164500000Y-102850000D01*
X165000000Y-102850000D01*
X165000000Y-102850602D01*
X165024534Y-102850602D01*
X165073365Y-102855412D01*
X165121490Y-102864984D01*
X165168445Y-102879228D01*
X165213778Y-102898005D01*
X165257051Y-102921136D01*
X165297850Y-102948396D01*
X165335779Y-102979524D01*
X165370476Y-103014221D01*
X165401604Y-103052150D01*
X165428864Y-103092949D01*
X165451995Y-103136222D01*
X165470772Y-103181555D01*
X165485016Y-103228510D01*
X165494588Y-103276635D01*
X165499398Y-103325466D01*
X165499398Y-103350000D01*
X165500000Y-103350000D01*
X165500000Y-103850000D01*
X164000000Y-103850000D01*
X164000000Y-103350000D01*
X164000602Y-103350000D01*
G37*
%TD.AperFunction*%
%TA.AperFunction,SMDPad,CuDef*%
%TO.P,JP4,1*%
%TO.N,UART3_Tx_5V*%
G36*
X165500000Y-104150000D02*
G01*
X165500000Y-104650000D01*
X165499398Y-104650000D01*
X165499398Y-104674534D01*
X165494588Y-104723365D01*
X165485016Y-104771490D01*
X165470772Y-104818445D01*
X165451995Y-104863778D01*
X165428864Y-104907051D01*
X165401604Y-104947850D01*
X165370476Y-104985779D01*
X165335779Y-105020476D01*
X165297850Y-105051604D01*
X165257051Y-105078864D01*
X165213778Y-105101995D01*
X165168445Y-105120772D01*
X165121490Y-105135016D01*
X165073365Y-105144588D01*
X165024534Y-105149398D01*
X165000000Y-105149398D01*
X165000000Y-105150000D01*
X164500000Y-105150000D01*
X164500000Y-105149398D01*
X164475466Y-105149398D01*
X164426635Y-105144588D01*
X164378510Y-105135016D01*
X164331555Y-105120772D01*
X164286222Y-105101995D01*
X164242949Y-105078864D01*
X164202150Y-105051604D01*
X164164221Y-105020476D01*
X164129524Y-104985779D01*
X164098396Y-104947850D01*
X164071136Y-104907051D01*
X164048005Y-104863778D01*
X164029228Y-104818445D01*
X164014984Y-104771490D01*
X164005412Y-104723365D01*
X164000602Y-104674534D01*
X164000602Y-104650000D01*
X164000000Y-104650000D01*
X164000000Y-104150000D01*
X165500000Y-104150000D01*
G37*
%TD.AperFunction*%
%TD*%
%TA.AperFunction,SMDPad,CuDef*%
%TO.P,JP5,1*%
%TO.N,UART3_Rx_5V*%
G36*
X168000000Y-104150000D02*
G01*
X168000000Y-104650000D01*
X167999398Y-104650000D01*
X167999398Y-104674534D01*
X167994588Y-104723365D01*
X167985016Y-104771490D01*
X167970772Y-104818445D01*
X167951995Y-104863778D01*
X167928864Y-104907051D01*
X167901604Y-104947850D01*
X167870476Y-104985779D01*
X167835779Y-105020476D01*
X167797850Y-105051604D01*
X167757051Y-105078864D01*
X167713778Y-105101995D01*
X167668445Y-105120772D01*
X167621490Y-105135016D01*
X167573365Y-105144588D01*
X167524534Y-105149398D01*
X167500000Y-105149398D01*
X167500000Y-105150000D01*
X167000000Y-105150000D01*
X167000000Y-105149398D01*
X166975466Y-105149398D01*
X166926635Y-105144588D01*
X166878510Y-105135016D01*
X166831555Y-105120772D01*
X166786222Y-105101995D01*
X166742949Y-105078864D01*
X166702150Y-105051604D01*
X166664221Y-105020476D01*
X166629524Y-104985779D01*
X166598396Y-104947850D01*
X166571136Y-104907051D01*
X166548005Y-104863778D01*
X166529228Y-104818445D01*
X166514984Y-104771490D01*
X166505412Y-104723365D01*
X166500602Y-104674534D01*
X166500602Y-104650000D01*
X166500000Y-104650000D01*
X166500000Y-104150000D01*
X168000000Y-104150000D01*
G37*
%TD.AperFunction*%
%TA.AperFunction,SMDPad,CuDef*%
%TO.P,JP5,2*%
%TO.N,UART_Rx_485*%
G36*
X166500602Y-103350000D02*
G01*
X166500602Y-103325466D01*
X166505412Y-103276635D01*
X166514984Y-103228510D01*
X166529228Y-103181555D01*
X166548005Y-103136222D01*
X166571136Y-103092949D01*
X166598396Y-103052150D01*
X166629524Y-103014221D01*
X166664221Y-102979524D01*
X166702150Y-102948396D01*
X166742949Y-102921136D01*
X166786222Y-102898005D01*
X166831555Y-102879228D01*
X166878510Y-102864984D01*
X166926635Y-102855412D01*
X166975466Y-102850602D01*
X167000000Y-102850602D01*
X167000000Y-102850000D01*
X167500000Y-102850000D01*
X167500000Y-102850602D01*
X167524534Y-102850602D01*
X167573365Y-102855412D01*
X167621490Y-102864984D01*
X167668445Y-102879228D01*
X167713778Y-102898005D01*
X167757051Y-102921136D01*
X167797850Y-102948396D01*
X167835779Y-102979524D01*
X167870476Y-103014221D01*
X167901604Y-103052150D01*
X167928864Y-103092949D01*
X167951995Y-103136222D01*
X167970772Y-103181555D01*
X167985016Y-103228510D01*
X167994588Y-103276635D01*
X167999398Y-103325466D01*
X167999398Y-103350000D01*
X168000000Y-103350000D01*
X168000000Y-103850000D01*
X166500000Y-103850000D01*
X166500000Y-103350000D01*
X166500602Y-103350000D01*
G37*
%TD.AperFunction*%
%TD*%
%TA.AperFunction,SMDPad,CuDef*%
%TO.P,JP6,1*%
%TO.N,UART1_Tx_5V*%
G36*
X179000000Y-104150000D02*
G01*
X179000000Y-104650000D01*
X178999398Y-104650000D01*
X178999398Y-104674534D01*
X178994588Y-104723365D01*
X178985016Y-104771490D01*
X178970772Y-104818445D01*
X178951995Y-104863778D01*
X178928864Y-104907051D01*
X178901604Y-104947850D01*
X178870476Y-104985779D01*
X178835779Y-105020476D01*
X178797850Y-105051604D01*
X178757051Y-105078864D01*
X178713778Y-105101995D01*
X178668445Y-105120772D01*
X178621490Y-105135016D01*
X178573365Y-105144588D01*
X178524534Y-105149398D01*
X178500000Y-105149398D01*
X178500000Y-105150000D01*
X178000000Y-105150000D01*
X178000000Y-105149398D01*
X177975466Y-105149398D01*
X177926635Y-105144588D01*
X177878510Y-105135016D01*
X177831555Y-105120772D01*
X177786222Y-105101995D01*
X177742949Y-105078864D01*
X177702150Y-105051604D01*
X177664221Y-105020476D01*
X177629524Y-104985779D01*
X177598396Y-104947850D01*
X177571136Y-104907051D01*
X177548005Y-104863778D01*
X177529228Y-104818445D01*
X177514984Y-104771490D01*
X177505412Y-104723365D01*
X177500602Y-104674534D01*
X177500602Y-104650000D01*
X177500000Y-104650000D01*
X177500000Y-104150000D01*
X179000000Y-104150000D01*
G37*
%TD.AperFunction*%
%TA.AperFunction,SMDPad,CuDef*%
%TO.P,JP6,2*%
%TO.N,Tx_PC*%
G36*
X177500602Y-103350000D02*
G01*
X177500602Y-103325466D01*
X177505412Y-103276635D01*
X177514984Y-103228510D01*
X177529228Y-103181555D01*
X177548005Y-103136222D01*
X177571136Y-103092949D01*
X177598396Y-103052150D01*
X177629524Y-103014221D01*
X177664221Y-102979524D01*
X177702150Y-102948396D01*
X177742949Y-102921136D01*
X177786222Y-102898005D01*
X177831555Y-102879228D01*
X177878510Y-102864984D01*
X177926635Y-102855412D01*
X177975466Y-102850602D01*
X178000000Y-102850602D01*
X178000000Y-102850000D01*
X178500000Y-102850000D01*
X178500000Y-102850602D01*
X178524534Y-102850602D01*
X178573365Y-102855412D01*
X178621490Y-102864984D01*
X178668445Y-102879228D01*
X178713778Y-102898005D01*
X178757051Y-102921136D01*
X178797850Y-102948396D01*
X178835779Y-102979524D01*
X178870476Y-103014221D01*
X178901604Y-103052150D01*
X178928864Y-103092949D01*
X178951995Y-103136222D01*
X178970772Y-103181555D01*
X178985016Y-103228510D01*
X178994588Y-103276635D01*
X178999398Y-103325466D01*
X178999398Y-103350000D01*
X179000000Y-103350000D01*
X179000000Y-103850000D01*
X177500000Y-103850000D01*
X177500000Y-103350000D01*
X177500602Y-103350000D01*
G37*
%TD.AperFunction*%
%TD*%
%TA.AperFunction,SMDPad,CuDef*%
%TO.P,JP7,2*%
%TO.N,Rx_PC*%
G36*
X180000602Y-103350000D02*
G01*
X180000602Y-103325466D01*
X180005412Y-103276635D01*
X180014984Y-103228510D01*
X180029228Y-103181555D01*
X180048005Y-103136222D01*
X180071136Y-103092949D01*
X180098396Y-103052150D01*
X180129524Y-103014221D01*
X180164221Y-102979524D01*
X180202150Y-102948396D01*
X180242949Y-102921136D01*
X180286222Y-102898005D01*
X180331555Y-102879228D01*
X180378510Y-102864984D01*
X180426635Y-102855412D01*
X180475466Y-102850602D01*
X180500000Y-102850602D01*
X180500000Y-102850000D01*
X181000000Y-102850000D01*
X181000000Y-102850602D01*
X181024534Y-102850602D01*
X181073365Y-102855412D01*
X181121490Y-102864984D01*
X181168445Y-102879228D01*
X181213778Y-102898005D01*
X181257051Y-102921136D01*
X181297850Y-102948396D01*
X181335779Y-102979524D01*
X181370476Y-103014221D01*
X181401604Y-103052150D01*
X181428864Y-103092949D01*
X181451995Y-103136222D01*
X181470772Y-103181555D01*
X181485016Y-103228510D01*
X181494588Y-103276635D01*
X181499398Y-103325466D01*
X181499398Y-103350000D01*
X181500000Y-103350000D01*
X181500000Y-103850000D01*
X180000000Y-103850000D01*
X180000000Y-103350000D01*
X180000602Y-103350000D01*
G37*
%TD.AperFunction*%
%TA.AperFunction,SMDPad,CuDef*%
%TO.P,JP7,1*%
%TO.N,UART1_Rx_5V*%
G36*
X181500000Y-104150000D02*
G01*
X181500000Y-104650000D01*
X181499398Y-104650000D01*
X181499398Y-104674534D01*
X181494588Y-104723365D01*
X181485016Y-104771490D01*
X181470772Y-104818445D01*
X181451995Y-104863778D01*
X181428864Y-104907051D01*
X181401604Y-104947850D01*
X181370476Y-104985779D01*
X181335779Y-105020476D01*
X181297850Y-105051604D01*
X181257051Y-105078864D01*
X181213778Y-105101995D01*
X181168445Y-105120772D01*
X181121490Y-105135016D01*
X181073365Y-105144588D01*
X181024534Y-105149398D01*
X181000000Y-105149398D01*
X181000000Y-105150000D01*
X180500000Y-105150000D01*
X180500000Y-105149398D01*
X180475466Y-105149398D01*
X180426635Y-105144588D01*
X180378510Y-105135016D01*
X180331555Y-105120772D01*
X180286222Y-105101995D01*
X180242949Y-105078864D01*
X180202150Y-105051604D01*
X180164221Y-105020476D01*
X180129524Y-104985779D01*
X180098396Y-104947850D01*
X180071136Y-104907051D01*
X180048005Y-104863778D01*
X180029228Y-104818445D01*
X180014984Y-104771490D01*
X180005412Y-104723365D01*
X180000602Y-104674534D01*
X180000602Y-104650000D01*
X180000000Y-104650000D01*
X180000000Y-104150000D01*
X181500000Y-104150000D01*
G37*
%TD.AperFunction*%
%TD*%
%TA.AperFunction,SMDPad,CuDef*%
%TO.P,JP8,2*%
%TO.N,UART_Tx_485*%
G36*
X171250602Y-103350000D02*
G01*
X171250602Y-103325466D01*
X171255412Y-103276635D01*
X171264984Y-103228510D01*
X171279228Y-103181555D01*
X171298005Y-103136222D01*
X171321136Y-103092949D01*
X171348396Y-103052150D01*
X171379524Y-103014221D01*
X171414221Y-102979524D01*
X171452150Y-102948396D01*
X171492949Y-102921136D01*
X171536222Y-102898005D01*
X171581555Y-102879228D01*
X171628510Y-102864984D01*
X171676635Y-102855412D01*
X171725466Y-102850602D01*
X171750000Y-102850602D01*
X171750000Y-102850000D01*
X172250000Y-102850000D01*
X172250000Y-102850602D01*
X172274534Y-102850602D01*
X172323365Y-102855412D01*
X172371490Y-102864984D01*
X172418445Y-102879228D01*
X172463778Y-102898005D01*
X172507051Y-102921136D01*
X172547850Y-102948396D01*
X172585779Y-102979524D01*
X172620476Y-103014221D01*
X172651604Y-103052150D01*
X172678864Y-103092949D01*
X172701995Y-103136222D01*
X172720772Y-103181555D01*
X172735016Y-103228510D01*
X172744588Y-103276635D01*
X172749398Y-103325466D01*
X172749398Y-103350000D01*
X172750000Y-103350000D01*
X172750000Y-103850000D01*
X171250000Y-103850000D01*
X171250000Y-103350000D01*
X171250602Y-103350000D01*
G37*
%TD.AperFunction*%
%TA.AperFunction,SMDPad,CuDef*%
%TO.P,JP8,1*%
%TO.N,UART1_Tx_5V*%
G36*
X172750000Y-104150000D02*
G01*
X172750000Y-104650000D01*
X172749398Y-104650000D01*
X172749398Y-104674534D01*
X172744588Y-104723365D01*
X172735016Y-104771490D01*
X172720772Y-104818445D01*
X172701995Y-104863778D01*
X172678864Y-104907051D01*
X172651604Y-104947850D01*
X172620476Y-104985779D01*
X172585779Y-105020476D01*
X172547850Y-105051604D01*
X172507051Y-105078864D01*
X172463778Y-105101995D01*
X172418445Y-105120772D01*
X172371490Y-105135016D01*
X172323365Y-105144588D01*
X172274534Y-105149398D01*
X172250000Y-105149398D01*
X172250000Y-105150000D01*
X171750000Y-105150000D01*
X171750000Y-105149398D01*
X171725466Y-105149398D01*
X171676635Y-105144588D01*
X171628510Y-105135016D01*
X171581555Y-105120772D01*
X171536222Y-105101995D01*
X171492949Y-105078864D01*
X171452150Y-105051604D01*
X171414221Y-105020476D01*
X171379524Y-104985779D01*
X171348396Y-104947850D01*
X171321136Y-104907051D01*
X171298005Y-104863778D01*
X171279228Y-104818445D01*
X171264984Y-104771490D01*
X171255412Y-104723365D01*
X171250602Y-104674534D01*
X171250602Y-104650000D01*
X171250000Y-104650000D01*
X171250000Y-104150000D01*
X172750000Y-104150000D01*
G37*
%TD.AperFunction*%
%TD*%
%TA.AperFunction,SMDPad,CuDef*%
%TO.P,JP9,1*%
%TO.N,UART1_Rx_5V*%
G36*
X175250000Y-104150000D02*
G01*
X175250000Y-104650000D01*
X175249398Y-104650000D01*
X175249398Y-104674534D01*
X175244588Y-104723365D01*
X175235016Y-104771490D01*
X175220772Y-104818445D01*
X175201995Y-104863778D01*
X175178864Y-104907051D01*
X175151604Y-104947850D01*
X175120476Y-104985779D01*
X175085779Y-105020476D01*
X175047850Y-105051604D01*
X175007051Y-105078864D01*
X174963778Y-105101995D01*
X174918445Y-105120772D01*
X174871490Y-105135016D01*
X174823365Y-105144588D01*
X174774534Y-105149398D01*
X174750000Y-105149398D01*
X174750000Y-105150000D01*
X174250000Y-105150000D01*
X174250000Y-105149398D01*
X174225466Y-105149398D01*
X174176635Y-105144588D01*
X174128510Y-105135016D01*
X174081555Y-105120772D01*
X174036222Y-105101995D01*
X173992949Y-105078864D01*
X173952150Y-105051604D01*
X173914221Y-105020476D01*
X173879524Y-104985779D01*
X173848396Y-104947850D01*
X173821136Y-104907051D01*
X173798005Y-104863778D01*
X173779228Y-104818445D01*
X173764984Y-104771490D01*
X173755412Y-104723365D01*
X173750602Y-104674534D01*
X173750602Y-104650000D01*
X173750000Y-104650000D01*
X173750000Y-104150000D01*
X175250000Y-104150000D01*
G37*
%TD.AperFunction*%
%TA.AperFunction,SMDPad,CuDef*%
%TO.P,JP9,2*%
%TO.N,UART_Rx_485*%
G36*
X173750602Y-103350000D02*
G01*
X173750602Y-103325466D01*
X173755412Y-103276635D01*
X173764984Y-103228510D01*
X173779228Y-103181555D01*
X173798005Y-103136222D01*
X173821136Y-103092949D01*
X173848396Y-103052150D01*
X173879524Y-103014221D01*
X173914221Y-102979524D01*
X173952150Y-102948396D01*
X173992949Y-102921136D01*
X174036222Y-102898005D01*
X174081555Y-102879228D01*
X174128510Y-102864984D01*
X174176635Y-102855412D01*
X174225466Y-102850602D01*
X174250000Y-102850602D01*
X174250000Y-102850000D01*
X174750000Y-102850000D01*
X174750000Y-102850602D01*
X174774534Y-102850602D01*
X174823365Y-102855412D01*
X174871490Y-102864984D01*
X174918445Y-102879228D01*
X174963778Y-102898005D01*
X175007051Y-102921136D01*
X175047850Y-102948396D01*
X175085779Y-102979524D01*
X175120476Y-103014221D01*
X175151604Y-103052150D01*
X175178864Y-103092949D01*
X175201995Y-103136222D01*
X175220772Y-103181555D01*
X175235016Y-103228510D01*
X175244588Y-103276635D01*
X175249398Y-103325466D01*
X175249398Y-103350000D01*
X175250000Y-103350000D01*
X175250000Y-103850000D01*
X173750000Y-103850000D01*
X173750000Y-103350000D01*
X173750602Y-103350000D01*
G37*
%TD.AperFunction*%
%TD*%
%TA.AperFunction,SMDPad,CuDef*%
%TO.P,JP10,2*%
%TO.N,Dt_Dynamixel*%
G36*
X164249398Y-91400000D02*
G01*
X164249398Y-91424534D01*
X164244588Y-91473365D01*
X164235016Y-91521490D01*
X164220772Y-91568445D01*
X164201995Y-91613778D01*
X164178864Y-91657051D01*
X164151604Y-91697850D01*
X164120476Y-91735779D01*
X164085779Y-91770476D01*
X164047850Y-91801604D01*
X164007051Y-91828864D01*
X163963778Y-91851995D01*
X163918445Y-91870772D01*
X163871490Y-91885016D01*
X163823365Y-91894588D01*
X163774534Y-91899398D01*
X163750000Y-91899398D01*
X163750000Y-91900000D01*
X163250000Y-91900000D01*
X163250000Y-91899398D01*
X163225466Y-91899398D01*
X163176635Y-91894588D01*
X163128510Y-91885016D01*
X163081555Y-91870772D01*
X163036222Y-91851995D01*
X162992949Y-91828864D01*
X162952150Y-91801604D01*
X162914221Y-91770476D01*
X162879524Y-91735779D01*
X162848396Y-91697850D01*
X162821136Y-91657051D01*
X162798005Y-91613778D01*
X162779228Y-91568445D01*
X162764984Y-91521490D01*
X162755412Y-91473365D01*
X162750602Y-91424534D01*
X162750602Y-91400000D01*
X162750000Y-91400000D01*
X162750000Y-90900000D01*
X164250000Y-90900000D01*
X164250000Y-91400000D01*
X164249398Y-91400000D01*
G37*
%TD.AperFunction*%
%TA.AperFunction,SMDPad,CuDef*%
%TO.P,JP10,1*%
%TO.N,RS485_Tx_OUT*%
G36*
X162750000Y-90600000D02*
G01*
X162750000Y-90100000D01*
X162750602Y-90100000D01*
X162750602Y-90075466D01*
X162755412Y-90026635D01*
X162764984Y-89978510D01*
X162779228Y-89931555D01*
X162798005Y-89886222D01*
X162821136Y-89842949D01*
X162848396Y-89802150D01*
X162879524Y-89764221D01*
X162914221Y-89729524D01*
X162952150Y-89698396D01*
X162992949Y-89671136D01*
X163036222Y-89648005D01*
X163081555Y-89629228D01*
X163128510Y-89614984D01*
X163176635Y-89605412D01*
X163225466Y-89600602D01*
X163250000Y-89600602D01*
X163250000Y-89600000D01*
X163750000Y-89600000D01*
X163750000Y-89600602D01*
X163774534Y-89600602D01*
X163823365Y-89605412D01*
X163871490Y-89614984D01*
X163918445Y-89629228D01*
X163963778Y-89648005D01*
X164007051Y-89671136D01*
X164047850Y-89698396D01*
X164085779Y-89729524D01*
X164120476Y-89764221D01*
X164151604Y-89802150D01*
X164178864Y-89842949D01*
X164201995Y-89886222D01*
X164220772Y-89931555D01*
X164235016Y-89978510D01*
X164244588Y-90026635D01*
X164249398Y-90075466D01*
X164249398Y-90100000D01*
X164250000Y-90100000D01*
X164250000Y-90600000D01*
X162750000Y-90600000D01*
G37*
%TD.AperFunction*%
%TD*%
%TA.AperFunction,SMDPad,CuDef*%
%TO.P,JP11,1*%
%TO.N,RS485_Rx_OUT*%
G36*
X160250000Y-90600000D02*
G01*
X160250000Y-90100000D01*
X160250602Y-90100000D01*
X160250602Y-90075466D01*
X160255412Y-90026635D01*
X160264984Y-89978510D01*
X160279228Y-89931555D01*
X160298005Y-89886222D01*
X160321136Y-89842949D01*
X160348396Y-89802150D01*
X160379524Y-89764221D01*
X160414221Y-89729524D01*
X160452150Y-89698396D01*
X160492949Y-89671136D01*
X160536222Y-89648005D01*
X160581555Y-89629228D01*
X160628510Y-89614984D01*
X160676635Y-89605412D01*
X160725466Y-89600602D01*
X160750000Y-89600602D01*
X160750000Y-89600000D01*
X161250000Y-89600000D01*
X161250000Y-89600602D01*
X161274534Y-89600602D01*
X161323365Y-89605412D01*
X161371490Y-89614984D01*
X161418445Y-89629228D01*
X161463778Y-89648005D01*
X161507051Y-89671136D01*
X161547850Y-89698396D01*
X161585779Y-89729524D01*
X161620476Y-89764221D01*
X161651604Y-89802150D01*
X161678864Y-89842949D01*
X161701995Y-89886222D01*
X161720772Y-89931555D01*
X161735016Y-89978510D01*
X161744588Y-90026635D01*
X161749398Y-90075466D01*
X161749398Y-90100000D01*
X161750000Y-90100000D01*
X161750000Y-90600000D01*
X160250000Y-90600000D01*
G37*
%TD.AperFunction*%
%TA.AperFunction,SMDPad,CuDef*%
%TO.P,JP11,2*%
%TO.N,Rx_Dynamixel*%
G36*
X161749398Y-91400000D02*
G01*
X161749398Y-91424534D01*
X161744588Y-91473365D01*
X161735016Y-91521490D01*
X161720772Y-91568445D01*
X161701995Y-91613778D01*
X161678864Y-91657051D01*
X161651604Y-91697850D01*
X161620476Y-91735779D01*
X161585779Y-91770476D01*
X161547850Y-91801604D01*
X161507051Y-91828864D01*
X161463778Y-91851995D01*
X161418445Y-91870772D01*
X161371490Y-91885016D01*
X161323365Y-91894588D01*
X161274534Y-91899398D01*
X161250000Y-91899398D01*
X161250000Y-91900000D01*
X160750000Y-91900000D01*
X160750000Y-91899398D01*
X160725466Y-91899398D01*
X160676635Y-91894588D01*
X160628510Y-91885016D01*
X160581555Y-91870772D01*
X160536222Y-91851995D01*
X160492949Y-91828864D01*
X160452150Y-91801604D01*
X160414221Y-91770476D01*
X160379524Y-91735779D01*
X160348396Y-91697850D01*
X160321136Y-91657051D01*
X160298005Y-91613778D01*
X160279228Y-91568445D01*
X160264984Y-91521490D01*
X160255412Y-91473365D01*
X160250602Y-91424534D01*
X160250602Y-91400000D01*
X160250000Y-91400000D01*
X160250000Y-90900000D01*
X161750000Y-90900000D01*
X161750000Y-91400000D01*
X161749398Y-91400000D01*
G37*
%TD.AperFunction*%
%TD*%
%TA.AperFunction,SMDPad,CuDef*%
%TO.P,JP12,2*%
%TO.N,Tx_PC*%
G36*
X169999398Y-91400000D02*
G01*
X169999398Y-91424534D01*
X169994588Y-91473365D01*
X169985016Y-91521490D01*
X169970772Y-91568445D01*
X169951995Y-91613778D01*
X169928864Y-91657051D01*
X169901604Y-91697850D01*
X169870476Y-91735779D01*
X169835779Y-91770476D01*
X169797850Y-91801604D01*
X169757051Y-91828864D01*
X169713778Y-91851995D01*
X169668445Y-91870772D01*
X169621490Y-91885016D01*
X169573365Y-91894588D01*
X169524534Y-91899398D01*
X169500000Y-91899398D01*
X169500000Y-91900000D01*
X169000000Y-91900000D01*
X169000000Y-91899398D01*
X168975466Y-91899398D01*
X168926635Y-91894588D01*
X168878510Y-91885016D01*
X168831555Y-91870772D01*
X168786222Y-91851995D01*
X168742949Y-91828864D01*
X168702150Y-91801604D01*
X168664221Y-91770476D01*
X168629524Y-91735779D01*
X168598396Y-91697850D01*
X168571136Y-91657051D01*
X168548005Y-91613778D01*
X168529228Y-91568445D01*
X168514984Y-91521490D01*
X168505412Y-91473365D01*
X168500602Y-91424534D01*
X168500602Y-91400000D01*
X168500000Y-91400000D01*
X168500000Y-90900000D01*
X170000000Y-90900000D01*
X170000000Y-91400000D01*
X169999398Y-91400000D01*
G37*
%TD.AperFunction*%
%TA.AperFunction,SMDPad,CuDef*%
%TO.P,JP12,1*%
%TO.N,RS485_Tx_OUT*%
G36*
X168500000Y-90600000D02*
G01*
X168500000Y-90100000D01*
X168500602Y-90100000D01*
X168500602Y-90075466D01*
X168505412Y-90026635D01*
X168514984Y-89978510D01*
X168529228Y-89931555D01*
X168548005Y-89886222D01*
X168571136Y-89842949D01*
X168598396Y-89802150D01*
X168629524Y-89764221D01*
X168664221Y-89729524D01*
X168702150Y-89698396D01*
X168742949Y-89671136D01*
X168786222Y-89648005D01*
X168831555Y-89629228D01*
X168878510Y-89614984D01*
X168926635Y-89605412D01*
X168975466Y-89600602D01*
X169000000Y-89600602D01*
X169000000Y-89600000D01*
X169500000Y-89600000D01*
X169500000Y-89600602D01*
X169524534Y-89600602D01*
X169573365Y-89605412D01*
X169621490Y-89614984D01*
X169668445Y-89629228D01*
X169713778Y-89648005D01*
X169757051Y-89671136D01*
X169797850Y-89698396D01*
X169835779Y-89729524D01*
X169870476Y-89764221D01*
X169901604Y-89802150D01*
X169928864Y-89842949D01*
X169951995Y-89886222D01*
X169970772Y-89931555D01*
X169985016Y-89978510D01*
X169994588Y-90026635D01*
X169999398Y-90075466D01*
X169999398Y-90100000D01*
X170000000Y-90100000D01*
X170000000Y-90600000D01*
X168500000Y-90600000D01*
G37*
%TD.AperFunction*%
%TD*%
%TA.AperFunction,SMDPad,CuDef*%
%TO.P,JP13,2*%
%TO.N,Rx_PC*%
G36*
X172499398Y-91400000D02*
G01*
X172499398Y-91424534D01*
X172494588Y-91473365D01*
X172485016Y-91521490D01*
X172470772Y-91568445D01*
X172451995Y-91613778D01*
X172428864Y-91657051D01*
X172401604Y-91697850D01*
X172370476Y-91735779D01*
X172335779Y-91770476D01*
X172297850Y-91801604D01*
X172257051Y-91828864D01*
X172213778Y-91851995D01*
X172168445Y-91870772D01*
X172121490Y-91885016D01*
X172073365Y-91894588D01*
X172024534Y-91899398D01*
X172000000Y-91899398D01*
X172000000Y-91900000D01*
X171500000Y-91900000D01*
X171500000Y-91899398D01*
X171475466Y-91899398D01*
X171426635Y-91894588D01*
X171378510Y-91885016D01*
X171331555Y-91870772D01*
X171286222Y-91851995D01*
X171242949Y-91828864D01*
X171202150Y-91801604D01*
X171164221Y-91770476D01*
X171129524Y-91735779D01*
X171098396Y-91697850D01*
X171071136Y-91657051D01*
X171048005Y-91613778D01*
X171029228Y-91568445D01*
X171014984Y-91521490D01*
X171005412Y-91473365D01*
X171000602Y-91424534D01*
X171000602Y-91400000D01*
X171000000Y-91400000D01*
X171000000Y-90900000D01*
X172500000Y-90900000D01*
X172500000Y-91400000D01*
X172499398Y-91400000D01*
G37*
%TD.AperFunction*%
%TA.AperFunction,SMDPad,CuDef*%
%TO.P,JP13,1*%
%TO.N,RS485_Rx_OUT*%
G36*
X171000000Y-90600000D02*
G01*
X171000000Y-90100000D01*
X171000602Y-90100000D01*
X171000602Y-90075466D01*
X171005412Y-90026635D01*
X171014984Y-89978510D01*
X171029228Y-89931555D01*
X171048005Y-89886222D01*
X171071136Y-89842949D01*
X171098396Y-89802150D01*
X171129524Y-89764221D01*
X171164221Y-89729524D01*
X171202150Y-89698396D01*
X171242949Y-89671136D01*
X171286222Y-89648005D01*
X171331555Y-89629228D01*
X171378510Y-89614984D01*
X171426635Y-89605412D01*
X171475466Y-89600602D01*
X171500000Y-89600602D01*
X171500000Y-89600000D01*
X172000000Y-89600000D01*
X172000000Y-89600602D01*
X172024534Y-89600602D01*
X172073365Y-89605412D01*
X172121490Y-89614984D01*
X172168445Y-89629228D01*
X172213778Y-89648005D01*
X172257051Y-89671136D01*
X172297850Y-89698396D01*
X172335779Y-89729524D01*
X172370476Y-89764221D01*
X172401604Y-89802150D01*
X172428864Y-89842949D01*
X172451995Y-89886222D01*
X172470772Y-89931555D01*
X172485016Y-89978510D01*
X172494588Y-90026635D01*
X172499398Y-90075466D01*
X172499398Y-90100000D01*
X172500000Y-90100000D01*
X172500000Y-90600000D01*
X171000000Y-90600000D01*
G37*
%TD.AperFunction*%
%TD*%
D21*
%TO.P,J7,1*%
%TO.N,+3V3*%
X148250000Y-115000000D03*
D22*
%TO.P,J7,2*%
%TO.N,+5V*%
X149520000Y-115000000D03*
%TO.P,J7,3*%
%TO.N,+12V*%
X150790000Y-115000000D03*
%TO.P,J7,4*%
%TO.N,GND*%
X152060000Y-115000000D03*
%TD*%
D23*
%TO.N,GND*%
X127500000Y-90000000D03*
X137750000Y-85500000D03*
X136250000Y-88000000D03*
X135000000Y-88000000D03*
X126500000Y-93000000D03*
X125500000Y-93000000D03*
X124500000Y-93000000D03*
X123500000Y-93000000D03*
X118250000Y-105250000D03*
X118250000Y-100250000D03*
X118250000Y-97750000D03*
X118250000Y-95250000D03*
X118250000Y-102750000D03*
X177250000Y-117500000D03*
X174250000Y-117500000D03*
X168250000Y-117500000D03*
X165250000Y-117500000D03*
X162250000Y-117500000D03*
X159250000Y-117500000D03*
X156250000Y-117500000D03*
X153250000Y-117500000D03*
X150250000Y-117500000D03*
X147250000Y-117500000D03*
X144250000Y-117500000D03*
X141250000Y-117500000D03*
X138250000Y-117500000D03*
X135250000Y-117500000D03*
X132250000Y-117500000D03*
X129250000Y-117500000D03*
X126250000Y-117500000D03*
X123250000Y-117500000D03*
X114750000Y-113250000D03*
X114750000Y-110750000D03*
X114750000Y-107750000D03*
X114750000Y-104750000D03*
X114750000Y-101750000D03*
X114750000Y-98750000D03*
X114750000Y-95750000D03*
X114750000Y-92750000D03*
X114750000Y-89750000D03*
X114750000Y-86750000D03*
X114750000Y-83750000D03*
X120250000Y-117500000D03*
X123250000Y-107500000D03*
X127500000Y-89000000D03*
X126500000Y-90000000D03*
X126500000Y-89000000D03*
X127750000Y-108223000D03*
X130250000Y-108223000D03*
X132750000Y-108223000D03*
X128500000Y-99500000D03*
X137750000Y-105500000D03*
X137750000Y-107000000D03*
X136500000Y-115500000D03*
X142750000Y-115500000D03*
X155750000Y-113500000D03*
X161750000Y-113500000D03*
X174750000Y-110000000D03*
X181250000Y-112000000D03*
X177250000Y-108250000D03*
X175000000Y-102250000D03*
X175000000Y-105750000D03*
X180500000Y-90250000D03*
X163000000Y-80000000D03*
X174750000Y-80000000D03*
X150000000Y-86750000D03*
X137750000Y-86750000D03*
X135000000Y-85500000D03*
X136250000Y-85500000D03*
X137750000Y-88000000D03*
X118250000Y-91500000D03*
X149000000Y-109000000D03*
X134500000Y-94750000D03*
X135750000Y-94750000D03*
X135750000Y-95750000D03*
X142000000Y-96000000D03*
X145250000Y-94000000D03*
X153750000Y-94750000D03*
X153000000Y-95500000D03*
X156250000Y-96000000D03*
X172750000Y-89250000D03*
X173000000Y-93250000D03*
X173000000Y-87750000D03*
X174750000Y-88250000D03*
X178000000Y-93500000D03*
X151500000Y-108250000D03*
X149750000Y-102000000D03*
X141750000Y-111000000D03*
X152000000Y-113750000D03*
X148250000Y-99500000D03*
X158750000Y-98500000D03*
X175000000Y-100500000D03*
X168873000Y-102543143D03*
%TO.N,+3V3*%
X158750000Y-97000000D03*
X144000000Y-111000000D03*
X166750000Y-101000000D03*
X170250000Y-101000000D03*
X176750000Y-100750000D03*
X179250000Y-97000000D03*
X174750000Y-111000000D03*
X155000000Y-98000000D03*
X147000000Y-99500000D03*
X168000000Y-111000000D03*
X171500000Y-106250000D03*
X165500000Y-112500000D03*
X153000000Y-102250000D03*
X151500000Y-109250000D03*
X158750000Y-113500000D03*
X164318356Y-102318356D03*
%TO.N,+5V*%
X130250000Y-105250000D03*
X139500000Y-100000000D03*
X146250000Y-111250000D03*
X162250000Y-94750000D03*
X153000000Y-112500000D03*
X150250000Y-110750000D03*
X170250000Y-86000000D03*
X168485792Y-86021312D03*
X163937000Y-95250000D03*
%TO.N,NRST*%
X175000000Y-113250000D03*
X156250000Y-106250000D03*
%TO.N,UART2_Tx*%
X181750000Y-101000000D03*
X154250000Y-112000000D03*
%TO.N,UART2_Rx*%
X165000000Y-96250000D03*
X158750000Y-102000000D03*
%TO.N,Tx_PC*%
X167500000Y-91000000D03*
%TO.N,SWDIO*%
X172000000Y-114500000D03*
X157500000Y-109500000D03*
X160250000Y-108500000D03*
X161978712Y-107521288D03*
%TO.N,SWCLK*%
X179500000Y-100750000D03*
X174250000Y-95250000D03*
X173500000Y-97750000D03*
X170250000Y-102250000D03*
X165750000Y-101000000D03*
X162250000Y-102250000D03*
%TO.N,SWO*%
X161500000Y-98750000D03*
X164307307Y-98014731D03*
X166000000Y-99600000D03*
%TO.N,UART3_Tx_5V*%
X170127000Y-96420010D03*
X170127000Y-97750000D03*
X166900000Y-98100000D03*
%TO.N,UART3_Tx_TTL*%
X158000000Y-90000000D03*
%TO.N,UART3_Rx_5V*%
X162000000Y-106000000D03*
X164000000Y-107250000D03*
X173250000Y-96750000D03*
X170750000Y-98445999D03*
%TO.N,UART3_Rx_TTL*%
X163000000Y-97750000D03*
X160500000Y-96250000D03*
X164250000Y-88500000D03*
%TO.N,UART_Tx_485*%
X163250000Y-102500000D03*
X163750000Y-108500000D03*
X167750000Y-106250000D03*
X170250000Y-103250000D03*
X171446288Y-94553712D03*
X165250000Y-98000000D03*
%TO.N,UART_Rx_485*%
X168750000Y-105000000D03*
X173750000Y-102250000D03*
X174500000Y-99500000D03*
X174500000Y-98000000D03*
X179750000Y-96000000D03*
X165250000Y-84500000D03*
X166000000Y-90250000D03*
X165500000Y-93250000D03*
%TO.N,UART1_Tx_5V*%
X172250000Y-102250000D03*
X170250000Y-104323000D03*
X172500000Y-105750000D03*
%TO.N,UART1_Rx_5V*%
X171500000Y-108500000D03*
%TO.N,RS485_Tx_OUT*%
X170500000Y-89500000D03*
X166500000Y-95250000D03*
%TO.N,RS485_Rx_OUT*%
X169000000Y-85250000D03*
X175750000Y-90750000D03*
X174750000Y-86000000D03*
X172750000Y-85500000D03*
%TO.N,UART3_Tx*%
X168252596Y-99747761D03*
X161100000Y-101800000D03*
%TO.N,UART3_Rx*%
X164250000Y-99000000D03*
X165500000Y-94554010D03*
X171752596Y-99747761D03*
X168250000Y-94554010D03*
%TO.N,RS485_DIR_CTRL*%
X167000000Y-111000000D03*
X169500000Y-94500000D03*
%TO.N,BOOT0*%
X177000000Y-86500000D03*
X176500000Y-94500000D03*
%TO.N,MOT_CTRL1*%
X154250000Y-86250000D03*
X168000000Y-109000000D03*
%TO.N,MOT_CTRL2*%
X167250000Y-109854001D03*
X161750000Y-110000000D03*
X156250000Y-103000000D03*
X155000000Y-99250000D03*
X152750000Y-98750000D03*
X152750000Y-91500000D03*
%TO.N,CAN_Tx*%
X135000000Y-93000000D03*
X143250000Y-100500000D03*
%TO.N,Dt_Dynamixel*%
X165250000Y-91250000D03*
%TD*%
D24*
%TO.N,GND*%
X148250000Y-86750000D02*
X150000000Y-86750000D01*
X180500000Y-89250000D02*
X180500000Y-90250000D01*
X174750000Y-81250000D02*
X174750000Y-80000000D01*
X163000000Y-81400000D02*
X163000000Y-80000000D01*
D25*
X152060000Y-115000000D02*
X152060000Y-113810000D01*
X152060000Y-113810000D02*
X152000000Y-113750000D01*
D26*
X125500000Y-89750000D02*
X126500000Y-88750000D01*
X124250000Y-89750000D02*
X125500000Y-89750000D01*
D25*
X136250000Y-86750000D02*
X136250000Y-85500000D01*
D26*
X135000000Y-88000000D02*
X136250000Y-88000000D01*
%TO.N,+3V3*%
X148000000Y-115000000D02*
X144000000Y-111000000D01*
X148250000Y-115000000D02*
X148000000Y-115000000D01*
%TO.N,+5V*%
X149520000Y-115000000D02*
X149520000Y-114520000D01*
X149520000Y-114520000D02*
X146250000Y-111250000D01*
D25*
X153000000Y-112500000D02*
X151250000Y-110750000D01*
X151250000Y-110750000D02*
X150250000Y-110750000D01*
X170250000Y-86000000D02*
X168507104Y-86000000D01*
X168507104Y-86000000D02*
X168485792Y-86021312D01*
D26*
X162750000Y-95250000D02*
X162250000Y-94750000D01*
X163937000Y-95250000D02*
X162750000Y-95250000D01*
D25*
%TO.N,NRST*%
X175000000Y-113250000D02*
X163250000Y-113250000D01*
X163250000Y-113250000D02*
X156250000Y-106250000D01*
D27*
%TO.N,+12V*%
X124250000Y-86750000D02*
X133250000Y-86750000D01*
D28*
X137902999Y-79402999D02*
X145250000Y-86750000D01*
X133297039Y-79402999D02*
X137902999Y-79402999D01*
X131722999Y-80977039D02*
X133297039Y-79402999D01*
X131722999Y-85972999D02*
X131722999Y-80977039D01*
X132500000Y-86750000D02*
X131722999Y-85972999D01*
X133250000Y-86750000D02*
X132500000Y-86750000D01*
D29*
X146000000Y-86750000D02*
X154250000Y-78500000D01*
X145250000Y-86750000D02*
X146000000Y-86750000D01*
X154250000Y-78500000D02*
X159750000Y-78500000D01*
X160500000Y-79250000D02*
X160500000Y-81400000D01*
X159750000Y-78500000D02*
X160500000Y-79250000D01*
D26*
X144272999Y-107775893D02*
X144272999Y-87727001D01*
X150790000Y-114292894D02*
X144272999Y-107775893D01*
X144272999Y-87727001D02*
X145250000Y-86750000D01*
X150790000Y-115000000D02*
X150790000Y-114292894D01*
D25*
%TO.N,UART2_Tx*%
X182149999Y-107101963D02*
X173501962Y-115750000D01*
X181750000Y-101000000D02*
X182149999Y-101399999D01*
X182149999Y-101399999D02*
X182149999Y-107101963D01*
X173501962Y-115750000D02*
X155750000Y-115750000D01*
X155750000Y-115750000D02*
X154250000Y-114250000D01*
X154250000Y-114250000D02*
X154250000Y-112000000D01*
%TO.N,UART2_Rx*%
X158750000Y-100498038D02*
X158750000Y-102000000D01*
X165000000Y-96250000D02*
X162998038Y-96250000D01*
X162998038Y-96250000D02*
X158750000Y-100498038D01*
%TO.N,Rx_Dynamixel*%
X155500000Y-86397592D02*
X155500000Y-81400000D01*
X160502408Y-91400000D02*
X155500000Y-86397592D01*
X161250000Y-91400000D02*
X160502408Y-91400000D01*
%TO.N,Rx_PC*%
X172151962Y-91400000D02*
X171750000Y-91400000D01*
X180750000Y-99998038D02*
X172151962Y-91400000D01*
X180750000Y-103350000D02*
X180750000Y-99998038D01*
X172250000Y-81250000D02*
X173750000Y-82750000D01*
X173750000Y-82750000D02*
X173750000Y-90500000D01*
X172850000Y-91400000D02*
X171750000Y-91400000D01*
X173750000Y-90500000D02*
X172850000Y-91400000D01*
%TO.N,Tx_PC*%
X178250000Y-100400000D02*
X169250000Y-91400000D01*
X178250000Y-103350000D02*
X178250000Y-100400000D01*
X167500000Y-91000000D02*
X167750000Y-91000000D01*
X167750000Y-91000000D02*
X168000000Y-91250000D01*
X169100000Y-91250000D02*
X169250000Y-91400000D01*
X168000000Y-91250000D02*
X169100000Y-91250000D01*
%TO.N,SWDIO*%
X157500000Y-110251962D02*
X157500000Y-109500000D01*
X172000000Y-114500000D02*
X161748038Y-114500000D01*
X161748038Y-114500000D02*
X157500000Y-110251962D01*
X160250000Y-108500000D02*
X161000000Y-108500000D01*
X161000000Y-108500000D02*
X161978712Y-107521288D01*
%TO.N,SWCLK*%
X179500000Y-100750000D02*
X174250000Y-95500000D01*
X174250000Y-95500000D02*
X174250000Y-95250000D01*
X173500000Y-97750000D02*
X173500000Y-99000000D01*
X173500000Y-99000000D02*
X170250000Y-102250000D01*
D26*
%TO.N,SWO*%
X164322038Y-98000000D02*
X164307307Y-98014731D01*
X165322038Y-99000000D02*
X164322038Y-98000000D01*
X165400000Y-99000000D02*
X165322038Y-99000000D01*
X166000000Y-99600000D02*
X165400000Y-99000000D01*
D25*
%TO.N,UART3_Tx_5V*%
X158700000Y-104600000D02*
X158700000Y-106200000D01*
X158700000Y-106200000D02*
X159250000Y-106750000D01*
X162650000Y-106750000D02*
X164750000Y-104650000D01*
X159250000Y-106750000D02*
X162650000Y-106750000D01*
D26*
X170127000Y-96420010D02*
X170127000Y-97750000D01*
X165497592Y-104650000D02*
X164750000Y-104650000D01*
X166900000Y-100222038D02*
X167377001Y-100699039D01*
X167377001Y-100699039D02*
X167377001Y-101300961D01*
X167377001Y-101300961D02*
X165727010Y-102950952D01*
X165727010Y-102950952D02*
X165727010Y-104420582D01*
X166900000Y-98100000D02*
X166900000Y-100222038D01*
X165727010Y-104420582D02*
X165497592Y-104650000D01*
D25*
%TO.N,UART3_Tx_TTL*%
X158000000Y-102600000D02*
X158700000Y-103300000D01*
X158000000Y-90000000D02*
X158000000Y-102600000D01*
%TO.N,UART3_Rx_5V*%
X161200000Y-104600000D02*
X161200000Y-105200000D01*
X161200000Y-105200000D02*
X162000000Y-106000000D01*
X166600000Y-104650000D02*
X167250000Y-104650000D01*
X164000000Y-107250000D02*
X166600000Y-104650000D01*
D26*
%TO.N,UART3_Rx_TTL*%
X163825256Y-88500000D02*
X164250000Y-88500000D01*
X162522990Y-89802266D02*
X163825256Y-88500000D01*
X162522990Y-93549048D02*
X162522990Y-89802266D01*
X160500000Y-96250000D02*
X160500000Y-95572038D01*
X160500000Y-95572038D02*
X162522990Y-93549048D01*
X163000000Y-98315685D02*
X161315685Y-100000000D01*
X163000000Y-97750000D02*
X163000000Y-98315685D01*
X161315685Y-100000000D02*
X160600000Y-100000000D01*
X160600000Y-100000000D02*
X160300000Y-100300000D01*
X160300000Y-102400000D02*
X161200000Y-103300000D01*
X160300000Y-100300000D02*
X160300000Y-102400000D01*
D25*
%TO.N,UART_Tx_485*%
X164750000Y-103350000D02*
X164100000Y-103350000D01*
X164100000Y-103350000D02*
X163250000Y-102500000D01*
X163750000Y-108500000D02*
X165500000Y-108500000D01*
X165500000Y-108500000D02*
X167750000Y-106250000D01*
X171850000Y-103500000D02*
X172000000Y-103350000D01*
D26*
X171900000Y-103250000D02*
X172000000Y-103350000D01*
X170250000Y-103250000D02*
X171900000Y-103250000D01*
X171250000Y-94000000D02*
X171250000Y-93933172D01*
X169566828Y-92250000D02*
X168316828Y-93500000D01*
X168316828Y-93500000D02*
X168000000Y-93500000D01*
X168000000Y-93500000D02*
X167500000Y-94000000D01*
X171250000Y-93933172D02*
X169566828Y-92250000D01*
X171446288Y-94196288D02*
X171250000Y-94000000D01*
X171446288Y-94553712D02*
X171446288Y-94196288D01*
X167500000Y-94000000D02*
X167500000Y-95750000D01*
D25*
X165250000Y-97750000D02*
X165250000Y-98000000D01*
D26*
X167500000Y-95750000D02*
X165250000Y-98000000D01*
D25*
%TO.N,UART_Rx_485*%
X168750000Y-104102408D02*
X168750000Y-105000000D01*
X167250000Y-103350000D02*
X167997592Y-103350000D01*
X167997592Y-103350000D02*
X168750000Y-104102408D01*
X173750000Y-102600000D02*
X174500000Y-103350000D01*
X173750000Y-102250000D02*
X173750000Y-102600000D01*
D26*
X174500000Y-99500000D02*
X174500000Y-98000000D01*
X168549160Y-84500000D02*
X165250000Y-84500000D01*
X172666161Y-80382999D02*
X171833839Y-80382999D01*
X173117001Y-80833839D02*
X172666161Y-80382999D01*
X171382999Y-81666161D02*
X168549160Y-84500000D01*
X171833839Y-80382999D02*
X171382999Y-80833839D01*
X179350001Y-95600001D02*
X179350001Y-88523961D01*
X171382999Y-80833839D02*
X171382999Y-81666161D01*
X177627001Y-86800961D02*
X177627001Y-86093829D01*
X179750000Y-96000000D02*
X179350001Y-95600001D01*
X179350001Y-88523961D02*
X177627001Y-86800961D01*
X177627001Y-86093829D02*
X173117001Y-81583829D01*
X173117001Y-81583829D02*
X173117001Y-80833839D01*
X166000000Y-90250000D02*
X166000000Y-92750000D01*
X166000000Y-92750000D02*
X165500000Y-93250000D01*
D25*
%TO.N,UART1_Tx_5V*%
X177502408Y-104650000D02*
X176750000Y-103897592D01*
X178250000Y-104650000D02*
X177502408Y-104650000D01*
X176750000Y-103897592D02*
X176750000Y-102500000D01*
X176750000Y-102500000D02*
X175500000Y-101250000D01*
X175500000Y-101250000D02*
X173250000Y-101250000D01*
X173250000Y-101250000D02*
X172250000Y-102250000D01*
X171673000Y-104323000D02*
X172000000Y-104650000D01*
X170250000Y-104323000D02*
X171673000Y-104323000D01*
X172500000Y-105150000D02*
X172000000Y-104650000D01*
X172500000Y-105750000D02*
X172500000Y-105150000D01*
%TO.N,UART1_Rx_5V*%
X180750000Y-104650000D02*
X180750000Y-105250000D01*
X180750000Y-105250000D02*
X179000000Y-107000000D01*
X174045936Y-105104064D02*
X174500000Y-104650000D01*
X174045936Y-105797898D02*
X174045936Y-105104064D01*
X175248038Y-107000000D02*
X174045936Y-105797898D01*
X175500000Y-108000000D02*
X175500000Y-107000000D01*
X175000000Y-108500000D02*
X175500000Y-108000000D01*
X179000000Y-107000000D02*
X175500000Y-107000000D01*
X171500000Y-108500000D02*
X175000000Y-108500000D01*
X175500000Y-107000000D02*
X175248038Y-107000000D01*
%TO.N,RS485_Tx_OUT*%
X169850000Y-89500000D02*
X169250000Y-90100000D01*
X170500000Y-89500000D02*
X169850000Y-89500000D01*
D26*
X163500000Y-90100000D02*
X164900000Y-90100000D01*
X164900000Y-90100000D02*
X165750000Y-89250000D01*
X168400000Y-89250000D02*
X169250000Y-90100000D01*
X165750000Y-89250000D02*
X167250000Y-89250000D01*
X167250000Y-89250000D02*
X168250000Y-89250000D01*
X168250000Y-89250000D02*
X168400000Y-89250000D01*
X166872999Y-91377001D02*
X166500000Y-91750000D01*
X166872999Y-90627001D02*
X166872999Y-91377001D01*
X168250000Y-89250000D02*
X166872999Y-90627001D01*
D25*
X166500000Y-95250000D02*
X166500000Y-91750000D01*
%TO.N,RS485_Rx_OUT*%
X161250000Y-90100000D02*
X166100000Y-85250000D01*
X166100000Y-85250000D02*
X169000000Y-85250000D01*
X171750000Y-90100000D02*
X171750000Y-86000000D01*
X171000000Y-85250000D02*
X169000000Y-85250000D01*
X171750000Y-86000000D02*
X171000000Y-85250000D01*
X175750000Y-90750000D02*
X175750000Y-87000000D01*
X175750000Y-87000000D02*
X174750000Y-86000000D01*
X171250000Y-85500000D02*
X171000000Y-85250000D01*
X172750000Y-85500000D02*
X171250000Y-85500000D01*
D26*
%TO.N,UART3_Rx*%
X165627001Y-94681011D02*
X165500000Y-94554010D01*
X163680306Y-98430306D02*
X163680306Y-97713770D01*
X163680306Y-97713770D02*
X164517075Y-96877001D01*
X164517075Y-96877001D02*
X165300961Y-96877001D01*
X165300961Y-96877001D02*
X165627001Y-96550961D01*
X164250000Y-99000000D02*
X163680306Y-98430306D01*
X165627001Y-96550961D02*
X165627001Y-94681011D01*
X171752596Y-99747761D02*
X171752596Y-96252596D01*
X171752596Y-96252596D02*
X171000000Y-95500000D01*
X168931011Y-93872999D02*
X168250000Y-94554010D01*
X169800961Y-93872999D02*
X168931011Y-93872999D01*
X171000000Y-95500000D02*
X171000000Y-95072038D01*
X171000000Y-95072038D02*
X169800961Y-93872999D01*
%TO.N,RS485_DIR_CTRL*%
X169500000Y-108500000D02*
X167000000Y-111000000D01*
X169500000Y-94500000D02*
X169500000Y-108500000D01*
D25*
%TO.N,BOOT0*%
X177000000Y-86500000D02*
X176500000Y-87000000D01*
X176500000Y-87000000D02*
X176500000Y-94500000D01*
%TO.N,MOT_CTRL1*%
X167822999Y-109177001D02*
X168000000Y-109000000D01*
X159925039Y-109177001D02*
X167822999Y-109177001D01*
X159572999Y-108824961D02*
X159925039Y-109177001D01*
X154649999Y-86649999D02*
X154649999Y-94851963D01*
X154250000Y-86250000D02*
X154649999Y-86649999D01*
X159572999Y-108175039D02*
X159572999Y-108824961D01*
X154649999Y-94851963D02*
X154250000Y-95251962D01*
X154250000Y-95251962D02*
X154250000Y-102852040D01*
X154250000Y-102852040D02*
X159572999Y-108175039D01*
D26*
%TO.N,MOT_CTRL2*%
X167250000Y-109854001D02*
X161895999Y-109854001D01*
X161895999Y-109854001D02*
X161750000Y-110000000D01*
X156250000Y-103000000D02*
X156250000Y-102000000D01*
X156250000Y-102000000D02*
X155000000Y-100750000D01*
X155000000Y-100750000D02*
X155000000Y-99250000D01*
X152350001Y-91899999D02*
X152750000Y-91500000D01*
X152750000Y-98750000D02*
X152350001Y-98350001D01*
X152350001Y-98350001D02*
X152350001Y-91899999D01*
D25*
%TO.N,CAN_Tx*%
X135000000Y-93000000D02*
X140001962Y-93000000D01*
X140001962Y-93000000D02*
X141500000Y-93000000D01*
X141500000Y-93000000D02*
X143250000Y-94750000D01*
X143250000Y-94750000D02*
X143250000Y-100500000D01*
%TO.N,Dt_Dynamixel*%
X163500000Y-91400000D02*
X165100000Y-91400000D01*
X165100000Y-91400000D02*
X165250000Y-91250000D01*
%TD*%
D30*
%TO.N,GND*%
X130354720Y-79467394D02*
X130277076Y-79531115D01*
X130213355Y-79608759D01*
X130213348Y-79608766D01*
X130022772Y-79840984D01*
X129833808Y-80194511D01*
X129764339Y-80423520D01*
X129717445Y-80578109D01*
X129694432Y-80811768D01*
X129678154Y-80977039D01*
X129688000Y-81077007D01*
X129687999Y-84615000D01*
X124145118Y-84615000D01*
X123831467Y-84645892D01*
X123429018Y-84767974D01*
X123058119Y-84966223D01*
X122733023Y-85233023D01*
X122466223Y-85558119D01*
X122267974Y-85929018D01*
X122145892Y-86331467D01*
X122104670Y-86750000D01*
X122145892Y-87168533D01*
X122267974Y-87570982D01*
X122466223Y-87941881D01*
X122733023Y-88266977D01*
X123058119Y-88533777D01*
X123429018Y-88732026D01*
X123484706Y-88748919D01*
X123472612Y-88793007D01*
X124250000Y-89570395D01*
X124264143Y-89556253D01*
X124443748Y-89735858D01*
X124429605Y-89750000D01*
X125206993Y-90527388D01*
X125445860Y-90461863D01*
X125561760Y-90214884D01*
X125627250Y-89950040D01*
X125639812Y-89677508D01*
X125598965Y-89407762D01*
X125506277Y-89151168D01*
X125445860Y-89038137D01*
X125206995Y-88972613D01*
X125294608Y-88885000D01*
X132162250Y-88885000D01*
X132022629Y-89093957D01*
X131918225Y-89346011D01*
X131865000Y-89613589D01*
X131865000Y-89886411D01*
X131918225Y-90153989D01*
X132022629Y-90406043D01*
X132174201Y-90632886D01*
X132367114Y-90825799D01*
X132593957Y-90977371D01*
X132846011Y-91081775D01*
X133113589Y-91135000D01*
X133386411Y-91135000D01*
X133653989Y-91081775D01*
X133906043Y-90977371D01*
X134132886Y-90825799D01*
X134325799Y-90632886D01*
X134477371Y-90406043D01*
X134581775Y-90153989D01*
X134635000Y-89886411D01*
X134635000Y-89613589D01*
X134865000Y-89613589D01*
X134865000Y-89886411D01*
X134918225Y-90153989D01*
X135022629Y-90406043D01*
X135174201Y-90632886D01*
X135367114Y-90825799D01*
X135593957Y-90977371D01*
X135846011Y-91081775D01*
X136113589Y-91135000D01*
X136386411Y-91135000D01*
X136653989Y-91081775D01*
X136906043Y-90977371D01*
X137132886Y-90825799D01*
X137325799Y-90632886D01*
X137329805Y-90626890D01*
X139500048Y-90626890D01*
X139500048Y-90873110D01*
X139548083Y-91114598D01*
X139642307Y-91342074D01*
X139779099Y-91546798D01*
X139953202Y-91720901D01*
X140157926Y-91857693D01*
X140385402Y-91951917D01*
X140626890Y-91999952D01*
X140873110Y-91999952D01*
X141114598Y-91951917D01*
X141342074Y-91857693D01*
X141546798Y-91720901D01*
X141720901Y-91546798D01*
X141857693Y-91342074D01*
X141951917Y-91114598D01*
X141999952Y-90873110D01*
X141999952Y-90626890D01*
X141951917Y-90385402D01*
X141857693Y-90157926D01*
X141720901Y-89953202D01*
X141546798Y-89779099D01*
X141342074Y-89642307D01*
X141114598Y-89548083D01*
X140873110Y-89500048D01*
X140626890Y-89500048D01*
X140385402Y-89548083D01*
X140157926Y-89642307D01*
X139953202Y-89779099D01*
X139779099Y-89953202D01*
X139642307Y-90157926D01*
X139548083Y-90385402D01*
X139500048Y-90626890D01*
X137329805Y-90626890D01*
X137477371Y-90406043D01*
X137581775Y-90153989D01*
X137635000Y-89886411D01*
X137635000Y-89613589D01*
X137581775Y-89346011D01*
X137477371Y-89093957D01*
X137325799Y-88867114D01*
X137132886Y-88674201D01*
X136906043Y-88522629D01*
X136653989Y-88418225D01*
X136386411Y-88365000D01*
X136113589Y-88365000D01*
X135846011Y-88418225D01*
X135593957Y-88522629D01*
X135367114Y-88674201D01*
X135174201Y-88867114D01*
X135022629Y-89093957D01*
X134918225Y-89346011D01*
X134865000Y-89613589D01*
X134635000Y-89613589D01*
X134581775Y-89346011D01*
X134477371Y-89093957D01*
X134325799Y-88867114D01*
X134149006Y-88690321D01*
X134441881Y-88533777D01*
X134766977Y-88266977D01*
X135033777Y-87941881D01*
X135159326Y-87706993D01*
X135472612Y-87706993D01*
X135538137Y-87945860D01*
X135785116Y-88061760D01*
X136049960Y-88127250D01*
X136322492Y-88139812D01*
X136592238Y-88098965D01*
X136848832Y-88006277D01*
X136961863Y-87945860D01*
X137027388Y-87706993D01*
X136250000Y-86929605D01*
X135472612Y-87706993D01*
X135159326Y-87706993D01*
X135232026Y-87570982D01*
X135248919Y-87515294D01*
X135293007Y-87527388D01*
X136070395Y-86750000D01*
X136429605Y-86750000D01*
X137206993Y-87527388D01*
X137445860Y-87461863D01*
X137561760Y-87214884D01*
X137627250Y-86950040D01*
X137639812Y-86677508D01*
X137598965Y-86407762D01*
X137506277Y-86151168D01*
X137445860Y-86038137D01*
X137206993Y-85972612D01*
X136429605Y-86750000D01*
X136070395Y-86750000D01*
X135293007Y-85972612D01*
X135248919Y-85984706D01*
X135232026Y-85929018D01*
X135159327Y-85793007D01*
X135472612Y-85793007D01*
X136250000Y-86570395D01*
X137027388Y-85793007D01*
X136961863Y-85554140D01*
X136714884Y-85438240D01*
X136450040Y-85372750D01*
X136177508Y-85360188D01*
X135907762Y-85401035D01*
X135651168Y-85493723D01*
X135538137Y-85554140D01*
X135472612Y-85793007D01*
X135159327Y-85793007D01*
X135033777Y-85558119D01*
X134766977Y-85233023D01*
X134441881Y-84966223D01*
X134070982Y-84767974D01*
X133757999Y-84673031D01*
X133757999Y-84330007D01*
X134127244Y-84482953D01*
X134539721Y-84565000D01*
X134960279Y-84565000D01*
X135372756Y-84482953D01*
X135761302Y-84322012D01*
X136110983Y-84088363D01*
X136408363Y-83790983D01*
X136642012Y-83441302D01*
X136802953Y-83052756D01*
X136885000Y-82640279D01*
X136885000Y-82219721D01*
X136802953Y-81807244D01*
X136650007Y-81437999D01*
X137060075Y-81437999D01*
X143538000Y-87915924D01*
X143538000Y-93927843D01*
X142082347Y-92472190D01*
X142057764Y-92442236D01*
X141938233Y-92344138D01*
X141801860Y-92271246D01*
X141653887Y-92226359D01*
X141538561Y-92215000D01*
X141538553Y-92215000D01*
X141500000Y-92211203D01*
X141461447Y-92215000D01*
X135678711Y-92215000D01*
X135659774Y-92196063D01*
X135490256Y-92082795D01*
X135301898Y-92004774D01*
X135101939Y-91965000D01*
X134898061Y-91965000D01*
X134698102Y-92004774D01*
X134509744Y-92082795D01*
X134340226Y-92196063D01*
X134196063Y-92340226D01*
X134082795Y-92509744D01*
X134004774Y-92698102D01*
X133965000Y-92898061D01*
X133965000Y-93101939D01*
X134004774Y-93301898D01*
X134082795Y-93490256D01*
X134196063Y-93659774D01*
X134340226Y-93803937D01*
X134509744Y-93917205D01*
X134698102Y-93995226D01*
X134898061Y-94035000D01*
X135101939Y-94035000D01*
X135301898Y-93995226D01*
X135490256Y-93917205D01*
X135659774Y-93803937D01*
X135678711Y-93785000D01*
X141174843Y-93785000D01*
X142465000Y-95075157D01*
X142465001Y-99821288D01*
X142446063Y-99840226D01*
X142332795Y-100009744D01*
X142254774Y-100198102D01*
X142215000Y-100398061D01*
X142215000Y-100601939D01*
X142254774Y-100801898D01*
X142332795Y-100990256D01*
X142446063Y-101159774D01*
X142590226Y-101303937D01*
X142759744Y-101417205D01*
X142948102Y-101495226D01*
X143148061Y-101535000D01*
X143351939Y-101535000D01*
X143537999Y-101497991D01*
X143537999Y-107739788D01*
X143534443Y-107775893D01*
X143547244Y-107905861D01*
X143548634Y-107919977D01*
X143590662Y-108058525D01*
X143658912Y-108186212D01*
X143750761Y-108298130D01*
X143778807Y-108321147D01*
X145781460Y-110323800D01*
X145759744Y-110332795D01*
X145590226Y-110446063D01*
X145446063Y-110590226D01*
X145332795Y-110759744D01*
X145254774Y-110948102D01*
X145215000Y-111148061D01*
X145215000Y-111175554D01*
X145035000Y-110995554D01*
X145035000Y-110898061D01*
X144995226Y-110698102D01*
X144917205Y-110509744D01*
X144803937Y-110340226D01*
X144659774Y-110196063D01*
X144490256Y-110082795D01*
X144301898Y-110004774D01*
X144101939Y-109965000D01*
X143898061Y-109965000D01*
X143698102Y-110004774D01*
X143509744Y-110082795D01*
X143340226Y-110196063D01*
X143196063Y-110340226D01*
X143082795Y-110509744D01*
X143004774Y-110698102D01*
X142965000Y-110898061D01*
X142965000Y-111101939D01*
X143004774Y-111301898D01*
X143082795Y-111490256D01*
X143196063Y-111659774D01*
X143340226Y-111803937D01*
X143509744Y-111917205D01*
X143698102Y-111995226D01*
X143898061Y-112035000D01*
X143995554Y-112035000D01*
X147111928Y-115151375D01*
X147111928Y-115500000D01*
X147124188Y-115624482D01*
X147160498Y-115744180D01*
X147219463Y-115854494D01*
X147298815Y-115951185D01*
X147395506Y-116030537D01*
X147505820Y-116089502D01*
X147625518Y-116125812D01*
X147750000Y-116138072D01*
X148750000Y-116138072D01*
X148874482Y-116125812D01*
X148994180Y-116089502D01*
X149077226Y-116045112D01*
X149188933Y-116091383D01*
X149408212Y-116135000D01*
X149631788Y-116135000D01*
X149851067Y-116091383D01*
X150057624Y-116005824D01*
X150155000Y-115940759D01*
X150252376Y-116005824D01*
X150458933Y-116091383D01*
X150678212Y-116135000D01*
X150901788Y-116135000D01*
X151121067Y-116091383D01*
X151327624Y-116005824D01*
X151429658Y-115937647D01*
X151499794Y-115987123D01*
X151703136Y-116077446D01*
X151758126Y-116094119D01*
X151933000Y-115967954D01*
X151933000Y-115127000D01*
X152187000Y-115127000D01*
X152187000Y-115967954D01*
X152361874Y-116094119D01*
X152416864Y-116077446D01*
X152620206Y-115987123D01*
X152802020Y-115858865D01*
X152955318Y-115697601D01*
X153074210Y-115509529D01*
X153154126Y-115301876D01*
X153029129Y-115127000D01*
X152187000Y-115127000D01*
X151933000Y-115127000D01*
X151921974Y-115127000D01*
X151925000Y-115111788D01*
X151925000Y-114888212D01*
X151921974Y-114873000D01*
X151933000Y-114873000D01*
X151933000Y-114032046D01*
X152187000Y-114032046D01*
X152187000Y-114873000D01*
X153029129Y-114873000D01*
X153154126Y-114698124D01*
X153074210Y-114490471D01*
X152955318Y-114302399D01*
X152802020Y-114141135D01*
X152620206Y-114012877D01*
X152416864Y-113922554D01*
X152361874Y-113905881D01*
X152187000Y-114032046D01*
X151933000Y-114032046D01*
X151758126Y-113905881D01*
X151703136Y-113922554D01*
X151499794Y-114012877D01*
X151477831Y-114028371D01*
X151472337Y-114010261D01*
X151404087Y-113882574D01*
X151312238Y-113770656D01*
X151284193Y-113747640D01*
X145007999Y-107471447D01*
X145007999Y-99398061D01*
X145965000Y-99398061D01*
X145965000Y-99601939D01*
X146004774Y-99801898D01*
X146082795Y-99990256D01*
X146196063Y-100159774D01*
X146340226Y-100303937D01*
X146509744Y-100417205D01*
X146698102Y-100495226D01*
X146898061Y-100535000D01*
X147101939Y-100535000D01*
X147301898Y-100495226D01*
X147490256Y-100417205D01*
X147659774Y-100303937D01*
X147803937Y-100159774D01*
X147917205Y-99990256D01*
X147995226Y-99801898D01*
X148035000Y-99601939D01*
X148035000Y-99398061D01*
X147995226Y-99198102D01*
X147917205Y-99009744D01*
X147803937Y-98840226D01*
X147659774Y-98696063D01*
X147490256Y-98582795D01*
X147301898Y-98504774D01*
X147101939Y-98465000D01*
X146898061Y-98465000D01*
X146698102Y-98504774D01*
X146509744Y-98582795D01*
X146340226Y-98696063D01*
X146196063Y-98840226D01*
X146082795Y-99009744D01*
X146004774Y-99198102D01*
X145965000Y-99398061D01*
X145007999Y-99398061D01*
X145007999Y-91113997D01*
X145113589Y-91135000D01*
X145386411Y-91135000D01*
X145653989Y-91081775D01*
X145906043Y-90977371D01*
X146132886Y-90825799D01*
X146325799Y-90632886D01*
X146477371Y-90406043D01*
X146581775Y-90153989D01*
X146635000Y-89886411D01*
X146635000Y-89613589D01*
X146865000Y-89613589D01*
X146865000Y-89886411D01*
X146918225Y-90153989D01*
X147022629Y-90406043D01*
X147174201Y-90632886D01*
X147367114Y-90825799D01*
X147593957Y-90977371D01*
X147846011Y-91081775D01*
X148113589Y-91135000D01*
X148386411Y-91135000D01*
X148653989Y-91081775D01*
X148906043Y-90977371D01*
X149132886Y-90825799D01*
X149325799Y-90632886D01*
X149477371Y-90406043D01*
X149581775Y-90153989D01*
X149635000Y-89886411D01*
X149635000Y-89613589D01*
X149581775Y-89346011D01*
X149477371Y-89093957D01*
X149325799Y-88867114D01*
X149132886Y-88674201D01*
X148906043Y-88522629D01*
X148653989Y-88418225D01*
X148386411Y-88365000D01*
X148113589Y-88365000D01*
X147846011Y-88418225D01*
X147593957Y-88522629D01*
X147367114Y-88674201D01*
X147174201Y-88867114D01*
X147022629Y-89093957D01*
X146918225Y-89346011D01*
X146865000Y-89613589D01*
X146635000Y-89613589D01*
X146581775Y-89346011D01*
X146477371Y-89093957D01*
X146325799Y-88867114D01*
X146132886Y-88674201D01*
X146059174Y-88624948D01*
X146386055Y-88450227D01*
X146695924Y-88195924D01*
X146950227Y-87886055D01*
X147045937Y-87706993D01*
X147472612Y-87706993D01*
X147538137Y-87945860D01*
X147785116Y-88061760D01*
X148049960Y-88127250D01*
X148322492Y-88139812D01*
X148592238Y-88098965D01*
X148848832Y-88006277D01*
X148961863Y-87945860D01*
X149027388Y-87706993D01*
X148250000Y-86929605D01*
X147472612Y-87706993D01*
X147045937Y-87706993D01*
X147139191Y-87532527D01*
X147152446Y-87488830D01*
X147293007Y-87527388D01*
X148070395Y-86750000D01*
X148429605Y-86750000D01*
X149206993Y-87527388D01*
X149445860Y-87461863D01*
X149561760Y-87214884D01*
X149627250Y-86950040D01*
X149639812Y-86677508D01*
X149598965Y-86407762D01*
X149506277Y-86151168D01*
X149445860Y-86038137D01*
X149206993Y-85972612D01*
X148429605Y-86750000D01*
X148070395Y-86750000D01*
X148056253Y-86735858D01*
X148235858Y-86556253D01*
X148250000Y-86570395D01*
X149027388Y-85793007D01*
X148961863Y-85554140D01*
X148852372Y-85502759D01*
X154720132Y-79635000D01*
X159279869Y-79635000D01*
X159365000Y-79720131D01*
X159365001Y-80778508D01*
X159357703Y-80789430D01*
X159260535Y-81024013D01*
X159250000Y-81076977D01*
X159239465Y-81024013D01*
X159142297Y-80789430D01*
X159001232Y-80578310D01*
X158821690Y-80398768D01*
X158610570Y-80257703D01*
X158375987Y-80160535D01*
X158126955Y-80111000D01*
X157873045Y-80111000D01*
X157624013Y-80160535D01*
X157389430Y-80257703D01*
X157178310Y-80398768D01*
X156998768Y-80578310D01*
X156857703Y-80789430D01*
X156760535Y-81024013D01*
X156750000Y-81076977D01*
X156739465Y-81024013D01*
X156642297Y-80789430D01*
X156501232Y-80578310D01*
X156321690Y-80398768D01*
X156110570Y-80257703D01*
X155875987Y-80160535D01*
X155626955Y-80111000D01*
X155373045Y-80111000D01*
X155124013Y-80160535D01*
X154889430Y-80257703D01*
X154678310Y-80398768D01*
X154498768Y-80578310D01*
X154357703Y-80789430D01*
X154260535Y-81024013D01*
X154211000Y-81273045D01*
X154211000Y-81526955D01*
X154260535Y-81775987D01*
X154357703Y-82010570D01*
X154498768Y-82221690D01*
X154678310Y-82401232D01*
X154715001Y-82425748D01*
X154715000Y-85322334D01*
X154551898Y-85254774D01*
X154351939Y-85215000D01*
X154148061Y-85215000D01*
X153948102Y-85254774D01*
X153759744Y-85332795D01*
X153590226Y-85446063D01*
X153446063Y-85590226D01*
X153332795Y-85759744D01*
X153254774Y-85948102D01*
X153215000Y-86148061D01*
X153215000Y-86351939D01*
X153254774Y-86551898D01*
X153332795Y-86740256D01*
X153446063Y-86909774D01*
X153590226Y-87053937D01*
X153759744Y-87167205D01*
X153864999Y-87210803D01*
X153865000Y-94526805D01*
X153722190Y-94669615D01*
X153692236Y-94694198D01*
X153594138Y-94813730D01*
X153521246Y-94950103D01*
X153476359Y-95098076D01*
X153465000Y-95213402D01*
X153465000Y-95213409D01*
X153461203Y-95251962D01*
X153465000Y-95290515D01*
X153465000Y-98001289D01*
X153409774Y-97946063D01*
X153240256Y-97832795D01*
X153085001Y-97768486D01*
X153085001Y-92481514D01*
X153240256Y-92417205D01*
X153409774Y-92303937D01*
X153553937Y-92159774D01*
X153667205Y-91990256D01*
X153745226Y-91801898D01*
X153785000Y-91601939D01*
X153785000Y-91398061D01*
X153745226Y-91198102D01*
X153667205Y-91009744D01*
X153553937Y-90840226D01*
X153409774Y-90696063D01*
X153240256Y-90582795D01*
X153051898Y-90504774D01*
X152851939Y-90465000D01*
X152648061Y-90465000D01*
X152448102Y-90504774D01*
X152259744Y-90582795D01*
X152090226Y-90696063D01*
X151946063Y-90840226D01*
X151832795Y-91009744D01*
X151754774Y-91198102D01*
X151715000Y-91398061D01*
X151715000Y-91528808D01*
X151699523Y-91557764D01*
X151667665Y-91617366D01*
X151625636Y-91755914D01*
X151611445Y-91899999D01*
X151615002Y-91936114D01*
X151615002Y-94526576D01*
X151551185Y-94448815D01*
X151454494Y-94369463D01*
X151344180Y-94310498D01*
X151224482Y-94274188D01*
X151100000Y-94261928D01*
X149400000Y-94261928D01*
X149275518Y-94274188D01*
X149155820Y-94310498D01*
X149045506Y-94369463D01*
X148948815Y-94448815D01*
X148869463Y-94545506D01*
X148810498Y-94655820D01*
X148774188Y-94775518D01*
X148761928Y-94900000D01*
X148761928Y-96600000D01*
X148774188Y-96724482D01*
X148810498Y-96844180D01*
X148869463Y-96954494D01*
X148948815Y-97051185D01*
X149045506Y-97130537D01*
X149155820Y-97189502D01*
X149228380Y-97211513D01*
X149096525Y-97343368D01*
X148934010Y-97586589D01*
X148822068Y-97856842D01*
X148765000Y-98143740D01*
X148765000Y-98436260D01*
X148822068Y-98723158D01*
X148934010Y-98993411D01*
X149096525Y-99236632D01*
X149303368Y-99443475D01*
X149546589Y-99605990D01*
X149816842Y-99717932D01*
X150103740Y-99775000D01*
X150396260Y-99775000D01*
X150683158Y-99717932D01*
X150953411Y-99605990D01*
X151196632Y-99443475D01*
X151403475Y-99236632D01*
X151565990Y-98993411D01*
X151677932Y-98723158D01*
X151688270Y-98671185D01*
X151715000Y-98721193D01*
X151715000Y-98851939D01*
X151754774Y-99051898D01*
X151832795Y-99240256D01*
X151946063Y-99409774D01*
X152090226Y-99553937D01*
X152259744Y-99667205D01*
X152448102Y-99745226D01*
X152648061Y-99785000D01*
X152851939Y-99785000D01*
X153051898Y-99745226D01*
X153240256Y-99667205D01*
X153409774Y-99553937D01*
X153465001Y-99498710D01*
X153465001Y-101322334D01*
X153301898Y-101254774D01*
X153101939Y-101215000D01*
X152898061Y-101215000D01*
X152698102Y-101254774D01*
X152509744Y-101332795D01*
X152340226Y-101446063D01*
X152196063Y-101590226D01*
X152082795Y-101759744D01*
X152004774Y-101948102D01*
X151965000Y-102148061D01*
X151965000Y-102351939D01*
X152004774Y-102551898D01*
X152082795Y-102740256D01*
X152196063Y-102909774D01*
X152340226Y-103053937D01*
X152509744Y-103167205D01*
X152698102Y-103245226D01*
X152898061Y-103285000D01*
X153101939Y-103285000D01*
X153301898Y-103245226D01*
X153490256Y-103167205D01*
X153519379Y-103147745D01*
X153521246Y-103153899D01*
X153544894Y-103198141D01*
X153594139Y-103290273D01*
X153614635Y-103315247D01*
X153667655Y-103379852D01*
X153667659Y-103379856D01*
X153692237Y-103409804D01*
X153722185Y-103434382D01*
X155676332Y-105388529D01*
X155590226Y-105446063D01*
X155446063Y-105590226D01*
X155332795Y-105759744D01*
X155254774Y-105948102D01*
X155215000Y-106148061D01*
X155215000Y-106351939D01*
X155254774Y-106551898D01*
X155332795Y-106740256D01*
X155446063Y-106909774D01*
X155590226Y-107053937D01*
X155759744Y-107167205D01*
X155948102Y-107245226D01*
X156148061Y-107285000D01*
X156174843Y-107285000D01*
X157362013Y-108472170D01*
X157198102Y-108504774D01*
X157009744Y-108582795D01*
X156840226Y-108696063D01*
X156696063Y-108840226D01*
X156582795Y-109009744D01*
X156504774Y-109198102D01*
X156465000Y-109398061D01*
X156465000Y-109601939D01*
X156504774Y-109801898D01*
X156582795Y-109990256D01*
X156696063Y-110159774D01*
X156715000Y-110178711D01*
X156715000Y-110213409D01*
X156711203Y-110251962D01*
X156715000Y-110290515D01*
X156715000Y-110290522D01*
X156726359Y-110405848D01*
X156771246Y-110553821D01*
X156844138Y-110690194D01*
X156942236Y-110809726D01*
X156972190Y-110834309D01*
X158610376Y-112472496D01*
X158448102Y-112504774D01*
X158259744Y-112582795D01*
X158090226Y-112696063D01*
X157946063Y-112840226D01*
X157832795Y-113009744D01*
X157754774Y-113198102D01*
X157715000Y-113398061D01*
X157715000Y-113601939D01*
X157754774Y-113801898D01*
X157832795Y-113990256D01*
X157946063Y-114159774D01*
X158090226Y-114303937D01*
X158259744Y-114417205D01*
X158448102Y-114495226D01*
X158648061Y-114535000D01*
X158851939Y-114535000D01*
X159051898Y-114495226D01*
X159240256Y-114417205D01*
X159409774Y-114303937D01*
X159553937Y-114159774D01*
X159667205Y-113990256D01*
X159745226Y-113801898D01*
X159777504Y-113639624D01*
X161102880Y-114965000D01*
X156075158Y-114965000D01*
X155035000Y-113924843D01*
X155035000Y-112678711D01*
X155053937Y-112659774D01*
X155167205Y-112490256D01*
X155245226Y-112301898D01*
X155285000Y-112101939D01*
X155285000Y-111898061D01*
X155245226Y-111698102D01*
X155167205Y-111509744D01*
X155053937Y-111340226D01*
X154909774Y-111196063D01*
X154740256Y-111082795D01*
X154551898Y-111004774D01*
X154351939Y-110965000D01*
X154148061Y-110965000D01*
X153948102Y-111004774D01*
X153759744Y-111082795D01*
X153590226Y-111196063D01*
X153446063Y-111340226D01*
X153332795Y-111509744D01*
X153330027Y-111516426D01*
X153301898Y-111504774D01*
X153101939Y-111465000D01*
X153075157Y-111465000D01*
X151839718Y-110229561D01*
X151990256Y-110167205D01*
X152159774Y-110053937D01*
X152303937Y-109909774D01*
X152417205Y-109740256D01*
X152495226Y-109551898D01*
X152535000Y-109351939D01*
X152535000Y-109148061D01*
X152495226Y-108948102D01*
X152417205Y-108759744D01*
X152303937Y-108590226D01*
X152159774Y-108446063D01*
X151990256Y-108332795D01*
X151801898Y-108254774D01*
X151601939Y-108215000D01*
X151398061Y-108215000D01*
X151198102Y-108254774D01*
X151009744Y-108332795D01*
X150840226Y-108446063D01*
X150696063Y-108590226D01*
X150582795Y-108759744D01*
X150504774Y-108948102D01*
X150465000Y-109148061D01*
X150465000Y-109351939D01*
X150504774Y-109551898D01*
X150582795Y-109740256D01*
X150608032Y-109778026D01*
X150551898Y-109754774D01*
X150351939Y-109715000D01*
X150148061Y-109715000D01*
X149948102Y-109754774D01*
X149759744Y-109832795D01*
X149590226Y-109946063D01*
X149446063Y-110090226D01*
X149332795Y-110259744D01*
X149254774Y-110448102D01*
X149215000Y-110648061D01*
X149215000Y-110851939D01*
X149254774Y-111051898D01*
X149332795Y-111240256D01*
X149446063Y-111409774D01*
X149590226Y-111553937D01*
X149759744Y-111667205D01*
X149948102Y-111745226D01*
X150148061Y-111785000D01*
X150351939Y-111785000D01*
X150551898Y-111745226D01*
X150740256Y-111667205D01*
X150909774Y-111553937D01*
X150926777Y-111536934D01*
X151965000Y-112575157D01*
X151965000Y-112601939D01*
X152004774Y-112801898D01*
X152082795Y-112990256D01*
X152196063Y-113159774D01*
X152340226Y-113303937D01*
X152509744Y-113417205D01*
X152698102Y-113495226D01*
X152898061Y-113535000D01*
X153101939Y-113535000D01*
X153301898Y-113495226D01*
X153465000Y-113427666D01*
X153465000Y-114211447D01*
X153461203Y-114250000D01*
X153465000Y-114288553D01*
X153465000Y-114288560D01*
X153476359Y-114403886D01*
X153521246Y-114551859D01*
X153594138Y-114688232D01*
X153692236Y-114807764D01*
X153722190Y-114832347D01*
X155167658Y-116277816D01*
X155192236Y-116307764D01*
X155222184Y-116332342D01*
X155222187Y-116332345D01*
X155251559Y-116356450D01*
X155311767Y-116405862D01*
X155448140Y-116478754D01*
X155561672Y-116513194D01*
X155596112Y-116523641D01*
X155610490Y-116525057D01*
X155711439Y-116535000D01*
X155711446Y-116535000D01*
X155749999Y-116538797D01*
X155788552Y-116535000D01*
X173463409Y-116535000D01*
X173501962Y-116538797D01*
X173540515Y-116535000D01*
X173540523Y-116535000D01*
X173655849Y-116523641D01*
X173683761Y-116515174D01*
X177651322Y-116515174D01*
X177709019Y-117070632D01*
X177873972Y-117604161D01*
X178122982Y-118070024D01*
X178510225Y-118310170D01*
X180320395Y-116500000D01*
X178510225Y-114689830D01*
X178122982Y-114929976D01*
X177862359Y-115423877D01*
X177703099Y-115959133D01*
X177651322Y-116515174D01*
X173683761Y-116515174D01*
X173803822Y-116478754D01*
X173940195Y-116405862D01*
X174059726Y-116307764D01*
X174084309Y-116277810D01*
X175851894Y-114510225D01*
X178689830Y-114510225D01*
X180500000Y-116320395D01*
X182310170Y-114510225D01*
X182070024Y-114122982D01*
X181576123Y-113862359D01*
X181040867Y-113703099D01*
X180484826Y-113651322D01*
X179929368Y-113709019D01*
X179395839Y-113873972D01*
X178929976Y-114122982D01*
X178689830Y-114510225D01*
X175851894Y-114510225D01*
X182590000Y-107772120D01*
X182590000Y-114751984D01*
X182489775Y-114689830D01*
X180679605Y-116500000D01*
X180693748Y-116514143D01*
X180514143Y-116693748D01*
X180500000Y-116679605D01*
X178689830Y-118489775D01*
X178751984Y-118590000D01*
X117748016Y-118590000D01*
X117810170Y-118489775D01*
X116000000Y-116679605D01*
X115985858Y-116693748D01*
X115806253Y-116514143D01*
X115820395Y-116500000D01*
X116179605Y-116500000D01*
X117989775Y-118310170D01*
X118377018Y-118070024D01*
X118637641Y-117576123D01*
X118796901Y-117040867D01*
X118848678Y-116484826D01*
X118790981Y-115929368D01*
X118626028Y-115395839D01*
X118377018Y-114929976D01*
X117989775Y-114689830D01*
X116179605Y-116500000D01*
X115820395Y-116500000D01*
X114010225Y-114689830D01*
X113910000Y-114751984D01*
X113910000Y-114510225D01*
X114189830Y-114510225D01*
X116000000Y-116320395D01*
X117810170Y-114510225D01*
X117570024Y-114122982D01*
X117076123Y-113862359D01*
X116540867Y-113703099D01*
X115984826Y-113651322D01*
X115429368Y-113709019D01*
X114895839Y-113873972D01*
X114429976Y-114122982D01*
X114189830Y-114510225D01*
X113910000Y-114510225D01*
X113910000Y-109876890D01*
X116250048Y-109876890D01*
X116250048Y-110123110D01*
X116298083Y-110364598D01*
X116392307Y-110592074D01*
X116529099Y-110796798D01*
X116703202Y-110970901D01*
X116907926Y-111107693D01*
X117135402Y-111201917D01*
X117376890Y-111249952D01*
X117623110Y-111249952D01*
X117864598Y-111201917D01*
X118092074Y-111107693D01*
X118296798Y-110970901D01*
X118470901Y-110796798D01*
X118607693Y-110592074D01*
X118701917Y-110364598D01*
X118749952Y-110123110D01*
X118749952Y-109876890D01*
X118701917Y-109635402D01*
X118607693Y-109407926D01*
X118470901Y-109203202D01*
X118296798Y-109029099D01*
X118092074Y-108892307D01*
X117864598Y-108798083D01*
X117623110Y-108750048D01*
X117376890Y-108750048D01*
X117135402Y-108798083D01*
X116907926Y-108892307D01*
X116703202Y-109029099D01*
X116529099Y-109203202D01*
X116392307Y-109407926D01*
X116298083Y-109635402D01*
X116250048Y-109876890D01*
X113910000Y-109876890D01*
X113910000Y-105148061D01*
X129215000Y-105148061D01*
X129215000Y-105351939D01*
X129254774Y-105551898D01*
X129332795Y-105740256D01*
X129446063Y-105909774D01*
X129590226Y-106053937D01*
X129759744Y-106167205D01*
X129948102Y-106245226D01*
X130148061Y-106285000D01*
X130351939Y-106285000D01*
X130551898Y-106245226D01*
X130740256Y-106167205D01*
X130909774Y-106053937D01*
X131053937Y-105909774D01*
X131167205Y-105740256D01*
X131245226Y-105551898D01*
X131285000Y-105351939D01*
X131285000Y-105148061D01*
X131245226Y-104948102D01*
X131167205Y-104759744D01*
X131053937Y-104590226D01*
X130909774Y-104446063D01*
X130740256Y-104332795D01*
X130551898Y-104254774D01*
X130351939Y-104215000D01*
X130148061Y-104215000D01*
X129948102Y-104254774D01*
X129759744Y-104332795D01*
X129590226Y-104446063D01*
X129446063Y-104590226D01*
X129332795Y-104759744D01*
X129254774Y-104948102D01*
X129215000Y-105148061D01*
X113910000Y-105148061D01*
X113910000Y-99898061D01*
X138465000Y-99898061D01*
X138465000Y-100101939D01*
X138504774Y-100301898D01*
X138582795Y-100490256D01*
X138696063Y-100659774D01*
X138840226Y-100803937D01*
X139009744Y-100917205D01*
X139198102Y-100995226D01*
X139398061Y-101035000D01*
X139601939Y-101035000D01*
X139801898Y-100995226D01*
X139990256Y-100917205D01*
X140159774Y-100803937D01*
X140303937Y-100659774D01*
X140417205Y-100490256D01*
X140495226Y-100301898D01*
X140535000Y-100101939D01*
X140535000Y-99898061D01*
X140495226Y-99698102D01*
X140417205Y-99509744D01*
X140303937Y-99340226D01*
X140159774Y-99196063D01*
X139990256Y-99082795D01*
X139801898Y-99004774D01*
X139601939Y-98965000D01*
X139398061Y-98965000D01*
X139198102Y-99004774D01*
X139009744Y-99082795D01*
X138840226Y-99196063D01*
X138696063Y-99340226D01*
X138582795Y-99509744D01*
X138504774Y-99698102D01*
X138465000Y-99898061D01*
X113910000Y-99898061D01*
X113910000Y-89376890D01*
X116500048Y-89376890D01*
X116500048Y-89623110D01*
X116548083Y-89864598D01*
X116642307Y-90092074D01*
X116779099Y-90296798D01*
X116953202Y-90470901D01*
X117157926Y-90607693D01*
X117385402Y-90701917D01*
X117626890Y-90749952D01*
X117873110Y-90749952D01*
X118089079Y-90706993D01*
X123472612Y-90706993D01*
X123538137Y-90945860D01*
X123785116Y-91061760D01*
X124049960Y-91127250D01*
X124322492Y-91139812D01*
X124592238Y-91098965D01*
X124848832Y-91006277D01*
X124961863Y-90945860D01*
X125027388Y-90706993D01*
X124250000Y-89929605D01*
X123472612Y-90706993D01*
X118089079Y-90706993D01*
X118114598Y-90701917D01*
X118342074Y-90607693D01*
X118546798Y-90470901D01*
X118720901Y-90296798D01*
X118857693Y-90092074D01*
X118951917Y-89864598D01*
X118960292Y-89822492D01*
X122860188Y-89822492D01*
X122901035Y-90092238D01*
X122993723Y-90348832D01*
X123054140Y-90461863D01*
X123293007Y-90527388D01*
X124070395Y-89750000D01*
X123293007Y-88972612D01*
X123054140Y-89038137D01*
X122938240Y-89285116D01*
X122872750Y-89549960D01*
X122860188Y-89822492D01*
X118960292Y-89822492D01*
X118999952Y-89623110D01*
X118999952Y-89376890D01*
X118951917Y-89135402D01*
X118857693Y-88907926D01*
X118720901Y-88703202D01*
X118546798Y-88529099D01*
X118342074Y-88392307D01*
X118114598Y-88298083D01*
X117873110Y-88250048D01*
X117626890Y-88250048D01*
X117385402Y-88298083D01*
X117157926Y-88392307D01*
X116953202Y-88529099D01*
X116779099Y-88703202D01*
X116642307Y-88907926D01*
X116548083Y-89135402D01*
X116500048Y-89376890D01*
X113910000Y-89376890D01*
X113910000Y-82489775D01*
X114189830Y-82489775D01*
X114429976Y-82877018D01*
X114923877Y-83137641D01*
X115459133Y-83296901D01*
X116015174Y-83348678D01*
X116570632Y-83290981D01*
X117104161Y-83126028D01*
X117570024Y-82877018D01*
X117810170Y-82489775D01*
X116000000Y-80679605D01*
X114189830Y-82489775D01*
X113910000Y-82489775D01*
X113910000Y-82248016D01*
X114010225Y-82310170D01*
X115820395Y-80500000D01*
X116179605Y-80500000D01*
X117989775Y-82310170D01*
X118135626Y-82219721D01*
X122115000Y-82219721D01*
X122115000Y-82640279D01*
X122197047Y-83052756D01*
X122357988Y-83441302D01*
X122591637Y-83790983D01*
X122889017Y-84088363D01*
X123238698Y-84322012D01*
X123627244Y-84482953D01*
X124039721Y-84565000D01*
X124460279Y-84565000D01*
X124872756Y-84482953D01*
X125261302Y-84322012D01*
X125610983Y-84088363D01*
X125908363Y-83790983D01*
X126142012Y-83441302D01*
X126302953Y-83052756D01*
X126385000Y-82640279D01*
X126385000Y-82219721D01*
X126302953Y-81807244D01*
X126142012Y-81418698D01*
X125908363Y-81069017D01*
X125610983Y-80771637D01*
X125261302Y-80537988D01*
X124872756Y-80377047D01*
X124460279Y-80295000D01*
X124039721Y-80295000D01*
X123627244Y-80377047D01*
X123238698Y-80537988D01*
X122889017Y-80771637D01*
X122591637Y-81069017D01*
X122357988Y-81418698D01*
X122197047Y-81807244D01*
X122115000Y-82219721D01*
X118135626Y-82219721D01*
X118377018Y-82070024D01*
X118637641Y-81576123D01*
X118796901Y-81040867D01*
X118848678Y-80484826D01*
X118790981Y-79929368D01*
X118626028Y-79395839D01*
X118377018Y-78929976D01*
X117989775Y-78689830D01*
X116179605Y-80500000D01*
X115820395Y-80500000D01*
X115806253Y-80485858D01*
X115985858Y-80306253D01*
X116000000Y-80320395D01*
X117810170Y-78510225D01*
X117748016Y-78410000D01*
X131412113Y-78410000D01*
X130354720Y-79467394D01*
%TA.AperFunction,Conductor*%
D31*
G36*
X130354720Y-79467394D02*
G01*
X130277076Y-79531115D01*
X130213355Y-79608759D01*
X130213348Y-79608766D01*
X130022772Y-79840984D01*
X129833808Y-80194511D01*
X129764339Y-80423520D01*
X129717445Y-80578109D01*
X129694432Y-80811768D01*
X129678154Y-80977039D01*
X129688000Y-81077007D01*
X129687999Y-84615000D01*
X124145118Y-84615000D01*
X123831467Y-84645892D01*
X123429018Y-84767974D01*
X123058119Y-84966223D01*
X122733023Y-85233023D01*
X122466223Y-85558119D01*
X122267974Y-85929018D01*
X122145892Y-86331467D01*
X122104670Y-86750000D01*
X122145892Y-87168533D01*
X122267974Y-87570982D01*
X122466223Y-87941881D01*
X122733023Y-88266977D01*
X123058119Y-88533777D01*
X123429018Y-88732026D01*
X123484706Y-88748919D01*
X123472612Y-88793007D01*
X124250000Y-89570395D01*
X124264143Y-89556253D01*
X124443748Y-89735858D01*
X124429605Y-89750000D01*
X125206993Y-90527388D01*
X125445860Y-90461863D01*
X125561760Y-90214884D01*
X125627250Y-89950040D01*
X125639812Y-89677508D01*
X125598965Y-89407762D01*
X125506277Y-89151168D01*
X125445860Y-89038137D01*
X125206995Y-88972613D01*
X125294608Y-88885000D01*
X132162250Y-88885000D01*
X132022629Y-89093957D01*
X131918225Y-89346011D01*
X131865000Y-89613589D01*
X131865000Y-89886411D01*
X131918225Y-90153989D01*
X132022629Y-90406043D01*
X132174201Y-90632886D01*
X132367114Y-90825799D01*
X132593957Y-90977371D01*
X132846011Y-91081775D01*
X133113589Y-91135000D01*
X133386411Y-91135000D01*
X133653989Y-91081775D01*
X133906043Y-90977371D01*
X134132886Y-90825799D01*
X134325799Y-90632886D01*
X134477371Y-90406043D01*
X134581775Y-90153989D01*
X134635000Y-89886411D01*
X134635000Y-89613589D01*
X134865000Y-89613589D01*
X134865000Y-89886411D01*
X134918225Y-90153989D01*
X135022629Y-90406043D01*
X135174201Y-90632886D01*
X135367114Y-90825799D01*
X135593957Y-90977371D01*
X135846011Y-91081775D01*
X136113589Y-91135000D01*
X136386411Y-91135000D01*
X136653989Y-91081775D01*
X136906043Y-90977371D01*
X137132886Y-90825799D01*
X137325799Y-90632886D01*
X137329805Y-90626890D01*
X139500048Y-90626890D01*
X139500048Y-90873110D01*
X139548083Y-91114598D01*
X139642307Y-91342074D01*
X139779099Y-91546798D01*
X139953202Y-91720901D01*
X140157926Y-91857693D01*
X140385402Y-91951917D01*
X140626890Y-91999952D01*
X140873110Y-91999952D01*
X141114598Y-91951917D01*
X141342074Y-91857693D01*
X141546798Y-91720901D01*
X141720901Y-91546798D01*
X141857693Y-91342074D01*
X141951917Y-91114598D01*
X141999952Y-90873110D01*
X141999952Y-90626890D01*
X141951917Y-90385402D01*
X141857693Y-90157926D01*
X141720901Y-89953202D01*
X141546798Y-89779099D01*
X141342074Y-89642307D01*
X141114598Y-89548083D01*
X140873110Y-89500048D01*
X140626890Y-89500048D01*
X140385402Y-89548083D01*
X140157926Y-89642307D01*
X139953202Y-89779099D01*
X139779099Y-89953202D01*
X139642307Y-90157926D01*
X139548083Y-90385402D01*
X139500048Y-90626890D01*
X137329805Y-90626890D01*
X137477371Y-90406043D01*
X137581775Y-90153989D01*
X137635000Y-89886411D01*
X137635000Y-89613589D01*
X137581775Y-89346011D01*
X137477371Y-89093957D01*
X137325799Y-88867114D01*
X137132886Y-88674201D01*
X136906043Y-88522629D01*
X136653989Y-88418225D01*
X136386411Y-88365000D01*
X136113589Y-88365000D01*
X135846011Y-88418225D01*
X135593957Y-88522629D01*
X135367114Y-88674201D01*
X135174201Y-88867114D01*
X135022629Y-89093957D01*
X134918225Y-89346011D01*
X134865000Y-89613589D01*
X134635000Y-89613589D01*
X134581775Y-89346011D01*
X134477371Y-89093957D01*
X134325799Y-88867114D01*
X134149006Y-88690321D01*
X134441881Y-88533777D01*
X134766977Y-88266977D01*
X135033777Y-87941881D01*
X135159326Y-87706993D01*
X135472612Y-87706993D01*
X135538137Y-87945860D01*
X135785116Y-88061760D01*
X136049960Y-88127250D01*
X136322492Y-88139812D01*
X136592238Y-88098965D01*
X136848832Y-88006277D01*
X136961863Y-87945860D01*
X137027388Y-87706993D01*
X136250000Y-86929605D01*
X135472612Y-87706993D01*
X135159326Y-87706993D01*
X135232026Y-87570982D01*
X135248919Y-87515294D01*
X135293007Y-87527388D01*
X136070395Y-86750000D01*
X136429605Y-86750000D01*
X137206993Y-87527388D01*
X137445860Y-87461863D01*
X137561760Y-87214884D01*
X137627250Y-86950040D01*
X137639812Y-86677508D01*
X137598965Y-86407762D01*
X137506277Y-86151168D01*
X137445860Y-86038137D01*
X137206993Y-85972612D01*
X136429605Y-86750000D01*
X136070395Y-86750000D01*
X135293007Y-85972612D01*
X135248919Y-85984706D01*
X135232026Y-85929018D01*
X135159327Y-85793007D01*
X135472612Y-85793007D01*
X136250000Y-86570395D01*
X137027388Y-85793007D01*
X136961863Y-85554140D01*
X136714884Y-85438240D01*
X136450040Y-85372750D01*
X136177508Y-85360188D01*
X135907762Y-85401035D01*
X135651168Y-85493723D01*
X135538137Y-85554140D01*
X135472612Y-85793007D01*
X135159327Y-85793007D01*
X135033777Y-85558119D01*
X134766977Y-85233023D01*
X134441881Y-84966223D01*
X134070982Y-84767974D01*
X133757999Y-84673031D01*
X133757999Y-84330007D01*
X134127244Y-84482953D01*
X134539721Y-84565000D01*
X134960279Y-84565000D01*
X135372756Y-84482953D01*
X135761302Y-84322012D01*
X136110983Y-84088363D01*
X136408363Y-83790983D01*
X136642012Y-83441302D01*
X136802953Y-83052756D01*
X136885000Y-82640279D01*
X136885000Y-82219721D01*
X136802953Y-81807244D01*
X136650007Y-81437999D01*
X137060075Y-81437999D01*
X143538000Y-87915924D01*
X143538000Y-93927843D01*
X142082347Y-92472190D01*
X142057764Y-92442236D01*
X141938233Y-92344138D01*
X141801860Y-92271246D01*
X141653887Y-92226359D01*
X141538561Y-92215000D01*
X141538553Y-92215000D01*
X141500000Y-92211203D01*
X141461447Y-92215000D01*
X135678711Y-92215000D01*
X135659774Y-92196063D01*
X135490256Y-92082795D01*
X135301898Y-92004774D01*
X135101939Y-91965000D01*
X134898061Y-91965000D01*
X134698102Y-92004774D01*
X134509744Y-92082795D01*
X134340226Y-92196063D01*
X134196063Y-92340226D01*
X134082795Y-92509744D01*
X134004774Y-92698102D01*
X133965000Y-92898061D01*
X133965000Y-93101939D01*
X134004774Y-93301898D01*
X134082795Y-93490256D01*
X134196063Y-93659774D01*
X134340226Y-93803937D01*
X134509744Y-93917205D01*
X134698102Y-93995226D01*
X134898061Y-94035000D01*
X135101939Y-94035000D01*
X135301898Y-93995226D01*
X135490256Y-93917205D01*
X135659774Y-93803937D01*
X135678711Y-93785000D01*
X141174843Y-93785000D01*
X142465000Y-95075157D01*
X142465001Y-99821288D01*
X142446063Y-99840226D01*
X142332795Y-100009744D01*
X142254774Y-100198102D01*
X142215000Y-100398061D01*
X142215000Y-100601939D01*
X142254774Y-100801898D01*
X142332795Y-100990256D01*
X142446063Y-101159774D01*
X142590226Y-101303937D01*
X142759744Y-101417205D01*
X142948102Y-101495226D01*
X143148061Y-101535000D01*
X143351939Y-101535000D01*
X143537999Y-101497991D01*
X143537999Y-107739788D01*
X143534443Y-107775893D01*
X143547244Y-107905861D01*
X143548634Y-107919977D01*
X143590662Y-108058525D01*
X143658912Y-108186212D01*
X143750761Y-108298130D01*
X143778807Y-108321147D01*
X145781460Y-110323800D01*
X145759744Y-110332795D01*
X145590226Y-110446063D01*
X145446063Y-110590226D01*
X145332795Y-110759744D01*
X145254774Y-110948102D01*
X145215000Y-111148061D01*
X145215000Y-111175554D01*
X145035000Y-110995554D01*
X145035000Y-110898061D01*
X144995226Y-110698102D01*
X144917205Y-110509744D01*
X144803937Y-110340226D01*
X144659774Y-110196063D01*
X144490256Y-110082795D01*
X144301898Y-110004774D01*
X144101939Y-109965000D01*
X143898061Y-109965000D01*
X143698102Y-110004774D01*
X143509744Y-110082795D01*
X143340226Y-110196063D01*
X143196063Y-110340226D01*
X143082795Y-110509744D01*
X143004774Y-110698102D01*
X142965000Y-110898061D01*
X142965000Y-111101939D01*
X143004774Y-111301898D01*
X143082795Y-111490256D01*
X143196063Y-111659774D01*
X143340226Y-111803937D01*
X143509744Y-111917205D01*
X143698102Y-111995226D01*
X143898061Y-112035000D01*
X143995554Y-112035000D01*
X147111928Y-115151375D01*
X147111928Y-115500000D01*
X147124188Y-115624482D01*
X147160498Y-115744180D01*
X147219463Y-115854494D01*
X147298815Y-115951185D01*
X147395506Y-116030537D01*
X147505820Y-116089502D01*
X147625518Y-116125812D01*
X147750000Y-116138072D01*
X148750000Y-116138072D01*
X148874482Y-116125812D01*
X148994180Y-116089502D01*
X149077226Y-116045112D01*
X149188933Y-116091383D01*
X149408212Y-116135000D01*
X149631788Y-116135000D01*
X149851067Y-116091383D01*
X150057624Y-116005824D01*
X150155000Y-115940759D01*
X150252376Y-116005824D01*
X150458933Y-116091383D01*
X150678212Y-116135000D01*
X150901788Y-116135000D01*
X151121067Y-116091383D01*
X151327624Y-116005824D01*
X151429658Y-115937647D01*
X151499794Y-115987123D01*
X151703136Y-116077446D01*
X151758126Y-116094119D01*
X151933000Y-115967954D01*
X151933000Y-115127000D01*
X152187000Y-115127000D01*
X152187000Y-115967954D01*
X152361874Y-116094119D01*
X152416864Y-116077446D01*
X152620206Y-115987123D01*
X152802020Y-115858865D01*
X152955318Y-115697601D01*
X153074210Y-115509529D01*
X153154126Y-115301876D01*
X153029129Y-115127000D01*
X152187000Y-115127000D01*
X151933000Y-115127000D01*
X151921974Y-115127000D01*
X151925000Y-115111788D01*
X151925000Y-114888212D01*
X151921974Y-114873000D01*
X151933000Y-114873000D01*
X151933000Y-114032046D01*
X152187000Y-114032046D01*
X152187000Y-114873000D01*
X153029129Y-114873000D01*
X153154126Y-114698124D01*
X153074210Y-114490471D01*
X152955318Y-114302399D01*
X152802020Y-114141135D01*
X152620206Y-114012877D01*
X152416864Y-113922554D01*
X152361874Y-113905881D01*
X152187000Y-114032046D01*
X151933000Y-114032046D01*
X151758126Y-113905881D01*
X151703136Y-113922554D01*
X151499794Y-114012877D01*
X151477831Y-114028371D01*
X151472337Y-114010261D01*
X151404087Y-113882574D01*
X151312238Y-113770656D01*
X151284193Y-113747640D01*
X145007999Y-107471447D01*
X145007999Y-99398061D01*
X145965000Y-99398061D01*
X145965000Y-99601939D01*
X146004774Y-99801898D01*
X146082795Y-99990256D01*
X146196063Y-100159774D01*
X146340226Y-100303937D01*
X146509744Y-100417205D01*
X146698102Y-100495226D01*
X146898061Y-100535000D01*
X147101939Y-100535000D01*
X147301898Y-100495226D01*
X147490256Y-100417205D01*
X147659774Y-100303937D01*
X147803937Y-100159774D01*
X147917205Y-99990256D01*
X147995226Y-99801898D01*
X148035000Y-99601939D01*
X148035000Y-99398061D01*
X147995226Y-99198102D01*
X147917205Y-99009744D01*
X147803937Y-98840226D01*
X147659774Y-98696063D01*
X147490256Y-98582795D01*
X147301898Y-98504774D01*
X147101939Y-98465000D01*
X146898061Y-98465000D01*
X146698102Y-98504774D01*
X146509744Y-98582795D01*
X146340226Y-98696063D01*
X146196063Y-98840226D01*
X146082795Y-99009744D01*
X146004774Y-99198102D01*
X145965000Y-99398061D01*
X145007999Y-99398061D01*
X145007999Y-91113997D01*
X145113589Y-91135000D01*
X145386411Y-91135000D01*
X145653989Y-91081775D01*
X145906043Y-90977371D01*
X146132886Y-90825799D01*
X146325799Y-90632886D01*
X146477371Y-90406043D01*
X146581775Y-90153989D01*
X146635000Y-89886411D01*
X146635000Y-89613589D01*
X146865000Y-89613589D01*
X146865000Y-89886411D01*
X146918225Y-90153989D01*
X147022629Y-90406043D01*
X147174201Y-90632886D01*
X147367114Y-90825799D01*
X147593957Y-90977371D01*
X147846011Y-91081775D01*
X148113589Y-91135000D01*
X148386411Y-91135000D01*
X148653989Y-91081775D01*
X148906043Y-90977371D01*
X149132886Y-90825799D01*
X149325799Y-90632886D01*
X149477371Y-90406043D01*
X149581775Y-90153989D01*
X149635000Y-89886411D01*
X149635000Y-89613589D01*
X149581775Y-89346011D01*
X149477371Y-89093957D01*
X149325799Y-88867114D01*
X149132886Y-88674201D01*
X148906043Y-88522629D01*
X148653989Y-88418225D01*
X148386411Y-88365000D01*
X148113589Y-88365000D01*
X147846011Y-88418225D01*
X147593957Y-88522629D01*
X147367114Y-88674201D01*
X147174201Y-88867114D01*
X147022629Y-89093957D01*
X146918225Y-89346011D01*
X146865000Y-89613589D01*
X146635000Y-89613589D01*
X146581775Y-89346011D01*
X146477371Y-89093957D01*
X146325799Y-88867114D01*
X146132886Y-88674201D01*
X146059174Y-88624948D01*
X146386055Y-88450227D01*
X146695924Y-88195924D01*
X146950227Y-87886055D01*
X147045937Y-87706993D01*
X147472612Y-87706993D01*
X147538137Y-87945860D01*
X147785116Y-88061760D01*
X148049960Y-88127250D01*
X148322492Y-88139812D01*
X148592238Y-88098965D01*
X148848832Y-88006277D01*
X148961863Y-87945860D01*
X149027388Y-87706993D01*
X148250000Y-86929605D01*
X147472612Y-87706993D01*
X147045937Y-87706993D01*
X147139191Y-87532527D01*
X147152446Y-87488830D01*
X147293007Y-87527388D01*
X148070395Y-86750000D01*
X148429605Y-86750000D01*
X149206993Y-87527388D01*
X149445860Y-87461863D01*
X149561760Y-87214884D01*
X149627250Y-86950040D01*
X149639812Y-86677508D01*
X149598965Y-86407762D01*
X149506277Y-86151168D01*
X149445860Y-86038137D01*
X149206993Y-85972612D01*
X148429605Y-86750000D01*
X148070395Y-86750000D01*
X148056253Y-86735858D01*
X148235858Y-86556253D01*
X148250000Y-86570395D01*
X149027388Y-85793007D01*
X148961863Y-85554140D01*
X148852372Y-85502759D01*
X154720132Y-79635000D01*
X159279869Y-79635000D01*
X159365000Y-79720131D01*
X159365001Y-80778508D01*
X159357703Y-80789430D01*
X159260535Y-81024013D01*
X159250000Y-81076977D01*
X159239465Y-81024013D01*
X159142297Y-80789430D01*
X159001232Y-80578310D01*
X158821690Y-80398768D01*
X158610570Y-80257703D01*
X158375987Y-80160535D01*
X158126955Y-80111000D01*
X157873045Y-80111000D01*
X157624013Y-80160535D01*
X157389430Y-80257703D01*
X157178310Y-80398768D01*
X156998768Y-80578310D01*
X156857703Y-80789430D01*
X156760535Y-81024013D01*
X156750000Y-81076977D01*
X156739465Y-81024013D01*
X156642297Y-80789430D01*
X156501232Y-80578310D01*
X156321690Y-80398768D01*
X156110570Y-80257703D01*
X155875987Y-80160535D01*
X155626955Y-80111000D01*
X155373045Y-80111000D01*
X155124013Y-80160535D01*
X154889430Y-80257703D01*
X154678310Y-80398768D01*
X154498768Y-80578310D01*
X154357703Y-80789430D01*
X154260535Y-81024013D01*
X154211000Y-81273045D01*
X154211000Y-81526955D01*
X154260535Y-81775987D01*
X154357703Y-82010570D01*
X154498768Y-82221690D01*
X154678310Y-82401232D01*
X154715001Y-82425748D01*
X154715000Y-85322334D01*
X154551898Y-85254774D01*
X154351939Y-85215000D01*
X154148061Y-85215000D01*
X153948102Y-85254774D01*
X153759744Y-85332795D01*
X153590226Y-85446063D01*
X153446063Y-85590226D01*
X153332795Y-85759744D01*
X153254774Y-85948102D01*
X153215000Y-86148061D01*
X153215000Y-86351939D01*
X153254774Y-86551898D01*
X153332795Y-86740256D01*
X153446063Y-86909774D01*
X153590226Y-87053937D01*
X153759744Y-87167205D01*
X153864999Y-87210803D01*
X153865000Y-94526805D01*
X153722190Y-94669615D01*
X153692236Y-94694198D01*
X153594138Y-94813730D01*
X153521246Y-94950103D01*
X153476359Y-95098076D01*
X153465000Y-95213402D01*
X153465000Y-95213409D01*
X153461203Y-95251962D01*
X153465000Y-95290515D01*
X153465000Y-98001289D01*
X153409774Y-97946063D01*
X153240256Y-97832795D01*
X153085001Y-97768486D01*
X153085001Y-92481514D01*
X153240256Y-92417205D01*
X153409774Y-92303937D01*
X153553937Y-92159774D01*
X153667205Y-91990256D01*
X153745226Y-91801898D01*
X153785000Y-91601939D01*
X153785000Y-91398061D01*
X153745226Y-91198102D01*
X153667205Y-91009744D01*
X153553937Y-90840226D01*
X153409774Y-90696063D01*
X153240256Y-90582795D01*
X153051898Y-90504774D01*
X152851939Y-90465000D01*
X152648061Y-90465000D01*
X152448102Y-90504774D01*
X152259744Y-90582795D01*
X152090226Y-90696063D01*
X151946063Y-90840226D01*
X151832795Y-91009744D01*
X151754774Y-91198102D01*
X151715000Y-91398061D01*
X151715000Y-91528808D01*
X151699523Y-91557764D01*
X151667665Y-91617366D01*
X151625636Y-91755914D01*
X151611445Y-91899999D01*
X151615002Y-91936114D01*
X151615002Y-94526576D01*
X151551185Y-94448815D01*
X151454494Y-94369463D01*
X151344180Y-94310498D01*
X151224482Y-94274188D01*
X151100000Y-94261928D01*
X149400000Y-94261928D01*
X149275518Y-94274188D01*
X149155820Y-94310498D01*
X149045506Y-94369463D01*
X148948815Y-94448815D01*
X148869463Y-94545506D01*
X148810498Y-94655820D01*
X148774188Y-94775518D01*
X148761928Y-94900000D01*
X148761928Y-96600000D01*
X148774188Y-96724482D01*
X148810498Y-96844180D01*
X148869463Y-96954494D01*
X148948815Y-97051185D01*
X149045506Y-97130537D01*
X149155820Y-97189502D01*
X149228380Y-97211513D01*
X149096525Y-97343368D01*
X148934010Y-97586589D01*
X148822068Y-97856842D01*
X148765000Y-98143740D01*
X148765000Y-98436260D01*
X148822068Y-98723158D01*
X148934010Y-98993411D01*
X149096525Y-99236632D01*
X149303368Y-99443475D01*
X149546589Y-99605990D01*
X149816842Y-99717932D01*
X150103740Y-99775000D01*
X150396260Y-99775000D01*
X150683158Y-99717932D01*
X150953411Y-99605990D01*
X151196632Y-99443475D01*
X151403475Y-99236632D01*
X151565990Y-98993411D01*
X151677932Y-98723158D01*
X151688270Y-98671185D01*
X151715000Y-98721193D01*
X151715000Y-98851939D01*
X151754774Y-99051898D01*
X151832795Y-99240256D01*
X151946063Y-99409774D01*
X152090226Y-99553937D01*
X152259744Y-99667205D01*
X152448102Y-99745226D01*
X152648061Y-99785000D01*
X152851939Y-99785000D01*
X153051898Y-99745226D01*
X153240256Y-99667205D01*
X153409774Y-99553937D01*
X153465001Y-99498710D01*
X153465001Y-101322334D01*
X153301898Y-101254774D01*
X153101939Y-101215000D01*
X152898061Y-101215000D01*
X152698102Y-101254774D01*
X152509744Y-101332795D01*
X152340226Y-101446063D01*
X152196063Y-101590226D01*
X152082795Y-101759744D01*
X152004774Y-101948102D01*
X151965000Y-102148061D01*
X151965000Y-102351939D01*
X152004774Y-102551898D01*
X152082795Y-102740256D01*
X152196063Y-102909774D01*
X152340226Y-103053937D01*
X152509744Y-103167205D01*
X152698102Y-103245226D01*
X152898061Y-103285000D01*
X153101939Y-103285000D01*
X153301898Y-103245226D01*
X153490256Y-103167205D01*
X153519379Y-103147745D01*
X153521246Y-103153899D01*
X153544894Y-103198141D01*
X153594139Y-103290273D01*
X153614635Y-103315247D01*
X153667655Y-103379852D01*
X153667659Y-103379856D01*
X153692237Y-103409804D01*
X153722185Y-103434382D01*
X155676332Y-105388529D01*
X155590226Y-105446063D01*
X155446063Y-105590226D01*
X155332795Y-105759744D01*
X155254774Y-105948102D01*
X155215000Y-106148061D01*
X155215000Y-106351939D01*
X155254774Y-106551898D01*
X155332795Y-106740256D01*
X155446063Y-106909774D01*
X155590226Y-107053937D01*
X155759744Y-107167205D01*
X155948102Y-107245226D01*
X156148061Y-107285000D01*
X156174843Y-107285000D01*
X157362013Y-108472170D01*
X157198102Y-108504774D01*
X157009744Y-108582795D01*
X156840226Y-108696063D01*
X156696063Y-108840226D01*
X156582795Y-109009744D01*
X156504774Y-109198102D01*
X156465000Y-109398061D01*
X156465000Y-109601939D01*
X156504774Y-109801898D01*
X156582795Y-109990256D01*
X156696063Y-110159774D01*
X156715000Y-110178711D01*
X156715000Y-110213409D01*
X156711203Y-110251962D01*
X156715000Y-110290515D01*
X156715000Y-110290522D01*
X156726359Y-110405848D01*
X156771246Y-110553821D01*
X156844138Y-110690194D01*
X156942236Y-110809726D01*
X156972190Y-110834309D01*
X158610376Y-112472496D01*
X158448102Y-112504774D01*
X158259744Y-112582795D01*
X158090226Y-112696063D01*
X157946063Y-112840226D01*
X157832795Y-113009744D01*
X157754774Y-113198102D01*
X157715000Y-113398061D01*
X157715000Y-113601939D01*
X157754774Y-113801898D01*
X157832795Y-113990256D01*
X157946063Y-114159774D01*
X158090226Y-114303937D01*
X158259744Y-114417205D01*
X158448102Y-114495226D01*
X158648061Y-114535000D01*
X158851939Y-114535000D01*
X159051898Y-114495226D01*
X159240256Y-114417205D01*
X159409774Y-114303937D01*
X159553937Y-114159774D01*
X159667205Y-113990256D01*
X159745226Y-113801898D01*
X159777504Y-113639624D01*
X161102880Y-114965000D01*
X156075158Y-114965000D01*
X155035000Y-113924843D01*
X155035000Y-112678711D01*
X155053937Y-112659774D01*
X155167205Y-112490256D01*
X155245226Y-112301898D01*
X155285000Y-112101939D01*
X155285000Y-111898061D01*
X155245226Y-111698102D01*
X155167205Y-111509744D01*
X155053937Y-111340226D01*
X154909774Y-111196063D01*
X154740256Y-111082795D01*
X154551898Y-111004774D01*
X154351939Y-110965000D01*
X154148061Y-110965000D01*
X153948102Y-111004774D01*
X153759744Y-111082795D01*
X153590226Y-111196063D01*
X153446063Y-111340226D01*
X153332795Y-111509744D01*
X153330027Y-111516426D01*
X153301898Y-111504774D01*
X153101939Y-111465000D01*
X153075157Y-111465000D01*
X151839718Y-110229561D01*
X151990256Y-110167205D01*
X152159774Y-110053937D01*
X152303937Y-109909774D01*
X152417205Y-109740256D01*
X152495226Y-109551898D01*
X152535000Y-109351939D01*
X152535000Y-109148061D01*
X152495226Y-108948102D01*
X152417205Y-108759744D01*
X152303937Y-108590226D01*
X152159774Y-108446063D01*
X151990256Y-108332795D01*
X151801898Y-108254774D01*
X151601939Y-108215000D01*
X151398061Y-108215000D01*
X151198102Y-108254774D01*
X151009744Y-108332795D01*
X150840226Y-108446063D01*
X150696063Y-108590226D01*
X150582795Y-108759744D01*
X150504774Y-108948102D01*
X150465000Y-109148061D01*
X150465000Y-109351939D01*
X150504774Y-109551898D01*
X150582795Y-109740256D01*
X150608032Y-109778026D01*
X150551898Y-109754774D01*
X150351939Y-109715000D01*
X150148061Y-109715000D01*
X149948102Y-109754774D01*
X149759744Y-109832795D01*
X149590226Y-109946063D01*
X149446063Y-110090226D01*
X149332795Y-110259744D01*
X149254774Y-110448102D01*
X149215000Y-110648061D01*
X149215000Y-110851939D01*
X149254774Y-111051898D01*
X149332795Y-111240256D01*
X149446063Y-111409774D01*
X149590226Y-111553937D01*
X149759744Y-111667205D01*
X149948102Y-111745226D01*
X150148061Y-111785000D01*
X150351939Y-111785000D01*
X150551898Y-111745226D01*
X150740256Y-111667205D01*
X150909774Y-111553937D01*
X150926777Y-111536934D01*
X151965000Y-112575157D01*
X151965000Y-112601939D01*
X152004774Y-112801898D01*
X152082795Y-112990256D01*
X152196063Y-113159774D01*
X152340226Y-113303937D01*
X152509744Y-113417205D01*
X152698102Y-113495226D01*
X152898061Y-113535000D01*
X153101939Y-113535000D01*
X153301898Y-113495226D01*
X153465000Y-113427666D01*
X153465000Y-114211447D01*
X153461203Y-114250000D01*
X153465000Y-114288553D01*
X153465000Y-114288560D01*
X153476359Y-114403886D01*
X153521246Y-114551859D01*
X153594138Y-114688232D01*
X153692236Y-114807764D01*
X153722190Y-114832347D01*
X155167658Y-116277816D01*
X155192236Y-116307764D01*
X155222184Y-116332342D01*
X155222187Y-116332345D01*
X155251559Y-116356450D01*
X155311767Y-116405862D01*
X155448140Y-116478754D01*
X155561672Y-116513194D01*
X155596112Y-116523641D01*
X155610490Y-116525057D01*
X155711439Y-116535000D01*
X155711446Y-116535000D01*
X155749999Y-116538797D01*
X155788552Y-116535000D01*
X173463409Y-116535000D01*
X173501962Y-116538797D01*
X173540515Y-116535000D01*
X173540523Y-116535000D01*
X173655849Y-116523641D01*
X173683761Y-116515174D01*
X177651322Y-116515174D01*
X177709019Y-117070632D01*
X177873972Y-117604161D01*
X178122982Y-118070024D01*
X178510225Y-118310170D01*
X180320395Y-116500000D01*
X178510225Y-114689830D01*
X178122982Y-114929976D01*
X177862359Y-115423877D01*
X177703099Y-115959133D01*
X177651322Y-116515174D01*
X173683761Y-116515174D01*
X173803822Y-116478754D01*
X173940195Y-116405862D01*
X174059726Y-116307764D01*
X174084309Y-116277810D01*
X175851894Y-114510225D01*
X178689830Y-114510225D01*
X180500000Y-116320395D01*
X182310170Y-114510225D01*
X182070024Y-114122982D01*
X181576123Y-113862359D01*
X181040867Y-113703099D01*
X180484826Y-113651322D01*
X179929368Y-113709019D01*
X179395839Y-113873972D01*
X178929976Y-114122982D01*
X178689830Y-114510225D01*
X175851894Y-114510225D01*
X182590000Y-107772120D01*
X182590000Y-114751984D01*
X182489775Y-114689830D01*
X180679605Y-116500000D01*
X180693748Y-116514143D01*
X180514143Y-116693748D01*
X180500000Y-116679605D01*
X178689830Y-118489775D01*
X178751984Y-118590000D01*
X117748016Y-118590000D01*
X117810170Y-118489775D01*
X116000000Y-116679605D01*
X115985858Y-116693748D01*
X115806253Y-116514143D01*
X115820395Y-116500000D01*
X116179605Y-116500000D01*
X117989775Y-118310170D01*
X118377018Y-118070024D01*
X118637641Y-117576123D01*
X118796901Y-117040867D01*
X118848678Y-116484826D01*
X118790981Y-115929368D01*
X118626028Y-115395839D01*
X118377018Y-114929976D01*
X117989775Y-114689830D01*
X116179605Y-116500000D01*
X115820395Y-116500000D01*
X114010225Y-114689830D01*
X113910000Y-114751984D01*
X113910000Y-114510225D01*
X114189830Y-114510225D01*
X116000000Y-116320395D01*
X117810170Y-114510225D01*
X117570024Y-114122982D01*
X117076123Y-113862359D01*
X116540867Y-113703099D01*
X115984826Y-113651322D01*
X115429368Y-113709019D01*
X114895839Y-113873972D01*
X114429976Y-114122982D01*
X114189830Y-114510225D01*
X113910000Y-114510225D01*
X113910000Y-109876890D01*
X116250048Y-109876890D01*
X116250048Y-110123110D01*
X116298083Y-110364598D01*
X116392307Y-110592074D01*
X116529099Y-110796798D01*
X116703202Y-110970901D01*
X116907926Y-111107693D01*
X117135402Y-111201917D01*
X117376890Y-111249952D01*
X117623110Y-111249952D01*
X117864598Y-111201917D01*
X118092074Y-111107693D01*
X118296798Y-110970901D01*
X118470901Y-110796798D01*
X118607693Y-110592074D01*
X118701917Y-110364598D01*
X118749952Y-110123110D01*
X118749952Y-109876890D01*
X118701917Y-109635402D01*
X118607693Y-109407926D01*
X118470901Y-109203202D01*
X118296798Y-109029099D01*
X118092074Y-108892307D01*
X117864598Y-108798083D01*
X117623110Y-108750048D01*
X117376890Y-108750048D01*
X117135402Y-108798083D01*
X116907926Y-108892307D01*
X116703202Y-109029099D01*
X116529099Y-109203202D01*
X116392307Y-109407926D01*
X116298083Y-109635402D01*
X116250048Y-109876890D01*
X113910000Y-109876890D01*
X113910000Y-105148061D01*
X129215000Y-105148061D01*
X129215000Y-105351939D01*
X129254774Y-105551898D01*
X129332795Y-105740256D01*
X129446063Y-105909774D01*
X129590226Y-106053937D01*
X129759744Y-106167205D01*
X129948102Y-106245226D01*
X130148061Y-106285000D01*
X130351939Y-106285000D01*
X130551898Y-106245226D01*
X130740256Y-106167205D01*
X130909774Y-106053937D01*
X131053937Y-105909774D01*
X131167205Y-105740256D01*
X131245226Y-105551898D01*
X131285000Y-105351939D01*
X131285000Y-105148061D01*
X131245226Y-104948102D01*
X131167205Y-104759744D01*
X131053937Y-104590226D01*
X130909774Y-104446063D01*
X130740256Y-104332795D01*
X130551898Y-104254774D01*
X130351939Y-104215000D01*
X130148061Y-104215000D01*
X129948102Y-104254774D01*
X129759744Y-104332795D01*
X129590226Y-104446063D01*
X129446063Y-104590226D01*
X129332795Y-104759744D01*
X129254774Y-104948102D01*
X129215000Y-105148061D01*
X113910000Y-105148061D01*
X113910000Y-99898061D01*
X138465000Y-99898061D01*
X138465000Y-100101939D01*
X138504774Y-100301898D01*
X138582795Y-100490256D01*
X138696063Y-100659774D01*
X138840226Y-100803937D01*
X139009744Y-100917205D01*
X139198102Y-100995226D01*
X139398061Y-101035000D01*
X139601939Y-101035000D01*
X139801898Y-100995226D01*
X139990256Y-100917205D01*
X140159774Y-100803937D01*
X140303937Y-100659774D01*
X140417205Y-100490256D01*
X140495226Y-100301898D01*
X140535000Y-100101939D01*
X140535000Y-99898061D01*
X140495226Y-99698102D01*
X140417205Y-99509744D01*
X140303937Y-99340226D01*
X140159774Y-99196063D01*
X139990256Y-99082795D01*
X139801898Y-99004774D01*
X139601939Y-98965000D01*
X139398061Y-98965000D01*
X139198102Y-99004774D01*
X139009744Y-99082795D01*
X138840226Y-99196063D01*
X138696063Y-99340226D01*
X138582795Y-99509744D01*
X138504774Y-99698102D01*
X138465000Y-99898061D01*
X113910000Y-99898061D01*
X113910000Y-89376890D01*
X116500048Y-89376890D01*
X116500048Y-89623110D01*
X116548083Y-89864598D01*
X116642307Y-90092074D01*
X116779099Y-90296798D01*
X116953202Y-90470901D01*
X117157926Y-90607693D01*
X117385402Y-90701917D01*
X117626890Y-90749952D01*
X117873110Y-90749952D01*
X118089079Y-90706993D01*
X123472612Y-90706993D01*
X123538137Y-90945860D01*
X123785116Y-91061760D01*
X124049960Y-91127250D01*
X124322492Y-91139812D01*
X124592238Y-91098965D01*
X124848832Y-91006277D01*
X124961863Y-90945860D01*
X125027388Y-90706993D01*
X124250000Y-89929605D01*
X123472612Y-90706993D01*
X118089079Y-90706993D01*
X118114598Y-90701917D01*
X118342074Y-90607693D01*
X118546798Y-90470901D01*
X118720901Y-90296798D01*
X118857693Y-90092074D01*
X118951917Y-89864598D01*
X118960292Y-89822492D01*
X122860188Y-89822492D01*
X122901035Y-90092238D01*
X122993723Y-90348832D01*
X123054140Y-90461863D01*
X123293007Y-90527388D01*
X124070395Y-89750000D01*
X123293007Y-88972612D01*
X123054140Y-89038137D01*
X122938240Y-89285116D01*
X122872750Y-89549960D01*
X122860188Y-89822492D01*
X118960292Y-89822492D01*
X118999952Y-89623110D01*
X118999952Y-89376890D01*
X118951917Y-89135402D01*
X118857693Y-88907926D01*
X118720901Y-88703202D01*
X118546798Y-88529099D01*
X118342074Y-88392307D01*
X118114598Y-88298083D01*
X117873110Y-88250048D01*
X117626890Y-88250048D01*
X117385402Y-88298083D01*
X117157926Y-88392307D01*
X116953202Y-88529099D01*
X116779099Y-88703202D01*
X116642307Y-88907926D01*
X116548083Y-89135402D01*
X116500048Y-89376890D01*
X113910000Y-89376890D01*
X113910000Y-82489775D01*
X114189830Y-82489775D01*
X114429976Y-82877018D01*
X114923877Y-83137641D01*
X115459133Y-83296901D01*
X116015174Y-83348678D01*
X116570632Y-83290981D01*
X117104161Y-83126028D01*
X117570024Y-82877018D01*
X117810170Y-82489775D01*
X116000000Y-80679605D01*
X114189830Y-82489775D01*
X113910000Y-82489775D01*
X113910000Y-82248016D01*
X114010225Y-82310170D01*
X115820395Y-80500000D01*
X116179605Y-80500000D01*
X117989775Y-82310170D01*
X118135626Y-82219721D01*
X122115000Y-82219721D01*
X122115000Y-82640279D01*
X122197047Y-83052756D01*
X122357988Y-83441302D01*
X122591637Y-83790983D01*
X122889017Y-84088363D01*
X123238698Y-84322012D01*
X123627244Y-84482953D01*
X124039721Y-84565000D01*
X124460279Y-84565000D01*
X124872756Y-84482953D01*
X125261302Y-84322012D01*
X125610983Y-84088363D01*
X125908363Y-83790983D01*
X126142012Y-83441302D01*
X126302953Y-83052756D01*
X126385000Y-82640279D01*
X126385000Y-82219721D01*
X126302953Y-81807244D01*
X126142012Y-81418698D01*
X125908363Y-81069017D01*
X125610983Y-80771637D01*
X125261302Y-80537988D01*
X124872756Y-80377047D01*
X124460279Y-80295000D01*
X124039721Y-80295000D01*
X123627244Y-80377047D01*
X123238698Y-80537988D01*
X122889017Y-80771637D01*
X122591637Y-81069017D01*
X122357988Y-81418698D01*
X122197047Y-81807244D01*
X122115000Y-82219721D01*
X118135626Y-82219721D01*
X118377018Y-82070024D01*
X118637641Y-81576123D01*
X118796901Y-81040867D01*
X118848678Y-80484826D01*
X118790981Y-79929368D01*
X118626028Y-79395839D01*
X118377018Y-78929976D01*
X117989775Y-78689830D01*
X116179605Y-80500000D01*
X115820395Y-80500000D01*
X115806253Y-80485858D01*
X115985858Y-80306253D01*
X116000000Y-80320395D01*
X117810170Y-78510225D01*
X117748016Y-78410000D01*
X131412113Y-78410000D01*
X130354720Y-79467394D01*
G37*
%TD.AperFunction*%
D30*
X162604842Y-113715000D02*
X162073196Y-113715000D01*
X158389666Y-110031471D01*
X158417205Y-109990256D01*
X158495226Y-109801898D01*
X158527830Y-109637987D01*
X162604842Y-113715000D01*
%TA.AperFunction,Conductor*%
D31*
G36*
X162604842Y-113715000D02*
G01*
X162073196Y-113715000D01*
X158389666Y-110031471D01*
X158417205Y-109990256D01*
X158495226Y-109801898D01*
X158527830Y-109637987D01*
X162604842Y-113715000D01*
G37*
%TD.AperFunction*%
D30*
X170778502Y-105240192D02*
X170832958Y-105321691D01*
X170901453Y-105405153D01*
X170840226Y-105446063D01*
X170696063Y-105590226D01*
X170582795Y-105759744D01*
X170504774Y-105948102D01*
X170465000Y-106148061D01*
X170465000Y-106351939D01*
X170504774Y-106551898D01*
X170582795Y-106740256D01*
X170696063Y-106909774D01*
X170840226Y-107053937D01*
X171009744Y-107167205D01*
X171198102Y-107245226D01*
X171398061Y-107285000D01*
X171601939Y-107285000D01*
X171801898Y-107245226D01*
X171990256Y-107167205D01*
X172159774Y-107053937D01*
X172303937Y-106909774D01*
X172388570Y-106783112D01*
X172398061Y-106785000D01*
X172601939Y-106785000D01*
X172801898Y-106745226D01*
X172990256Y-106667205D01*
X173159774Y-106553937D01*
X173303937Y-106409774D01*
X173406549Y-106256204D01*
X173488172Y-106355662D01*
X173518126Y-106380245D01*
X174665696Y-107527815D01*
X174690274Y-107557764D01*
X174715000Y-107578057D01*
X174715000Y-107674843D01*
X174674843Y-107715000D01*
X172178711Y-107715000D01*
X172159774Y-107696063D01*
X171990256Y-107582795D01*
X171801898Y-107504774D01*
X171601939Y-107465000D01*
X171398061Y-107465000D01*
X171198102Y-107504774D01*
X171009744Y-107582795D01*
X170840226Y-107696063D01*
X170696063Y-107840226D01*
X170582795Y-108009744D01*
X170504774Y-108198102D01*
X170465000Y-108398061D01*
X170465000Y-108601939D01*
X170504774Y-108801898D01*
X170582795Y-108990256D01*
X170696063Y-109159774D01*
X170840226Y-109303937D01*
X171009744Y-109417205D01*
X171198102Y-109495226D01*
X171398061Y-109535000D01*
X171601939Y-109535000D01*
X171801898Y-109495226D01*
X171990256Y-109417205D01*
X172159774Y-109303937D01*
X172178711Y-109285000D01*
X174961447Y-109285000D01*
X175000000Y-109288797D01*
X175038553Y-109285000D01*
X175038561Y-109285000D01*
X175153887Y-109273641D01*
X175301860Y-109228754D01*
X175438233Y-109155862D01*
X175557764Y-109057764D01*
X175582347Y-109027810D01*
X176027806Y-108582350D01*
X176057764Y-108557764D01*
X176155862Y-108438233D01*
X176228754Y-108301860D01*
X176229885Y-108298131D01*
X176273642Y-108153887D01*
X176282714Y-108061767D01*
X176285000Y-108038561D01*
X176285000Y-108038556D01*
X176288797Y-108000000D01*
X176285000Y-107961444D01*
X176285000Y-107785000D01*
X178961447Y-107785000D01*
X179000000Y-107788797D01*
X179038553Y-107785000D01*
X179038561Y-107785000D01*
X179153887Y-107773641D01*
X179301860Y-107728754D01*
X179438233Y-107655862D01*
X179557764Y-107557764D01*
X179582347Y-107527810D01*
X181277810Y-105832347D01*
X181307764Y-105807764D01*
X181365000Y-105738023D01*
X181365000Y-106776804D01*
X175677758Y-112464047D01*
X175659774Y-112446063D01*
X175490256Y-112332795D01*
X175301898Y-112254774D01*
X175101939Y-112215000D01*
X174898061Y-112215000D01*
X174698102Y-112254774D01*
X174509744Y-112332795D01*
X174340226Y-112446063D01*
X174321289Y-112465000D01*
X166535000Y-112465000D01*
X166535000Y-112398061D01*
X166495226Y-112198102D01*
X166417205Y-112009744D01*
X166303937Y-111840226D01*
X166159774Y-111696063D01*
X165990256Y-111582795D01*
X165801898Y-111504774D01*
X165601939Y-111465000D01*
X165398061Y-111465000D01*
X165198102Y-111504774D01*
X165009744Y-111582795D01*
X164840226Y-111696063D01*
X164696063Y-111840226D01*
X164582795Y-112009744D01*
X164504774Y-112198102D01*
X164465000Y-112398061D01*
X164465000Y-112465000D01*
X163575158Y-112465000D01*
X162089718Y-110979560D01*
X162240256Y-110917205D01*
X162409774Y-110803937D01*
X162553937Y-110659774D01*
X162601226Y-110589001D01*
X166049965Y-110589001D01*
X166004774Y-110698102D01*
X165965000Y-110898061D01*
X165965000Y-111101939D01*
X166004774Y-111301898D01*
X166082795Y-111490256D01*
X166196063Y-111659774D01*
X166340226Y-111803937D01*
X166509744Y-111917205D01*
X166698102Y-111995226D01*
X166898061Y-112035000D01*
X167101939Y-112035000D01*
X167301898Y-111995226D01*
X167490256Y-111917205D01*
X167500000Y-111910694D01*
X167509744Y-111917205D01*
X167698102Y-111995226D01*
X167898061Y-112035000D01*
X168101939Y-112035000D01*
X168301898Y-111995226D01*
X168490256Y-111917205D01*
X168659774Y-111803937D01*
X168803937Y-111659774D01*
X168917205Y-111490256D01*
X168995226Y-111301898D01*
X169035000Y-111101939D01*
X169035000Y-110898061D01*
X173715000Y-110898061D01*
X173715000Y-111101939D01*
X173754774Y-111301898D01*
X173832795Y-111490256D01*
X173946063Y-111659774D01*
X174090226Y-111803937D01*
X174259744Y-111917205D01*
X174448102Y-111995226D01*
X174648061Y-112035000D01*
X174851939Y-112035000D01*
X175051898Y-111995226D01*
X175240256Y-111917205D01*
X175409774Y-111803937D01*
X175553937Y-111659774D01*
X175667205Y-111490256D01*
X175745226Y-111301898D01*
X175785000Y-111101939D01*
X175785000Y-110898061D01*
X175745226Y-110698102D01*
X175667205Y-110509744D01*
X175553937Y-110340226D01*
X175409774Y-110196063D01*
X175240256Y-110082795D01*
X175051898Y-110004774D01*
X174851939Y-109965000D01*
X174648061Y-109965000D01*
X174448102Y-110004774D01*
X174259744Y-110082795D01*
X174090226Y-110196063D01*
X173946063Y-110340226D01*
X173832795Y-110509744D01*
X173754774Y-110698102D01*
X173715000Y-110898061D01*
X169035000Y-110898061D01*
X168995226Y-110698102D01*
X168917205Y-110509744D01*
X168803937Y-110340226D01*
X168751579Y-110287868D01*
X169994193Y-109045254D01*
X170022238Y-109022238D01*
X170114087Y-108910320D01*
X170182337Y-108782633D01*
X170224365Y-108644085D01*
X170235000Y-108536105D01*
X170238556Y-108500000D01*
X170235000Y-108463895D01*
X170235000Y-105358000D01*
X170351939Y-105358000D01*
X170551898Y-105318226D01*
X170740256Y-105240205D01*
X170768442Y-105221372D01*
X170778502Y-105240192D01*
%TA.AperFunction,Conductor*%
D31*
G36*
X170778502Y-105240192D02*
G01*
X170832958Y-105321691D01*
X170901453Y-105405153D01*
X170840226Y-105446063D01*
X170696063Y-105590226D01*
X170582795Y-105759744D01*
X170504774Y-105948102D01*
X170465000Y-106148061D01*
X170465000Y-106351939D01*
X170504774Y-106551898D01*
X170582795Y-106740256D01*
X170696063Y-106909774D01*
X170840226Y-107053937D01*
X171009744Y-107167205D01*
X171198102Y-107245226D01*
X171398061Y-107285000D01*
X171601939Y-107285000D01*
X171801898Y-107245226D01*
X171990256Y-107167205D01*
X172159774Y-107053937D01*
X172303937Y-106909774D01*
X172388570Y-106783112D01*
X172398061Y-106785000D01*
X172601939Y-106785000D01*
X172801898Y-106745226D01*
X172990256Y-106667205D01*
X173159774Y-106553937D01*
X173303937Y-106409774D01*
X173406549Y-106256204D01*
X173488172Y-106355662D01*
X173518126Y-106380245D01*
X174665696Y-107527815D01*
X174690274Y-107557764D01*
X174715000Y-107578057D01*
X174715000Y-107674843D01*
X174674843Y-107715000D01*
X172178711Y-107715000D01*
X172159774Y-107696063D01*
X171990256Y-107582795D01*
X171801898Y-107504774D01*
X171601939Y-107465000D01*
X171398061Y-107465000D01*
X171198102Y-107504774D01*
X171009744Y-107582795D01*
X170840226Y-107696063D01*
X170696063Y-107840226D01*
X170582795Y-108009744D01*
X170504774Y-108198102D01*
X170465000Y-108398061D01*
X170465000Y-108601939D01*
X170504774Y-108801898D01*
X170582795Y-108990256D01*
X170696063Y-109159774D01*
X170840226Y-109303937D01*
X171009744Y-109417205D01*
X171198102Y-109495226D01*
X171398061Y-109535000D01*
X171601939Y-109535000D01*
X171801898Y-109495226D01*
X171990256Y-109417205D01*
X172159774Y-109303937D01*
X172178711Y-109285000D01*
X174961447Y-109285000D01*
X175000000Y-109288797D01*
X175038553Y-109285000D01*
X175038561Y-109285000D01*
X175153887Y-109273641D01*
X175301860Y-109228754D01*
X175438233Y-109155862D01*
X175557764Y-109057764D01*
X175582347Y-109027810D01*
X176027806Y-108582350D01*
X176057764Y-108557764D01*
X176155862Y-108438233D01*
X176228754Y-108301860D01*
X176229885Y-108298131D01*
X176273642Y-108153887D01*
X176282714Y-108061767D01*
X176285000Y-108038561D01*
X176285000Y-108038556D01*
X176288797Y-108000000D01*
X176285000Y-107961444D01*
X176285000Y-107785000D01*
X178961447Y-107785000D01*
X179000000Y-107788797D01*
X179038553Y-107785000D01*
X179038561Y-107785000D01*
X179153887Y-107773641D01*
X179301860Y-107728754D01*
X179438233Y-107655862D01*
X179557764Y-107557764D01*
X179582347Y-107527810D01*
X181277810Y-105832347D01*
X181307764Y-105807764D01*
X181365000Y-105738023D01*
X181365000Y-106776804D01*
X175677758Y-112464047D01*
X175659774Y-112446063D01*
X175490256Y-112332795D01*
X175301898Y-112254774D01*
X175101939Y-112215000D01*
X174898061Y-112215000D01*
X174698102Y-112254774D01*
X174509744Y-112332795D01*
X174340226Y-112446063D01*
X174321289Y-112465000D01*
X166535000Y-112465000D01*
X166535000Y-112398061D01*
X166495226Y-112198102D01*
X166417205Y-112009744D01*
X166303937Y-111840226D01*
X166159774Y-111696063D01*
X165990256Y-111582795D01*
X165801898Y-111504774D01*
X165601939Y-111465000D01*
X165398061Y-111465000D01*
X165198102Y-111504774D01*
X165009744Y-111582795D01*
X164840226Y-111696063D01*
X164696063Y-111840226D01*
X164582795Y-112009744D01*
X164504774Y-112198102D01*
X164465000Y-112398061D01*
X164465000Y-112465000D01*
X163575158Y-112465000D01*
X162089718Y-110979560D01*
X162240256Y-110917205D01*
X162409774Y-110803937D01*
X162553937Y-110659774D01*
X162601226Y-110589001D01*
X166049965Y-110589001D01*
X166004774Y-110698102D01*
X165965000Y-110898061D01*
X165965000Y-111101939D01*
X166004774Y-111301898D01*
X166082795Y-111490256D01*
X166196063Y-111659774D01*
X166340226Y-111803937D01*
X166509744Y-111917205D01*
X166698102Y-111995226D01*
X166898061Y-112035000D01*
X167101939Y-112035000D01*
X167301898Y-111995226D01*
X167490256Y-111917205D01*
X167500000Y-111910694D01*
X167509744Y-111917205D01*
X167698102Y-111995226D01*
X167898061Y-112035000D01*
X168101939Y-112035000D01*
X168301898Y-111995226D01*
X168490256Y-111917205D01*
X168659774Y-111803937D01*
X168803937Y-111659774D01*
X168917205Y-111490256D01*
X168995226Y-111301898D01*
X169035000Y-111101939D01*
X169035000Y-110898061D01*
X173715000Y-110898061D01*
X173715000Y-111101939D01*
X173754774Y-111301898D01*
X173832795Y-111490256D01*
X173946063Y-111659774D01*
X174090226Y-111803937D01*
X174259744Y-111917205D01*
X174448102Y-111995226D01*
X174648061Y-112035000D01*
X174851939Y-112035000D01*
X175051898Y-111995226D01*
X175240256Y-111917205D01*
X175409774Y-111803937D01*
X175553937Y-111659774D01*
X175667205Y-111490256D01*
X175745226Y-111301898D01*
X175785000Y-111101939D01*
X175785000Y-110898061D01*
X175745226Y-110698102D01*
X175667205Y-110509744D01*
X175553937Y-110340226D01*
X175409774Y-110196063D01*
X175240256Y-110082795D01*
X175051898Y-110004774D01*
X174851939Y-109965000D01*
X174648061Y-109965000D01*
X174448102Y-110004774D01*
X174259744Y-110082795D01*
X174090226Y-110196063D01*
X173946063Y-110340226D01*
X173832795Y-110509744D01*
X173754774Y-110698102D01*
X173715000Y-110898061D01*
X169035000Y-110898061D01*
X168995226Y-110698102D01*
X168917205Y-110509744D01*
X168803937Y-110340226D01*
X168751579Y-110287868D01*
X169994193Y-109045254D01*
X170022238Y-109022238D01*
X170114087Y-108910320D01*
X170182337Y-108782633D01*
X170224365Y-108644085D01*
X170235000Y-108536105D01*
X170238556Y-108500000D01*
X170235000Y-108463895D01*
X170235000Y-105358000D01*
X170351939Y-105358000D01*
X170551898Y-105318226D01*
X170740256Y-105240205D01*
X170768442Y-105221372D01*
X170778502Y-105240192D01*
G37*
%TD.AperFunction*%
D30*
X175965001Y-102825159D02*
X175965000Y-103859039D01*
X175961203Y-103897592D01*
X175965000Y-103936145D01*
X175965000Y-103936152D01*
X175976359Y-104051478D01*
X176021246Y-104199451D01*
X176094138Y-104335824D01*
X176192236Y-104455356D01*
X176222190Y-104479939D01*
X176920061Y-105177810D01*
X176944644Y-105207764D01*
X177064175Y-105305862D01*
X177076941Y-105312685D01*
X177082958Y-105321691D01*
X177162310Y-105418382D01*
X177231618Y-105487690D01*
X177328309Y-105567042D01*
X177409808Y-105621498D01*
X177520125Y-105680464D01*
X177610681Y-105717973D01*
X177730377Y-105754282D01*
X177826510Y-105773404D01*
X177950991Y-105785664D01*
X177975550Y-105785664D01*
X178000000Y-105788072D01*
X178500000Y-105788072D01*
X178524450Y-105785664D01*
X178549009Y-105785664D01*
X178673490Y-105773404D01*
X178769623Y-105754282D01*
X178889319Y-105717973D01*
X178979875Y-105680464D01*
X179090192Y-105621498D01*
X179171691Y-105567042D01*
X179268382Y-105487690D01*
X179337690Y-105418382D01*
X179417042Y-105321691D01*
X179471498Y-105240192D01*
X179500000Y-105186869D01*
X179528502Y-105240192D01*
X179577028Y-105312815D01*
X178674843Y-106215000D01*
X175573196Y-106215000D01*
X175090866Y-105732671D01*
X175139319Y-105717973D01*
X175229875Y-105680464D01*
X175340192Y-105621498D01*
X175421691Y-105567042D01*
X175518382Y-105487690D01*
X175587690Y-105418382D01*
X175667042Y-105321691D01*
X175721498Y-105240192D01*
X175780464Y-105129875D01*
X175817973Y-105039319D01*
X175854282Y-104919623D01*
X175873404Y-104823490D01*
X175885664Y-104699009D01*
X175885664Y-104674450D01*
X175888072Y-104650000D01*
X175888072Y-104150000D01*
X175875812Y-104025518D01*
X175868071Y-104000000D01*
X175875812Y-103974482D01*
X175888072Y-103850000D01*
X175888072Y-103350000D01*
X175885664Y-103325550D01*
X175885664Y-103300991D01*
X175873404Y-103176510D01*
X175854282Y-103080377D01*
X175817973Y-102960681D01*
X175780464Y-102870125D01*
X175721498Y-102759808D01*
X175667042Y-102678309D01*
X175587690Y-102581618D01*
X175518382Y-102512310D01*
X175421691Y-102432958D01*
X175340192Y-102378502D01*
X175229875Y-102319536D01*
X175139319Y-102282027D01*
X175019623Y-102245718D01*
X174923490Y-102226596D01*
X174799009Y-102214336D01*
X174785000Y-102214336D01*
X174785000Y-102148061D01*
X174762511Y-102035000D01*
X175174843Y-102035000D01*
X175965001Y-102825159D01*
%TA.AperFunction,Conductor*%
D31*
G36*
X175965001Y-102825159D02*
G01*
X175965000Y-103859039D01*
X175961203Y-103897592D01*
X175965000Y-103936145D01*
X175965000Y-103936152D01*
X175976359Y-104051478D01*
X176021246Y-104199451D01*
X176094138Y-104335824D01*
X176192236Y-104455356D01*
X176222190Y-104479939D01*
X176920061Y-105177810D01*
X176944644Y-105207764D01*
X177064175Y-105305862D01*
X177076941Y-105312685D01*
X177082958Y-105321691D01*
X177162310Y-105418382D01*
X177231618Y-105487690D01*
X177328309Y-105567042D01*
X177409808Y-105621498D01*
X177520125Y-105680464D01*
X177610681Y-105717973D01*
X177730377Y-105754282D01*
X177826510Y-105773404D01*
X177950991Y-105785664D01*
X177975550Y-105785664D01*
X178000000Y-105788072D01*
X178500000Y-105788072D01*
X178524450Y-105785664D01*
X178549009Y-105785664D01*
X178673490Y-105773404D01*
X178769623Y-105754282D01*
X178889319Y-105717973D01*
X178979875Y-105680464D01*
X179090192Y-105621498D01*
X179171691Y-105567042D01*
X179268382Y-105487690D01*
X179337690Y-105418382D01*
X179417042Y-105321691D01*
X179471498Y-105240192D01*
X179500000Y-105186869D01*
X179528502Y-105240192D01*
X179577028Y-105312815D01*
X178674843Y-106215000D01*
X175573196Y-106215000D01*
X175090866Y-105732671D01*
X175139319Y-105717973D01*
X175229875Y-105680464D01*
X175340192Y-105621498D01*
X175421691Y-105567042D01*
X175518382Y-105487690D01*
X175587690Y-105418382D01*
X175667042Y-105321691D01*
X175721498Y-105240192D01*
X175780464Y-105129875D01*
X175817973Y-105039319D01*
X175854282Y-104919623D01*
X175873404Y-104823490D01*
X175885664Y-104699009D01*
X175885664Y-104674450D01*
X175888072Y-104650000D01*
X175888072Y-104150000D01*
X175875812Y-104025518D01*
X175868071Y-104000000D01*
X175875812Y-103974482D01*
X175888072Y-103850000D01*
X175888072Y-103350000D01*
X175885664Y-103325550D01*
X175885664Y-103300991D01*
X175873404Y-103176510D01*
X175854282Y-103080377D01*
X175817973Y-102960681D01*
X175780464Y-102870125D01*
X175721498Y-102759808D01*
X175667042Y-102678309D01*
X175587690Y-102581618D01*
X175518382Y-102512310D01*
X175421691Y-102432958D01*
X175340192Y-102378502D01*
X175229875Y-102319536D01*
X175139319Y-102282027D01*
X175019623Y-102245718D01*
X174923490Y-102226596D01*
X174799009Y-102214336D01*
X174785000Y-102214336D01*
X174785000Y-102148061D01*
X174762511Y-102035000D01*
X175174843Y-102035000D01*
X175965001Y-102825159D01*
G37*
%TD.AperFunction*%
D30*
X168765001Y-103007252D02*
X168579937Y-102822188D01*
X168555356Y-102792236D01*
X168435825Y-102694138D01*
X168423059Y-102687315D01*
X168417042Y-102678309D01*
X168337690Y-102581618D01*
X168268382Y-102512310D01*
X168171691Y-102432958D01*
X168090192Y-102378502D01*
X167979875Y-102319536D01*
X167889319Y-102282027D01*
X167769623Y-102245718D01*
X167673490Y-102226596D01*
X167549009Y-102214336D01*
X167524450Y-102214336D01*
X167504989Y-102212419D01*
X167871194Y-101846215D01*
X167899239Y-101823199D01*
X167991088Y-101711281D01*
X168014647Y-101667205D01*
X168059338Y-101583595D01*
X168101366Y-101445046D01*
X168115557Y-101300961D01*
X168112001Y-101264856D01*
X168112001Y-100775072D01*
X168150657Y-100782761D01*
X168354535Y-100782761D01*
X168554494Y-100742987D01*
X168742852Y-100664966D01*
X168765000Y-100650167D01*
X168765001Y-103007252D01*
%TA.AperFunction,Conductor*%
D31*
G36*
X168765001Y-103007252D02*
G01*
X168579937Y-102822188D01*
X168555356Y-102792236D01*
X168435825Y-102694138D01*
X168423059Y-102687315D01*
X168417042Y-102678309D01*
X168337690Y-102581618D01*
X168268382Y-102512310D01*
X168171691Y-102432958D01*
X168090192Y-102378502D01*
X167979875Y-102319536D01*
X167889319Y-102282027D01*
X167769623Y-102245718D01*
X167673490Y-102226596D01*
X167549009Y-102214336D01*
X167524450Y-102214336D01*
X167504989Y-102212419D01*
X167871194Y-101846215D01*
X167899239Y-101823199D01*
X167991088Y-101711281D01*
X168014647Y-101667205D01*
X168059338Y-101583595D01*
X168101366Y-101445046D01*
X168115557Y-101300961D01*
X168112001Y-101264856D01*
X168112001Y-100775072D01*
X168150657Y-100782761D01*
X168354535Y-100782761D01*
X168554494Y-100742987D01*
X168742852Y-100664966D01*
X168765000Y-100650167D01*
X168765001Y-103007252D01*
G37*
%TD.AperFunction*%
D30*
X157264270Y-89272019D02*
X157196063Y-89340226D01*
X157082795Y-89509744D01*
X157004774Y-89698102D01*
X156965000Y-89898061D01*
X156965000Y-90101939D01*
X157004774Y-90301898D01*
X157082795Y-90490256D01*
X157196063Y-90659774D01*
X157215000Y-90678711D01*
X157215001Y-102561437D01*
X157211203Y-102600000D01*
X157213266Y-102620944D01*
X157167205Y-102509744D01*
X157053937Y-102340226D01*
X156985000Y-102271289D01*
X156985000Y-102036105D01*
X156988556Y-102000000D01*
X156974365Y-101855915D01*
X156960802Y-101811203D01*
X156932337Y-101717367D01*
X156864087Y-101589680D01*
X156772238Y-101477762D01*
X156744193Y-101454746D01*
X155735000Y-100445554D01*
X155735000Y-99978711D01*
X155803937Y-99909774D01*
X155917205Y-99740256D01*
X155995226Y-99551898D01*
X156035000Y-99351939D01*
X156035000Y-99148061D01*
X155995226Y-98948102D01*
X155917205Y-98759744D01*
X155827172Y-98625000D01*
X155917205Y-98490256D01*
X155995226Y-98301898D01*
X156035000Y-98101939D01*
X156035000Y-97898061D01*
X155995226Y-97698102D01*
X155917205Y-97509744D01*
X155803937Y-97340226D01*
X155659774Y-97196063D01*
X155490256Y-97082795D01*
X155301898Y-97004774D01*
X155101939Y-96965000D01*
X155035000Y-96965000D01*
X155035000Y-95577119D01*
X155177809Y-95434310D01*
X155207763Y-95409727D01*
X155305861Y-95290196D01*
X155378753Y-95153823D01*
X155423640Y-95005850D01*
X155434999Y-94890524D01*
X155434999Y-94890517D01*
X155438796Y-94851964D01*
X155434999Y-94813411D01*
X155434999Y-87442748D01*
X157264270Y-89272019D01*
%TA.AperFunction,Conductor*%
D31*
G36*
X157264270Y-89272019D02*
G01*
X157196063Y-89340226D01*
X157082795Y-89509744D01*
X157004774Y-89698102D01*
X156965000Y-89898061D01*
X156965000Y-90101939D01*
X157004774Y-90301898D01*
X157082795Y-90490256D01*
X157196063Y-90659774D01*
X157215000Y-90678711D01*
X157215001Y-102561437D01*
X157211203Y-102600000D01*
X157213266Y-102620944D01*
X157167205Y-102509744D01*
X157053937Y-102340226D01*
X156985000Y-102271289D01*
X156985000Y-102036105D01*
X156988556Y-102000000D01*
X156974365Y-101855915D01*
X156960802Y-101811203D01*
X156932337Y-101717367D01*
X156864087Y-101589680D01*
X156772238Y-101477762D01*
X156744193Y-101454746D01*
X155735000Y-100445554D01*
X155735000Y-99978711D01*
X155803937Y-99909774D01*
X155917205Y-99740256D01*
X155995226Y-99551898D01*
X156035000Y-99351939D01*
X156035000Y-99148061D01*
X155995226Y-98948102D01*
X155917205Y-98759744D01*
X155827172Y-98625000D01*
X155917205Y-98490256D01*
X155995226Y-98301898D01*
X156035000Y-98101939D01*
X156035000Y-97898061D01*
X155995226Y-97698102D01*
X155917205Y-97509744D01*
X155803937Y-97340226D01*
X155659774Y-97196063D01*
X155490256Y-97082795D01*
X155301898Y-97004774D01*
X155101939Y-96965000D01*
X155035000Y-96965000D01*
X155035000Y-95577119D01*
X155177809Y-95434310D01*
X155207763Y-95409727D01*
X155305861Y-95290196D01*
X155378753Y-95153823D01*
X155423640Y-95005850D01*
X155434999Y-94890524D01*
X155434999Y-94890517D01*
X155438796Y-94851964D01*
X155434999Y-94813411D01*
X155434999Y-87442748D01*
X157264270Y-89272019D01*
G37*
%TD.AperFunction*%
D30*
X176486899Y-99747057D02*
X176448102Y-99754774D01*
X176259744Y-99832795D01*
X176090226Y-99946063D01*
X175946063Y-100090226D01*
X175832795Y-100259744D01*
X175754774Y-100448102D01*
X175743732Y-100503613D01*
X175653887Y-100476359D01*
X175538561Y-100465000D01*
X175538553Y-100465000D01*
X175500000Y-100461203D01*
X175461447Y-100465000D01*
X174874869Y-100465000D01*
X174990256Y-100417205D01*
X175159774Y-100303937D01*
X175303937Y-100159774D01*
X175417205Y-99990256D01*
X175495226Y-99801898D01*
X175535000Y-99601939D01*
X175535000Y-99398061D01*
X175495226Y-99198102D01*
X175417205Y-99009744D01*
X175303937Y-98840226D01*
X175235000Y-98771289D01*
X175235000Y-98728711D01*
X175303937Y-98659774D01*
X175342261Y-98602418D01*
X176486899Y-99747057D01*
%TA.AperFunction,Conductor*%
D31*
G36*
X176486899Y-99747057D02*
G01*
X176448102Y-99754774D01*
X176259744Y-99832795D01*
X176090226Y-99946063D01*
X175946063Y-100090226D01*
X175832795Y-100259744D01*
X175754774Y-100448102D01*
X175743732Y-100503613D01*
X175653887Y-100476359D01*
X175538561Y-100465000D01*
X175538553Y-100465000D01*
X175500000Y-100461203D01*
X175461447Y-100465000D01*
X174874869Y-100465000D01*
X174990256Y-100417205D01*
X175159774Y-100303937D01*
X175303937Y-100159774D01*
X175417205Y-99990256D01*
X175495226Y-99801898D01*
X175535000Y-99601939D01*
X175535000Y-99398061D01*
X175495226Y-99198102D01*
X175417205Y-99009744D01*
X175303937Y-98840226D01*
X175235000Y-98771289D01*
X175235000Y-98728711D01*
X175303937Y-98659774D01*
X175342261Y-98602418D01*
X176486899Y-99747057D01*
G37*
%TD.AperFunction*%
D30*
X178689830Y-78510225D02*
X180500000Y-80320395D01*
X180514143Y-80306253D01*
X180693748Y-80485858D01*
X180679605Y-80500000D01*
X182489775Y-82310170D01*
X182590001Y-82248016D01*
X182590000Y-100394199D01*
X182553937Y-100340226D01*
X182409774Y-100196063D01*
X182240256Y-100082795D01*
X182051898Y-100004774D01*
X181851939Y-99965000D01*
X181648061Y-99965000D01*
X181537705Y-99986951D01*
X181535000Y-99959482D01*
X181535000Y-99959477D01*
X181528339Y-99891845D01*
X181523642Y-99844151D01*
X181478754Y-99696178D01*
X181450910Y-99644085D01*
X181405862Y-99559805D01*
X181347389Y-99488556D01*
X181332345Y-99470225D01*
X181332342Y-99470222D01*
X181307764Y-99440274D01*
X181277816Y-99415696D01*
X179763676Y-97901556D01*
X179909774Y-97803937D01*
X180053937Y-97659774D01*
X180167205Y-97490256D01*
X180245000Y-97302444D01*
X180245000Y-97356863D01*
X180286696Y-97566483D01*
X180368485Y-97763940D01*
X180487225Y-97941647D01*
X180638353Y-98092775D01*
X180816060Y-98211515D01*
X181013517Y-98293304D01*
X181223137Y-98335000D01*
X181436863Y-98335000D01*
X181646483Y-98293304D01*
X181843940Y-98211515D01*
X182021647Y-98092775D01*
X182172775Y-97941647D01*
X182291515Y-97763940D01*
X182373304Y-97566483D01*
X182415000Y-97356863D01*
X182415000Y-97143137D01*
X182373304Y-96933517D01*
X182291515Y-96736060D01*
X182172775Y-96558353D01*
X182021647Y-96407225D01*
X181843940Y-96288485D01*
X181646483Y-96206696D01*
X181436863Y-96165000D01*
X181223137Y-96165000D01*
X181013517Y-96206696D01*
X180816060Y-96288485D01*
X180725801Y-96348794D01*
X180745226Y-96301898D01*
X180785000Y-96101939D01*
X180785000Y-95898061D01*
X180745226Y-95698102D01*
X180667205Y-95509744D01*
X180553937Y-95340226D01*
X180409774Y-95196063D01*
X180240256Y-95082795D01*
X180085001Y-95018486D01*
X180085001Y-94143137D01*
X180245000Y-94143137D01*
X180245000Y-94356863D01*
X180286696Y-94566483D01*
X180368485Y-94763940D01*
X180487225Y-94941647D01*
X180638353Y-95092775D01*
X180816060Y-95211515D01*
X181013517Y-95293304D01*
X181223137Y-95335000D01*
X181436863Y-95335000D01*
X181646483Y-95293304D01*
X181843940Y-95211515D01*
X182021647Y-95092775D01*
X182172775Y-94941647D01*
X182291515Y-94763940D01*
X182373304Y-94566483D01*
X182415000Y-94356863D01*
X182415000Y-94143137D01*
X182373304Y-93933517D01*
X182291515Y-93736060D01*
X182172775Y-93558353D01*
X182021647Y-93407225D01*
X181843940Y-93288485D01*
X181646483Y-93206696D01*
X181436863Y-93165000D01*
X181223137Y-93165000D01*
X181013517Y-93206696D01*
X180816060Y-93288485D01*
X180638353Y-93407225D01*
X180487225Y-93558353D01*
X180368485Y-93736060D01*
X180286696Y-93933517D01*
X180245000Y-94143137D01*
X180085001Y-94143137D01*
X180085001Y-90281803D01*
X180208401Y-90298918D01*
X180373000Y-90133762D01*
X180373000Y-89377000D01*
X180627000Y-89377000D01*
X180627000Y-90133762D01*
X180791599Y-90298918D01*
X180995433Y-90270648D01*
X181189836Y-90203155D01*
X181367336Y-90099033D01*
X181521112Y-89962283D01*
X181645255Y-89798160D01*
X181734994Y-89612972D01*
X181744666Y-89536123D01*
X181616998Y-89377000D01*
X180627000Y-89377000D01*
X180373000Y-89377000D01*
X180353000Y-89377000D01*
X180353000Y-89123000D01*
X180373000Y-89123000D01*
X180373000Y-89103000D01*
X180627000Y-89103000D01*
X180627000Y-89123000D01*
X181616998Y-89123000D01*
X181744666Y-88963877D01*
X181734994Y-88887028D01*
X181645255Y-88701840D01*
X181581791Y-88617938D01*
X181614734Y-88577797D01*
X181710841Y-88397993D01*
X181770024Y-88202895D01*
X181790007Y-88000000D01*
X181770024Y-87797105D01*
X181710841Y-87602007D01*
X181614734Y-87422203D01*
X181575996Y-87375000D01*
X181614734Y-87327797D01*
X181710841Y-87147993D01*
X181770024Y-86952895D01*
X181790007Y-86750000D01*
X181770024Y-86547105D01*
X181710841Y-86352007D01*
X181625259Y-86191894D01*
X181646831Y-86165608D01*
X181724278Y-86020716D01*
X181771969Y-85863500D01*
X181788072Y-85700000D01*
X181788072Y-85300000D01*
X181771969Y-85136500D01*
X181724278Y-84979284D01*
X181646831Y-84834392D01*
X181542606Y-84707394D01*
X181415608Y-84603169D01*
X181270716Y-84525722D01*
X181113500Y-84478031D01*
X180950000Y-84461928D01*
X180050000Y-84461928D01*
X179886500Y-84478031D01*
X179729284Y-84525722D01*
X179584392Y-84603169D01*
X179457394Y-84707394D01*
X179353169Y-84834392D01*
X179275722Y-84979284D01*
X179228031Y-85136500D01*
X179211928Y-85300000D01*
X179211928Y-85700000D01*
X179228031Y-85863500D01*
X179275722Y-86020716D01*
X179353169Y-86165608D01*
X179374741Y-86191894D01*
X179289159Y-86352007D01*
X179229976Y-86547105D01*
X179209993Y-86750000D01*
X179229976Y-86952895D01*
X179289159Y-87147993D01*
X179385266Y-87327797D01*
X179424004Y-87375000D01*
X179385266Y-87422203D01*
X179351278Y-87485791D01*
X178362001Y-86496515D01*
X178362001Y-86129925D01*
X178365556Y-86093828D01*
X178362001Y-86057731D01*
X178362001Y-86057724D01*
X178351366Y-85949744D01*
X178349488Y-85943551D01*
X178331807Y-85885266D01*
X178309338Y-85811196D01*
X178241088Y-85683509D01*
X178149239Y-85571591D01*
X178121194Y-85548575D01*
X175063697Y-82491078D01*
X175071865Y-82489775D01*
X178689830Y-82489775D01*
X178929976Y-82877018D01*
X179423877Y-83137641D01*
X179959133Y-83296901D01*
X180515174Y-83348678D01*
X181070632Y-83290981D01*
X181604161Y-83126028D01*
X182070024Y-82877018D01*
X182310170Y-82489775D01*
X180500000Y-80679605D01*
X178689830Y-82489775D01*
X175071865Y-82489775D01*
X175074868Y-82489296D01*
X175310401Y-82402105D01*
X175396598Y-82356031D01*
X175448771Y-82128376D01*
X174750000Y-81429605D01*
X174735858Y-81443748D01*
X174556253Y-81264143D01*
X174570395Y-81250000D01*
X174929605Y-81250000D01*
X175628376Y-81948771D01*
X175856031Y-81896598D01*
X175960924Y-81668399D01*
X176019282Y-81424119D01*
X176028862Y-81173149D01*
X175989296Y-80925132D01*
X175902105Y-80689599D01*
X175856031Y-80603402D01*
X175628376Y-80551229D01*
X174929605Y-81250000D01*
X174570395Y-81250000D01*
X173871624Y-80551229D01*
X173804043Y-80566717D01*
X173799338Y-80551206D01*
X173731088Y-80423519D01*
X173688499Y-80371624D01*
X174051229Y-80371624D01*
X174750000Y-81070395D01*
X175305221Y-80515174D01*
X177651322Y-80515174D01*
X177709019Y-81070632D01*
X177873972Y-81604161D01*
X178122982Y-82070024D01*
X178510225Y-82310170D01*
X180320395Y-80500000D01*
X178510225Y-78689830D01*
X178122982Y-78929976D01*
X177862359Y-79423877D01*
X177703099Y-79959133D01*
X177651322Y-80515174D01*
X175305221Y-80515174D01*
X175448771Y-80371624D01*
X175396598Y-80143969D01*
X175168399Y-80039076D01*
X174924119Y-79980718D01*
X174673149Y-79971138D01*
X174425132Y-80010704D01*
X174189599Y-80097895D01*
X174103402Y-80143969D01*
X174051229Y-80371624D01*
X173688499Y-80371624D01*
X173639239Y-80311601D01*
X173611188Y-80288580D01*
X173211420Y-79888812D01*
X173188399Y-79860761D01*
X173076481Y-79768912D01*
X172948794Y-79700662D01*
X172810246Y-79658634D01*
X172702266Y-79647999D01*
X172666161Y-79644443D01*
X172630056Y-79647999D01*
X171869943Y-79647999D01*
X171833838Y-79644443D01*
X171689753Y-79658634D01*
X171647725Y-79671383D01*
X171551206Y-79700662D01*
X171423519Y-79768912D01*
X171311601Y-79860761D01*
X171288580Y-79888812D01*
X170921007Y-80256385D01*
X170920537Y-80255506D01*
X170841185Y-80158815D01*
X170744494Y-80079463D01*
X170634180Y-80020498D01*
X170514482Y-79984188D01*
X170390000Y-79971928D01*
X169110000Y-79971928D01*
X168985518Y-79984188D01*
X168865820Y-80020498D01*
X168755506Y-80079463D01*
X168658815Y-80158815D01*
X168579463Y-80255506D01*
X168520498Y-80365820D01*
X168484188Y-80485518D01*
X168471928Y-80610000D01*
X168471928Y-81890000D01*
X168484188Y-82014482D01*
X168520498Y-82134180D01*
X168579463Y-82244494D01*
X168658815Y-82341185D01*
X168755506Y-82420537D01*
X168865820Y-82479502D01*
X168985518Y-82515812D01*
X169110000Y-82528072D01*
X169481641Y-82528072D01*
X168244714Y-83765000D01*
X165978711Y-83765000D01*
X165909774Y-83696063D01*
X165740256Y-83582795D01*
X165551898Y-83504774D01*
X165351939Y-83465000D01*
X165148061Y-83465000D01*
X164948102Y-83504774D01*
X164759744Y-83582795D01*
X164590226Y-83696063D01*
X164446063Y-83840226D01*
X164332795Y-84009744D01*
X164254774Y-84198102D01*
X164215000Y-84398061D01*
X164215000Y-84601939D01*
X164254774Y-84801898D01*
X164332795Y-84990256D01*
X164446063Y-85159774D01*
X164590226Y-85303937D01*
X164759744Y-85417205D01*
X164804217Y-85435626D01*
X161275507Y-88964336D01*
X161274450Y-88964336D01*
X161250000Y-88961928D01*
X160750000Y-88961928D01*
X160725550Y-88964336D01*
X160700991Y-88964336D01*
X160576510Y-88976596D01*
X160480377Y-88995718D01*
X160360681Y-89032027D01*
X160270125Y-89069536D01*
X160159808Y-89128502D01*
X160078309Y-89182958D01*
X159981618Y-89262310D01*
X159912310Y-89331618D01*
X159832958Y-89428309D01*
X159778502Y-89509808D01*
X159758951Y-89546385D01*
X156285000Y-86072435D01*
X156285000Y-82425747D01*
X156321690Y-82401232D01*
X156501232Y-82221690D01*
X156642297Y-82010570D01*
X156739465Y-81775987D01*
X156750000Y-81723023D01*
X156760535Y-81775987D01*
X156857703Y-82010570D01*
X156998768Y-82221690D01*
X157178310Y-82401232D01*
X157389430Y-82542297D01*
X157624013Y-82639465D01*
X157873045Y-82689000D01*
X158126955Y-82689000D01*
X158375987Y-82639465D01*
X158610570Y-82542297D01*
X158821690Y-82401232D01*
X159001232Y-82221690D01*
X159142297Y-82010570D01*
X159239465Y-81775987D01*
X159250000Y-81723023D01*
X159260535Y-81775987D01*
X159357703Y-82010570D01*
X159498768Y-82221690D01*
X159678310Y-82401232D01*
X159889430Y-82542297D01*
X160124013Y-82639465D01*
X160373045Y-82689000D01*
X160626955Y-82689000D01*
X160875987Y-82639465D01*
X161110570Y-82542297D01*
X161321690Y-82401232D01*
X161501232Y-82221690D01*
X161642297Y-82010570D01*
X161709647Y-81847974D01*
X161707928Y-82054000D01*
X161720188Y-82178482D01*
X161756498Y-82298180D01*
X161815463Y-82408494D01*
X161894815Y-82505185D01*
X161991506Y-82584537D01*
X162101820Y-82643502D01*
X162221518Y-82679812D01*
X162346000Y-82692072D01*
X162714250Y-82689000D01*
X162873000Y-82530250D01*
X162873000Y-81527000D01*
X163127000Y-81527000D01*
X163127000Y-82530250D01*
X163285750Y-82689000D01*
X163654000Y-82692072D01*
X163778482Y-82679812D01*
X163898180Y-82643502D01*
X164008494Y-82584537D01*
X164105185Y-82505185D01*
X164184537Y-82408494D01*
X164243502Y-82298180D01*
X164279812Y-82178482D01*
X164292072Y-82054000D01*
X164289000Y-81685750D01*
X164130250Y-81527000D01*
X163127000Y-81527000D01*
X162873000Y-81527000D01*
X162853000Y-81527000D01*
X162853000Y-81273000D01*
X162873000Y-81273000D01*
X162873000Y-80269750D01*
X163127000Y-80269750D01*
X163127000Y-81273000D01*
X164130250Y-81273000D01*
X164289000Y-81114250D01*
X164292072Y-80746000D01*
X164279812Y-80621518D01*
X164243502Y-80501820D01*
X164184537Y-80391506D01*
X164105185Y-80294815D01*
X164008494Y-80215463D01*
X163898180Y-80156498D01*
X163778482Y-80120188D01*
X163654000Y-80107928D01*
X163285750Y-80111000D01*
X163127000Y-80269750D01*
X162873000Y-80269750D01*
X162714250Y-80111000D01*
X162346000Y-80107928D01*
X162221518Y-80120188D01*
X162101820Y-80156498D01*
X161991506Y-80215463D01*
X161894815Y-80294815D01*
X161815463Y-80391506D01*
X161756498Y-80501820D01*
X161720188Y-80621518D01*
X161707928Y-80746000D01*
X161709647Y-80952026D01*
X161642297Y-80789430D01*
X161635000Y-80778509D01*
X161635000Y-79305743D01*
X161640490Y-79249999D01*
X161635000Y-79194255D01*
X161635000Y-79194248D01*
X161618577Y-79027501D01*
X161553676Y-78813553D01*
X161448284Y-78616377D01*
X161306449Y-78443551D01*
X161265567Y-78410000D01*
X178751984Y-78410000D01*
X178689830Y-78510225D01*
%TA.AperFunction,Conductor*%
D31*
G36*
X178689830Y-78510225D02*
G01*
X180500000Y-80320395D01*
X180514143Y-80306253D01*
X180693748Y-80485858D01*
X180679605Y-80500000D01*
X182489775Y-82310170D01*
X182590001Y-82248016D01*
X182590000Y-100394199D01*
X182553937Y-100340226D01*
X182409774Y-100196063D01*
X182240256Y-100082795D01*
X182051898Y-100004774D01*
X181851939Y-99965000D01*
X181648061Y-99965000D01*
X181537705Y-99986951D01*
X181535000Y-99959482D01*
X181535000Y-99959477D01*
X181528339Y-99891845D01*
X181523642Y-99844151D01*
X181478754Y-99696178D01*
X181450910Y-99644085D01*
X181405862Y-99559805D01*
X181347389Y-99488556D01*
X181332345Y-99470225D01*
X181332342Y-99470222D01*
X181307764Y-99440274D01*
X181277816Y-99415696D01*
X179763676Y-97901556D01*
X179909774Y-97803937D01*
X180053937Y-97659774D01*
X180167205Y-97490256D01*
X180245000Y-97302444D01*
X180245000Y-97356863D01*
X180286696Y-97566483D01*
X180368485Y-97763940D01*
X180487225Y-97941647D01*
X180638353Y-98092775D01*
X180816060Y-98211515D01*
X181013517Y-98293304D01*
X181223137Y-98335000D01*
X181436863Y-98335000D01*
X181646483Y-98293304D01*
X181843940Y-98211515D01*
X182021647Y-98092775D01*
X182172775Y-97941647D01*
X182291515Y-97763940D01*
X182373304Y-97566483D01*
X182415000Y-97356863D01*
X182415000Y-97143137D01*
X182373304Y-96933517D01*
X182291515Y-96736060D01*
X182172775Y-96558353D01*
X182021647Y-96407225D01*
X181843940Y-96288485D01*
X181646483Y-96206696D01*
X181436863Y-96165000D01*
X181223137Y-96165000D01*
X181013517Y-96206696D01*
X180816060Y-96288485D01*
X180725801Y-96348794D01*
X180745226Y-96301898D01*
X180785000Y-96101939D01*
X180785000Y-95898061D01*
X180745226Y-95698102D01*
X180667205Y-95509744D01*
X180553937Y-95340226D01*
X180409774Y-95196063D01*
X180240256Y-95082795D01*
X180085001Y-95018486D01*
X180085001Y-94143137D01*
X180245000Y-94143137D01*
X180245000Y-94356863D01*
X180286696Y-94566483D01*
X180368485Y-94763940D01*
X180487225Y-94941647D01*
X180638353Y-95092775D01*
X180816060Y-95211515D01*
X181013517Y-95293304D01*
X181223137Y-95335000D01*
X181436863Y-95335000D01*
X181646483Y-95293304D01*
X181843940Y-95211515D01*
X182021647Y-95092775D01*
X182172775Y-94941647D01*
X182291515Y-94763940D01*
X182373304Y-94566483D01*
X182415000Y-94356863D01*
X182415000Y-94143137D01*
X182373304Y-93933517D01*
X182291515Y-93736060D01*
X182172775Y-93558353D01*
X182021647Y-93407225D01*
X181843940Y-93288485D01*
X181646483Y-93206696D01*
X181436863Y-93165000D01*
X181223137Y-93165000D01*
X181013517Y-93206696D01*
X180816060Y-93288485D01*
X180638353Y-93407225D01*
X180487225Y-93558353D01*
X180368485Y-93736060D01*
X180286696Y-93933517D01*
X180245000Y-94143137D01*
X180085001Y-94143137D01*
X180085001Y-90281803D01*
X180208401Y-90298918D01*
X180373000Y-90133762D01*
X180373000Y-89377000D01*
X180627000Y-89377000D01*
X180627000Y-90133762D01*
X180791599Y-90298918D01*
X180995433Y-90270648D01*
X181189836Y-90203155D01*
X181367336Y-90099033D01*
X181521112Y-89962283D01*
X181645255Y-89798160D01*
X181734994Y-89612972D01*
X181744666Y-89536123D01*
X181616998Y-89377000D01*
X180627000Y-89377000D01*
X180373000Y-89377000D01*
X180353000Y-89377000D01*
X180353000Y-89123000D01*
X180373000Y-89123000D01*
X180373000Y-89103000D01*
X180627000Y-89103000D01*
X180627000Y-89123000D01*
X181616998Y-89123000D01*
X181744666Y-88963877D01*
X181734994Y-88887028D01*
X181645255Y-88701840D01*
X181581791Y-88617938D01*
X181614734Y-88577797D01*
X181710841Y-88397993D01*
X181770024Y-88202895D01*
X181790007Y-88000000D01*
X181770024Y-87797105D01*
X181710841Y-87602007D01*
X181614734Y-87422203D01*
X181575996Y-87375000D01*
X181614734Y-87327797D01*
X181710841Y-87147993D01*
X181770024Y-86952895D01*
X181790007Y-86750000D01*
X181770024Y-86547105D01*
X181710841Y-86352007D01*
X181625259Y-86191894D01*
X181646831Y-86165608D01*
X181724278Y-86020716D01*
X181771969Y-85863500D01*
X181788072Y-85700000D01*
X181788072Y-85300000D01*
X181771969Y-85136500D01*
X181724278Y-84979284D01*
X181646831Y-84834392D01*
X181542606Y-84707394D01*
X181415608Y-84603169D01*
X181270716Y-84525722D01*
X181113500Y-84478031D01*
X180950000Y-84461928D01*
X180050000Y-84461928D01*
X179886500Y-84478031D01*
X179729284Y-84525722D01*
X179584392Y-84603169D01*
X179457394Y-84707394D01*
X179353169Y-84834392D01*
X179275722Y-84979284D01*
X179228031Y-85136500D01*
X179211928Y-85300000D01*
X179211928Y-85700000D01*
X179228031Y-85863500D01*
X179275722Y-86020716D01*
X179353169Y-86165608D01*
X179374741Y-86191894D01*
X179289159Y-86352007D01*
X179229976Y-86547105D01*
X179209993Y-86750000D01*
X179229976Y-86952895D01*
X179289159Y-87147993D01*
X179385266Y-87327797D01*
X179424004Y-87375000D01*
X179385266Y-87422203D01*
X179351278Y-87485791D01*
X178362001Y-86496515D01*
X178362001Y-86129925D01*
X178365556Y-86093828D01*
X178362001Y-86057731D01*
X178362001Y-86057724D01*
X178351366Y-85949744D01*
X178349488Y-85943551D01*
X178331807Y-85885266D01*
X178309338Y-85811196D01*
X178241088Y-85683509D01*
X178149239Y-85571591D01*
X178121194Y-85548575D01*
X175063697Y-82491078D01*
X175071865Y-82489775D01*
X178689830Y-82489775D01*
X178929976Y-82877018D01*
X179423877Y-83137641D01*
X179959133Y-83296901D01*
X180515174Y-83348678D01*
X181070632Y-83290981D01*
X181604161Y-83126028D01*
X182070024Y-82877018D01*
X182310170Y-82489775D01*
X180500000Y-80679605D01*
X178689830Y-82489775D01*
X175071865Y-82489775D01*
X175074868Y-82489296D01*
X175310401Y-82402105D01*
X175396598Y-82356031D01*
X175448771Y-82128376D01*
X174750000Y-81429605D01*
X174735858Y-81443748D01*
X174556253Y-81264143D01*
X174570395Y-81250000D01*
X174929605Y-81250000D01*
X175628376Y-81948771D01*
X175856031Y-81896598D01*
X175960924Y-81668399D01*
X176019282Y-81424119D01*
X176028862Y-81173149D01*
X175989296Y-80925132D01*
X175902105Y-80689599D01*
X175856031Y-80603402D01*
X175628376Y-80551229D01*
X174929605Y-81250000D01*
X174570395Y-81250000D01*
X173871624Y-80551229D01*
X173804043Y-80566717D01*
X173799338Y-80551206D01*
X173731088Y-80423519D01*
X173688499Y-80371624D01*
X174051229Y-80371624D01*
X174750000Y-81070395D01*
X175305221Y-80515174D01*
X177651322Y-80515174D01*
X177709019Y-81070632D01*
X177873972Y-81604161D01*
X178122982Y-82070024D01*
X178510225Y-82310170D01*
X180320395Y-80500000D01*
X178510225Y-78689830D01*
X178122982Y-78929976D01*
X177862359Y-79423877D01*
X177703099Y-79959133D01*
X177651322Y-80515174D01*
X175305221Y-80515174D01*
X175448771Y-80371624D01*
X175396598Y-80143969D01*
X175168399Y-80039076D01*
X174924119Y-79980718D01*
X174673149Y-79971138D01*
X174425132Y-80010704D01*
X174189599Y-80097895D01*
X174103402Y-80143969D01*
X174051229Y-80371624D01*
X173688499Y-80371624D01*
X173639239Y-80311601D01*
X173611188Y-80288580D01*
X173211420Y-79888812D01*
X173188399Y-79860761D01*
X173076481Y-79768912D01*
X172948794Y-79700662D01*
X172810246Y-79658634D01*
X172702266Y-79647999D01*
X172666161Y-79644443D01*
X172630056Y-79647999D01*
X171869943Y-79647999D01*
X171833838Y-79644443D01*
X171689753Y-79658634D01*
X171647725Y-79671383D01*
X171551206Y-79700662D01*
X171423519Y-79768912D01*
X171311601Y-79860761D01*
X171288580Y-79888812D01*
X170921007Y-80256385D01*
X170920537Y-80255506D01*
X170841185Y-80158815D01*
X170744494Y-80079463D01*
X170634180Y-80020498D01*
X170514482Y-79984188D01*
X170390000Y-79971928D01*
X169110000Y-79971928D01*
X168985518Y-79984188D01*
X168865820Y-80020498D01*
X168755506Y-80079463D01*
X168658815Y-80158815D01*
X168579463Y-80255506D01*
X168520498Y-80365820D01*
X168484188Y-80485518D01*
X168471928Y-80610000D01*
X168471928Y-81890000D01*
X168484188Y-82014482D01*
X168520498Y-82134180D01*
X168579463Y-82244494D01*
X168658815Y-82341185D01*
X168755506Y-82420537D01*
X168865820Y-82479502D01*
X168985518Y-82515812D01*
X169110000Y-82528072D01*
X169481641Y-82528072D01*
X168244714Y-83765000D01*
X165978711Y-83765000D01*
X165909774Y-83696063D01*
X165740256Y-83582795D01*
X165551898Y-83504774D01*
X165351939Y-83465000D01*
X165148061Y-83465000D01*
X164948102Y-83504774D01*
X164759744Y-83582795D01*
X164590226Y-83696063D01*
X164446063Y-83840226D01*
X164332795Y-84009744D01*
X164254774Y-84198102D01*
X164215000Y-84398061D01*
X164215000Y-84601939D01*
X164254774Y-84801898D01*
X164332795Y-84990256D01*
X164446063Y-85159774D01*
X164590226Y-85303937D01*
X164759744Y-85417205D01*
X164804217Y-85435626D01*
X161275507Y-88964336D01*
X161274450Y-88964336D01*
X161250000Y-88961928D01*
X160750000Y-88961928D01*
X160725550Y-88964336D01*
X160700991Y-88964336D01*
X160576510Y-88976596D01*
X160480377Y-88995718D01*
X160360681Y-89032027D01*
X160270125Y-89069536D01*
X160159808Y-89128502D01*
X160078309Y-89182958D01*
X159981618Y-89262310D01*
X159912310Y-89331618D01*
X159832958Y-89428309D01*
X159778502Y-89509808D01*
X159758951Y-89546385D01*
X156285000Y-86072435D01*
X156285000Y-82425747D01*
X156321690Y-82401232D01*
X156501232Y-82221690D01*
X156642297Y-82010570D01*
X156739465Y-81775987D01*
X156750000Y-81723023D01*
X156760535Y-81775987D01*
X156857703Y-82010570D01*
X156998768Y-82221690D01*
X157178310Y-82401232D01*
X157389430Y-82542297D01*
X157624013Y-82639465D01*
X157873045Y-82689000D01*
X158126955Y-82689000D01*
X158375987Y-82639465D01*
X158610570Y-82542297D01*
X158821690Y-82401232D01*
X159001232Y-82221690D01*
X159142297Y-82010570D01*
X159239465Y-81775987D01*
X159250000Y-81723023D01*
X159260535Y-81775987D01*
X159357703Y-82010570D01*
X159498768Y-82221690D01*
X159678310Y-82401232D01*
X159889430Y-82542297D01*
X160124013Y-82639465D01*
X160373045Y-82689000D01*
X160626955Y-82689000D01*
X160875987Y-82639465D01*
X161110570Y-82542297D01*
X161321690Y-82401232D01*
X161501232Y-82221690D01*
X161642297Y-82010570D01*
X161709647Y-81847974D01*
X161707928Y-82054000D01*
X161720188Y-82178482D01*
X161756498Y-82298180D01*
X161815463Y-82408494D01*
X161894815Y-82505185D01*
X161991506Y-82584537D01*
X162101820Y-82643502D01*
X162221518Y-82679812D01*
X162346000Y-82692072D01*
X162714250Y-82689000D01*
X162873000Y-82530250D01*
X162873000Y-81527000D01*
X163127000Y-81527000D01*
X163127000Y-82530250D01*
X163285750Y-82689000D01*
X163654000Y-82692072D01*
X163778482Y-82679812D01*
X163898180Y-82643502D01*
X164008494Y-82584537D01*
X164105185Y-82505185D01*
X164184537Y-82408494D01*
X164243502Y-82298180D01*
X164279812Y-82178482D01*
X164292072Y-82054000D01*
X164289000Y-81685750D01*
X164130250Y-81527000D01*
X163127000Y-81527000D01*
X162873000Y-81527000D01*
X162853000Y-81527000D01*
X162853000Y-81273000D01*
X162873000Y-81273000D01*
X162873000Y-80269750D01*
X163127000Y-80269750D01*
X163127000Y-81273000D01*
X164130250Y-81273000D01*
X164289000Y-81114250D01*
X164292072Y-80746000D01*
X164279812Y-80621518D01*
X164243502Y-80501820D01*
X164184537Y-80391506D01*
X164105185Y-80294815D01*
X164008494Y-80215463D01*
X163898180Y-80156498D01*
X163778482Y-80120188D01*
X163654000Y-80107928D01*
X163285750Y-80111000D01*
X163127000Y-80269750D01*
X162873000Y-80269750D01*
X162714250Y-80111000D01*
X162346000Y-80107928D01*
X162221518Y-80120188D01*
X162101820Y-80156498D01*
X161991506Y-80215463D01*
X161894815Y-80294815D01*
X161815463Y-80391506D01*
X161756498Y-80501820D01*
X161720188Y-80621518D01*
X161707928Y-80746000D01*
X161709647Y-80952026D01*
X161642297Y-80789430D01*
X161635000Y-80778509D01*
X161635000Y-79305743D01*
X161640490Y-79249999D01*
X161635000Y-79194255D01*
X161635000Y-79194248D01*
X161618577Y-79027501D01*
X161553676Y-78813553D01*
X161448284Y-78616377D01*
X161306449Y-78443551D01*
X161265567Y-78410000D01*
X178751984Y-78410000D01*
X178689830Y-78510225D01*
G37*
%TD.AperFunction*%
D30*
X159840226Y-97053937D02*
X160009744Y-97167205D01*
X160198102Y-97245226D01*
X160398061Y-97285000D01*
X160601939Y-97285000D01*
X160801898Y-97245226D01*
X160956830Y-97181051D01*
X158785000Y-99352881D01*
X158785000Y-98035000D01*
X158851939Y-98035000D01*
X159051898Y-97995226D01*
X159240256Y-97917205D01*
X159409774Y-97803937D01*
X159553937Y-97659774D01*
X159667205Y-97490256D01*
X159745226Y-97301898D01*
X159785000Y-97101939D01*
X159785000Y-96998711D01*
X159840226Y-97053937D01*
%TA.AperFunction,Conductor*%
D31*
G36*
X159840226Y-97053937D02*
G01*
X160009744Y-97167205D01*
X160198102Y-97245226D01*
X160398061Y-97285000D01*
X160601939Y-97285000D01*
X160801898Y-97245226D01*
X160956830Y-97181051D01*
X158785000Y-99352881D01*
X158785000Y-98035000D01*
X158851939Y-98035000D01*
X159051898Y-97995226D01*
X159240256Y-97917205D01*
X159409774Y-97803937D01*
X159553937Y-97659774D01*
X159667205Y-97490256D01*
X159745226Y-97301898D01*
X159785000Y-97101939D01*
X159785000Y-96998711D01*
X159840226Y-97053937D01*
G37*
%TD.AperFunction*%
D30*
X178615002Y-88828409D02*
X178615001Y-95563896D01*
X178611445Y-95600001D01*
X178615787Y-95644084D01*
X178625636Y-95744085D01*
X178667664Y-95882633D01*
X178715000Y-95971193D01*
X178715000Y-96101939D01*
X178716888Y-96111430D01*
X178590226Y-96196063D01*
X178446063Y-96340226D01*
X178348444Y-96486324D01*
X177162915Y-95300796D01*
X177303937Y-95159774D01*
X177417205Y-94990256D01*
X177495226Y-94801898D01*
X177535000Y-94601939D01*
X177535000Y-94398061D01*
X177495226Y-94198102D01*
X177417205Y-94009744D01*
X177303937Y-93840226D01*
X177285000Y-93821289D01*
X177285000Y-87498587D01*
X177285151Y-87498557D01*
X178615002Y-88828409D01*
%TA.AperFunction,Conductor*%
D31*
G36*
X178615002Y-88828409D02*
G01*
X178615001Y-95563896D01*
X178611445Y-95600001D01*
X178615787Y-95644084D01*
X178625636Y-95744085D01*
X178667664Y-95882633D01*
X178715000Y-95971193D01*
X178715000Y-96101939D01*
X178716888Y-96111430D01*
X178590226Y-96196063D01*
X178446063Y-96340226D01*
X178348444Y-96486324D01*
X177162915Y-95300796D01*
X177303937Y-95159774D01*
X177417205Y-94990256D01*
X177495226Y-94801898D01*
X177535000Y-94601939D01*
X177535000Y-94398061D01*
X177495226Y-94198102D01*
X177417205Y-94009744D01*
X177303937Y-93840226D01*
X177285000Y-93821289D01*
X177285000Y-87498587D01*
X177285151Y-87498557D01*
X178615002Y-88828409D01*
G37*
%TD.AperFunction*%
D30*
X173911670Y-94269865D02*
X173759744Y-94332795D01*
X173590226Y-94446063D01*
X173498223Y-94538066D01*
X171498036Y-92537879D01*
X171500000Y-92538072D01*
X172000000Y-92538072D01*
X172024450Y-92535664D01*
X172049009Y-92535664D01*
X172165951Y-92524146D01*
X173911670Y-94269865D01*
%TA.AperFunction,Conductor*%
D31*
G36*
X173911670Y-94269865D02*
G01*
X173759744Y-94332795D01*
X173590226Y-94446063D01*
X173498223Y-94538066D01*
X171498036Y-92537879D01*
X171500000Y-92538072D01*
X172000000Y-92538072D01*
X172024450Y-92535664D01*
X172049009Y-92535664D01*
X172165951Y-92524146D01*
X173911670Y-94269865D01*
G37*
%TD.AperFunction*%
D30*
X174648061Y-87035000D02*
X174674843Y-87035000D01*
X174965001Y-87325158D01*
X174965000Y-90071289D01*
X174946063Y-90090226D01*
X174832795Y-90259744D01*
X174754774Y-90448102D01*
X174715000Y-90648061D01*
X174715000Y-90851939D01*
X174754774Y-91051898D01*
X174832795Y-91240256D01*
X174946063Y-91409774D01*
X175090226Y-91553937D01*
X175259744Y-91667205D01*
X175448102Y-91745226D01*
X175648061Y-91785000D01*
X175715001Y-91785000D01*
X175715001Y-93821288D01*
X175699204Y-93837085D01*
X173611138Y-91749019D01*
X174277815Y-91082343D01*
X174307764Y-91057764D01*
X174405862Y-90938233D01*
X174478754Y-90801860D01*
X174494500Y-90749952D01*
X174523641Y-90653888D01*
X174528191Y-90607693D01*
X174535000Y-90538561D01*
X174535000Y-90538554D01*
X174538797Y-90500001D01*
X174535000Y-90461448D01*
X174535000Y-87012511D01*
X174648061Y-87035000D01*
%TA.AperFunction,Conductor*%
D31*
G36*
X174648061Y-87035000D02*
G01*
X174674843Y-87035000D01*
X174965001Y-87325158D01*
X174965000Y-90071289D01*
X174946063Y-90090226D01*
X174832795Y-90259744D01*
X174754774Y-90448102D01*
X174715000Y-90648061D01*
X174715000Y-90851939D01*
X174754774Y-91051898D01*
X174832795Y-91240256D01*
X174946063Y-91409774D01*
X175090226Y-91553937D01*
X175259744Y-91667205D01*
X175448102Y-91745226D01*
X175648061Y-91785000D01*
X175715001Y-91785000D01*
X175715001Y-93821288D01*
X175699204Y-93837085D01*
X173611138Y-91749019D01*
X174277815Y-91082343D01*
X174307764Y-91057764D01*
X174405862Y-90938233D01*
X174478754Y-90801860D01*
X174494500Y-90749952D01*
X174523641Y-90653888D01*
X174528191Y-90607693D01*
X174535000Y-90538561D01*
X174535000Y-90538554D01*
X174538797Y-90500001D01*
X174535000Y-90461448D01*
X174535000Y-87012511D01*
X174648061Y-87035000D01*
G37*
%TD.AperFunction*%
D30*
X172965001Y-89500084D02*
X172917042Y-89428309D01*
X172837690Y-89331618D01*
X172768382Y-89262310D01*
X172671691Y-89182958D01*
X172590192Y-89128502D01*
X172535000Y-89099001D01*
X172535000Y-86512511D01*
X172648061Y-86535000D01*
X172851939Y-86535000D01*
X172965000Y-86512511D01*
X172965001Y-89500084D01*
%TA.AperFunction,Conductor*%
D31*
G36*
X172965001Y-89500084D02*
G01*
X172917042Y-89428309D01*
X172837690Y-89331618D01*
X172768382Y-89262310D01*
X172671691Y-89182958D01*
X172590192Y-89128502D01*
X172535000Y-89099001D01*
X172535000Y-86512511D01*
X172648061Y-86535000D01*
X172851939Y-86535000D01*
X172965000Y-86512511D01*
X172965001Y-89500084D01*
G37*
%TD.AperFunction*%
%TD*%
M02*
