M48
; DRILL file {KiCad 5.1.9-73d0e3b20d~88~ubuntu18.04.1} date Thu Jan 21 10:29:43 2021
; FORMAT={-:-/ absolute / metric / decimal}
; #@! TF.CreationDate,2021-01-21T10:29:43+00:00
; #@! TF.GenerationSoftware,Kicad,Pcbnew,5.1.9-73d0e3b20d~88~ubuntu18.04.1
; #@! TF.FileFunction,Plated,1,4,PTH
FMAT,2
METRIC
T1C0.400
T2C0.500
T3C0.650
T4C0.800
T5C0.850
T6C1.000
T7C1.020
T8C2.200
%
G90
G05
T1
X114.35Y-80.5
X114.35Y-116.5
X114.75Y-83.75
X114.75Y-86.75
X114.75Y-89.75
X114.75Y-92.75
X114.75Y-95.75
X114.75Y-98.75
X114.75Y-101.75
X114.75Y-104.75
X114.75Y-107.75
X114.75Y-110.75
X114.75Y-113.25
X114.833Y-79.333
X114.833Y-81.667
X114.833Y-115.333
X114.833Y-117.667
X116.0Y-78.85
X116.0Y-82.15
X116.0Y-114.85
X116.0Y-118.15
X117.167Y-79.333
X117.167Y-81.667
X117.167Y-115.333
X117.167Y-117.667
X117.65Y-80.5
X117.65Y-116.5
X118.25Y-91.5
X118.25Y-95.25
X118.25Y-97.75
X118.25Y-100.25
X118.25Y-102.75
X118.25Y-105.25
X120.25Y-117.5
X123.25Y-107.5
X123.25Y-117.5
X123.5Y-93.0
X124.5Y-93.0
X125.5Y-93.0
X126.25Y-117.5
X126.5Y-89.0
X126.5Y-90.0
X126.5Y-93.0
X127.5Y-89.0
X127.5Y-90.0
X127.75Y-108.223
X128.5Y-99.5
X129.25Y-117.5
X130.25Y-105.25
X130.25Y-108.223
X132.25Y-117.5
X132.75Y-108.223
X134.5Y-94.75
X135.0Y-85.5
X135.0Y-88.0
X135.0Y-93.0
X135.25Y-117.5
X135.75Y-94.75
X135.75Y-95.75
X136.25Y-85.5
X136.25Y-88.0
X136.5Y-115.5
X137.75Y-85.5
X137.75Y-86.75
X137.75Y-88.0
X137.75Y-105.5
X137.75Y-107.0
X138.25Y-117.5
X139.5Y-100.0
X141.25Y-117.5
X141.75Y-111.0
X142.0Y-96.0
X142.75Y-115.5
X143.25Y-100.5
X144.0Y-111.0
X144.25Y-117.5
X145.25Y-94.0
X146.25Y-111.25
X147.0Y-99.5
X147.25Y-117.5
X148.25Y-99.5
X149.0Y-109.0
X149.75Y-102.0
X150.0Y-86.75
X150.25Y-110.75
X150.25Y-117.5
X151.5Y-108.25
X151.5Y-109.25
X152.0Y-113.75
X152.75Y-91.5
X152.75Y-98.75
X153.0Y-95.5
X153.0Y-102.25
X153.0Y-112.5
X153.25Y-117.5
X153.75Y-94.75
X154.25Y-86.25
X154.25Y-112.0
X155.0Y-98.0
X155.0Y-99.25
X155.75Y-113.5
X156.25Y-96.0
X156.25Y-103.0
X156.25Y-106.25
X156.25Y-117.5
X157.5Y-109.5
X158.0Y-90.0
X158.75Y-97.0
X158.75Y-98.5
X158.75Y-102.0
X158.75Y-113.5
X159.25Y-117.5
X160.25Y-108.5
X160.5Y-96.25
X161.1Y-101.8
X161.5Y-98.75
X161.75Y-110.0
X161.75Y-113.5
X161.979Y-107.521
X162.0Y-106.0
X162.25Y-94.75
X162.25Y-102.25
X162.25Y-117.5
X163.0Y-80.0
X163.0Y-97.75
X163.25Y-102.5
X163.75Y-108.5
X163.937Y-95.25
X164.0Y-107.25
X164.25Y-88.5
X164.25Y-99.0
X164.307Y-98.015
X164.318Y-102.318
X165.0Y-96.25
X165.25Y-84.5
X165.25Y-91.25
X165.25Y-98.0
X165.25Y-117.5
X165.5Y-93.25
X165.5Y-94.554
X165.5Y-112.5
X165.75Y-101.0
X166.0Y-90.25
X166.0Y-99.6
X166.5Y-95.25
X166.75Y-101.0
X166.9Y-98.1
X167.0Y-111.0
X167.25Y-109.854
X167.5Y-91.0
X167.75Y-106.25
X168.0Y-109.0
X168.0Y-111.0
X168.25Y-94.554
X168.25Y-117.5
X168.253Y-99.748
X168.486Y-86.021
X168.75Y-105.0
X168.873Y-102.543
X169.0Y-85.25
X169.5Y-94.5
X170.127Y-96.42
X170.127Y-97.75
X170.25Y-86.0
X170.25Y-101.0
X170.25Y-102.25
X170.25Y-103.25
X170.25Y-104.323
X170.5Y-89.5
X170.75Y-98.446
X171.446Y-94.554
X171.5Y-106.25
X171.5Y-108.5
X171.753Y-99.748
X172.0Y-114.5
X172.25Y-102.25
X172.5Y-105.75
X172.75Y-85.5
X172.75Y-89.25
X173.0Y-87.75
X173.0Y-93.25
X173.25Y-96.75
X173.5Y-97.75
X173.75Y-102.25
X174.25Y-95.25
X174.25Y-117.5
X174.5Y-98.0
X174.5Y-99.5
X174.75Y-80.0
X174.75Y-86.0
X174.75Y-88.25
X174.75Y-110.0
X174.75Y-111.0
X175.0Y-100.5
X175.0Y-102.25
X175.0Y-105.75
X175.0Y-113.25
X175.75Y-90.75
X176.5Y-94.5
X176.75Y-100.75
X177.0Y-86.5
X177.25Y-108.25
X177.25Y-117.5
X178.0Y-93.5
X178.85Y-80.5
X178.85Y-116.5
X179.25Y-97.0
X179.333Y-79.333
X179.333Y-81.667
X179.333Y-115.333
X179.333Y-117.667
X179.5Y-100.75
X179.75Y-96.0
X180.5Y-78.85
X180.5Y-82.15
X180.5Y-90.25
X180.5Y-114.85
X180.5Y-118.15
X181.25Y-112.0
X181.667Y-79.333
X181.667Y-81.667
X181.667Y-115.333
X181.667Y-117.667
X181.75Y-101.0
X182.15Y-80.5
X182.15Y-116.5
T2
X180.5Y-85.5
X180.5Y-86.75
X180.5Y-88.0
X180.5Y-89.25
T3
X148.25Y-115.0
X149.52Y-115.0
X150.79Y-115.0
X152.06Y-115.0
T4
X155.5Y-81.4
X158.0Y-81.4
X160.5Y-81.4
X163.0Y-81.4
T5
X169.75Y-81.25
X172.25Y-81.25
X174.75Y-81.25
T6
X150.25Y-95.75
X150.25Y-98.29
T7
X124.25Y-86.75
X124.25Y-89.75
X133.25Y-86.75
X133.25Y-89.75
X136.25Y-86.75
X136.25Y-89.75
X145.25Y-86.75
X145.25Y-89.75
X148.25Y-86.75
X148.25Y-89.75
T8
X116.0Y-80.5
X116.0Y-116.5
X180.5Y-80.5
X180.5Y-116.5
T0
M30
