%TF.GenerationSoftware,KiCad,Pcbnew,5.1.9-73d0e3b20d~88~ubuntu18.04.1*%
%TF.CreationDate,2021-01-21T10:29:52+00:00*%
%TF.ProjectId,Object_Detect_Board,4f626a65-6374-45f4-9465-746563745f42,V1.0*%
%TF.SameCoordinates,Original*%
%TF.FileFunction,Soldermask,Bot*%
%TF.FilePolarity,Negative*%
%FSLAX46Y46*%
G04 Gerber Fmt 4.6, Leading zero omitted, Abs format (unit mm)*
G04 Created by KiCad (PCBNEW 5.1.9-73d0e3b20d~88~ubuntu18.04.1) date 2021-01-21 10:29:52*
%MOMM*%
%LPD*%
G01*
G04 APERTURE LIST*
%ADD10C,0.100000*%
%ADD11C,4.400000*%
%ADD12C,0.700000*%
%ADD13C,3.000000*%
%ADD14C,1.500000*%
%ADD15O,1.300000X0.800000*%
%ADD16C,1.308000*%
%ADD17R,1.308000X1.308000*%
%ADD18R,1.280000X1.280000*%
%ADD19C,1.280000*%
%ADD20R,1.700000X1.700000*%
%ADD21O,1.700000X1.700000*%
%ADD22C,0.900000*%
%ADD23R,1.000000X1.000000*%
%ADD24O,1.000000X1.000000*%
G04 APERTURE END LIST*
D10*
G36*
X116250000Y-116500000D02*
G01*
X184750000Y-116500000D01*
X184750000Y-120000000D01*
X112500000Y-119750000D01*
X113250000Y-76750000D01*
X116750000Y-76750000D01*
X116250000Y-116500000D01*
G37*
X116250000Y-116500000D02*
X184750000Y-116500000D01*
X184750000Y-120000000D01*
X112500000Y-119750000D01*
X113250000Y-76750000D01*
X116750000Y-76750000D01*
X116250000Y-116500000D01*
D11*
%TO.C,H1*%
X116000000Y-116500000D03*
D12*
X117650000Y-116500000D03*
X117166726Y-117666726D03*
X116000000Y-118150000D03*
X114833274Y-117666726D03*
X114350000Y-116500000D03*
X114833274Y-115333274D03*
X116000000Y-114850000D03*
X117166726Y-115333274D03*
%TD*%
%TO.C,H2*%
X181666726Y-79333274D03*
X180500000Y-78850000D03*
X179333274Y-79333274D03*
X178850000Y-80500000D03*
X179333274Y-81666726D03*
X180500000Y-82150000D03*
X181666726Y-81666726D03*
X182150000Y-80500000D03*
D11*
X180500000Y-80500000D03*
%TD*%
%TO.C,H3*%
X180500000Y-116500000D03*
D12*
X182150000Y-116500000D03*
X181666726Y-117666726D03*
X180500000Y-118150000D03*
X179333274Y-117666726D03*
X178850000Y-116500000D03*
X179333274Y-115333274D03*
X180500000Y-114850000D03*
X181666726Y-115333274D03*
%TD*%
%TO.C,H4*%
X117166726Y-79333274D03*
X116000000Y-78850000D03*
X114833274Y-79333274D03*
X114350000Y-80500000D03*
X114833274Y-81666726D03*
X116000000Y-82150000D03*
X117166726Y-81666726D03*
X117650000Y-80500000D03*
D11*
X116000000Y-80500000D03*
%TD*%
D13*
%TO.C,J1*%
X124250000Y-82430000D03*
G36*
G01*
X123500000Y-87250000D02*
X123500000Y-86250000D01*
G75*
G02*
X123750000Y-86000000I250000J0D01*
G01*
X124750000Y-86000000D01*
G75*
G02*
X125000000Y-86250000I0J-250000D01*
G01*
X125000000Y-87250000D01*
G75*
G02*
X124750000Y-87500000I-250000J0D01*
G01*
X123750000Y-87500000D01*
G75*
G02*
X123500000Y-87250000I0J250000D01*
G01*
G37*
D14*
X124250000Y-89750000D03*
%TD*%
%TO.C,J2*%
X136250000Y-89750000D03*
X133250000Y-89750000D03*
X136250000Y-86750000D03*
G36*
G01*
X132500000Y-87250000D02*
X132500000Y-86250000D01*
G75*
G02*
X132750000Y-86000000I250000J0D01*
G01*
X133750000Y-86000000D01*
G75*
G02*
X134000000Y-86250000I0J-250000D01*
G01*
X134000000Y-87250000D01*
G75*
G02*
X133750000Y-87500000I-250000J0D01*
G01*
X132750000Y-87500000D01*
G75*
G02*
X132500000Y-87250000I0J250000D01*
G01*
G37*
D13*
X134750000Y-82430000D03*
%TD*%
%TO.C,J3*%
X146750000Y-82430000D03*
G36*
G01*
X144500000Y-87250000D02*
X144500000Y-86250000D01*
G75*
G02*
X144750000Y-86000000I250000J0D01*
G01*
X145750000Y-86000000D01*
G75*
G02*
X146000000Y-86250000I0J-250000D01*
G01*
X146000000Y-87250000D01*
G75*
G02*
X145750000Y-87500000I-250000J0D01*
G01*
X144750000Y-87500000D01*
G75*
G02*
X144500000Y-87250000I0J250000D01*
G01*
G37*
D14*
X148250000Y-86750000D03*
X145250000Y-89750000D03*
X148250000Y-89750000D03*
%TD*%
%TO.C,J4*%
G36*
G01*
X180050000Y-85100000D02*
X180950000Y-85100000D01*
G75*
G02*
X181150000Y-85300000I0J-200000D01*
G01*
X181150000Y-85700000D01*
G75*
G02*
X180950000Y-85900000I-200000J0D01*
G01*
X180050000Y-85900000D01*
G75*
G02*
X179850000Y-85700000I0J200000D01*
G01*
X179850000Y-85300000D01*
G75*
G02*
X180050000Y-85100000I200000J0D01*
G01*
G37*
D15*
X180500000Y-86750000D03*
X180500000Y-88000000D03*
X180500000Y-89250000D03*
%TD*%
D16*
%TO.C,J5*%
X155500000Y-81400000D03*
X158000000Y-81400000D03*
X160500000Y-81400000D03*
D17*
X163000000Y-81400000D03*
%TD*%
D18*
%TO.C,J6*%
X169750000Y-81250000D03*
D19*
X172250000Y-81250000D03*
X174750000Y-81250000D03*
%TD*%
D20*
%TO.C,JP1*%
X150250000Y-95750000D03*
D21*
X150250000Y-98290000D03*
%TD*%
D10*
%TO.C,JP2*%
G36*
X159450000Y-104100000D02*
G01*
X159450000Y-104600000D01*
X159449398Y-104600000D01*
X159449398Y-104624534D01*
X159444588Y-104673365D01*
X159435016Y-104721490D01*
X159420772Y-104768445D01*
X159401995Y-104813778D01*
X159378864Y-104857051D01*
X159351604Y-104897850D01*
X159320476Y-104935779D01*
X159285779Y-104970476D01*
X159247850Y-105001604D01*
X159207051Y-105028864D01*
X159163778Y-105051995D01*
X159118445Y-105070772D01*
X159071490Y-105085016D01*
X159023365Y-105094588D01*
X158974534Y-105099398D01*
X158950000Y-105099398D01*
X158950000Y-105100000D01*
X158450000Y-105100000D01*
X158450000Y-105099398D01*
X158425466Y-105099398D01*
X158376635Y-105094588D01*
X158328510Y-105085016D01*
X158281555Y-105070772D01*
X158236222Y-105051995D01*
X158192949Y-105028864D01*
X158152150Y-105001604D01*
X158114221Y-104970476D01*
X158079524Y-104935779D01*
X158048396Y-104897850D01*
X158021136Y-104857051D01*
X157998005Y-104813778D01*
X157979228Y-104768445D01*
X157964984Y-104721490D01*
X157955412Y-104673365D01*
X157950602Y-104624534D01*
X157950602Y-104600000D01*
X157950000Y-104600000D01*
X157950000Y-104100000D01*
X159450000Y-104100000D01*
G37*
G36*
X157950602Y-103300000D02*
G01*
X157950602Y-103275466D01*
X157955412Y-103226635D01*
X157964984Y-103178510D01*
X157979228Y-103131555D01*
X157998005Y-103086222D01*
X158021136Y-103042949D01*
X158048396Y-103002150D01*
X158079524Y-102964221D01*
X158114221Y-102929524D01*
X158152150Y-102898396D01*
X158192949Y-102871136D01*
X158236222Y-102848005D01*
X158281555Y-102829228D01*
X158328510Y-102814984D01*
X158376635Y-102805412D01*
X158425466Y-102800602D01*
X158450000Y-102800602D01*
X158450000Y-102800000D01*
X158950000Y-102800000D01*
X158950000Y-102800602D01*
X158974534Y-102800602D01*
X159023365Y-102805412D01*
X159071490Y-102814984D01*
X159118445Y-102829228D01*
X159163778Y-102848005D01*
X159207051Y-102871136D01*
X159247850Y-102898396D01*
X159285779Y-102929524D01*
X159320476Y-102964221D01*
X159351604Y-103002150D01*
X159378864Y-103042949D01*
X159401995Y-103086222D01*
X159420772Y-103131555D01*
X159435016Y-103178510D01*
X159444588Y-103226635D01*
X159449398Y-103275466D01*
X159449398Y-103300000D01*
X159450000Y-103300000D01*
X159450000Y-103800000D01*
X157950000Y-103800000D01*
X157950000Y-103300000D01*
X157950602Y-103300000D01*
G37*
%TD*%
%TO.C,JP3*%
G36*
X161950000Y-104100000D02*
G01*
X161950000Y-104600000D01*
X161949398Y-104600000D01*
X161949398Y-104624534D01*
X161944588Y-104673365D01*
X161935016Y-104721490D01*
X161920772Y-104768445D01*
X161901995Y-104813778D01*
X161878864Y-104857051D01*
X161851604Y-104897850D01*
X161820476Y-104935779D01*
X161785779Y-104970476D01*
X161747850Y-105001604D01*
X161707051Y-105028864D01*
X161663778Y-105051995D01*
X161618445Y-105070772D01*
X161571490Y-105085016D01*
X161523365Y-105094588D01*
X161474534Y-105099398D01*
X161450000Y-105099398D01*
X161450000Y-105100000D01*
X160950000Y-105100000D01*
X160950000Y-105099398D01*
X160925466Y-105099398D01*
X160876635Y-105094588D01*
X160828510Y-105085016D01*
X160781555Y-105070772D01*
X160736222Y-105051995D01*
X160692949Y-105028864D01*
X160652150Y-105001604D01*
X160614221Y-104970476D01*
X160579524Y-104935779D01*
X160548396Y-104897850D01*
X160521136Y-104857051D01*
X160498005Y-104813778D01*
X160479228Y-104768445D01*
X160464984Y-104721490D01*
X160455412Y-104673365D01*
X160450602Y-104624534D01*
X160450602Y-104600000D01*
X160450000Y-104600000D01*
X160450000Y-104100000D01*
X161950000Y-104100000D01*
G37*
G36*
X160450602Y-103300000D02*
G01*
X160450602Y-103275466D01*
X160455412Y-103226635D01*
X160464984Y-103178510D01*
X160479228Y-103131555D01*
X160498005Y-103086222D01*
X160521136Y-103042949D01*
X160548396Y-103002150D01*
X160579524Y-102964221D01*
X160614221Y-102929524D01*
X160652150Y-102898396D01*
X160692949Y-102871136D01*
X160736222Y-102848005D01*
X160781555Y-102829228D01*
X160828510Y-102814984D01*
X160876635Y-102805412D01*
X160925466Y-102800602D01*
X160950000Y-102800602D01*
X160950000Y-102800000D01*
X161450000Y-102800000D01*
X161450000Y-102800602D01*
X161474534Y-102800602D01*
X161523365Y-102805412D01*
X161571490Y-102814984D01*
X161618445Y-102829228D01*
X161663778Y-102848005D01*
X161707051Y-102871136D01*
X161747850Y-102898396D01*
X161785779Y-102929524D01*
X161820476Y-102964221D01*
X161851604Y-103002150D01*
X161878864Y-103042949D01*
X161901995Y-103086222D01*
X161920772Y-103131555D01*
X161935016Y-103178510D01*
X161944588Y-103226635D01*
X161949398Y-103275466D01*
X161949398Y-103300000D01*
X161950000Y-103300000D01*
X161950000Y-103800000D01*
X160450000Y-103800000D01*
X160450000Y-103300000D01*
X160450602Y-103300000D01*
G37*
%TD*%
%TO.C,JP4*%
G36*
X164000602Y-103350000D02*
G01*
X164000602Y-103325466D01*
X164005412Y-103276635D01*
X164014984Y-103228510D01*
X164029228Y-103181555D01*
X164048005Y-103136222D01*
X164071136Y-103092949D01*
X164098396Y-103052150D01*
X164129524Y-103014221D01*
X164164221Y-102979524D01*
X164202150Y-102948396D01*
X164242949Y-102921136D01*
X164286222Y-102898005D01*
X164331555Y-102879228D01*
X164378510Y-102864984D01*
X164426635Y-102855412D01*
X164475466Y-102850602D01*
X164500000Y-102850602D01*
X164500000Y-102850000D01*
X165000000Y-102850000D01*
X165000000Y-102850602D01*
X165024534Y-102850602D01*
X165073365Y-102855412D01*
X165121490Y-102864984D01*
X165168445Y-102879228D01*
X165213778Y-102898005D01*
X165257051Y-102921136D01*
X165297850Y-102948396D01*
X165335779Y-102979524D01*
X165370476Y-103014221D01*
X165401604Y-103052150D01*
X165428864Y-103092949D01*
X165451995Y-103136222D01*
X165470772Y-103181555D01*
X165485016Y-103228510D01*
X165494588Y-103276635D01*
X165499398Y-103325466D01*
X165499398Y-103350000D01*
X165500000Y-103350000D01*
X165500000Y-103850000D01*
X164000000Y-103850000D01*
X164000000Y-103350000D01*
X164000602Y-103350000D01*
G37*
G36*
X165500000Y-104150000D02*
G01*
X165500000Y-104650000D01*
X165499398Y-104650000D01*
X165499398Y-104674534D01*
X165494588Y-104723365D01*
X165485016Y-104771490D01*
X165470772Y-104818445D01*
X165451995Y-104863778D01*
X165428864Y-104907051D01*
X165401604Y-104947850D01*
X165370476Y-104985779D01*
X165335779Y-105020476D01*
X165297850Y-105051604D01*
X165257051Y-105078864D01*
X165213778Y-105101995D01*
X165168445Y-105120772D01*
X165121490Y-105135016D01*
X165073365Y-105144588D01*
X165024534Y-105149398D01*
X165000000Y-105149398D01*
X165000000Y-105150000D01*
X164500000Y-105150000D01*
X164500000Y-105149398D01*
X164475466Y-105149398D01*
X164426635Y-105144588D01*
X164378510Y-105135016D01*
X164331555Y-105120772D01*
X164286222Y-105101995D01*
X164242949Y-105078864D01*
X164202150Y-105051604D01*
X164164221Y-105020476D01*
X164129524Y-104985779D01*
X164098396Y-104947850D01*
X164071136Y-104907051D01*
X164048005Y-104863778D01*
X164029228Y-104818445D01*
X164014984Y-104771490D01*
X164005412Y-104723365D01*
X164000602Y-104674534D01*
X164000602Y-104650000D01*
X164000000Y-104650000D01*
X164000000Y-104150000D01*
X165500000Y-104150000D01*
G37*
%TD*%
%TO.C,JP5*%
G36*
X168000000Y-104150000D02*
G01*
X168000000Y-104650000D01*
X167999398Y-104650000D01*
X167999398Y-104674534D01*
X167994588Y-104723365D01*
X167985016Y-104771490D01*
X167970772Y-104818445D01*
X167951995Y-104863778D01*
X167928864Y-104907051D01*
X167901604Y-104947850D01*
X167870476Y-104985779D01*
X167835779Y-105020476D01*
X167797850Y-105051604D01*
X167757051Y-105078864D01*
X167713778Y-105101995D01*
X167668445Y-105120772D01*
X167621490Y-105135016D01*
X167573365Y-105144588D01*
X167524534Y-105149398D01*
X167500000Y-105149398D01*
X167500000Y-105150000D01*
X167000000Y-105150000D01*
X167000000Y-105149398D01*
X166975466Y-105149398D01*
X166926635Y-105144588D01*
X166878510Y-105135016D01*
X166831555Y-105120772D01*
X166786222Y-105101995D01*
X166742949Y-105078864D01*
X166702150Y-105051604D01*
X166664221Y-105020476D01*
X166629524Y-104985779D01*
X166598396Y-104947850D01*
X166571136Y-104907051D01*
X166548005Y-104863778D01*
X166529228Y-104818445D01*
X166514984Y-104771490D01*
X166505412Y-104723365D01*
X166500602Y-104674534D01*
X166500602Y-104650000D01*
X166500000Y-104650000D01*
X166500000Y-104150000D01*
X168000000Y-104150000D01*
G37*
G36*
X166500602Y-103350000D02*
G01*
X166500602Y-103325466D01*
X166505412Y-103276635D01*
X166514984Y-103228510D01*
X166529228Y-103181555D01*
X166548005Y-103136222D01*
X166571136Y-103092949D01*
X166598396Y-103052150D01*
X166629524Y-103014221D01*
X166664221Y-102979524D01*
X166702150Y-102948396D01*
X166742949Y-102921136D01*
X166786222Y-102898005D01*
X166831555Y-102879228D01*
X166878510Y-102864984D01*
X166926635Y-102855412D01*
X166975466Y-102850602D01*
X167000000Y-102850602D01*
X167000000Y-102850000D01*
X167500000Y-102850000D01*
X167500000Y-102850602D01*
X167524534Y-102850602D01*
X167573365Y-102855412D01*
X167621490Y-102864984D01*
X167668445Y-102879228D01*
X167713778Y-102898005D01*
X167757051Y-102921136D01*
X167797850Y-102948396D01*
X167835779Y-102979524D01*
X167870476Y-103014221D01*
X167901604Y-103052150D01*
X167928864Y-103092949D01*
X167951995Y-103136222D01*
X167970772Y-103181555D01*
X167985016Y-103228510D01*
X167994588Y-103276635D01*
X167999398Y-103325466D01*
X167999398Y-103350000D01*
X168000000Y-103350000D01*
X168000000Y-103850000D01*
X166500000Y-103850000D01*
X166500000Y-103350000D01*
X166500602Y-103350000D01*
G37*
%TD*%
%TO.C,JP6*%
G36*
X179000000Y-104150000D02*
G01*
X179000000Y-104650000D01*
X178999398Y-104650000D01*
X178999398Y-104674534D01*
X178994588Y-104723365D01*
X178985016Y-104771490D01*
X178970772Y-104818445D01*
X178951995Y-104863778D01*
X178928864Y-104907051D01*
X178901604Y-104947850D01*
X178870476Y-104985779D01*
X178835779Y-105020476D01*
X178797850Y-105051604D01*
X178757051Y-105078864D01*
X178713778Y-105101995D01*
X178668445Y-105120772D01*
X178621490Y-105135016D01*
X178573365Y-105144588D01*
X178524534Y-105149398D01*
X178500000Y-105149398D01*
X178500000Y-105150000D01*
X178000000Y-105150000D01*
X178000000Y-105149398D01*
X177975466Y-105149398D01*
X177926635Y-105144588D01*
X177878510Y-105135016D01*
X177831555Y-105120772D01*
X177786222Y-105101995D01*
X177742949Y-105078864D01*
X177702150Y-105051604D01*
X177664221Y-105020476D01*
X177629524Y-104985779D01*
X177598396Y-104947850D01*
X177571136Y-104907051D01*
X177548005Y-104863778D01*
X177529228Y-104818445D01*
X177514984Y-104771490D01*
X177505412Y-104723365D01*
X177500602Y-104674534D01*
X177500602Y-104650000D01*
X177500000Y-104650000D01*
X177500000Y-104150000D01*
X179000000Y-104150000D01*
G37*
G36*
X177500602Y-103350000D02*
G01*
X177500602Y-103325466D01*
X177505412Y-103276635D01*
X177514984Y-103228510D01*
X177529228Y-103181555D01*
X177548005Y-103136222D01*
X177571136Y-103092949D01*
X177598396Y-103052150D01*
X177629524Y-103014221D01*
X177664221Y-102979524D01*
X177702150Y-102948396D01*
X177742949Y-102921136D01*
X177786222Y-102898005D01*
X177831555Y-102879228D01*
X177878510Y-102864984D01*
X177926635Y-102855412D01*
X177975466Y-102850602D01*
X178000000Y-102850602D01*
X178000000Y-102850000D01*
X178500000Y-102850000D01*
X178500000Y-102850602D01*
X178524534Y-102850602D01*
X178573365Y-102855412D01*
X178621490Y-102864984D01*
X178668445Y-102879228D01*
X178713778Y-102898005D01*
X178757051Y-102921136D01*
X178797850Y-102948396D01*
X178835779Y-102979524D01*
X178870476Y-103014221D01*
X178901604Y-103052150D01*
X178928864Y-103092949D01*
X178951995Y-103136222D01*
X178970772Y-103181555D01*
X178985016Y-103228510D01*
X178994588Y-103276635D01*
X178999398Y-103325466D01*
X178999398Y-103350000D01*
X179000000Y-103350000D01*
X179000000Y-103850000D01*
X177500000Y-103850000D01*
X177500000Y-103350000D01*
X177500602Y-103350000D01*
G37*
%TD*%
%TO.C,JP7*%
G36*
X180000602Y-103350000D02*
G01*
X180000602Y-103325466D01*
X180005412Y-103276635D01*
X180014984Y-103228510D01*
X180029228Y-103181555D01*
X180048005Y-103136222D01*
X180071136Y-103092949D01*
X180098396Y-103052150D01*
X180129524Y-103014221D01*
X180164221Y-102979524D01*
X180202150Y-102948396D01*
X180242949Y-102921136D01*
X180286222Y-102898005D01*
X180331555Y-102879228D01*
X180378510Y-102864984D01*
X180426635Y-102855412D01*
X180475466Y-102850602D01*
X180500000Y-102850602D01*
X180500000Y-102850000D01*
X181000000Y-102850000D01*
X181000000Y-102850602D01*
X181024534Y-102850602D01*
X181073365Y-102855412D01*
X181121490Y-102864984D01*
X181168445Y-102879228D01*
X181213778Y-102898005D01*
X181257051Y-102921136D01*
X181297850Y-102948396D01*
X181335779Y-102979524D01*
X181370476Y-103014221D01*
X181401604Y-103052150D01*
X181428864Y-103092949D01*
X181451995Y-103136222D01*
X181470772Y-103181555D01*
X181485016Y-103228510D01*
X181494588Y-103276635D01*
X181499398Y-103325466D01*
X181499398Y-103350000D01*
X181500000Y-103350000D01*
X181500000Y-103850000D01*
X180000000Y-103850000D01*
X180000000Y-103350000D01*
X180000602Y-103350000D01*
G37*
G36*
X181500000Y-104150000D02*
G01*
X181500000Y-104650000D01*
X181499398Y-104650000D01*
X181499398Y-104674534D01*
X181494588Y-104723365D01*
X181485016Y-104771490D01*
X181470772Y-104818445D01*
X181451995Y-104863778D01*
X181428864Y-104907051D01*
X181401604Y-104947850D01*
X181370476Y-104985779D01*
X181335779Y-105020476D01*
X181297850Y-105051604D01*
X181257051Y-105078864D01*
X181213778Y-105101995D01*
X181168445Y-105120772D01*
X181121490Y-105135016D01*
X181073365Y-105144588D01*
X181024534Y-105149398D01*
X181000000Y-105149398D01*
X181000000Y-105150000D01*
X180500000Y-105150000D01*
X180500000Y-105149398D01*
X180475466Y-105149398D01*
X180426635Y-105144588D01*
X180378510Y-105135016D01*
X180331555Y-105120772D01*
X180286222Y-105101995D01*
X180242949Y-105078864D01*
X180202150Y-105051604D01*
X180164221Y-105020476D01*
X180129524Y-104985779D01*
X180098396Y-104947850D01*
X180071136Y-104907051D01*
X180048005Y-104863778D01*
X180029228Y-104818445D01*
X180014984Y-104771490D01*
X180005412Y-104723365D01*
X180000602Y-104674534D01*
X180000602Y-104650000D01*
X180000000Y-104650000D01*
X180000000Y-104150000D01*
X181500000Y-104150000D01*
G37*
%TD*%
%TO.C,JP8*%
G36*
X171250602Y-103350000D02*
G01*
X171250602Y-103325466D01*
X171255412Y-103276635D01*
X171264984Y-103228510D01*
X171279228Y-103181555D01*
X171298005Y-103136222D01*
X171321136Y-103092949D01*
X171348396Y-103052150D01*
X171379524Y-103014221D01*
X171414221Y-102979524D01*
X171452150Y-102948396D01*
X171492949Y-102921136D01*
X171536222Y-102898005D01*
X171581555Y-102879228D01*
X171628510Y-102864984D01*
X171676635Y-102855412D01*
X171725466Y-102850602D01*
X171750000Y-102850602D01*
X171750000Y-102850000D01*
X172250000Y-102850000D01*
X172250000Y-102850602D01*
X172274534Y-102850602D01*
X172323365Y-102855412D01*
X172371490Y-102864984D01*
X172418445Y-102879228D01*
X172463778Y-102898005D01*
X172507051Y-102921136D01*
X172547850Y-102948396D01*
X172585779Y-102979524D01*
X172620476Y-103014221D01*
X172651604Y-103052150D01*
X172678864Y-103092949D01*
X172701995Y-103136222D01*
X172720772Y-103181555D01*
X172735016Y-103228510D01*
X172744588Y-103276635D01*
X172749398Y-103325466D01*
X172749398Y-103350000D01*
X172750000Y-103350000D01*
X172750000Y-103850000D01*
X171250000Y-103850000D01*
X171250000Y-103350000D01*
X171250602Y-103350000D01*
G37*
G36*
X172750000Y-104150000D02*
G01*
X172750000Y-104650000D01*
X172749398Y-104650000D01*
X172749398Y-104674534D01*
X172744588Y-104723365D01*
X172735016Y-104771490D01*
X172720772Y-104818445D01*
X172701995Y-104863778D01*
X172678864Y-104907051D01*
X172651604Y-104947850D01*
X172620476Y-104985779D01*
X172585779Y-105020476D01*
X172547850Y-105051604D01*
X172507051Y-105078864D01*
X172463778Y-105101995D01*
X172418445Y-105120772D01*
X172371490Y-105135016D01*
X172323365Y-105144588D01*
X172274534Y-105149398D01*
X172250000Y-105149398D01*
X172250000Y-105150000D01*
X171750000Y-105150000D01*
X171750000Y-105149398D01*
X171725466Y-105149398D01*
X171676635Y-105144588D01*
X171628510Y-105135016D01*
X171581555Y-105120772D01*
X171536222Y-105101995D01*
X171492949Y-105078864D01*
X171452150Y-105051604D01*
X171414221Y-105020476D01*
X171379524Y-104985779D01*
X171348396Y-104947850D01*
X171321136Y-104907051D01*
X171298005Y-104863778D01*
X171279228Y-104818445D01*
X171264984Y-104771490D01*
X171255412Y-104723365D01*
X171250602Y-104674534D01*
X171250602Y-104650000D01*
X171250000Y-104650000D01*
X171250000Y-104150000D01*
X172750000Y-104150000D01*
G37*
%TD*%
%TO.C,JP9*%
G36*
X175250000Y-104150000D02*
G01*
X175250000Y-104650000D01*
X175249398Y-104650000D01*
X175249398Y-104674534D01*
X175244588Y-104723365D01*
X175235016Y-104771490D01*
X175220772Y-104818445D01*
X175201995Y-104863778D01*
X175178864Y-104907051D01*
X175151604Y-104947850D01*
X175120476Y-104985779D01*
X175085779Y-105020476D01*
X175047850Y-105051604D01*
X175007051Y-105078864D01*
X174963778Y-105101995D01*
X174918445Y-105120772D01*
X174871490Y-105135016D01*
X174823365Y-105144588D01*
X174774534Y-105149398D01*
X174750000Y-105149398D01*
X174750000Y-105150000D01*
X174250000Y-105150000D01*
X174250000Y-105149398D01*
X174225466Y-105149398D01*
X174176635Y-105144588D01*
X174128510Y-105135016D01*
X174081555Y-105120772D01*
X174036222Y-105101995D01*
X173992949Y-105078864D01*
X173952150Y-105051604D01*
X173914221Y-105020476D01*
X173879524Y-104985779D01*
X173848396Y-104947850D01*
X173821136Y-104907051D01*
X173798005Y-104863778D01*
X173779228Y-104818445D01*
X173764984Y-104771490D01*
X173755412Y-104723365D01*
X173750602Y-104674534D01*
X173750602Y-104650000D01*
X173750000Y-104650000D01*
X173750000Y-104150000D01*
X175250000Y-104150000D01*
G37*
G36*
X173750602Y-103350000D02*
G01*
X173750602Y-103325466D01*
X173755412Y-103276635D01*
X173764984Y-103228510D01*
X173779228Y-103181555D01*
X173798005Y-103136222D01*
X173821136Y-103092949D01*
X173848396Y-103052150D01*
X173879524Y-103014221D01*
X173914221Y-102979524D01*
X173952150Y-102948396D01*
X173992949Y-102921136D01*
X174036222Y-102898005D01*
X174081555Y-102879228D01*
X174128510Y-102864984D01*
X174176635Y-102855412D01*
X174225466Y-102850602D01*
X174250000Y-102850602D01*
X174250000Y-102850000D01*
X174750000Y-102850000D01*
X174750000Y-102850602D01*
X174774534Y-102850602D01*
X174823365Y-102855412D01*
X174871490Y-102864984D01*
X174918445Y-102879228D01*
X174963778Y-102898005D01*
X175007051Y-102921136D01*
X175047850Y-102948396D01*
X175085779Y-102979524D01*
X175120476Y-103014221D01*
X175151604Y-103052150D01*
X175178864Y-103092949D01*
X175201995Y-103136222D01*
X175220772Y-103181555D01*
X175235016Y-103228510D01*
X175244588Y-103276635D01*
X175249398Y-103325466D01*
X175249398Y-103350000D01*
X175250000Y-103350000D01*
X175250000Y-103850000D01*
X173750000Y-103850000D01*
X173750000Y-103350000D01*
X173750602Y-103350000D01*
G37*
%TD*%
%TO.C,JP10*%
G36*
X164249398Y-91400000D02*
G01*
X164249398Y-91424534D01*
X164244588Y-91473365D01*
X164235016Y-91521490D01*
X164220772Y-91568445D01*
X164201995Y-91613778D01*
X164178864Y-91657051D01*
X164151604Y-91697850D01*
X164120476Y-91735779D01*
X164085779Y-91770476D01*
X164047850Y-91801604D01*
X164007051Y-91828864D01*
X163963778Y-91851995D01*
X163918445Y-91870772D01*
X163871490Y-91885016D01*
X163823365Y-91894588D01*
X163774534Y-91899398D01*
X163750000Y-91899398D01*
X163750000Y-91900000D01*
X163250000Y-91900000D01*
X163250000Y-91899398D01*
X163225466Y-91899398D01*
X163176635Y-91894588D01*
X163128510Y-91885016D01*
X163081555Y-91870772D01*
X163036222Y-91851995D01*
X162992949Y-91828864D01*
X162952150Y-91801604D01*
X162914221Y-91770476D01*
X162879524Y-91735779D01*
X162848396Y-91697850D01*
X162821136Y-91657051D01*
X162798005Y-91613778D01*
X162779228Y-91568445D01*
X162764984Y-91521490D01*
X162755412Y-91473365D01*
X162750602Y-91424534D01*
X162750602Y-91400000D01*
X162750000Y-91400000D01*
X162750000Y-90900000D01*
X164250000Y-90900000D01*
X164250000Y-91400000D01*
X164249398Y-91400000D01*
G37*
G36*
X162750000Y-90600000D02*
G01*
X162750000Y-90100000D01*
X162750602Y-90100000D01*
X162750602Y-90075466D01*
X162755412Y-90026635D01*
X162764984Y-89978510D01*
X162779228Y-89931555D01*
X162798005Y-89886222D01*
X162821136Y-89842949D01*
X162848396Y-89802150D01*
X162879524Y-89764221D01*
X162914221Y-89729524D01*
X162952150Y-89698396D01*
X162992949Y-89671136D01*
X163036222Y-89648005D01*
X163081555Y-89629228D01*
X163128510Y-89614984D01*
X163176635Y-89605412D01*
X163225466Y-89600602D01*
X163250000Y-89600602D01*
X163250000Y-89600000D01*
X163750000Y-89600000D01*
X163750000Y-89600602D01*
X163774534Y-89600602D01*
X163823365Y-89605412D01*
X163871490Y-89614984D01*
X163918445Y-89629228D01*
X163963778Y-89648005D01*
X164007051Y-89671136D01*
X164047850Y-89698396D01*
X164085779Y-89729524D01*
X164120476Y-89764221D01*
X164151604Y-89802150D01*
X164178864Y-89842949D01*
X164201995Y-89886222D01*
X164220772Y-89931555D01*
X164235016Y-89978510D01*
X164244588Y-90026635D01*
X164249398Y-90075466D01*
X164249398Y-90100000D01*
X164250000Y-90100000D01*
X164250000Y-90600000D01*
X162750000Y-90600000D01*
G37*
%TD*%
%TO.C,JP11*%
G36*
X160250000Y-90600000D02*
G01*
X160250000Y-90100000D01*
X160250602Y-90100000D01*
X160250602Y-90075466D01*
X160255412Y-90026635D01*
X160264984Y-89978510D01*
X160279228Y-89931555D01*
X160298005Y-89886222D01*
X160321136Y-89842949D01*
X160348396Y-89802150D01*
X160379524Y-89764221D01*
X160414221Y-89729524D01*
X160452150Y-89698396D01*
X160492949Y-89671136D01*
X160536222Y-89648005D01*
X160581555Y-89629228D01*
X160628510Y-89614984D01*
X160676635Y-89605412D01*
X160725466Y-89600602D01*
X160750000Y-89600602D01*
X160750000Y-89600000D01*
X161250000Y-89600000D01*
X161250000Y-89600602D01*
X161274534Y-89600602D01*
X161323365Y-89605412D01*
X161371490Y-89614984D01*
X161418445Y-89629228D01*
X161463778Y-89648005D01*
X161507051Y-89671136D01*
X161547850Y-89698396D01*
X161585779Y-89729524D01*
X161620476Y-89764221D01*
X161651604Y-89802150D01*
X161678864Y-89842949D01*
X161701995Y-89886222D01*
X161720772Y-89931555D01*
X161735016Y-89978510D01*
X161744588Y-90026635D01*
X161749398Y-90075466D01*
X161749398Y-90100000D01*
X161750000Y-90100000D01*
X161750000Y-90600000D01*
X160250000Y-90600000D01*
G37*
G36*
X161749398Y-91400000D02*
G01*
X161749398Y-91424534D01*
X161744588Y-91473365D01*
X161735016Y-91521490D01*
X161720772Y-91568445D01*
X161701995Y-91613778D01*
X161678864Y-91657051D01*
X161651604Y-91697850D01*
X161620476Y-91735779D01*
X161585779Y-91770476D01*
X161547850Y-91801604D01*
X161507051Y-91828864D01*
X161463778Y-91851995D01*
X161418445Y-91870772D01*
X161371490Y-91885016D01*
X161323365Y-91894588D01*
X161274534Y-91899398D01*
X161250000Y-91899398D01*
X161250000Y-91900000D01*
X160750000Y-91900000D01*
X160750000Y-91899398D01*
X160725466Y-91899398D01*
X160676635Y-91894588D01*
X160628510Y-91885016D01*
X160581555Y-91870772D01*
X160536222Y-91851995D01*
X160492949Y-91828864D01*
X160452150Y-91801604D01*
X160414221Y-91770476D01*
X160379524Y-91735779D01*
X160348396Y-91697850D01*
X160321136Y-91657051D01*
X160298005Y-91613778D01*
X160279228Y-91568445D01*
X160264984Y-91521490D01*
X160255412Y-91473365D01*
X160250602Y-91424534D01*
X160250602Y-91400000D01*
X160250000Y-91400000D01*
X160250000Y-90900000D01*
X161750000Y-90900000D01*
X161750000Y-91400000D01*
X161749398Y-91400000D01*
G37*
%TD*%
%TO.C,JP12*%
G36*
X169999398Y-91400000D02*
G01*
X169999398Y-91424534D01*
X169994588Y-91473365D01*
X169985016Y-91521490D01*
X169970772Y-91568445D01*
X169951995Y-91613778D01*
X169928864Y-91657051D01*
X169901604Y-91697850D01*
X169870476Y-91735779D01*
X169835779Y-91770476D01*
X169797850Y-91801604D01*
X169757051Y-91828864D01*
X169713778Y-91851995D01*
X169668445Y-91870772D01*
X169621490Y-91885016D01*
X169573365Y-91894588D01*
X169524534Y-91899398D01*
X169500000Y-91899398D01*
X169500000Y-91900000D01*
X169000000Y-91900000D01*
X169000000Y-91899398D01*
X168975466Y-91899398D01*
X168926635Y-91894588D01*
X168878510Y-91885016D01*
X168831555Y-91870772D01*
X168786222Y-91851995D01*
X168742949Y-91828864D01*
X168702150Y-91801604D01*
X168664221Y-91770476D01*
X168629524Y-91735779D01*
X168598396Y-91697850D01*
X168571136Y-91657051D01*
X168548005Y-91613778D01*
X168529228Y-91568445D01*
X168514984Y-91521490D01*
X168505412Y-91473365D01*
X168500602Y-91424534D01*
X168500602Y-91400000D01*
X168500000Y-91400000D01*
X168500000Y-90900000D01*
X170000000Y-90900000D01*
X170000000Y-91400000D01*
X169999398Y-91400000D01*
G37*
G36*
X168500000Y-90600000D02*
G01*
X168500000Y-90100000D01*
X168500602Y-90100000D01*
X168500602Y-90075466D01*
X168505412Y-90026635D01*
X168514984Y-89978510D01*
X168529228Y-89931555D01*
X168548005Y-89886222D01*
X168571136Y-89842949D01*
X168598396Y-89802150D01*
X168629524Y-89764221D01*
X168664221Y-89729524D01*
X168702150Y-89698396D01*
X168742949Y-89671136D01*
X168786222Y-89648005D01*
X168831555Y-89629228D01*
X168878510Y-89614984D01*
X168926635Y-89605412D01*
X168975466Y-89600602D01*
X169000000Y-89600602D01*
X169000000Y-89600000D01*
X169500000Y-89600000D01*
X169500000Y-89600602D01*
X169524534Y-89600602D01*
X169573365Y-89605412D01*
X169621490Y-89614984D01*
X169668445Y-89629228D01*
X169713778Y-89648005D01*
X169757051Y-89671136D01*
X169797850Y-89698396D01*
X169835779Y-89729524D01*
X169870476Y-89764221D01*
X169901604Y-89802150D01*
X169928864Y-89842949D01*
X169951995Y-89886222D01*
X169970772Y-89931555D01*
X169985016Y-89978510D01*
X169994588Y-90026635D01*
X169999398Y-90075466D01*
X169999398Y-90100000D01*
X170000000Y-90100000D01*
X170000000Y-90600000D01*
X168500000Y-90600000D01*
G37*
%TD*%
%TO.C,JP13*%
G36*
X172499398Y-91400000D02*
G01*
X172499398Y-91424534D01*
X172494588Y-91473365D01*
X172485016Y-91521490D01*
X172470772Y-91568445D01*
X172451995Y-91613778D01*
X172428864Y-91657051D01*
X172401604Y-91697850D01*
X172370476Y-91735779D01*
X172335779Y-91770476D01*
X172297850Y-91801604D01*
X172257051Y-91828864D01*
X172213778Y-91851995D01*
X172168445Y-91870772D01*
X172121490Y-91885016D01*
X172073365Y-91894588D01*
X172024534Y-91899398D01*
X172000000Y-91899398D01*
X172000000Y-91900000D01*
X171500000Y-91900000D01*
X171500000Y-91899398D01*
X171475466Y-91899398D01*
X171426635Y-91894588D01*
X171378510Y-91885016D01*
X171331555Y-91870772D01*
X171286222Y-91851995D01*
X171242949Y-91828864D01*
X171202150Y-91801604D01*
X171164221Y-91770476D01*
X171129524Y-91735779D01*
X171098396Y-91697850D01*
X171071136Y-91657051D01*
X171048005Y-91613778D01*
X171029228Y-91568445D01*
X171014984Y-91521490D01*
X171005412Y-91473365D01*
X171000602Y-91424534D01*
X171000602Y-91400000D01*
X171000000Y-91400000D01*
X171000000Y-90900000D01*
X172500000Y-90900000D01*
X172500000Y-91400000D01*
X172499398Y-91400000D01*
G37*
G36*
X171000000Y-90600000D02*
G01*
X171000000Y-90100000D01*
X171000602Y-90100000D01*
X171000602Y-90075466D01*
X171005412Y-90026635D01*
X171014984Y-89978510D01*
X171029228Y-89931555D01*
X171048005Y-89886222D01*
X171071136Y-89842949D01*
X171098396Y-89802150D01*
X171129524Y-89764221D01*
X171164221Y-89729524D01*
X171202150Y-89698396D01*
X171242949Y-89671136D01*
X171286222Y-89648005D01*
X171331555Y-89629228D01*
X171378510Y-89614984D01*
X171426635Y-89605412D01*
X171475466Y-89600602D01*
X171500000Y-89600602D01*
X171500000Y-89600000D01*
X172000000Y-89600000D01*
X172000000Y-89600602D01*
X172024534Y-89600602D01*
X172073365Y-89605412D01*
X172121490Y-89614984D01*
X172168445Y-89629228D01*
X172213778Y-89648005D01*
X172257051Y-89671136D01*
X172297850Y-89698396D01*
X172335779Y-89729524D01*
X172370476Y-89764221D01*
X172401604Y-89802150D01*
X172428864Y-89842949D01*
X172451995Y-89886222D01*
X172470772Y-89931555D01*
X172485016Y-89978510D01*
X172494588Y-90026635D01*
X172499398Y-90075466D01*
X172499398Y-90100000D01*
X172500000Y-90100000D01*
X172500000Y-90600000D01*
X171000000Y-90600000D01*
G37*
%TD*%
D22*
%TO.C,SW2*%
X181330000Y-97250000D03*
X181330000Y-94250000D03*
%TD*%
D23*
%TO.C,J7*%
X148250000Y-115000000D03*
D24*
X149520000Y-115000000D03*
X150790000Y-115000000D03*
X152060000Y-115000000D03*
%TD*%
M02*
